<?xml version="1.0" encoding="UTF-8"?>
<svg xmlns="http://www.w3.org/2000/svg" width="800" height="600" xmlns:xlink="http://www.w3.org/1999/xlink" viewBox="0 0 800 600">
  <defs>
    <linearGradient id="New_Gradient_Swatch_1" data-name="New Gradient Swatch 1" x1="306.15" y1="319.21" x2="315.69" y2="302.08" gradientUnits="userSpaceOnUse">
      <stop offset="0" stop-color="#040919"/>
      <stop offset=".05" stop-color="#080c28"/>
      <stop offset=".24" stop-color="#1a1762"/>
      <stop offset=".42" stop-color="#282092"/>
      <stop offset=".59" stop-color="#3427b7"/>
      <stop offset=".75" stop-color="#3c2cd2"/>
      <stop offset=".89" stop-color="#412fe2"/>
      <stop offset="1" stop-color="#4331e8"/>
    </linearGradient>
    <linearGradient id="linear-gradient" x1="138.4" y1="246.63" x2="454.94" y2="246.63" gradientUnits="userSpaceOnUse">
      <stop offset="0" stop-color="#d0d3f5"/>
      <stop offset=".06" stop-color="#d0d3f5" stop-opacity=".78"/>
      <stop offset=".14" stop-color="#d0d3f5" stop-opacity=".55"/>
      <stop offset=".21" stop-color="#d0d3f5" stop-opacity=".35"/>
      <stop offset=".28" stop-color="#d0d3f5" stop-opacity=".2"/>
      <stop offset=".35" stop-color="#d0d3f5" stop-opacity=".09"/>
      <stop offset=".4" stop-color="#d0d3f5" stop-opacity=".02"/>
      <stop offset=".45" stop-color="#d0d3f5" stop-opacity="0"/>
    </linearGradient>
    <linearGradient id="linear-gradient-2" x1="609.18" y1="322.33" x2="618.09" y2="337.3" gradientUnits="userSpaceOnUse">
      <stop offset="0" stop-color="#bcc0e5"/>
      <stop offset="1" stop-color="#bcc0e5" stop-opacity="0"/>
    </linearGradient>
    <linearGradient id="linear-gradient-3" x1="530.61" y1="298.37" x2="539.76" y2="313.73" xlink:href="#linear-gradient-2"/>
    <linearGradient id="linear-gradient-4" x1="472.71" y1="433.76" x2="623.99" y2="433.76" xlink:href="#linear-gradient"/>
    <linearGradient id="linear-gradient-5" x1="511.93" y1="385.92" x2="584.77" y2="385.92" gradientUnits="userSpaceOnUse">
      <stop offset="0" stop-color="#d0d3f5"/>
      <stop offset=".15" stop-color="#d0d3f5" stop-opacity=".69"/>
      <stop offset=".34" stop-color="#d0d3f5" stop-opacity=".32"/>
      <stop offset=".48" stop-color="#d0d3f5" stop-opacity=".09"/>
      <stop offset=".54" stop-color="#d0d3f5" stop-opacity="0"/>
    </linearGradient>
    <linearGradient id="linear-gradient-6" y1="375.4" y2="375.4" xlink:href="#linear-gradient-5"/>
    <linearGradient id="New_Gradient_Swatch_1-2" data-name="New Gradient Swatch 1" x1="410.81" y1="501.08" x2="421.92" y2="501.08" xlink:href="#New_Gradient_Swatch_1"/>
    <linearGradient id="linear-gradient-7" x1="444.47" y1="444.35" x2="436.93" y2="456.55" gradientUnits="userSpaceOnUse">
      <stop offset="0" stop-color="#040919"/>
      <stop offset=".05" stop-color="#080c28"/>
      <stop offset=".24" stop-color="#1a1762"/>
      <stop offset=".42" stop-color="#282092"/>
      <stop offset=".59" stop-color="#3427b7"/>
      <stop offset=".75" stop-color="#3c2cd2"/>
      <stop offset=".89" stop-color="#412fe2"/>
      <stop offset="1" stop-color="#4331e8"/>
    </linearGradient>
    <linearGradient id="linear-gradient-8" x1="445.03" y1="366.78" x2="445.02" y2="366.79" xlink:href="#linear-gradient-7"/>
  </defs>
  <g id="BG">
    <rect y="0" width="800" height="600" fill="#fff"/>
  </g>
  <g id="Light">
    <g>
      <g>
        <polygon points="296.43 428.15 454.94 336.63 388.77 298.43 296.67 351.61 204.32 298.29 137.91 336.63 296.43 428.15" fill="url(#New_Gradient_Swatch_1)"/>
        <polygon points="445.92 341.84 454.94 336.63 388.77 298.43 379.76 303.64 445.92 341.84" fill="#4331e8"/>
        <polygon points="146.93 341.84 213.34 303.5 204.32 298.29 137.91 336.63 146.93 341.84" fill="#4331e8"/>
        <polygon points="429.55 351.29 445.92 341.84 379.76 303.64 363.39 313.09 429.55 351.29" fill="#040919"/>
        <polygon points="163.3 351.29 229.71 312.95 213.34 303.5 146.93 341.84 163.3 351.29" fill="#040919"/>
        <polygon points="146.93 341.84 213.34 303.5 204.32 298.29 137.91 336.63 146.93 341.84" fill="#040919"/>
        <g>
          <path d="M296.24,346.42v11.97c0,1.26,.81,2.52,2.46,3.48,3.29,1.92,8.65,1.92,11.97,0,1.66-.96,2.49-2.22,2.5-3.48h0v-19.73" fill="none" stroke="#666bff" stroke-linecap="round" stroke-linejoin="round"/>
          <path d="M369.2,309.73v8.23c0,1.26,.81,2.52,2.46,3.48,3.29,1.92,8.65,1.92,11.97,0,1.66-.96,2.49-2.22,2.5-3.48h0v-18" fill="none" stroke="#666bff" stroke-linecap="round" stroke-linejoin="round"/>
          <path d="M266.31,334.08v26.6c0,1.26,.81,2.52,2.46,3.48,3.29,1.92,8.65,1.92,11.97,0,1.66-.96,2.49-2.22,2.5-3.48h0v-16.83" fill="none" stroke="#666bff" stroke-linecap="round" stroke-linejoin="round"/>
          <path d="M203.93,298.07v22.33c0,1.26,.81,2.52,2.46,3.48,3.29,1.92,8.65,1.92,11.97,0,1.66-.96,2.49-2.22,2.5-3.48h0v-12.56" fill="none" stroke="#666bff" stroke-linecap="round" stroke-linejoin="round"/>
          <g>
            <path d="M310.62,367.41c-3.32-1.92-8.67-1.92-11.96,0-3.29,1.92-3.28,5.04,.04,6.96,3.32,1.92,8.67,1.92,11.97,0,3.29-1.92,3.28-5.04-.04-6.96Z" fill="none" stroke="#666bff" stroke-linecap="round" stroke-linejoin="round"/>
            <path d="M313.12,370.89v18.12c0,1.25-.82,2.51-2.46,3.46-3.29,1.92-8.65,1.92-11.97,0-1.66-.96-2.5-2.23-2.5-3.5v-18.09" fill="none" stroke="#666bff" stroke-linecap="round" stroke-linejoin="round"/>
          </g>
          <g>
            <path d="M280.73,382.38c-3.32-1.92-8.67-1.92-11.96,0-3.29,1.92-3.28,5.04,.04,6.96,3.32,1.92,8.67,1.92,11.97,0,3.29-1.92,3.28-5.04-.04-6.96Z" fill="none" stroke="#666bff" stroke-linecap="round" stroke-linejoin="round"/>
            <line x1="266.31" y1="409.76" x2="266.31" y2="385.86" fill="none" stroke="#666bff" stroke-linecap="round" stroke-linejoin="round"/>
            <line x1="283.23" y1="385.86" x2="283.23" y2="419.8" fill="none" stroke="#666bff" stroke-linecap="round" stroke-linejoin="round"/>
          </g>
          <g>
            <path d="M383.63,329c-3.32-1.92-8.67-1.92-11.96,0-3.29,1.92-3.28,5.04,.04,6.96,3.32,1.92,8.67,1.92,11.97,0,3.29-1.92,3.28-5.04-.04-6.96Z" fill="none" stroke="#666bff" stroke-linecap="round" stroke-linejoin="round"/>
            <path d="M386.12,332.48v11.12c0,1.25-.82,2.51-2.46,3.46-3.29,1.92-8.65,1.92-11.97,0-1.66-.96-2.5-2.23-2.5-3.5v-11.09" fill="none" stroke="#666bff" stroke-linecap="round" stroke-linejoin="round"/>
          </g>
        </g>
      </g>
      <g>
        <polygon points="296.67 155.26 138.4 246.63 296.67 338.01 454.94 246.63 296.67 155.26" fill="url(#linear-gradient)"/>
        <g opacity=".25">
          <circle cx="232.34" cy="241.29" r=".7" fill="#040919"/>
          <circle cx="240.38" cy="245.93" r=".7" fill="#040919"/>
          <circle cx="232.34" cy="250.58" r=".7" fill="#040919"/>
          <circle cx="248.42" cy="250.58" r=".7" fill="#040919"/>
          <circle cx="240.38" cy="255.22" r=".7" fill="#040919"/>
          <circle cx="232.34" cy="259.86" r=".7" fill="#040919"/>
          <circle cx="256.46" cy="255.22" r=".7" fill="#040919"/>
          <circle cx="248.42" cy="259.86" r=".7" fill="#040919"/>
          <circle cx="240.38" cy="264.5" r=".7" fill="#040919"/>
          <circle cx="232.34" cy="269.15" r=".7" fill="#040919"/>
          <circle cx="256.46" cy="264.5" r=".7" fill="#040919"/>
          <circle cx="248.42" cy="269.15" r=".7" fill="#040919"/>
          <circle cx="264.5" cy="259.86" r=".7" fill="#040919"/>
          <circle cx="240.38" cy="273.79" r=".7" fill="#040919"/>
          <circle cx="232.34" cy="278.43" r=".7" fill="#040919"/>
          <circle cx="224.3" cy="245.93" r=".7" fill="#040919"/>
          <circle cx="248.42" cy="232.01" r=".7" fill="#040919"/>
          <circle cx="256.46" cy="236.65" r=".7" fill="#040919"/>
          <circle cx="248.42" cy="241.29" r=".7" fill="#040919"/>
          <circle cx="264.5" cy="241.29" r=".7" fill="#040919"/>
          <circle cx="256.46" cy="245.93" r=".7" fill="#040919"/>
          <circle cx="272.55" cy="245.93" r=".7" fill="#040919"/>
          <circle cx="264.5" cy="250.58" r=".7" fill="#040919"/>
          <circle cx="272.55" cy="255.22" r=".7" fill="#040919"/>
          <circle cx="280.59" cy="250.58" r=".7" fill="#040919"/>
          <circle cx="240.38" cy="236.65" r=".7" fill="#040919"/>
          <circle cx="264.5" cy="232.01" r=".7" fill="#040919"/>
          <circle cx="272.55" cy="236.65" r=".7" fill="#040919"/>
          <circle cx="280.59" cy="241.29" r=".7" fill="#040919"/>
          <circle cx="288.63" cy="245.93" r=".7" fill="#040919"/>
          <circle cx="264.5" cy="269.15" r=".7" fill="#040919"/>
          <circle cx="256.46" cy="273.79" r=".7" fill="#040919"/>
          <circle cx="272.55" cy="264.5" r=".7" fill="#040919"/>
          <circle cx="248.42" cy="278.43" r=".7" fill="#040919"/>
          <circle cx="240.38" cy="283.08" r=".7" fill="#040919"/>
          <circle cx="280.59" cy="259.86" r=".7" fill="#040919"/>
          <circle cx="288.63" cy="255.22" r=".7" fill="#040919"/>
          <circle cx="296.67" cy="250.58" r=".7" fill="#040919"/>
          <circle cx="272.55" cy="273.79" r=".7" fill="#040919"/>
          <circle cx="264.5" cy="278.43" r=".7" fill="#040919"/>
          <circle cx="280.59" cy="269.15" r=".7" fill="#040919"/>
          <circle cx="256.46" cy="283.08" r=".7" fill="#040919"/>
          <circle cx="248.42" cy="287.72" r=".7" fill="#040919"/>
          <circle cx="288.63" cy="264.5" r=".7" fill="#040919"/>
          <circle cx="296.67" cy="259.86" r=".7" fill="#040919"/>
          <circle cx="304.71" cy="255.22" r=".7" fill="#040919"/>
          <circle cx="280.59" cy="278.43" r=".7" fill="#040919"/>
          <circle cx="272.55" cy="283.08" r=".7" fill="#040919"/>
          <circle cx="288.63" cy="273.79" r=".7" fill="#040919"/>
          <circle cx="264.5" cy="287.72" r=".7" fill="#040919"/>
          <circle cx="256.46" cy="292.36" r=".7" fill="#040919"/>
          <circle cx="296.67" cy="269.15" r=".7" fill="#040919"/>
          <circle cx="304.71" cy="264.5" r=".7" fill="#040919"/>
          <circle cx="312.75" cy="259.86" r=".7" fill="#040919"/>
          <circle cx="288.63" cy="283.08" r=".7" fill="#040919"/>
          <circle cx="280.59" cy="287.72" r=".7" fill="#040919"/>
          <circle cx="296.67" cy="278.43" r=".7" fill="#040919"/>
          <circle cx="272.55" cy="292.36" r=".7" fill="#040919"/>
          <circle cx="264.5" cy="297" r=".7" fill="#040919"/>
          <circle cx="304.71" cy="273.79" r=".7" fill="#040919"/>
          <circle cx="312.75" cy="269.15" r=".7" fill="#040919"/>
          <circle cx="320.79" cy="264.5" r=".7" fill="#040919"/>
          <circle cx="296.67" cy="287.72" r=".7" fill="#040919"/>
          <circle cx="288.63" cy="292.36" r=".7" fill="#040919"/>
          <circle cx="304.71" cy="283.08" r=".7" fill="#040919"/>
          <circle cx="280.59" cy="297" r=".7" fill="#040919"/>
          <circle cx="272.55" cy="301.65" r=".7" fill="#040919"/>
          <circle cx="312.75" cy="278.43" r=".7" fill="#040919"/>
          <circle cx="320.79" cy="273.79" r=".7" fill="#040919"/>
          <circle cx="328.84" cy="269.15" r=".7" fill="#040919"/>
          <circle cx="304.71" cy="292.36" r=".7" fill="#040919"/>
          <circle cx="296.67" cy="297" r=".7" fill="#040919"/>
          <circle cx="312.75" cy="287.72" r=".7" fill="#040919"/>
          <circle cx="288.63" cy="301.65" r=".7" fill="#040919"/>
          <circle cx="280.59" cy="306.29" r=".7" fill="#040919"/>
          <circle cx="320.79" cy="283.08" r=".7" fill="#040919"/>
          <circle cx="328.84" cy="278.43" r=".7" fill="#040919"/>
          <circle cx="336.88" cy="273.79" r=".7" fill="#040919"/>
          <circle cx="312.75" cy="297" r=".7" fill="#040919"/>
          <circle cx="304.71" cy="301.65" r=".7" fill="#040919"/>
          <circle cx="320.79" cy="292.36" r=".7" fill="#040919"/>
          <circle cx="296.67" cy="306.29" r=".7" fill="#040919"/>
          <circle cx="288.63" cy="310.93" r=".7" fill="#040919"/>
          <circle cx="328.84" cy="287.72" r=".7" fill="#040919"/>
          <circle cx="336.88" cy="283.08" r=".7" fill="#040919"/>
          <circle cx="344.92" cy="278.43" r=".7" fill="#040919"/>
          <circle cx="320.79" cy="301.65" r=".7" fill="#040919"/>
          <circle cx="312.75" cy="306.29" r=".7" fill="#040919"/>
          <circle cx="328.84" cy="297" r=".7" fill="#040919"/>
          <circle cx="304.71" cy="310.93" r=".7" fill="#040919"/>
          <circle cx="296.67" cy="315.57" r=".7" fill="#040919"/>
          <circle cx="336.88" cy="292.36" r=".7" fill="#040919"/>
          <circle cx="344.92" cy="287.72" r=".7" fill="#040919"/>
          <circle cx="352.96" cy="283.08" r=".7" fill="#040919"/>
          <circle cx="361" cy="278.43" r=".7" fill="#040919"/>
          <circle cx="256.46" cy="227.36" r=".7" fill="#040919"/>
          <circle cx="216.26" cy="250.58" r=".7" fill="#040919"/>
          <circle cx="224.3" cy="255.22" r=".7" fill="#040919"/>
          <circle cx="208.21" cy="255.22" r=".7" fill="#040919"/>
          <circle cx="216.26" cy="259.86" r=".7" fill="#040919"/>
          <circle cx="224.3" cy="264.5" r=".7" fill="#040919"/>
          <circle cx="208.21" cy="264.5" r=".7" fill="#040919"/>
          <circle cx="216.26" cy="269.15" r=".7" fill="#040919"/>
          <circle cx="200.17" cy="259.86" r=".7" fill="#040919"/>
          <circle cx="224.3" cy="273.79" r=".7" fill="#040919"/>
          <circle cx="208.21" cy="245.93" r=".7" fill="#040919"/>
          <circle cx="200.17" cy="250.58" r=".7" fill="#040919"/>
          <circle cx="224.3" cy="236.65" r=".7" fill="#040919"/>
          <circle cx="216.26" cy="241.29" r=".7" fill="#040919"/>
          <circle cx="232.34" cy="232.01" r=".7" fill="#040919"/>
          <circle cx="192.13" cy="255.22" r=".7" fill="#040919"/>
          <circle cx="208.21" cy="227.36" r=".7" fill="#040919"/>
          <circle cx="200.17" cy="232.01" r=".7" fill="#040919"/>
          <circle cx="192.13" cy="236.65" r=".7" fill="#040919"/>
          <circle cx="184.09" cy="241.29" r=".7" fill="#040919"/>
          <circle cx="208.21" cy="236.65" r=".7" fill="#040919"/>
          <circle cx="200.17" cy="241.29" r=".7" fill="#040919"/>
          <circle cx="216.26" cy="232.01" r=".7" fill="#040919"/>
          <circle cx="192.13" cy="245.93" r=".7" fill="#040919"/>
          <circle cx="184.09" cy="250.58" r=".7" fill="#040919"/>
          <circle cx="240.38" cy="227.36" r=".7" fill="#040919"/>
          <circle cx="224.3" cy="218.08" r=".7" fill="#040919"/>
          <circle cx="216.26" cy="222.72" r=".7" fill="#040919"/>
          <circle cx="224.3" cy="227.36" r=".7" fill="#040919"/>
          <circle cx="232.34" cy="222.72" r=".7" fill="#040919"/>
          <circle cx="248.42" cy="222.72" r=".7" fill="#040919"/>
          <circle cx="232.34" cy="213.44" r=".7" fill="#040919"/>
          <circle cx="240.38" cy="218.08" r=".7" fill="#040919"/>
          <circle cx="176.05" cy="245.93" r=".7" fill="#040919"/>
          <circle cx="296.67" cy="204.15" r=".7" fill="#040919"/>
          <circle cx="304.71" cy="208.79" r=".7" fill="#040919"/>
          <circle cx="296.67" cy="213.44" r=".7" fill="#040919"/>
          <circle cx="312.75" cy="213.44" r=".7" fill="#040919"/>
          <circle cx="304.71" cy="218.08" r=".7" fill="#040919"/>
          <circle cx="296.67" cy="222.72" r=".7" fill="#040919"/>
          <circle cx="320.79" cy="218.08" r=".7" fill="#040919"/>
          <circle cx="312.75" cy="222.72" r=".7" fill="#040919"/>
          <circle cx="304.71" cy="227.36" r=".7" fill="#040919"/>
          <circle cx="296.67" cy="232.01" r=".7" fill="#040919"/>
          <circle cx="320.79" cy="227.36" r=".7" fill="#040919"/>
          <circle cx="312.75" cy="232.01" r=".7" fill="#040919"/>
          <circle cx="328.84" cy="222.72" r=".7" fill="#040919"/>
          <circle cx="304.71" cy="236.65" r=".7" fill="#040919"/>
          <circle cx="296.67" cy="241.29" r=".7" fill="#040919"/>
          <circle cx="288.63" cy="208.79" r=".7" fill="#040919"/>
          <circle cx="312.75" cy="194.86" r=".7" fill="#040919"/>
          <circle cx="320.79" cy="199.51" r=".7" fill="#040919"/>
          <circle cx="312.75" cy="204.15" r=".7" fill="#040919"/>
          <circle cx="328.84" cy="204.15" r=".7" fill="#040919"/>
          <circle cx="320.79" cy="208.79" r=".7" fill="#040919"/>
          <circle cx="336.88" cy="208.79" r=".7" fill="#040919"/>
          <circle cx="328.84" cy="213.44" r=".7" fill="#040919"/>
          <circle cx="336.88" cy="218.08" r=".7" fill="#040919"/>
          <circle cx="344.92" cy="213.44" r=".7" fill="#040919"/>
          <circle cx="304.71" cy="199.51" r=".7" fill="#040919"/>
          <circle cx="328.84" cy="194.86" r=".7" fill="#040919"/>
          <circle cx="336.88" cy="199.51" r=".7" fill="#040919"/>
          <circle cx="344.92" cy="204.15" r=".7" fill="#040919"/>
          <circle cx="352.96" cy="208.79" r=".7" fill="#040919"/>
          <circle cx="328.84" cy="232.01" r=".7" fill="#040919"/>
          <circle cx="320.79" cy="236.65" r=".7" fill="#040919"/>
          <circle cx="336.88" cy="227.36" r=".7" fill="#040919"/>
          <circle cx="312.75" cy="241.29" r=".7" fill="#040919"/>
          <circle cx="304.71" cy="245.93" r=".7" fill="#040919"/>
          <circle cx="344.92" cy="222.72" r=".7" fill="#040919"/>
          <circle cx="352.96" cy="218.08" r=".7" fill="#040919"/>
          <circle cx="361" cy="213.44" r=".7" fill="#040919"/>
          <circle cx="336.88" cy="236.65" r=".7" fill="#040919"/>
          <circle cx="328.84" cy="241.29" r=".7" fill="#040919"/>
          <circle cx="344.92" cy="232.01" r=".7" fill="#040919"/>
          <circle cx="320.79" cy="245.93" r=".7" fill="#040919"/>
          <circle cx="312.75" cy="250.58" r=".7" fill="#040919"/>
          <circle cx="352.96" cy="227.36" r=".7" fill="#040919"/>
          <circle cx="361" cy="222.72" r=".7" fill="#040919"/>
          <circle cx="369.04" cy="218.08" r=".7" fill="#040919"/>
          <circle cx="344.92" cy="241.29" r=".7" fill="#040919"/>
          <circle cx="336.88" cy="245.93" r=".7" fill="#040919"/>
          <circle cx="352.96" cy="236.65" r=".7" fill="#040919"/>
          <circle cx="328.84" cy="250.58" r=".7" fill="#040919"/>
          <circle cx="320.79" cy="255.22" r=".7" fill="#040919"/>
          <circle cx="361" cy="232.01" r=".7" fill="#040919"/>
          <circle cx="369.04" cy="227.36" r=".7" fill="#040919"/>
          <circle cx="377.08" cy="222.72" r=".7" fill="#040919"/>
          <circle cx="352.96" cy="245.93" r=".7" fill="#040919"/>
          <circle cx="344.92" cy="250.58" r=".7" fill="#040919"/>
          <circle cx="361" cy="241.29" r=".7" fill="#040919"/>
          <circle cx="336.88" cy="255.22" r=".7" fill="#040919"/>
          <circle cx="328.84" cy="259.86" r=".7" fill="#040919"/>
          <circle cx="369.04" cy="236.65" r=".7" fill="#040919"/>
          <circle cx="377.08" cy="232.01" r=".7" fill="#040919"/>
          <circle cx="385.13" cy="227.36" r=".7" fill="#040919"/>
          <circle cx="361" cy="250.58" r=".7" fill="#040919"/>
          <circle cx="352.96" cy="255.22" r=".7" fill="#040919"/>
          <circle cx="369.04" cy="245.93" r=".7" fill="#040919"/>
          <circle cx="344.92" cy="259.86" r=".7" fill="#040919"/>
          <circle cx="336.88" cy="264.5" r=".7" fill="#040919"/>
          <circle cx="377.08" cy="241.29" r=".7" fill="#040919"/>
          <circle cx="385.13" cy="236.65" r=".7" fill="#040919"/>
          <circle cx="393.17" cy="232.01" r=".7" fill="#040919"/>
          <circle cx="369.04" cy="255.22" r=".7" fill="#040919"/>
          <circle cx="361" cy="259.86" r=".7" fill="#040919"/>
          <circle cx="377.08" cy="250.58" r=".7" fill="#040919"/>
          <circle cx="352.96" cy="264.5" r=".7" fill="#040919"/>
          <circle cx="344.92" cy="269.15" r=".7" fill="#040919"/>
          <circle cx="385.13" cy="245.93" r=".7" fill="#040919"/>
          <circle cx="393.17" cy="241.29" r=".7" fill="#040919"/>
          <circle cx="401.21" cy="236.65" r=".7" fill="#040919"/>
          <circle cx="377.08" cy="259.86" r=".7" fill="#040919"/>
          <circle cx="369.04" cy="264.5" r=".7" fill="#040919"/>
          <circle cx="385.13" cy="255.22" r=".7" fill="#040919"/>
          <circle cx="361" cy="269.15" r=".7" fill="#040919"/>
          <circle cx="352.96" cy="273.79" r=".7" fill="#040919"/>
          <circle cx="393.17" cy="250.58" r=".7" fill="#040919"/>
          <circle cx="401.21" cy="245.93" r=".7" fill="#040919"/>
          <circle cx="409.25" cy="241.29" r=".7" fill="#040919"/>
          <circle cx="385.13" cy="264.51" r=".7" fill="#040919"/>
          <circle cx="377.08" cy="269.15" r=".7" fill="#040919"/>
          <circle cx="393.17" cy="259.86" r=".7" fill="#040919"/>
          <circle cx="369.04" cy="273.79" r=".7" fill="#040919"/>
          <circle cx="401.21" cy="255.22" r=".7" fill="#040919"/>
          <circle cx="409.25" cy="250.58" r=".7" fill="#040919"/>
          <circle cx="417.29" cy="245.93" r=".7" fill="#040919"/>
          <circle cx="320.79" cy="190.22" r=".7" fill="#040919"/>
          <circle cx="280.59" cy="213.44" r=".7" fill="#040919"/>
          <circle cx="288.63" cy="218.08" r=".7" fill="#040919"/>
          <circle cx="272.55" cy="218.08" r=".7" fill="#040919"/>
          <circle cx="280.59" cy="222.72" r=".7" fill="#040919"/>
          <circle cx="288.63" cy="227.36" r=".7" fill="#040919"/>
          <circle cx="272.55" cy="227.36" r=".7" fill="#040919"/>
          <circle cx="280.59" cy="232.01" r=".7" fill="#040919"/>
          <circle cx="264.5" cy="222.72" r=".7" fill="#040919"/>
          <circle cx="288.63" cy="236.65" r=".7" fill="#040919"/>
          <circle cx="272.55" cy="208.79" r=".7" fill="#040919"/>
          <circle cx="264.5" cy="213.44" r=".7" fill="#040919"/>
          <circle cx="288.63" cy="199.51" r=".7" fill="#040919"/>
          <circle cx="280.59" cy="204.15" r=".7" fill="#040919"/>
          <circle cx="296.67" cy="194.86" r=".7" fill="#040919"/>
          <circle cx="256.46" cy="218.08" r=".7" fill="#040919"/>
          <circle cx="272.55" cy="190.22" r=".7" fill="#040919"/>
          <circle cx="264.5" cy="194.86" r=".7" fill="#040919"/>
          <circle cx="256.46" cy="199.51" r=".7" fill="#040919"/>
          <circle cx="248.42" cy="204.15" r=".7" fill="#040919"/>
          <circle cx="272.55" cy="199.51" r=".7" fill="#040919"/>
          <circle cx="264.5" cy="204.15" r=".7" fill="#040919"/>
          <circle cx="280.59" cy="194.86" r=".7" fill="#040919"/>
          <circle cx="256.46" cy="208.79" r=".7" fill="#040919"/>
          <circle cx="248.42" cy="213.44" r=".7" fill="#040919"/>
          <circle cx="304.71" cy="190.22" r=".7" fill="#040919"/>
          <circle cx="288.63" cy="180.94" r=".7" fill="#040919"/>
          <circle cx="280.59" cy="185.58" r=".7" fill="#040919"/>
          <circle cx="288.63" cy="190.22" r=".7" fill="#040919"/>
          <circle cx="296.67" cy="185.58" r=".7" fill="#040919"/>
          <circle cx="312.75" cy="185.58" r=".7" fill="#040919"/>
          <circle cx="296.67" cy="176.29" r=".7" fill="#040919"/>
          <circle cx="304.71" cy="180.94" r=".7" fill="#040919"/>
          <circle cx="240.38" cy="208.79" r=".7" fill="#040919"/>
        </g>
        <path d="M371.73,254.43c-3.32-1.92-3.33-5.04-.04-6.96s8.65-1.92,11.96,0l22.39,12.93c3.32,1.92,3.33,5.04,.04,6.96-3.29,1.92-8.65,1.92-11.97,0l-22.39-12.93Z" fill="#bcc0e5"/>
        <path d="M313.27,209.76c-3.32-1.92-3.33-5.04-.04-6.96,3.29-1.92,8.65-1.92,11.96,0l22.39,12.93c3.32,1.92,3.33,5.04,.04,6.96-3.29,1.92-8.65,1.92-11.97,0l-22.39-12.93Z" fill="#bcc0e5"/>
        <path d="M268.73,243.14c-3.32-1.92-3.33-5.04-.04-6.96,3.29-1.92,8.65-1.92,11.96,0l39.62,22.88c3.32,1.92,3.33,5.04,.04,6.96s-8.65,1.92-11.97,0l-39.62-22.88Z" fill="#bcc0e5"/>
        <path d="M209.87,262.31c-3.32-1.92-3.33-5.04-.04-6.96,3.29-1.92,8.65-1.92,11.96,0l22.39,12.93c3.32,1.92,3.33,5.04,.04,6.96-3.29,1.92-8.65,1.92-11.97,0l-22.39-12.93Z" fill="#bcc0e5"/>
        <path d="M298.77,296.43c-3.32-1.92-3.33-5.04-.04-6.96,3.29-1.92,8.65-1.92,11.96,0l22.39,12.93c3.32,1.92,3.33,5.04,.04,6.96-3.29,1.92-8.65,1.92-11.97,0l-22.39-12.93Z" fill="#bcc0e5"/>
        <g>
          <path d="M327.71,201.34c2.36,1.37,3.53,3.16,3.53,4.95s-1.16,3.55-3.48,4.9c-4.66,2.72-12.25,2.72-16.94,0-2.36-1.37-3.53-3.16-3.53-4.95s1.16-3.55,3.48-4.91c4.66-2.72,12.24-2.72,16.93,0Z" fill="#666bff"/>
          <path d="M313.31,171.34c3.32-1.92,8.67-1.92,11.96,0,1.65,.96,2.47,2.22,2.46,3.48h0v31.47h0c0,1.26-.84,2.52-2.5,3.48-3.32,1.92-8.67,1.92-11.97,0-1.65-.96-2.46-2.22-2.46-3.48v-31.47h0c0-1.26,.84-2.52,2.5-3.48Z" fill="#bcc0e5"/>
          <path d="M325.27,171.34c3.32,1.92,3.33,5.04,.04,6.96-3.29,1.92-8.65,1.92-11.97,0-3.32-1.92-3.33-5.04-.04-6.96,3.29-1.92,8.65-1.92,11.96,0Z" fill="#666bff"/>
          <path d="M310.85,174.82c0,1.26,.84,2.52,2.5,3.48,1.64,.95,3.78,1.43,5.93,1.44v31.47c-2.17,0-4.35-.48-6-1.44-1.65-.96-2.46-2.22-2.46-3.48v-31.47h.04Z" fill="#fff"/>
          <g>
            <path d="M313.31,139.18c3.32-1.92,8.67-1.92,11.96,0,1.65,.96,2.47,2.22,2.46,3.48h0v32.15h0c0,1.26-.84,2.52-2.5,3.48-3.32,1.92-8.67,1.92-11.97,0-1.65-.96-2.46-2.22-2.46-3.48v-32.15h0c0-1.26,.84-2.52,2.5-3.48Z" fill="#040919"/>
            <path d="M325.27,139.18c3.32,1.92,3.33,5.04,.04,6.96-3.29,1.92-8.65,1.92-11.97,0-3.32-1.92-3.33-5.04-.04-6.96s8.65-1.92,11.96,0Z" fill="#666bff"/>
            <path d="M310.85,142.66c0,1.26,.84,2.52,2.5,3.48,1.64,.95,3.78,1.43,5.93,1.44v32.16c-2.17,0-4.35-.48-6-1.44-1.65-.96-2.46-2.22-2.46-3.48v-32.15h.04Z" fill="#4331e8"/>
          </g>
        </g>
        <g>
          <line x1="354.63" y1="248.41" x2="304.17" y2="242.87" fill="none" stroke="#666bff" stroke-linecap="round" stroke-linejoin="round"/>
          <polyline points="166.18 230.6 216.26 259.16 249.37 248.11" fill="none" stroke="#666bff" stroke-linecap="round" stroke-linejoin="round"/>
          <line x1="394.39" y1="260.56" x2="412.61" y2="271.08" fill="none" stroke="#666bff" stroke-linecap="round" stroke-linejoin="round"/>
          <path d="M394.28,241.28c4.62,2.68,6.93,6.19,6.93,9.7s-2.27,6.96-6.82,9.61c-9.14,5.33-24,5.34-33.2,0-4.62-2.68-6.93-6.19-6.93-9.69s2.28-6.96,6.83-9.62c9.13-5.33,23.99-5.33,33.19,0Z" fill="none" stroke="#666bff" stroke-linecap="round" stroke-linejoin="round"/>
          <path d="M295.37,227.6c5.76,3.34,8.64,7.72,8.64,12.1s-2.83,8.68-8.51,11.99c-11.4,6.65-29.94,6.66-41.41,0-5.76-3.34-8.64-7.72-8.64-12.09s2.84-8.68,8.52-12c11.39-6.65,29.92-6.65,41.4,0Z" fill="none" stroke="#666bff" stroke-linecap="round" stroke-linejoin="round"/>
        </g>
        <g>
          <path d="M283.14,234.73c2.35,1.36,3.52,3.15,3.52,4.93s-1.16,3.54-3.47,4.88c-4.65,2.71-12.2,2.71-16.88,0-2.35-1.36-3.52-3.15-3.52-4.93s1.16-3.54,3.47-4.89c4.64-2.71,12.2-2.71,16.87,0Z" fill="#666bff"/>
          <path d="M268.77,148.02c3.32-1.92,8.67-1.92,11.96,0,1.65,.96,2.47,2.22,2.46,3.48h0v88.15h0c0,1.26-.84,2.52-2.5,3.48-3.32,1.92-8.67,1.92-11.97,0-1.65-.96-2.46-2.22-2.46-3.48v-88.15h0c0-1.26,.84-2.52,2.5-3.48Z" fill="#bcc0e5"/>
          <path d="M280.73,148.02c3.32,1.92,3.33,5.04,.04,6.96-3.29,1.92-8.65,1.92-11.97,0-3.32-1.92-3.33-5.04-.04-6.96s8.65-1.92,11.96,0Z" fill="#d0d3f5"/>
          <path d="M266.31,151.5c0,1.26,.84,2.52,2.5,3.48,1.64,.95,3.78,1.43,5.93,1.44v88.16c-2.17,0-4.35-.48-6-1.44-1.65-.96-2.46-2.22-2.46-3.48v-88.15h.04Z" fill="#fff"/>
          <g>
            <path d="M268.77,86.98c3.32-1.92,8.67-1.92,11.96,0,1.65,.96,2.47,2.22,2.46,3.48h0v41.15h0c0,1.26-.84,2.52-2.5,3.48-3.32,1.92-8.67,1.92-11.97,0-1.65-.96-2.46-2.22-2.46-3.48v-41.15h0c0-1.26,.84-2.52,2.5-3.48Z" fill="#040919"/>
            <path d="M280.73,86.98c3.32,1.92,3.33,5.04,.04,6.96-3.29,1.92-8.65,1.92-11.97,0-3.32-1.92-3.33-5.04-.04-6.96s8.65-1.92,11.96,0Z" fill="#666bff"/>
            <path d="M266.31,90.46c0,1.26,.84,2.52,2.5,3.48,1.64,.95,3.78,1.43,5.93,1.44v41.16c-2.17,0-4.35-.48-6-1.44-1.65-.96-2.46-2.22-2.46-3.48v-41.15h.04Z" fill="#4331e8"/>
          </g>
        </g>
        <g>
          <path d="M313.33,287.94c2.39,1.39,3.58,3.2,3.58,5.02s-1.18,3.6-3.53,4.97c-4.73,2.76-12.42,2.76-17.17,0-2.39-1.38-3.58-3.2-3.58-5.02s1.18-3.6,3.53-4.98c4.72-2.76,12.41-2.76,17.17,0Z" fill="#666bff"/>
          <path d="M298.81,228.83c3.32-1.92,8.67-1.92,11.96,0,1.65,.96,2.47,2.22,2.46,3.48h0v60.64h0c0,1.26-.84,2.52-2.5,3.48-3.32,1.92-8.67,1.92-11.97,0-1.65-.96-2.46-2.22-2.46-3.48v-60.64h0c0-1.26,.84-2.52,2.5-3.48Z" fill="#bcc0e5"/>
          <path d="M310.77,228.83c3.32,1.92,3.33,5.04,.04,6.96-3.29,1.92-8.65,1.92-11.97,0-3.32-1.92-3.33-5.04-.04-6.96s8.65-1.92,11.96,0Z" fill="#d0d3f5"/>
          <path d="M296.35,232.32c0,1.26,.84,2.52,2.5,3.48,1.64,.95,3.78,1.43,5.93,1.44v60.64c-2.17,0-4.35-.48-6-1.44-1.65-.96-2.46-2.22-2.46-3.48v-60.64h.04Z" fill="#fff"/>
          <g>
            <path d="M298.81,200.25c3.32-1.92,8.67-1.92,11.96,0,1.65,.96,2.47,2.22,2.46,3.48h0v22.15h0c0,1.26-.84,2.52-2.5,3.48-3.32,1.92-8.67,1.92-11.97,0-1.65-.96-2.46-2.22-2.46-3.48v-22.15h0c0-1.26,.84-2.52,2.5-3.48Z" fill="#040919"/>
            <path d="M310.77,200.25c3.32,1.92,3.33,5.04,.04,6.96-3.29,1.92-8.65,1.92-11.97,0-3.32-1.92-3.33-5.04-.04-6.96s8.65-1.92,11.96,0Z" fill="#666bff"/>
            <path d="M296.35,203.73c0,1.26,.84,2.52,2.5,3.48,1.64,.95,3.78,1.43,5.93,1.44v22.16c-2.17,0-4.35-.48-6-1.44-1.65-.96-2.46-2.22-2.46-3.48v-22.15h.04Z" fill="#4331e8"/>
          </g>
        </g>
        <g>
          <path d="M386.34,245.91c2.4,1.39,3.6,3.22,3.6,5.04s-1.18,3.62-3.55,5c-4.75,2.77-12.49,2.78-17.27,0-2.4-1.39-3.6-3.22-3.6-5.04s1.18-3.62,3.55-5c4.75-2.77,12.48-2.77,17.27,0Z" fill="#666bff"/>
          <g>
            <path d="M371.77,186.83c3.32-1.92,8.67-1.92,11.96,0,1.65,.96,2.47,2.22,2.46,3.48h0v60.64h0c0,1.26-.84,2.52-2.5,3.48-3.32,1.92-8.67,1.92-11.97,0-1.65-.96-2.46-2.22-2.46-3.48v-60.64h0c0-1.26,.84-2.52,2.5-3.48Z" fill="#bcc0e5"/>
            <path d="M383.74,186.83c3.32,1.92,3.33,5.04,.04,6.96-3.29,1.92-8.65,1.92-11.97,0-3.32-1.92-3.33-5.04-.04-6.96,3.29-1.92,8.65-1.92,11.96,0Z" fill="#d0d3f5"/>
            <path d="M369.31,190.31c0,1.26,.84,2.52,2.5,3.48,1.64,.95,3.78,1.43,5.93,1.44v60.64c-2.17,0-4.35-.48-6-1.44-1.65-.96-2.46-2.22-2.46-3.48v-60.64h.04Z" fill="#fff"/>
          </g>
          <g>
            <path d="M371.82,155.09c3.32-1.92,8.67-1.92,11.96,0,1.65,.96,2.47,2.22,2.46,3.48h0v12.15h0c0,1.26-.84,2.52-2.5,3.48-3.32,1.92-8.67,1.92-11.97,0-1.65-.96-2.46-2.22-2.46-3.48v-12.15h0c0-1.26,.84-2.52,2.5-3.48Z" fill="#040919"/>
            <path d="M383.78,155.09c3.32,1.92,3.33,5.04,.04,6.96-3.29,1.92-8.65,1.92-11.97,0-3.32-1.92-3.33-5.04-.04-6.96s8.65-1.92,11.96,0Z" fill="#666bff"/>
            <path d="M369.36,158.57c0,1.26,.84,2.52,2.5,3.48,1.64,.95,3.78,1.43,5.93,1.44v12.16c-2.17,0-4.35-.48-6-1.44-1.65-.96-2.46-2.22-2.46-3.48v-12.15h.04Z" fill="#4331e8"/>
          </g>
        </g>
        <g>
          <path d="M224.26,253.92c2.34,1.36,3.51,3.14,3.51,4.92s-1.15,3.53-3.46,4.87c-4.63,2.7-12.17,2.71-16.83,0-2.34-1.36-3.51-3.14-3.51-4.92s1.15-3.53,3.46-4.88c4.63-2.7,12.16-2.7,16.83,0Z" fill="#666bff"/>
          <path d="M209.91,229.22c3.32-1.92,8.67-1.92,11.96,0,1.65,.96,2.47,2.22,2.46,3.48h0v26.13h0c0,1.26-.84,2.52-2.5,3.48-3.32,1.92-8.67,1.92-11.97,0-1.65-.96-2.46-2.22-2.46-3.48v-26.13h0c0-1.26,.84-2.52,2.5-3.48Z" fill="#bcc0e5"/>
          <path d="M221.87,229.22c3.32,1.92,3.33,5.04,.04,6.96-3.29,1.92-8.65,1.92-11.97,0s-3.33-5.04-.04-6.96,8.65-1.92,11.96,0Z" fill="#666bff"/>
          <path d="M207.45,232.7c0,1.26,.84,2.52,2.5,3.48,1.64,.95,3.78,1.43,5.93,1.44v26.13c-2.17,0-4.35-.48-6-1.44-1.65-.96-2.46-2.22-2.46-3.48v-26.13h.04Z" fill="#fff"/>
          <g>
            <path d="M209.91,198.06c3.32-1.92,8.67-1.92,11.96,0,1.65,.96,2.47,2.22,2.46,3.48h0v31.15h0c0,1.26-.84,2.52-2.5,3.48-3.32,1.92-8.67,1.92-11.97,0-1.65-.96-2.46-2.22-2.46-3.48v-31.15h0c0-1.26,.84-2.52,2.5-3.48Z" fill="#040919"/>
            <path d="M221.87,198.06c3.32,1.92,3.33,5.04,.04,6.96-3.29,1.92-8.65,1.92-11.97,0-3.32-1.92-3.33-5.04-.04-6.96,3.29-1.92,8.65-1.92,11.96,0Z" fill="#666bff"/>
            <path d="M207.45,201.54c0,1.26,.84,2.52,2.5,3.48,1.64,.95,3.78,1.43,5.93,1.44v31.16c-2.17,0-4.35-.48-6-1.44-1.65-.96-2.46-2.22-2.46-3.48v-31.15h.04Z" fill="#4331e8"/>
          </g>
        </g>
        <polygon points="296.67 338.01 296.67 351.61 454.94 260.23 454.94 246.63 296.67 338.01" fill="#040919"/>
        <polygon points="296.67 338.01 296.67 351.61 138.4 260.23 138.4 246.63 296.67 338.01" fill="#666bff"/>
      </g>
      <g>
        <polygon points="566.85 309.79 624.76 343.23 650.33 332.89 584.62 302.32 566.85 309.79" fill="url(#linear-gradient-2)"/>
        <path d="M585.64,289.8l.05,5.06c.04,4.49,1.66,4.95,1.4,9.02l-11.7,5.43c-1.91,.89-6.92,1.83-8.54,.47l-2.37-1.99s7.13-4.12,9.79-6.36c2.66-2.25,4.97-4.36,4.53-7.49l-.6-4.29" fill="#4331e8"/>
        <path d="M566.85,309.79l-2.37-1.99s3.03-1.75,5.87-3.59l1.82,1.23c1.38,.94,3.2,.94,4.58,0l9.65-6.21c.58,1.28,.82,2.39,.68,4.65l-11.7,5.43c-1.91,.89-6.92,1.83-8.54,.47Z" fill="#040919"/>
        <path d="M599.86,301.42c-.06,3.63-.67,4.76,1.17,8.11l-.26,10.61c-.16,6.59-11.92,5.69-11.23,1.93l2.93-16.09-.64-6.76,8.1-1.18-.05,3.38Z" fill="#4331e8"/>
        <path d="M589.53,322.08l.79-4.02,3.15,1.05c1.07,.36,2.24,.24,3.21-.33s1.65-1.53,1.87-2.63l1.67-8.65,.81,2.05-.26,10.6c-.16,6.59-11.97,5.68-11.24,1.93Z" fill="#040919"/>
        <polygon points="573.83 144.68 576.44 129.8 580.51 129.8 583.39 142.48 573.83 144.68" fill="#666bff"/>
        <polygon points="597.51 246.52 608.71 239.42 608.38 225.9 597.51 218.7 597.51 246.52" fill="#040919"/>
        <g>
          <path d="M582.76,162.83l-8.51,24.61-19.71-1.23-3.4,2.87-3.07-.72,.77-6.17,2.61,.15,14.8-2.56,5.42-20.45c.72-2.72,3.54-5.52,6.26-6.22l7.83-2.02,3.74,6.48-6.74,5.24Z" fill="#4331e8"/>
          <polygon points="571.06 173.5 562.11 229.72 578.52 237.59 580.91 180.29 571.06 173.5" fill="#040919"/>
          <path d="M578.2,289.65l-8.11-51.7c-.71-4.54-1.03-12.01-.71-16.59l.25-3.58,.51-3.83h11.26s6.95,6.65,6.95,6.65l-3.34,22.99,1.46,9.82-.82,36.39c-3.86,3.83-7.44-.15-7.44-.15Z" fill="#bcc0e5"/>
          <path d="M587.65,224.9l-5.43,9.01-2.18,20.53s3.86,3.88,2.9,8.27c-1.45,6.66-.5,15.47,2.74,25.19" fill="#666bff"/>
          <path d="M605.1,213.95c1.32,7.08,.88,14.4-1.35,21.3l-5.8,17.99,2.35,10.92-.38,33.88c-2.6,3.86-5.46,3.08-8.1,1.18l-7.19-48.12,.78-31.77,6.87-5.39h12.82Z" fill="#bcc0e5"/>
          <path d="M586.74,226.29l10.77,6.31-4.66,25.44,2.41,2.41c1.23,1.23,2.53,3.65,2.88,5.36l1.97,9.64,.18-11.29-2.35-10.92,7.71-21.57-3.38-7.65-15.54,2.28Z" fill="#666bff"/>
          <path d="M574.25,187.44c1.17-6.97-3.8-17.89-.52-22l10.43-13.08,6.9-4.49,12.65,8.67c4.06,2.78,6.59,7.3,6.84,12.21l.15,2.93-11.63,2.35,.76,18.77,3.1,12.8,1.23,4.27c1.58,5.48,2.03,11.19,1.41,16.8-6.01,2.7-12.92,2.57-18.83-.37l-17.12-8.51,1.78-13.39,2.84-16.95Z" fill="#e6e7f5"/>
          <path d="M605.45,158.25c2.89,2.39,5.25,7.42,5.25,11.17v13.8l-1.99,56.2-7.98-6.82-2.25-5.58-8.85-21.97,1.47-23.77,6.56-23.22-2.61-7.45,10.41,7.65Z" fill="#4331e8"/>
          <path d="M589.63,205.05s4.56,.67,9.1,1.78,4.88,2.92,5.13,6.3c.32,4.4,3.6,5.56,3.6,5.56l1.91-23.95-19.21,4.49-.54,5.81Z" fill="#040919"/>
          <path d="M567.75,186.91l9.21-2.55,2.59,1.85,1.88,3.13,20.11,.68c-2.74-6.37-2.48-15.99-2.48-15.99l11.63-2.35-2.26,24.89c-.11,1.23-.76,2.35-1.77,3.05s-2.29,.93-3.48,.6l-24-6.49-4.02-.17-2.93-6.01-4.06,.61-.43-1.27Z" fill="#040919"/>
          <line x1="576.96" y1="184.36" x2="567.75" y2="186.91" fill="none" stroke="#666bff" stroke-linecap="round" stroke-linejoin="round"/>
          <polygon points="568.64 186.79 543.31 172.17 555.58 194.41 580.91 209.04 568.64 186.79" fill="#040919"/>
          <polyline points="580.91 209.04 568.64 186.79 543.31 172.17" fill="none" stroke="#fff" stroke-linecap="round" stroke-linejoin="round"/>
          <g>
            <path d="M597.66,158.06l-5.83,3.27c-5.51,3.09-12.09,1.15-10.06-2.62l2.5-4.64-.88-4.04-2.33-.64c-1.31-.36-2.67-1.73-3.02-3.04l-2.27-8.49,.57-7.23c.36-4.54,4.02-8.11,8.56-8.35l3.41-.18c7.97-.42,14.56,7.37,9.71,16.45l-2.2,4.11c-1.04,1.95-2.15,4.48-1.24,6.49l3.09,8.91Z" fill="#040919"/>
            <path d="M583.39,150.03l6.95-3.22s.15,.4-2.37,1.96c-2.52,1.56-1.1,4.35-1.1,4.35l-2.46,.95-1.01-4.03Z" fill="#040919"/>
            <path d="M576.44,129.8c.71-4.13,4.2-7.28,8.46-7.51l4.02-.21c3.8-.2,7.43,1.64,9.51,4.83,2.08,3.19,2.31,7.24,.6,10.65l-2.43,4.83c-.28,.56-.45,1.15-.51,1.76-2.64,.44-5.58-.71-7.39-2.67l-2.23-4.78c-.85-2.94-2.46-4.09-5.96-5.38l-4.07-1.5h0Z" fill="#666bff"/>
          </g>
          <polygon points="550.26 184.77 554.33 187.62 556.23 191.44 554.54 191.96 548.08 188.37 550.26 184.77" fill="#4331e8"/>
          <path d="M588.76,189.59l-1,6.47-3.14-.85,3.14,8.21,15.62-.68c3.05-.13,5.69-2.73,5.87-5.78l1.45-25.28-12.08,.48s-2.53,9.42,1.16,17.71l-11.02-.28Z" fill="#4331e8"/>
          <path d="M598.62,172.17s-2.53,9.42,1.16,17.71l-11.02-.28" fill="none" stroke="#666bff" stroke-linecap="round" stroke-linejoin="round"/>
        </g>
        <path d="M601.12,185.89s.11,2.88,2.49,4.82,2.88,3.88,.44,4.99l-3.33-3.27" fill="none" stroke="#666bff" stroke-linecap="round" stroke-linejoin="round"/>
        <polygon points="586.03 135.04 590.16 150.43 602.21 144.22 599.79 129.93 586.03 135.04" fill="#666bff"/>
      </g>
      <g>
        <polygon points="478.42 290.69 544.31 325 581.59 304 522.51 275.45 507.67 277.98 531.16 291.46 532.82 297.37 487.41 286.41 478.42 290.69" fill="url(#linear-gradient-3)"/>
        <path d="M508.65,260.69c.15,4.99-.98,4.77-1.04,9.31l.34,3.99c.11,1.32,1.28,2.56,2.58,2.75l16.58,2.49c5.58,.84,7.15-3.6,7.15-3.6l-12.72-6.89c-3.41-1.85-4.87-5.24-4.38-8.73" fill="#040919"/>
        <path d="M519.27,266.63l-6.08,3.82c-1.17,.74-3.02,.64-4.11-.23l-1.42-1.13c-.06-2.31,.9-4.77,.99-8.41l8.52-.67s-.44,3.3,2.1,6.61Z" fill="#bcc0e5"/>
        <path d="M486.58,271.33l3.26,17.9c.76,4.18-12.32,5.18-12.5-2.15l-.29-11.8c2.05-3.73,2.61-5.2,2.55-9.24" fill="#040919"/>
        <path d="M487.41,275.88l-5.18,.2c-2.54,.1-3.16,2.38-5.18,2.35v-2.38c0-2.23,2.18-3.74,2.32-6.66l7.21,1.93,.83,4.56Z" fill="#bcc0e5"/>
        <path d="M473.54,184.6s-3.4,7.05-3.4,17.03l2.73,29.27,2.67,5.33s-2.66,4.44-2.06,8.9l3.41,25.5s6.09,5.46,12.22,0l3.81-87.84-19.38,1.81Z" fill="#040919"/>
        <path d="M510.85,182.79l6.54,79.88s-5.78,3.94-11.75,.55l-5.36-31.14,.95-5.19s-5.03-4.81-6.61-10.2l-8.6-29.32,24.83-4.59Z" fill="#040919"/>
        <path d="M515.16,134.62c-.53-3.9-4.04-8-7.81-9.12l-16.51-4.9-22.43,11.5,5.12,52.51,2.03,1.04c4.85,2.49,10.43,3.15,15.72,1.87l19.56-4.72-1.73-38.18,6.04-10Z" fill="#040919"/>
        <path d="M475.57,185.64c4.85,2.49,10.43,3.15,15.72,1.87l16.77-4.05" fill="none" stroke="#4331e8" stroke-linecap="round" stroke-linejoin="round"/>
        <path d="M489.46,175.99l-3.19-5.03-10.62,7.51,2.65,.55c3.59,.74,4.63-1.98,7.31-2.41l3.86-.62Z" fill="#4331e8"/>
        <path d="M486.24,126.27l6.21,3.85,3.78,2.35,2.01-6.54,2.38-.27c1.27-.14,2.72-1.21,3.24-2.38l3.46-7.8,.54-6.96c.34-4.37-2.61-8.32-6.9-9.23l-3.22-.68c-7.52-1.6-14.96,4.83-11.71,14.2l1.47,4.24c.7,2.01,1.38,4.58,.21,6.36l-1.5,2.85Z" fill="#4331e8"/>
        <path d="M489.24,112.49l7.61,2.43,11.72-4.26-.71,3.84c-.31,1.68-2.79,1.62-2.79,1.62" fill="none" stroke="#bcc0e5" stroke-linecap="round" stroke-linejoin="round"/>
        <path d="M515.16,134.62l1.99,26.66c.23,3.03-1.95,6.28-4.83,7.22l-22.86,7.49-3.19-5.03,10.22-4.98,8.54-4.16,4.64-2.26-.53-9.01-.86-12.14-.91-12.91s7.26,1.83,7.81,9.12Z" fill="#d0d3f5"/>
        <path d="M500.27,129.96l-2.24-3.3-1.79,5.82-7.26-4.5c-1.5-.93-2.06-2.98-1.23-4.55l-2.04,2.41c-1.91,2.25-1.37,5.3,1.19,6.76l6.69,3.84,2.76-3.03,2.56,3.03,1.37-6.48Z" fill="#fff"/>
        <path d="M497.27,161.42l-17.16,15.74c-4.4,4.04-8.68-1.22-9.06-3.4-1.75-10.02-4.31-24.89-5.66-32.73-.57-3.29,.57-6.65,3.02-8.92h.01s10.14,5.04,11.1,14.28l1.81,17.45,18.75-15.7,4.13,4.46-3.46,2.86-3.49,5.95Z" fill="#d0d3f5"/>
        <path d="M500.91,147.67s.46-2.96,1.23-4.34l1.74-3.14c.54,.2,.94,.82,.91,1.39l-.2,3.33,4.54-.82,5.24-.6,.64,1.22,1.44-.15-.09,1.85-7.07,2.53-4.45,1.91-3.93-3.17Z" fill="#4331e8"/>
        <path d="M503.2,112.61l-.5,3.84c-.31,2.34-4.43,3.21-4.94,1.52l-.91-3.05" fill="none" stroke="#bcc0e5" stroke-linecap="round" stroke-linejoin="round"/>
        <polygon points="517.47 276.96 516.76 279 507.67 277.98 507.61 270 517.47 276.96" fill="#040919"/>
        <path d="M481.35,191.23s-.77,9.35-7.98,10.41" fill="none" stroke="#4331e8" stroke-linecap="round" stroke-linejoin="round"/>
        <path d="M481.34,163.84l-6.59,4.77s-1.17-2.22,.9-3.88,4.04-3.18,2.7-5.99c-1.33-2.8,1.93-5.06,1.93-5.06l1.06,10.15Z" fill="#666bff"/>
        <path d="M478.3,179.02l-2.65-.55-1.42-1.84,.64-.97,5.37,.8c1.05,.16,2.52-.33,3.27-1.09l.88-.9v1.68s-4.08,2.67-4.08,2.67l-2.02,.19Z" fill="#4331e8"/>
        <line x1="499.39" y1="155.37" x2="496.02" y2="151.55" fill="none" stroke="#666bff" stroke-linecap="round" stroke-linejoin="round"/>
        <line x1="491.38" y1="170.28" x2="492.92" y2="174.86" fill="none" stroke="#666bff" stroke-linecap="round" stroke-linejoin="round"/>
        <path d="M475.5,232.71l5.84,8.23s-1.67,2.08-4.29-.75" fill="none" stroke="#4331e8" stroke-linecap="round" stroke-linejoin="round"/>
        <path d="M501.22,226.9c3,3.24,5.78,5.81,4.04,7.56s-2.46,2.08-1.75,5.32" fill="none" stroke="#4331e8" stroke-linecap="round" stroke-linejoin="round"/>
      </g>
      <g>
        <g>
          <polygon points="548.35 477.43 484.49 440.56 472.71 447.36 548.35 491.03 623.99 447.36 612.21 440.56 548.35 477.43" fill="#bcc0e5"/>
          <polygon points="548.35 390.09 472.71 433.76 548.35 477.43 623.99 433.76 548.35 390.09" fill="url(#linear-gradient-4)"/>
          <polygon points="548.35 412.73 511.93 433.76 548.35 454.79 584.77 433.76 548.35 412.73" fill="#bcc0e5"/>
          <line x1="548.35" y1="477.43" x2="623.99" y2="433.76" fill="none" stroke="#5d688c" stroke-linecap="round" stroke-linejoin="round"/>
          <line x1="472.71" y1="433.76" x2="548.35" y2="477.43" fill="none" stroke="#5d688c" stroke-linecap="round" stroke-linejoin="round"/>
          <g opacity=".25">
            <circle cx="548.35" cy="429.11" r=".7" fill="#040919"/>
            <circle cx="556.39" cy="433.76" r=".7" fill="#040919"/>
            <circle cx="548.35" cy="438.4" r=".7" fill="#040919"/>
            <circle cx="564.43" cy="438.4" r=".7" fill="#040919"/>
            <circle cx="556.39" cy="443.04" r=".7" fill="#040919"/>
            <circle cx="548.35" cy="447.68" r=".7" fill="#040919"/>
            <circle cx="572.47" cy="443.04" r=".7" fill="#040919"/>
            <circle cx="564.43" cy="447.68" r=".7" fill="#040919"/>
            <circle cx="556.39" cy="452.33" r=".7" fill="#040919"/>
            <circle cx="548.35" cy="456.97" r=".7" fill="#040919"/>
            <circle cx="572.47" cy="452.33" r=".7" fill="#040919"/>
            <circle cx="564.43" cy="456.97" r=".7" fill="#040919"/>
            <circle cx="580.51" cy="447.68" r=".7" fill="#040919"/>
            <circle cx="556.39" cy="461.61" r=".7" fill="#040919"/>
            <circle cx="548.35" cy="466.26" r=".7" fill="#040919"/>
            <circle cx="540.31" cy="433.76" r=".7" fill="#040919"/>
            <circle cx="564.43" cy="419.83" r=".7" fill="#040919"/>
            <circle cx="572.47" cy="424.47" r=".7" fill="#040919"/>
            <circle cx="564.43" cy="429.11" r=".7" fill="#040919"/>
            <circle cx="580.51" cy="429.11" r=".7" fill="#040919"/>
            <circle cx="572.47" cy="433.76" r=".7" fill="#040919"/>
            <circle cx="588.56" cy="433.76" r=".7" fill="#040919"/>
            <circle cx="580.51" cy="438.4" r=".7" fill="#040919"/>
            <circle cx="588.56" cy="443.04" r=".7" fill="#040919"/>
            <circle cx="596.6" cy="438.4" r=".7" fill="#040919"/>
            <circle cx="556.39" cy="424.47" r=".7" fill="#040919"/>
            <circle cx="580.51" cy="419.83" r=".7" fill="#040919"/>
            <circle cx="588.56" cy="424.47" r=".7" fill="#040919"/>
            <circle cx="596.6" cy="429.11" r=".7" fill="#040919"/>
            <circle cx="604.64" cy="433.76" r=".7" fill="#040919"/>
            <circle cx="572.47" cy="415.19" r=".7" fill="#040919"/>
            <circle cx="532.27" cy="438.4" r=".7" fill="#040919"/>
            <circle cx="540.31" cy="443.04" r=".7" fill="#040919"/>
            <circle cx="524.22" cy="443.04" r=".7" fill="#040919"/>
            <circle cx="532.27" cy="447.69" r=".7" fill="#040919"/>
            <circle cx="540.31" cy="452.33" r=".7" fill="#040919"/>
            <circle cx="524.22" cy="452.33" r=".7" fill="#040919"/>
            <circle cx="532.27" cy="456.97" r=".7" fill="#040919"/>
            <circle cx="516.18" cy="447.69" r=".7" fill="#040919"/>
            <circle cx="540.31" cy="461.61" r=".7" fill="#040919"/>
            <circle cx="524.22" cy="433.76" r=".7" fill="#040919"/>
            <circle cx="516.18" cy="438.4" r=".7" fill="#040919"/>
            <circle cx="540.31" cy="424.47" r=".7" fill="#040919"/>
            <circle cx="532.27" cy="429.11" r=".7" fill="#040919"/>
            <circle cx="548.35" cy="419.83" r=".7" fill="#040919"/>
            <circle cx="508.14" cy="443.04" r=".7" fill="#040919"/>
            <circle cx="524.22" cy="415.19" r=".7" fill="#040919"/>
            <circle cx="516.18" cy="419.83" r=".7" fill="#040919"/>
            <circle cx="508.14" cy="424.47" r=".7" fill="#040919"/>
            <circle cx="500.1" cy="429.11" r=".7" fill="#040919"/>
            <circle cx="524.22" cy="424.47" r=".7" fill="#040919"/>
            <circle cx="516.18" cy="429.11" r=".7" fill="#040919"/>
            <circle cx="532.27" cy="419.83" r=".7" fill="#040919"/>
            <circle cx="508.14" cy="433.76" r=".7" fill="#040919"/>
            <circle cx="500.1" cy="438.4" r=".7" fill="#040919"/>
            <circle cx="556.39" cy="415.19" r=".7" fill="#040919"/>
            <circle cx="540.31" cy="405.9" r=".7" fill="#040919"/>
            <circle cx="532.27" cy="410.54" r=".7" fill="#040919"/>
            <circle cx="540.31" cy="415.19" r=".7" fill="#040919"/>
            <circle cx="548.35" cy="410.54" r=".7" fill="#040919"/>
            <circle cx="564.43" cy="410.54" r=".7" fill="#040919"/>
            <circle cx="548.35" cy="401.26" r=".7" fill="#040919"/>
            <circle cx="556.39" cy="405.9" r=".7" fill="#040919"/>
            <circle cx="492.06" cy="433.76" r=".7" fill="#040919"/>
          </g>
        </g>
        <g>
          <polygon points="548.35 397.31 511.93 418.34 548.35 439.37 584.77 418.34 548.35 397.31" fill="#040919"/>
          <polyline points="511.93 418.34 548.35 439.37 584.77 418.34" fill="none" stroke="#666bff" stroke-linecap="round" stroke-linejoin="round"/>
          <polygon points="548.35 386.5 511.93 407.53 548.35 428.56 584.77 407.53 548.35 386.5" fill="#4331e8"/>
          <polyline points="511.93 407.53 548.35 428.56 584.77 407.53" fill="none" stroke="#666bff" stroke-linecap="round" stroke-linejoin="round"/>
          <polygon points="548.35 375.7 511.93 396.73 548.35 417.76 584.77 396.73 548.35 375.7" fill="#d0d3f5"/>
          <polyline points="511.93 396.73 548.35 417.76 584.77 396.73" fill="none" stroke="#666bff" stroke-linecap="round" stroke-linejoin="round"/>
          <g>
            <polygon points="548.35 364.89 511.93 385.92 548.35 406.95 584.77 385.92 548.35 364.89" fill="url(#linear-gradient-5)"/>
            <polyline points="584.77 385.92 548.35 364.89 511.93 385.92" fill="url(#linear-gradient-6)" stroke="#fff" stroke-linecap="round" stroke-linejoin="round"/>
            <polyline points="511.93 385.92 548.35 406.95 584.77 385.92" fill="none" stroke="#666bff" stroke-linecap="round" stroke-linejoin="round"/>
            <line x1="541.53" y1="394.15" x2="556.52" y2="385.49" fill="none" stroke="#666bff" stroke-linecap="round" stroke-linejoin="round"/>
            <line x1="536.55" y1="391.27" x2="557.62" y2="379.11" fill="none" stroke="#666bff" stroke-linecap="round" stroke-linejoin="round"/>
            <line x1="531.56" y1="388.39" x2="552.63" y2="376.23" fill="none" stroke="#666bff" stroke-linecap="round" stroke-linejoin="round"/>
            <line x1="526.58" y1="385.51" x2="547.65" y2="373.35" fill="none" stroke="#666bff" stroke-linecap="round" stroke-linejoin="round"/>
          </g>
        </g>
      </g>
      <path d="M412.61,271.08l1.63,.94c3.18,1.84,5.14,5.23,5.14,8.9v77.55c0,3.69,1.97,7.09,5.17,8.92l81.81,46.82" fill="none" stroke="#666bff" stroke-linecap="round" stroke-linejoin="round"/>
      <g>
        <g>
          <polygon points="455.29 544.75 530.93 501.08 455.29 457.41 379.65 501.08 455.29 544.75" fill="url(#New_Gradient_Swatch_1-2)"/>
          <polygon points="455.29 466.38 523.16 505.57 530.93 501.08 455.29 457.41 379.65 501.08 387.42 505.57 455.29 466.38" fill="#d0d3f5"/>
          <polygon points="455.29 475.4 515.35 510.08 523.16 505.57 455.29 466.38 387.42 505.57 395.23 510.08 455.29 475.4" fill="#040919"/>
          <polygon points="455.29 457.41 455.29 466.38 387.42 505.57 379.65 501.08 455.29 457.41" fill="#040919"/>
          <line x1="455.29" y1="466.38" x2="387.42" y2="505.57" fill="none" stroke="#4331e8" stroke-linecap="round" stroke-linejoin="round"/>
          <g>
            <rect x="447.46" y="510.45" width="7.98" height="7.98" fill="#040919"/>
            <rect x="447.46" y="518.43" width="7.98" height="7.98" fill="#040919"/>
            <rect x="489.86" y="499.37" width="7.98" height="7.98" fill="#040919"/>
            <polygon points="475.56 523.32 475.56 531.3 478.6 531.3 483.55 528.44 483.55 523.32 475.56 523.32" fill="#040919"/>
            <rect x="439.48" y="518.43" width="7.98" height="7.98" fill="#040919"/>
            <polyline points="431.5 518.43 423.52 518.43 423.52 526.41 431.5 526.41" fill="#040919"/>
            <polyline points="431.5 526.41 423.52 526.41 431.5 531.02" fill="#040919"/>
          </g>
        </g>
        <g>
          <path d="M484.01,472.34l-30.52-102.24c-.24-.8-.59-1.49-1.03-2.07l.05-2.16h-4.29c-1.02,0-2.09,.29-3.14,.89l-31.72,18.31c-3.48,2.01-5.38,6.8-4.23,10.64l30.52,102.24c.8,2.69,2.89,4.23,5.27,4.23h4.29s.04-1.57,.04-1.57l30.53-17.63c3.48-2.01,5.38-6.8,4.23-10.64Z" fill="#666bff" stroke="#666bff" stroke-linecap="round" stroke-linejoin="round"/>
          <path d="M417.65,385.07c-3.48,2.01-5.38,6.8-4.23,10.64l30.52,102.24c1.15,3.85,4.93,5.35,8.41,3.34l31.72-18.31c3.48-2.01,5.38-6.8,4.23-10.64l-30.52-102.24c-1.15-3.85-4.93-5.35-8.41-3.34l-31.72,18.31Z" fill="url(#linear-gradient-7)" stroke="#666bff" stroke-linecap="round" stroke-linejoin="round"/>
          <path d="M435.26,468.88l8.68,29.07c1.15,3.85,4.93,5.35,8.41,3.34l31.72-18.31c2.18-1.26,4.06-3.69,4.38-6.42" fill="none" stroke="#fff" stroke-linecap="round" stroke-linejoin="round"/>
          <polygon points="473.7 482.1 476.38 480.54 475.42 477.31 472.74 478.88 473.7 482.1" fill="#666bff"/>
          <g>
            <polygon points="464.28 489.45 469.64 486.31 467.71 479.86 462.35 483 464.28 489.45" fill="#fff"/>
            <polygon points="473.7 482.1 476.38 480.54 475.42 477.31 472.74 478.88 473.7 482.1" fill="#fff"/>
            <polygon points="481 477.89 483.68 476.32 482.71 473.1 480.03 474.67 481 477.89" fill="#fff"/>
            <polygon points="456.53 492.03 459.2 490.46 458.24 487.24 455.56 488.81 456.53 492.03" fill="#fff"/>
            <polygon points="449.23 496.24 451.91 494.68 450.95 491.45 448.27 493.02 449.23 496.24" fill="#fff"/>
          </g>
          <g>
            <line x1="424.66" y1="394.5" x2="419.58" y2="397.43" fill="none" stroke="#fff" stroke-linecap="round" stroke-linejoin="round"/>
            <line x1="425.63" y1="397.35" x2="420.56" y2="400.28" fill="none" stroke="#fff" stroke-linecap="round" stroke-linejoin="round"/>
          </g>
          <g>
            <path d="M471.54,422.56c-3.06,1.94-9.62-4.67-12.42-3.54-2.46,.99-.57,4.67-3.8,6.01-2.92,1.21-9.14-12.83-12.9-10.82s1.38,22.48-2.57,24.76c-3.95,2.27-10.16-8.33-13.65-6.18" fill="none" stroke="#fff" stroke-linecap="round" stroke-linejoin="round"/>
            <line x1="454.84" y1="448.24" x2="439.09" y2="457.33" fill="none" stroke="#fff" stroke-linecap="round" stroke-linejoin="round"/>
            <line x1="451.57" y1="453.78" x2="440.24" y2="460.32" fill="none" stroke="#fff" stroke-linecap="round" stroke-linejoin="round"/>
          </g>
          <line x1="444.99" y1="366.8" x2="445.08" y2="366.75" fill="url(#linear-gradient-8)" stroke="#666bff" stroke-linecap="round" stroke-linejoin="round"/>
        </g>
        <path d="M470.4,496.24l.93,3.13c.72,2.42,1.31,6.46,1.31,8.98v25.74" fill="none" stroke="#fff" stroke-linecap="round" stroke-linejoin="round"/>
        <polygon points="466.23 493.28 467.81 497.73 472.25 495.18 470.82 490.63 466.23 493.28" fill="#fff"/>
      </g>
    </g>
  </g>
</svg>