<?xml version="1.0" encoding="UTF-8"?>
<svg xmlns="http://www.w3.org/2000/svg" width="800" height="600" xmlns:xlink="http://www.w3.org/1999/xlink" viewBox="0 0 800 600">
  <defs>
    <linearGradient id="linear-gradient" x1="221.49" y1="394.15" x2="436.9" y2="394.15" gradientUnits="userSpaceOnUse">
      <stop offset="0" stop-color="#4331e8"/>
      <stop offset=".05" stop-color="#4331e8" stop-opacity=".83"/>
      <stop offset=".13" stop-color="#4331e8" stop-opacity=".58"/>
      <stop offset=".2" stop-color="#4331e8" stop-opacity=".37"/>
      <stop offset=".28" stop-color="#4331e8" stop-opacity=".21"/>
      <stop offset=".34" stop-color="#4331e8" stop-opacity=".09"/>
      <stop offset=".4" stop-color="#4331e8" stop-opacity=".02"/>
      <stop offset=".45" stop-color="#4331e8" stop-opacity="0"/>
    </linearGradient>
    <linearGradient id="linear-gradient-2" x1="247.39" y1="209.59" x2="228.32" y2="237.97" gradientUnits="userSpaceOnUse">
      <stop offset="0" stop-color="#040919"/>
      <stop offset=".05" stop-color="#080c28"/>
      <stop offset=".24" stop-color="#1a1762"/>
      <stop offset=".42" stop-color="#282092"/>
      <stop offset=".59" stop-color="#3427b7"/>
      <stop offset=".75" stop-color="#3c2cd2"/>
      <stop offset=".89" stop-color="#412fe2"/>
      <stop offset="1" stop-color="#4331e8"/>
    </linearGradient>
    <linearGradient id="linear-gradient-3" x1="312.65" y1="258.68" x2="596.61" y2="258.68" xlink:href="#linear-gradient"/>
    <linearGradient id="linear-gradient-4" x1="245.31" y1="370.65" x2="519.16" y2="370.65" xlink:href="#linear-gradient"/>
    <linearGradient id="New_Gradient_Swatch_1" data-name="New Gradient Swatch 1" x1="596.5" y1="288.16" x2="605.77" y2="272.27" gradientUnits="userSpaceOnUse">
      <stop offset="0" stop-color="#040919"/>
      <stop offset=".05" stop-color="#080c28"/>
      <stop offset=".24" stop-color="#1a1762"/>
      <stop offset=".42" stop-color="#282092"/>
      <stop offset=".59" stop-color="#3427b7"/>
      <stop offset=".75" stop-color="#3c2cd2"/>
      <stop offset=".89" stop-color="#412fe2"/>
      <stop offset="1" stop-color="#4331e8"/>
    </linearGradient>
  </defs>
  <g id="BG">
    <rect width="800" height="600" fill="#040919"/>
  </g>
  <g id="Dark">
    <g>
      <polygon points="55.18 347.52 171.03 414.41 170.67 370.65 208.6 348.75 130.82 303.85 55.18 347.52" fill="#221380"/>
      <polygon points="114.71 374.27 61.01 344.16 99.89 321.71 154.25 355.06 142.65 360.99 97.18 340.9 91.75 344.16 119.35 368.07 114.71 374.27" fill="#040919"/>
      <g>
        <path d="M143.63,343.7c.15,4.99-.98,4.77-1.04,9.31l.34,3.99c.11,1.32,1.28,2.56,2.58,2.75l16.58,2.49c5.58,.84,7.15-3.6,7.15-3.6l-12.72-6.89c-3.41-1.85-4.87-5.24-4.38-8.73" fill="#040919"/>
        <path d="M154.25,349.64l-6.08,3.82c-1.17,.74-3.02,.64-4.11-.23l-1.42-1.13c-.06-2.31,.9-4.77,.99-8.41l8.52-.67s-.44,3.3,2.1,6.61Z" fill="#bcc0e5"/>
        <path d="M121.56,354.34l3.26,17.9c.76,4.18-12.32,5.18-12.5-2.15l-.29-11.8c2.05-3.73,2.61-5.2,2.55-9.24" fill="#040919"/>
        <path d="M122.39,358.9l-5.18,.2c-2.54,.1-3.16,2.38-5.18,2.35v-2.38c0-2.23,2.18-3.74,2.32-6.66l7.21,1.93,.83,4.56Z" fill="#bcc0e5"/>
        <path d="M108.52,267.62s-3.4,7.05-3.4,17.03l2.73,29.27,2.67,5.33s-2.66,4.44-2.06,8.9l3.41,25.5s6.09,5.46,12.22,0l3.81-87.84-19.38,1.81Z" fill="#040919"/>
        <path d="M108.52,267.62s-3.4,7.05-3.4,17.03l2.73,29.27,2.67,5.33s-2.66,4.44-2.06,8.9l3.41,25.5" fill="none" stroke="#4331e8" stroke-linecap="round" stroke-linejoin="round"/>
        <path d="M145.83,265.8l6.54,79.88s-5.78,3.94-11.75,.55l-5.36-31.14,.95-5.19s-5.03-4.81-6.61-10.2l-8.6-29.32,24.83-4.59Z" fill="#040919"/>
        <path d="M140.62,346.23l-5.36-31.14,.95-5.19s-5.03-4.81-6.61-10.2l-2.56-8.74" fill="none" stroke="#4331e8" stroke-linecap="round" stroke-linejoin="round"/>
        <path d="M150.14,217.63c-.53-3.9-4.04-8-7.81-9.12l-16.51-4.9-22.43,11.5,5.12,52.51,2.03,1.04c4.85,2.49,10.43,3.15,15.72,1.87l19.56-4.72-1.73-38.18,6.04-10Z" fill="#040919"/>
        <path d="M144.1,227.63l6.04-10c-.53-3.9-4.04-8-7.81-9.12l-16.51-4.9-22.43,11.5,5.12,52.51" fill="none" stroke="#4331e8" stroke-linecap="round" stroke-linejoin="round"/>
        <path d="M110.55,268.66c4.85,2.49,10.43,3.15,15.72,1.87l16.77-4.05" fill="none" stroke="#4331e8" stroke-linecap="round" stroke-linejoin="round"/>
        <path d="M124.44,259l-3.19-5.03-10.62,7.51,2.65,.55c3.59,.74,4.63-1.98,7.31-2.41l3.86-.62Z" fill="#4331e8"/>
        <path d="M121.22,209.29l6.21,3.85,3.78,2.35,2.01-6.54,2.38-.27c1.27-.14,2.72-1.21,3.24-2.38l3.46-7.8,.54-6.96c.34-4.37-2.61-8.32-6.9-9.23l-3.22-.68c-7.52-1.6-14.96,4.83-11.71,14.2l1.47,4.24c.7,2.01,1.38,4.58,.21,6.36l-1.5,2.85Z" fill="#4331e8"/>
        <path d="M124.22,195.5l7.61,2.43,11.72-4.26-.71,3.84c-.31,1.68-2.79,1.62-2.79,1.62" fill="none" stroke="#bcc0e5" stroke-linecap="round" stroke-linejoin="round"/>
        <path d="M150.14,217.63l1.99,26.66c.23,3.03-1.95,6.28-4.83,7.22l-22.86,7.49-3.19-5.03,10.22-4.98,8.54-4.16,4.64-2.26-.53-9.01-.86-12.14-.91-12.91s7.26,1.83,7.81,9.12Z" fill="#d0d3f5"/>
        <path d="M135.25,212.97l-2.24-3.3-1.79,5.82-7.26-4.5c-1.5-.93-2.06-2.98-1.23-4.55l-2.04,2.41c-1.91,2.25-1.37,5.3,1.19,6.76l6.69,3.84,2.76-3.03,2.56,3.03,1.37-6.48Z" fill="#fff"/>
        <path d="M132.25,244.43l-17.16,15.74c-4.4,4.04-8.68-1.22-9.06-3.4-1.75-10.02-4.31-24.89-5.66-32.73-.57-3.29,.57-6.65,3.02-8.92h.01s10.14,5.04,11.1,14.28l1.81,17.45,18.75-15.7,4.13,4.46-3.46,2.86-3.49,5.95Z" fill="#d0d3f5"/>
        <path d="M135.89,230.69s.46-2.96,1.23-4.34l1.74-3.14c.54,.2,.94,.82,.91,1.39l-.2,3.33,4.54-.82,5.24-.6,.64,1.22,1.44-.15-.09,1.85-7.07,2.53-4.45,1.91-3.93-3.17Z" fill="#4331e8"/>
        <path d="M138.18,195.62l-.5,3.84c-.31,2.34-4.43,3.21-4.94,1.52l-.91-3.05" fill="none" stroke="#bcc0e5" stroke-linecap="round" stroke-linejoin="round"/>
        <polygon points="152.45 359.98 151.74 362.01 142.65 360.99 142.59 353.01 152.45 359.98" fill="#040919"/>
        <path d="M116.33,274.24s-.77,9.35-7.98,10.41" fill="none" stroke="#4331e8" stroke-linecap="round" stroke-linejoin="round"/>
        <path d="M116.32,246.85l-6.59,4.77s-1.17-2.22,.9-3.88c2.07-1.66,4.04-3.18,2.7-5.99s1.93-5.06,1.93-5.06l1.06,10.15Z" fill="#666bff"/>
        <path d="M113.28,262.03l-2.65-.55-1.42-1.84,.64-.97,5.37,.8c1.05,.16,2.52-.33,3.27-1.09l.88-.9v1.68s-4.08,2.67-4.08,2.67l-2.02,.19Z" fill="#4331e8"/>
        <line x1="134.37" y1="238.38" x2="131" y2="234.56" fill="none" stroke="#666bff" stroke-linecap="round" stroke-linejoin="round"/>
        <line x1="126.36" y1="253.29" x2="127.9" y2="257.87" fill="none" stroke="#666bff" stroke-linecap="round" stroke-linejoin="round"/>
        <path d="M110.48,315.72l5.84,8.23s-1.67,2.08-4.29-.75" fill="none" stroke="#4331e8" stroke-linecap="round" stroke-linejoin="round"/>
        <path d="M136.2,309.91c3,3.24,5.78,5.81,4.04,7.56-1.75,1.75-2.46,2.08-1.75,5.32" fill="none" stroke="#4331e8" stroke-linecap="round" stroke-linejoin="round"/>
      </g>
      <g>
        <line x1="451.24" y1="210.37" x2="420.4" y2="192.56" fill="none" stroke="#4331e8" stroke-linecap="round" stroke-linejoin="round"/>
        <polygon points="456.16 164.59 451.24 167.43 451.24 210.37 456.16 207.53 456.16 164.59" fill="#4331e8"/>
        <polygon points="456.16 150.27 468.56 157.43 482.09 149.62 451.24 131.81 420.4 149.62 451.24 167.43 456.16 164.59 456.16 150.27" fill="#4331e8"/>
        <line x1="487.01" y1="231.02" x2="456.16" y2="213.21" fill="none" stroke="#4331e8" stroke-linecap="round" stroke-linejoin="round"/>
        <polygon points="522.77 92.89 491.93 110.7 522.77 128.51 553.62 110.7 522.77 92.89" fill="#4331e8"/>
        <g>
          <polygon points="522.77 84.54 491.93 102.35 522.77 120.16 553.62 102.35 522.77 84.54" fill="none" stroke="#fff" stroke-linecap="round" stroke-linejoin="round"/>
          <polygon points="522.77 55.72 491.93 73.53 522.77 91.34 553.62 73.53 522.77 55.72" fill="none" stroke="#fff" stroke-linecap="round" stroke-linejoin="round"/>
          <polygon points="553.62 102.35 522.77 120.16 522.77 91.34 553.62 73.53 553.62 102.35" fill="none" stroke="#fff" stroke-linecap="round" stroke-linejoin="round"/>
          <polygon points="491.93 102.35 522.77 120.16 522.77 91.34 491.93 73.53 491.93 102.35" fill="none" stroke="#fff" stroke-linecap="round" stroke-linejoin="round"/>
        </g>
        <polygon points="491.93 135.31 487.01 132.47 456.16 150.27 487.01 168.08 491.93 165.24 491.93 135.31" fill="#4331e8"/>
        <polygon points="491.93 165.24 487.01 168.08 487.01 231.02 491.93 228.18 491.93 165.24" fill="#4331e8"/>
        <line x1="522.77" y1="251.67" x2="491.93" y2="233.86" fill="none" stroke="#4331e8" stroke-linecap="round" stroke-linejoin="round"/>
        <polygon points="527.69 158.26 553.62 173.23 553.62 110.7 522.77 128.51 522.77 251.67 527.69 248.83 527.69 158.26" fill="#4331e8"/>
        <polyline points="553.62 110.7 522.77 128.51 491.93 110.7" fill="none" stroke="#666bff" stroke-linecap="round" stroke-linejoin="round"/>
        <polygon points="589.38 254.51 589.38 158.26 558.54 176.07 558.54 272.32 589.38 254.51" fill="#4331e8"/>
        <polyline points="589.38 254.51 558.54 272.32 527.69 254.51" fill="none" stroke="#4331e8" stroke-linecap="round" stroke-linejoin="round"/>
        <polygon points="558.54 272.32 565.77 276.49 596.61 258.68 589.38 254.51 558.54 272.32" fill="#bcc0e5"/>
        <polygon points="558.54 140.45 527.69 158.26 558.54 176.07 589.38 158.26 558.54 140.45" fill="#4331e8"/>
        <path d="M419.93,176.59c13.97,8.06,13.89,8.02,27.86,16.08s21.8-8.86,35.76-.8c13.97,8.06,23.72-28.62,35.76-21.67,12.05,6.95,18.8,44.48,30.85,51.43l8.51,4.91" fill="none" stroke="#4331e8" stroke-linecap="round" stroke-linejoin="round"/>
        <path d="M412.2,181.06c13.97,8.06,13.89,8.02,27.86,16.08,13.97,8.06,21.8-8.86,35.76-.8,13.97,8.06,23.72-28.62,35.76-21.67,12.05,6.95,18.8,44.48,30.85,51.43l8.51,4.91" fill="none" stroke="#fff" stroke-linecap="round" stroke-linejoin="round"/>
        <polyline points="589.38 158.26 558.54 176.07 527.69 158.26" fill="none" stroke="#666bff" stroke-linecap="round" stroke-linejoin="round"/>
        <polyline points="491.93 165.24 487.01 168.08 456.16 150.27" fill="none" stroke="#666bff" stroke-linecap="round" stroke-linejoin="round"/>
        <polyline points="456.16 164.59 451.24 167.43 420.4 149.62" fill="none" stroke="#666bff" stroke-linecap="round" stroke-linejoin="round"/>
      </g>
      <polygon points="525.62 329.67 383.64 411.64 465.03 458.63 607.01 376.66 525.62 329.67" fill="url(#linear-gradient)"/>
      <polygon points="286.78 152.39 170.67 219.43 170.67 322.34 286.78 255.3 286.78 152.39" fill="url(#linear-gradient-2)"/>
      <polygon points="286.78 152.39 170.67 219.43 170.67 226.08 286.78 159.04 286.78 152.39" fill="#fff"/>
      <line x1="284.66" y1="157" x2="279.64" y2="159.9" fill="none" stroke="#040919" stroke-linecap="round" stroke-linejoin="round"/>
      <line x1="276.02" y1="161.99" x2="271" y2="164.89" fill="none" stroke="#040919" stroke-linecap="round" stroke-linejoin="round"/>
      <polygon points="234.06 209.73 234.06 248.14 267.71 228.71 267.71 190.3 234.06 209.73" fill="#666bff"/>
      <polygon points="243.61 215.24 243.61 253.65 277.26 234.22 277.26 195.81 243.61 215.24" fill="none" stroke="#666bff" stroke-linecap="round" stroke-linejoin="round"/>
      <g>
        <polygon points="570.83 355.77 585.74 364.38 611.52 349.49 596.61 340.88 570.83 355.77" fill="#bcc0e5"/>
        <polygon points="454.63 176.71 312.65 258.68 454.63 340.65 596.61 258.68 454.63 176.71" fill="url(#linear-gradient-3)"/>
        <polygon points="312.65 288.68 170.67 370.65 312.65 452.62 454.63 370.65 312.65 288.68" fill="url(#linear-gradient-4)"/>
        <polygon points="383.64 463.84 383.64 411.64 312.65 452.62 312.65 504.83 383.64 463.84" fill="#4331e8"/>
        <polygon points="525.62 329.67 570.83 355.77 596.61 340.88 596.61 258.68 454.63 340.65 454.63 370.65 525.62 329.67" fill="#4331e8"/>
        <line x1="312.65" y1="258.68" x2="454.63" y2="340.65" fill="none" stroke="#4331e8" stroke-linecap="round" stroke-linejoin="round"/>
        <line x1="170.67" y1="370.65" x2="312.65" y2="452.62" fill="none" stroke="#4331e8" stroke-linecap="round" stroke-linejoin="round"/>
        <line x1="383.64" y1="411.64" x2="465.03" y2="458.63" fill="none" stroke="#4331e8" stroke-linecap="round" stroke-linejoin="round"/>
        <g>
          <polygon points="652.68 455.23 510.7 537.2 510.7 519.8 652.68 437.83 652.68 455.23" fill="#4331e8"/>
          <polygon points="607.01 394.06 465.03 476.03 465.03 458.63 607.01 376.66 607.01 394.06" fill="#4331e8"/>
          <polygon points="629.85 424.64 487.87 506.61 487.87 489.21 629.85 407.24 629.85 424.64" fill="#4331e8"/>
        </g>
      </g>
      <g>
        <circle cx="248.32" cy="367.37" r=".7" fill="#4331e8"/>
        <circle cx="256.36" cy="372.01" r=".7" fill="#4331e8"/>
        <circle cx="248.32" cy="376.66" r=".7" fill="#4331e8"/>
        <circle cx="264.4" cy="376.66" r=".7" fill="#4331e8"/>
        <circle cx="256.36" cy="381.3" r=".7" fill="#4331e8"/>
        <circle cx="248.32" cy="385.94" r=".7" fill="#4331e8"/>
        <circle cx="272.44" cy="381.3" r=".7" fill="#4331e8"/>
        <circle cx="264.4" cy="385.94" r=".7" fill="#4331e8"/>
        <circle cx="256.36" cy="390.58" r=".7" fill="#4331e8"/>
        <circle cx="248.32" cy="395.23" r=".7" fill="#4331e8"/>
        <circle cx="272.44" cy="390.58" r=".7" fill="#4331e8"/>
        <circle cx="264.4" cy="395.23" r=".7" fill="#4331e8"/>
        <circle cx="280.49" cy="385.94" r=".7" fill="#4331e8"/>
        <circle cx="256.36" cy="399.87" r=".7" fill="#4331e8"/>
        <circle cx="248.32" cy="404.51" r=".7" fill="#4331e8"/>
        <circle cx="240.28" cy="372.01" r=".7" fill="#4331e8"/>
        <circle cx="264.4" cy="358.09" r=".7" fill="#4331e8"/>
        <circle cx="272.44" cy="362.73" r=".7" fill="#4331e8"/>
        <circle cx="264.4" cy="367.37" r=".7" fill="#4331e8"/>
        <circle cx="280.49" cy="367.37" r=".7" fill="#4331e8"/>
        <circle cx="272.44" cy="372.01" r=".7" fill="#4331e8"/>
        <circle cx="288.53" cy="372.01" r=".7" fill="#4331e8"/>
        <circle cx="280.49" cy="376.66" r=".7" fill="#4331e8"/>
        <circle cx="288.53" cy="381.3" r=".7" fill="#4331e8"/>
        <circle cx="296.57" cy="376.66" r=".7" fill="#4331e8"/>
        <circle cx="256.36" cy="362.73" r=".7" fill="#4331e8"/>
        <circle cx="280.49" cy="358.09" r=".7" fill="#4331e8"/>
        <circle cx="288.53" cy="362.73" r=".7" fill="#4331e8"/>
        <circle cx="296.57" cy="367.37" r=".7" fill="#4331e8"/>
        <circle cx="304.61" cy="372.01" r=".7" fill="#4331e8"/>
        <circle cx="280.49" cy="395.23" r=".7" fill="#4331e8"/>
        <circle cx="272.44" cy="399.87" r=".7" fill="#4331e8"/>
        <circle cx="288.53" cy="390.58" r=".7" fill="#4331e8"/>
        <circle cx="264.4" cy="404.51" r=".7" fill="#4331e8"/>
        <circle cx="256.36" cy="409.16" r=".7" fill="#4331e8"/>
        <circle cx="296.57" cy="385.94" r=".7" fill="#4331e8"/>
        <circle cx="304.61" cy="381.3" r=".7" fill="#4331e8"/>
        <circle cx="312.65" cy="376.66" r=".7" fill="#4331e8"/>
        <circle cx="288.53" cy="399.87" r=".7" fill="#4331e8"/>
        <circle cx="280.49" cy="404.51" r=".7" fill="#4331e8"/>
        <circle cx="296.57" cy="395.23" r=".7" fill="#4331e8"/>
        <circle cx="272.44" cy="409.16" r=".7" fill="#4331e8"/>
        <circle cx="264.4" cy="413.8" r=".7" fill="#4331e8"/>
        <circle cx="304.61" cy="390.58" r=".7" fill="#4331e8"/>
        <circle cx="312.65" cy="385.94" r=".7" fill="#4331e8"/>
        <circle cx="320.69" cy="381.3" r=".7" fill="#4331e8"/>
        <circle cx="296.57" cy="404.51" r=".7" fill="#4331e8"/>
        <circle cx="288.53" cy="409.16" r=".7" fill="#4331e8"/>
        <circle cx="304.61" cy="399.87" r=".7" fill="#4331e8"/>
        <circle cx="280.49" cy="413.8" r=".7" fill="#4331e8"/>
        <circle cx="272.44" cy="418.44" r=".7" fill="#4331e8"/>
        <circle cx="312.65" cy="395.23" r=".7" fill="#4331e8"/>
        <circle cx="320.69" cy="390.58" r=".7" fill="#4331e8"/>
        <circle cx="328.73" cy="385.94" r=".7" fill="#4331e8"/>
        <circle cx="304.61" cy="409.16" r=".7" fill="#4331e8"/>
        <circle cx="296.57" cy="413.8" r=".7" fill="#4331e8"/>
        <circle cx="312.65" cy="404.51" r=".7" fill="#4331e8"/>
        <circle cx="288.53" cy="418.44" r=".7" fill="#4331e8"/>
        <circle cx="280.49" cy="423.08" r=".7" fill="#4331e8"/>
        <circle cx="320.69" cy="399.87" r=".7" fill="#4331e8"/>
        <circle cx="328.73" cy="395.23" r=".7" fill="#4331e8"/>
        <circle cx="336.78" cy="390.58" r=".7" fill="#4331e8"/>
        <circle cx="312.65" cy="413.8" r=".7" fill="#4331e8"/>
        <circle cx="304.61" cy="418.44" r=".7" fill="#4331e8"/>
        <circle cx="320.69" cy="409.16" r=".7" fill="#4331e8"/>
        <circle cx="296.57" cy="423.08" r=".7" fill="#4331e8"/>
        <circle cx="288.53" cy="427.73" r=".7" fill="#4331e8"/>
        <circle cx="328.73" cy="404.51" r=".7" fill="#4331e8"/>
        <circle cx="336.78" cy="399.87" r=".7" fill="#4331e8"/>
        <circle cx="344.82" cy="395.23" r=".7" fill="#4331e8"/>
        <circle cx="320.69" cy="418.44" r=".7" fill="#4331e8"/>
        <circle cx="312.65" cy="423.08" r=".7" fill="#4331e8"/>
        <circle cx="328.73" cy="413.8" r=".7" fill="#4331e8"/>
        <circle cx="304.61" cy="427.73" r=".7" fill="#4331e8"/>
        <circle cx="296.57" cy="432.37" r=".7" fill="#4331e8"/>
        <circle cx="336.78" cy="409.16" r=".7" fill="#4331e8"/>
        <circle cx="344.82" cy="404.51" r=".7" fill="#4331e8"/>
        <circle cx="352.86" cy="399.87" r=".7" fill="#4331e8"/>
        <circle cx="328.73" cy="423.08" r=".7" fill="#4331e8"/>
        <circle cx="320.69" cy="427.73" r=".7" fill="#4331e8"/>
        <circle cx="336.78" cy="418.44" r=".7" fill="#4331e8"/>
        <circle cx="312.65" cy="432.37" r=".7" fill="#4331e8"/>
        <circle cx="304.61" cy="437.01" r=".7" fill="#4331e8"/>
        <circle cx="344.82" cy="413.8" r=".7" fill="#4331e8"/>
        <circle cx="352.86" cy="409.16" r=".7" fill="#4331e8"/>
        <circle cx="360.9" cy="404.51" r=".7" fill="#4331e8"/>
        <circle cx="336.78" cy="427.73" r=".7" fill="#4331e8"/>
        <circle cx="328.73" cy="432.37" r=".7" fill="#4331e8"/>
        <circle cx="344.82" cy="423.08" r=".7" fill="#4331e8"/>
        <circle cx="320.69" cy="437.01" r=".7" fill="#4331e8"/>
        <circle cx="312.65" cy="441.65" r=".7" fill="#4331e8"/>
        <circle cx="352.86" cy="418.44" r=".7" fill="#4331e8"/>
        <circle cx="360.9" cy="413.8" r=".7" fill="#4331e8"/>
        <circle cx="368.94" cy="409.16" r=".7" fill="#4331e8"/>
        <circle cx="376.98" cy="404.51" r=".7" fill="#4331e8"/>
        <circle cx="272.44" cy="353.44" r=".7" fill="#4331e8"/>
        <circle cx="232.24" cy="376.66" r=".7" fill="#4331e8"/>
        <circle cx="240.28" cy="381.3" r=".7" fill="#4331e8"/>
        <circle cx="224.2" cy="381.3" r=".7" fill="#4331e8"/>
        <circle cx="232.24" cy="385.94" r=".7" fill="#4331e8"/>
        <circle cx="240.28" cy="390.58" r=".7" fill="#4331e8"/>
        <circle cx="224.2" cy="390.58" r=".7" fill="#4331e8"/>
        <circle cx="232.24" cy="395.23" r=".7" fill="#4331e8"/>
        <circle cx="216.15" cy="385.94" r=".7" fill="#4331e8"/>
        <circle cx="240.28" cy="399.87" r=".7" fill="#4331e8"/>
        <circle cx="224.2" cy="372.01" r=".7" fill="#4331e8"/>
        <circle cx="216.15" cy="376.66" r=".7" fill="#4331e8"/>
        <circle cx="240.28" cy="362.73" r=".7" fill="#4331e8"/>
        <circle cx="232.24" cy="367.37" r=".7" fill="#4331e8"/>
        <circle cx="248.32" cy="358.09" r=".7" fill="#4331e8"/>
        <circle cx="208.11" cy="381.3" r=".7" fill="#4331e8"/>
        <circle cx="224.2" cy="353.44" r=".7" fill="#4331e8"/>
        <circle cx="216.15" cy="358.09" r=".7" fill="#4331e8"/>
        <circle cx="208.11" cy="362.73" r=".7" fill="#4331e8"/>
        <circle cx="200.07" cy="367.37" r=".7" fill="#4331e8"/>
        <circle cx="224.2" cy="362.73" r=".7" fill="#4331e8"/>
        <circle cx="216.15" cy="367.37" r=".7" fill="#4331e8"/>
        <circle cx="232.24" cy="358.09" r=".7" fill="#4331e8"/>
        <circle cx="208.11" cy="372.01" r=".7" fill="#4331e8"/>
        <circle cx="200.07" cy="376.66" r=".7" fill="#4331e8"/>
        <circle cx="256.36" cy="353.44" r=".7" fill="#4331e8"/>
        <circle cx="240.28" cy="344.16" r=".7" fill="#4331e8"/>
        <circle cx="232.24" cy="348.8" r=".7" fill="#4331e8"/>
        <circle cx="240.28" cy="353.44" r=".7" fill="#4331e8"/>
        <circle cx="248.32" cy="348.8" r=".7" fill="#4331e8"/>
        <circle cx="264.4" cy="348.8" r=".7" fill="#4331e8"/>
        <circle cx="248.32" cy="339.51" r=".7" fill="#4331e8"/>
        <circle cx="256.36" cy="344.16" r=".7" fill="#4331e8"/>
        <circle cx="192.03" cy="372.01" r=".7" fill="#4331e8"/>
        <circle cx="312.65" cy="330.23" r=".7" fill="#4331e8"/>
        <circle cx="320.69" cy="334.87" r=".7" fill="#4331e8"/>
        <circle cx="312.65" cy="339.51" r=".7" fill="#4331e8"/>
        <circle cx="328.73" cy="339.51" r=".7" fill="#4331e8"/>
        <circle cx="320.69" cy="344.16" r=".7" fill="#4331e8"/>
        <circle cx="312.65" cy="348.8" r=".7" fill="#4331e8"/>
        <circle cx="336.78" cy="344.16" r=".7" fill="#4331e8"/>
        <circle cx="328.73" cy="348.8" r=".7" fill="#4331e8"/>
        <circle cx="320.69" cy="353.44" r=".7" fill="#4331e8"/>
        <circle cx="312.65" cy="358.09" r=".7" fill="#4331e8"/>
        <circle cx="336.78" cy="353.44" r=".7" fill="#4331e8"/>
        <circle cx="328.73" cy="358.09" r=".7" fill="#4331e8"/>
        <circle cx="344.82" cy="348.8" r=".7" fill="#4331e8"/>
        <circle cx="320.69" cy="362.73" r=".7" fill="#4331e8"/>
        <circle cx="312.65" cy="367.37" r=".7" fill="#4331e8"/>
        <circle cx="304.61" cy="334.87" r=".7" fill="#4331e8"/>
        <circle cx="328.73" cy="320.94" r=".7" fill="#4331e8"/>
        <circle cx="336.78" cy="325.59" r=".7" fill="#4331e8"/>
        <circle cx="328.73" cy="330.23" r=".7" fill="#4331e8"/>
        <circle cx="344.82" cy="330.23" r=".7" fill="#4331e8"/>
        <circle cx="336.78" cy="334.87" r=".7" fill="#4331e8"/>
        <circle cx="352.86" cy="334.87" r=".7" fill="#4331e8"/>
        <circle cx="344.82" cy="339.51" r=".7" fill="#4331e8"/>
        <circle cx="352.86" cy="344.16" r=".7" fill="#4331e8"/>
        <circle cx="360.9" cy="339.51" r=".7" fill="#4331e8"/>
        <circle cx="320.69" cy="325.59" r=".7" fill="#4331e8"/>
        <circle cx="344.82" cy="320.94" r=".7" fill="#4331e8"/>
        <circle cx="352.86" cy="325.59" r=".7" fill="#4331e8"/>
        <circle cx="360.9" cy="330.23" r=".7" fill="#4331e8"/>
        <circle cx="368.94" cy="334.87" r=".7" fill="#4331e8"/>
        <circle cx="344.82" cy="358.09" r=".7" fill="#4331e8"/>
        <circle cx="336.78" cy="362.73" r=".7" fill="#4331e8"/>
        <circle cx="352.86" cy="353.44" r=".7" fill="#4331e8"/>
        <circle cx="328.73" cy="367.37" r=".7" fill="#4331e8"/>
        <circle cx="320.69" cy="372.01" r=".7" fill="#4331e8"/>
        <circle cx="360.9" cy="348.8" r=".7" fill="#4331e8"/>
        <circle cx="368.94" cy="344.16" r=".7" fill="#4331e8"/>
        <circle cx="376.98" cy="339.51" r=".7" fill="#4331e8"/>
        <circle cx="352.86" cy="362.73" r=".7" fill="#4331e8"/>
        <circle cx="344.82" cy="367.37" r=".7" fill="#4331e8"/>
        <circle cx="360.9" cy="358.09" r=".7" fill="#4331e8"/>
        <circle cx="336.78" cy="372.01" r=".7" fill="#4331e8"/>
        <circle cx="328.73" cy="376.66" r=".7" fill="#4331e8"/>
        <circle cx="368.94" cy="353.44" r=".7" fill="#4331e8"/>
        <circle cx="376.98" cy="348.8" r=".7" fill="#4331e8"/>
        <circle cx="385.02" cy="344.16" r=".7" fill="#4331e8"/>
        <circle cx="360.9" cy="367.37" r=".7" fill="#4331e8"/>
        <circle cx="352.86" cy="372.01" r=".7" fill="#4331e8"/>
        <circle cx="368.94" cy="362.73" r=".7" fill="#4331e8"/>
        <circle cx="344.82" cy="376.66" r=".7" fill="#4331e8"/>
        <circle cx="336.78" cy="381.3" r=".7" fill="#4331e8"/>
        <circle cx="376.98" cy="358.09" r=".7" fill="#4331e8"/>
        <circle cx="385.02" cy="353.44" r=".7" fill="#4331e8"/>
        <circle cx="393.07" cy="348.8" r=".7" fill="#4331e8"/>
        <circle cx="368.94" cy="372.01" r=".7" fill="#4331e8"/>
        <circle cx="360.9" cy="376.66" r=".7" fill="#4331e8"/>
        <circle cx="376.98" cy="367.37" r=".7" fill="#4331e8"/>
        <circle cx="352.86" cy="381.3" r=".7" fill="#4331e8"/>
        <circle cx="344.82" cy="385.94" r=".7" fill="#4331e8"/>
        <circle cx="385.02" cy="362.73" r=".7" fill="#4331e8"/>
        <circle cx="393.07" cy="358.09" r=".7" fill="#4331e8"/>
        <circle cx="401.11" cy="353.44" r=".7" fill="#4331e8"/>
        <circle cx="376.98" cy="376.66" r=".7" fill="#4331e8"/>
        <circle cx="368.94" cy="381.3" r=".7" fill="#4331e8"/>
        <circle cx="385.02" cy="372.01" r=".7" fill="#4331e8"/>
        <circle cx="360.9" cy="385.94" r=".7" fill="#4331e8"/>
        <circle cx="352.86" cy="390.58" r=".7" fill="#4331e8"/>
        <circle cx="393.07" cy="367.37" r=".7" fill="#4331e8"/>
        <circle cx="401.11" cy="362.73" r=".7" fill="#4331e8"/>
        <circle cx="409.15" cy="358.09" r=".7" fill="#4331e8"/>
        <circle cx="385.02" cy="381.3" r=".7" fill="#4331e8"/>
        <circle cx="376.98" cy="385.94" r=".7" fill="#4331e8"/>
        <circle cx="393.07" cy="376.66" r=".7" fill="#4331e8"/>
        <circle cx="368.94" cy="390.58" r=".7" fill="#4331e8"/>
        <circle cx="360.9" cy="395.23" r=".7" fill="#4331e8"/>
        <circle cx="401.11" cy="372.01" r=".7" fill="#4331e8"/>
        <circle cx="409.15" cy="367.37" r=".7" fill="#4331e8"/>
        <circle cx="417.19" cy="362.73" r=".7" fill="#4331e8"/>
        <circle cx="393.07" cy="385.94" r=".7" fill="#4331e8"/>
        <circle cx="385.02" cy="390.58" r=".7" fill="#4331e8"/>
        <circle cx="401.11" cy="381.3" r=".7" fill="#4331e8"/>
        <circle cx="376.98" cy="395.23" r=".7" fill="#4331e8"/>
        <circle cx="368.94" cy="399.87" r=".7" fill="#4331e8"/>
        <circle cx="409.15" cy="376.66" r=".7" fill="#4331e8"/>
        <circle cx="417.19" cy="372.01" r=".7" fill="#4331e8"/>
        <circle cx="425.23" cy="367.37" r=".7" fill="#4331e8"/>
        <circle cx="401.11" cy="390.58" r=".7" fill="#4331e8"/>
        <circle cx="393.07" cy="395.23" r=".7" fill="#4331e8"/>
        <circle cx="409.15" cy="385.94" r=".7" fill="#4331e8"/>
        <circle cx="385.02" cy="399.87" r=".7" fill="#4331e8"/>
        <circle cx="417.19" cy="381.3" r=".7" fill="#4331e8"/>
        <circle cx="425.23" cy="376.66" r=".7" fill="#4331e8"/>
        <circle cx="433.27" cy="372.01" r=".7" fill="#4331e8"/>
        <circle cx="336.78" cy="316.3" r=".7" fill="#4331e8"/>
        <circle cx="296.57" cy="339.51" r=".7" fill="#4331e8"/>
        <circle cx="304.61" cy="344.16" r=".7" fill="#4331e8"/>
        <circle cx="288.53" cy="344.16" r=".7" fill="#4331e8"/>
        <circle cx="296.57" cy="348.8" r=".7" fill="#4331e8"/>
        <circle cx="304.61" cy="353.44" r=".7" fill="#4331e8"/>
        <circle cx="288.53" cy="353.44" r=".7" fill="#4331e8"/>
        <circle cx="296.57" cy="358.09" r=".7" fill="#4331e8"/>
        <circle cx="280.49" cy="348.8" r=".7" fill="#4331e8"/>
        <circle cx="304.61" cy="362.73" r=".7" fill="#4331e8"/>
        <circle cx="288.53" cy="334.87" r=".7" fill="#4331e8"/>
        <circle cx="280.49" cy="339.51" r=".7" fill="#4331e8"/>
        <circle cx="304.61" cy="325.59" r=".7" fill="#4331e8"/>
        <circle cx="296.57" cy="330.23" r=".7" fill="#4331e8"/>
        <circle cx="312.65" cy="320.94" r=".7" fill="#4331e8"/>
        <circle cx="272.44" cy="344.16" r=".7" fill="#4331e8"/>
        <circle cx="288.53" cy="316.3" r=".7" fill="#4331e8"/>
        <circle cx="280.49" cy="320.94" r=".7" fill="#4331e8"/>
        <circle cx="272.44" cy="325.59" r=".7" fill="#4331e8"/>
        <circle cx="264.4" cy="330.23" r=".7" fill="#4331e8"/>
        <circle cx="288.53" cy="325.59" r=".7" fill="#4331e8"/>
        <circle cx="280.49" cy="330.23" r=".7" fill="#4331e8"/>
        <circle cx="296.57" cy="320.94" r=".7" fill="#4331e8"/>
        <circle cx="272.44" cy="334.87" r=".7" fill="#4331e8"/>
        <circle cx="264.4" cy="339.51" r=".7" fill="#4331e8"/>
        <circle cx="320.69" cy="316.3" r=".7" fill="#4331e8"/>
        <circle cx="304.61" cy="307.02" r=".7" fill="#4331e8"/>
        <circle cx="296.57" cy="311.66" r=".7" fill="#4331e8"/>
        <circle cx="304.61" cy="316.3" r=".7" fill="#4331e8"/>
        <circle cx="312.65" cy="311.66" r=".7" fill="#4331e8"/>
        <circle cx="328.73" cy="311.66" r=".7" fill="#4331e8"/>
        <circle cx="312.65" cy="302.37" r=".7" fill="#4331e8"/>
        <circle cx="320.69" cy="307.02" r=".7" fill="#4331e8"/>
        <circle cx="256.36" cy="334.87" r=".7" fill="#4331e8"/>
      </g>
      <g>
        <path d="M504.72,307.33l-56.36-32.54,9.39-5.42-48.3-27.89-35.53,20.51,48.3,27.89c7.51,4.34,14.4-2.93,22,1.45l44.11,25.46,16.4-9.47Z" fill="#040919"/>
        <path d="M457.04,242.64c2.92-1.69,2.69-3.92-.52-4.97l-28.8-9.39-13.17-64.54-37.24,21.5,11.69,57.31c.81,3.98,4.63,8.26,8.49,9.52l27.61,9.01,31.93-18.43Z" fill="#040919"/>
        <g>
          <circle cx="399.02" cy="154.74" r="5.43" fill="#040919"/>
          <path d="M393.71,153.6l-4.33,17.17c-.61,2.42,.05,4.06,1.94,5.29l-2.07,3.84,5.47,9.14,5.83-5.64-2.02-26.43-4.83-3.38Z" fill="#040919"/>
          <path d="M393.71,153.6l-4.33,17.17c-.61,2.42,.05,4.06,1.94,5.29l-2.07,3.84,5.47,9.14" fill="none" stroke="#4331e8" stroke-linecap="round" stroke-linejoin="round"/>
          <circle cx="399.02" cy="154.74" r="3.9" fill="#666bff"/>
          <g>
            <polygon points="459.84 239.24 439.04 231.49 435.37 221.98 413.69 235.69 412.28 246.7 444.43 250.6 457.11 287.19 462.54 288.76 468.77 282.69 459.84 239.24" fill="#4331e8"/>
            <line x1="412.28" y1="246.7" x2="444.43" y2="250.6" fill="none" stroke="#4331e8" stroke-linecap="round" stroke-linejoin="round"/>
            <path d="M435.37,221.98l-2.27-5.89-4.8-21.27,2.62-1.19-3.24-9.06c-.78-2.25-3.28-4.66-5.56-5.35l-21.8-4.16-13.05,11.45c-2.37,2.08-3.93,6.33-3.47,9.44l2.03,12.56,6.75-.23,5.32,23.8c1.55,6.92,7.33,13.77,14.37,14.63l.69-5.39c.4-3.09,2.88-6.99,5.51-8.66l16.89-10.68Z" fill="#e6e7f5"/>
          </g>
          <path d="M435.09,221.25l28.36,6.06c6.35,1.36,7.72,9.17,2.17,12.59l-29.45,18.15s-7,.54-6.7-7.63l16.15-15.17-12.09-4.35,1.56-9.65Z" fill="#4331e8"/>
          <line x1="454.58" y1="246.7" x2="436.17" y2="258.04" fill="none" stroke="#040919" stroke-linecap="round" stroke-linejoin="round"/>
          <path d="M433.41,247.46l14.19-14.2c.92-.92,2.75-1.68,4.05-1.68h3.81" fill="none" stroke="#040919" stroke-linecap="round" stroke-linejoin="round"/>
          <line x1="433.53" y1="230.89" x2="441.74" y2="233.25" fill="none" stroke="#040919" stroke-linecap="round" stroke-linejoin="round"/>
          <polygon points="436.43 212.83 410.4 227.86 426.77 237.31 452.79 222.28 436.43 212.83" fill="#bcc0e5"/>
          <polygon points="439.67 218.6 420.74 229.53 428.15 233.81 447.08 222.88 439.67 218.6" fill="#040919"/>
          <polygon points="463.58 204.21 437.56 219.23 426.77 237.31 452.79 222.28 463.58 204.21" fill="#666bff"/>
          <path d="M430.93,193.62l6.71,18.8,4.1,5.7-4.61,2.92-8.14-7.4c-1.22-1.11-2.04-3.35-1.82-4.99l1.42-10.56-.28-3.29,2.62-1.19Z" fill="#4331e8"/>
          <path d="M395.5,179.29l4.83-4.24,18.32,3.5s1.29,6.87-6.81,9.14c-8.1,2.27-16.33-8.4-16.33-8.4Z" fill="#4331e8"/>
          <path d="M412.81,179.25l.88-4.04,2.33-.64c1.31-.36,2.67-1.73,3.02-3.04l2.27-8.49-.57-7.23c-.36-4.54-4.02-8.11-8.56-8.35l-3.41-.18c-7.97-.42-14.56,7.37-9.71,16.45l2.2,4.11c1.04,1.95,.98,4.97-.94,7.22l12.48,4.19Z" fill="#4331e8"/>
          <path d="M413.69,175.21l-6.95-3.22s-.27,1.51,2.26,3.07c2.52,1.56,1.22,3.23,1.22,3.23-.85,2.62,2.13,2.82,2.13,2.82l1.34-5.91Z" fill="#040919"/>
          <path d="M420.87,154.8c-.71-4.13-4.2-7.28-8.46-7.51l-4.02-.21c-3.8-.2-7.43,1.64-9.51,4.83-2.08,3.19-2.5,7.34-.6,10.65l2.54,4.43c.31,.54,.93,1.76,1,2.37,2.64,.44,4.98-.93,6.79-2.88l2.23-4.78c.85-2.94,2.46-4.09,5.96-5.38l4.07-1.5h0Z" fill="#040919"/>
          <path d="M412.41,147.29l-4.02-.21c-3.8-.2-7.43,1.64-9.51,4.83-2.08,3.19-2.5,7.34-.6,10.65l2.54,4.43" fill="none" stroke="#4331e8" stroke-linecap="round" stroke-linejoin="round"/>
          <path d="M439.86,253.74l9.05,11.48c3.12,3.96-6.62,7.27-11.58,2.57l-10.11-9.58c-1.95-.99-2.01-5.61,.21-6.99l4.05-2.52,8.14,.44,.24,4.61Z" fill="#040919"/>
          <path d="M446.62,265.09l-14.4-11.13c-1.2-.93-3.37-1.34-4.83-.91l-1.44,.42c-.48,1.84-.02,4.09,1.27,4.74l10.11,9.58c3.02,2.87,7.82,2.75,10.4,1.33,.52-1.35,.04-3.14-1.11-4.03Z" fill="#e6e7f5"/>
          <path d="M468.41,286.89l.65,1.33c1.31,2.69,4.54,6.02,7.18,7.41l6.47,3.41v2.41c0,2.96-9.91,3.91-13.93,.9l-7.32-5.47c-1.26-.94-2.29-2.14-2.19-3.71l.22-3.36,8.92-2.92Z" fill="#040919"/>
          <path d="M482.7,301.45c0,2.96-9.91,3.91-13.93,.9l-7.32-5.47c-1.26-.94-2.29-2.14-2.19-3.71" fill="none" stroke="#fff" stroke-linecap="round" stroke-linejoin="round"/>
          <path d="M468.77,287.64l-2.36-5.37-4.11,1.48c-2.46,.88-3.72,3.61-2.82,6.06l2.47,2.66c1.08,1.17,2.68,.55,3.16-.97l.86-2.73,2.8-1.12Z" fill="#d0d3f5"/>
          <polyline points="410.4 227.86 426.77 237.31 437.56 219.23 463.58 204.21" fill="none" stroke="#fff" stroke-linecap="round" stroke-linejoin="round"/>
          <path d="M407.11,214.03s4.66,1.52,8.54-.26l5.96-2.74" fill="none" stroke="#666bff" stroke-linecap="round" stroke-linejoin="round"/>
        </g>
        <polyline points="373.74 261.89 393.54 227.88 414.52 239.99 414.52 285.43" fill="none" stroke="#4331e8" stroke-linecap="round" stroke-linejoin="round"/>
        <line x1="387.28" y1="238.63" x2="393.54" y2="227.88" fill="none" stroke="#fff" stroke-linecap="round" stroke-linejoin="round"/>
        <line x1="414.52" y1="239.99" x2="414.52" y2="257.41" fill="none" stroke="#fff" stroke-linecap="round" stroke-linejoin="round"/>
        <g>
          <polygon points="382.03 225.72 410.24 242 418.13 237.44 389.93 221.16 382.03 225.72" fill="#040919"/>
          <polyline points="382.03 225.72 410.24 242 418.13 237.44" fill="none" stroke="#666bff" stroke-linecap="round" stroke-linejoin="round"/>
        </g>
        <path d="M385.84,208.51l3.24,16.57c.48,2.43,2.89,4.34,5.35,4.11l22.2-2.35,3.16,1.19,3.83-1.59,4.43,.49,.66-2.55-2.57-1.92,4.21,.28v-1.27l-7.14-1.19-5.82,2.02-17.73-2.3-2.26-13.57-11.58,2.08Z" fill="#4331e8"/>
        <polyline points="385.84 208.51 399.42 206.14 398.96 200.86" fill="none" stroke="#666bff" stroke-linecap="round" stroke-linejoin="round"/>
        <ellipse cx="414.52" cy="285.43" rx="1.74" ry="1.06" fill="#040919"/>
        <ellipse cx="373.74" cy="261.89" rx="1.74" ry="1.06" fill="#040919"/>
      </g>
      <g>
        <polygon points="312.65 432.37 320.69 437.01 328.73 432.37 320.69 427.73 312.65 432.37" fill="#4331e8"/>
        <polygon points="328.73 423.08 336.78 427.73 344.82 423.08 336.78 418.44 328.73 423.08" fill="#040919"/>
        <polygon points="344.82 413.8 352.86 418.44 360.9 413.8 352.86 409.16 344.82 413.8" fill="#bcc0e5"/>
      </g>
      <g>
        <g>
          <path d="M356.26,340.07l-14.73,8.5c8.68,5.09,14.04,12.09,14.04,19.81,0,15.57-21.77,28.19-48.62,28.19v12.05c38.33,0,69.4-18.02,69.4-40.24,0-11.04-7.67-21.04-20.09-28.31Z" fill="#040919"/>
          <path d="M306.95,328.14v12.05c13.53,0,25.77,3.21,34.59,8.38l14.73-8.5c-12.58-7.36-30.02-11.93-49.31-11.93Z" fill="#040919"/>
          <path d="M282.42,344.04c7.2-2.45,15.58-3.86,24.53-3.86h0v-12.05c-12.78,0-24.74,2.01-35.02,5.5l10.49,10.4Z" fill="#040919"/>
          <path d="M258.33,368.38c0-10.38,9.68-19.44,24.09-24.34l-10.49-10.4c-20.56,6.98-34.38,19.92-34.38,34.74,0,2.01,.26,3.98,.75,5.91l20.56-1.77c-.34-1.35-.53-2.74-.53-4.14Z" fill="#040919"/>
          <path d="M306.95,408.62c23.75,0,44.7-6.92,57.21-17.47l-17.13-6.82c-8.77,7.39-23.44,12.24-40.08,12.24-24.42,0-44.64-10.44-48.09-24.05l-20.56,1.77c4.93,19.42,33.79,34.33,68.65,34.33Z" fill="#040919"/>
        </g>
        <path d="M356.26,332.92l-14.73,8.5c8.68,5.09,14.04,12.09,14.04,19.81,0,15.57-21.77,28.19-48.62,28.19v12.05c38.33,0,69.4-18.02,69.4-40.24,0-11.04-7.67-21.04-20.09-28.31Z" fill="#fff"/>
        <g>
          <path d="M282.42,329.78c7.2-2.45,15.58-3.86,24.53-3.86h0v-20.33s-35.02-6.55-35.02-6.55v20.33s10.49,10.4,10.49,10.4Z" fill="#040919"/>
          <path d="M282.42,309.46c7.2-2.45,15.58-3.86,24.53-3.86h0v-12.05c-12.78,0-24.74,2.01-35.02,5.5l10.49,10.4Z" fill="#4331e8"/>
          <path d="M271.93,299.06l10.49,10.4c7.2-2.45,15.58-3.86,24.53-3.86" fill="none" stroke="#666bff" stroke-linecap="round" stroke-linejoin="round"/>
        </g>
        <g>
          <path d="M258.33,361.23c0-10.38,9.68-19.44,24.09-24.34v-20.33l-14.85,2.36c-5.53,1.88-11.08,6.32-15.63,10.82v36.22l6.92-.6c-.34-1.35-.53-2.74-.53-4.14Z" fill="#040919"/>
          <path d="M241.36,342.1l-3.81-1.2v20.32h0c0,2.01,.26,3.99,.75,5.92l20.56-9.47v-12.63l-17.5-2.95Z" fill="#4331e8"/>
          <path d="M258.33,340.9c0-10.38,9.68-19.44,24.09-24.34l-10.49-10.4c-20.56,6.98-34.38,19.92-34.38,34.74,0,2.01,.26,3.98,.75,5.91l20.56-1.77c-.34-1.35-.53-2.74-.53-4.14Z" fill="#4331e8"/>
          <path d="M238.3,346.82l20.56-1.77c-.34-1.35-.53-2.74-.53-4.14,0-10.38,9.68-19.44,24.09-24.34" fill="none" stroke="#666bff" stroke-linecap="round" stroke-linejoin="round"/>
        </g>
        <g>
          <path d="M347.03,382.4c-9,7.1-23.44,7.27-40.08,7.27-24.42,0-44.64-5.48-48.09-19.09l-20.56-11.14v7.73h0c4.95,19.41,33.79,34.3,68.64,34.3,23.75,0,44.7-6.92,57.21-17.46v-7.7s-17.13,6.1-17.13,6.1Z" fill="#4331e8"/>
          <path d="M306.95,393.77c23.75,0,44.7-6.92,57.21-17.47l-17.13-6.82c-8.77,7.39-23.44,12.24-40.08,12.24-24.42,0-44.64-10.44-48.09-24.05l-20.56,1.77c4.93,19.42,33.79,34.33,68.65,34.33Z" fill="#666bff"/>
          <path d="M238.3,359.44c4.93,19.42,33.79,34.33,68.65,34.33,23.75,0,44.7-6.92,57.21-17.47" fill="none" stroke="#bcc0e5" stroke-linecap="round" stroke-linejoin="round"/>
        </g>
        <g>
          <path d="M311.89,297.09v12.05c13.53,0,25.77,3.21,34.59,8.38l14.73-8.5c-12.58-7.36-30.02-11.93-49.31-11.93Z" fill="none" stroke="#fff" stroke-linecap="round" stroke-linejoin="round"/>
          <path d="M311.89,276.77v12.05c13.53,0,25.77,3.21,34.59,8.38l14.73-8.5c-12.58-7.36-30.02-11.93-49.31-11.93Z" fill="none" stroke="#fff" stroke-linecap="round" stroke-linejoin="round"/>
          <polygon points="346.47 297.2 346.47 317.53 361.2 309.02 361.2 288.7 346.47 297.2" fill="none" stroke="#fff" stroke-linecap="round" stroke-linejoin="round"/>
          <line x1="311.89" y1="288.82" x2="311.89" y2="309.14" fill="none" stroke="#fff" stroke-linecap="round" stroke-linejoin="round"/>
        </g>
      </g>
      <g>
        <path d="M635.09,346.11l-38.62-129.34c-1.58-5.3-6.79-7.37-11.58-4.61l-43.68,25.22c-4.79,2.76-7.41,9.36-5.83,14.66l30.04,100.61,38.94,22.48,24.89-14.37c4.79-2.76,7.41-9.36,5.83-14.66Z" fill="#e6e7f5"/>
        <path d="M535.45,245.19c-.63,2.26-.7,4.66-.05,6.84l30.04,100.61,20.2,11.66-38.84-116.81-11.34-2.31Z" fill="#bcc0e5"/>
        <path d="M607.01,376.66l26.95-15.56c4.79-2.76,7.41-9.36,5.83-14.66l-38.62-129.34c-1.58-5.3-6.79-7.37-11.58-4.6l-43.68,25.22c-4.79,2.76-7.41,9.36-5.83,14.66l30.9,103.49" fill="url(#New_Gradient_Swatch_1)" stroke="#fff" stroke-linecap="round" stroke-linejoin="round"/>
        <polygon points="618.36 355.46 619.69 359.89 623.38 357.73 622.05 353.3 618.36 355.46" fill="#666bff"/>
        <g>
          <polygon points="604.06 361.12 606.71 370.01 614.1 365.68 611.44 356.8 604.06 361.12" fill="#666bff"/>
          <polygon points="618.36 355.46 619.69 359.89 623.38 357.73 622.05 353.3 618.36 355.46" fill="#4331e8"/>
          <polygon points="632.1 347.5 628.41 349.65 629.74 354.09 633.42 351.93 632.1 347.5" fill="#4331e8"/>
          <polygon points="598.4 366.97 594.71 369.12 594.87 369.65 598.82 371.93 599.73 371.4 598.4 366.97" fill="#4331e8"/>
        </g>
        <g>
          <line x1="596.93" y1="226.38" x2="589.94" y2="230.41" fill="none" stroke="#fff" stroke-linecap="round" stroke-linejoin="round"/>
          <line x1="598.27" y1="230.29" x2="591.28" y2="234.33" fill="none" stroke="#fff" stroke-linecap="round" stroke-linejoin="round"/>
        </g>
        <polygon points="572.32 332.63 577.29 349.27 624.42 322.05 619.46 305.42 572.32 332.63" fill="none" stroke="#4331e8" stroke-linecap="round" stroke-linejoin="round"/>
        <polyline points="585.32 364.13 629.39 338.69 624.42 322.05 577.29 349.27 580.98 361.63" fill="none" stroke="#4331e8" stroke-linecap="round" stroke-linejoin="round"/>
        <g>
          <path d="M616.72,277.9c-4.21,2.67-13.25-6.42-17.1-4.88-3.38,1.36-.78,6.43-5.23,8.27-4.02,1.67-12.59-17.67-17.76-14.9-5.17,2.77,1.9,30.96-3.54,34.09-5.44,3.13-13.99-11.48-18.8-8.51" fill="none" stroke="#fff" stroke-linecap="round" stroke-linejoin="round"/>
          <line x1="619.27" y1="289.27" x2="614.66" y2="291.94" fill="none" stroke="#666bff" stroke-linecap="round" stroke-linejoin="round"/>
          <line x1="609.24" y1="295.06" x2="604.63" y2="297.73" fill="none" stroke="#666bff" stroke-linecap="round" stroke-linejoin="round"/>
          <line x1="599.21" y1="300.86" x2="594.6" y2="303.52" fill="none" stroke="#666bff" stroke-linecap="round" stroke-linejoin="round"/>
          <line x1="589.18" y1="306.65" x2="584.57" y2="309.31" fill="none" stroke="#666bff" stroke-linecap="round" stroke-linejoin="round"/>
          <line x1="579.15" y1="312.44" x2="574.54" y2="315.1" fill="none" stroke="#666bff" stroke-linecap="round" stroke-linejoin="round"/>
          <line x1="569.12" y1="318.23" x2="564.51" y2="320.89" fill="none" stroke="#666bff" stroke-linecap="round" stroke-linejoin="round"/>
          <line x1="573.51" y1="253.87" x2="551.82" y2="266.39" fill="none" stroke="#666bff" stroke-linecap="round" stroke-linejoin="round"/>
          <line x1="568.94" y1="261.52" x2="553.34" y2="270.53" fill="none" stroke="#666bff" stroke-linecap="round" stroke-linejoin="round"/>
        </g>
      </g>
      <g>
        <line x1="181.11" y1="257.87" x2="181.11" y2="287.22" fill="none" stroke="#fff" stroke-linecap="round" stroke-linejoin="round"/>
        <line x1="187.63" y1="266.48" x2="187.63" y2="283.45" fill="none" stroke="#fff" stroke-linecap="round" stroke-linejoin="round"/>
        <line x1="194.15" y1="234.56" x2="194.15" y2="279.69" fill="none" stroke="#fff" stroke-linecap="round" stroke-linejoin="round"/>
        <line x1="200.67" y1="249.62" x2="200.67" y2="275.92" fill="none" stroke="#fff" stroke-linecap="round" stroke-linejoin="round"/>
        <line x1="207.19" y1="255.58" x2="207.19" y2="272.16" fill="none" stroke="#fff" stroke-linecap="round" stroke-linejoin="round"/>
        <line x1="213.72" y1="263.87" x2="213.72" y2="268.39" fill="none" stroke="#fff" stroke-linecap="round" stroke-linejoin="round"/>
        <line x1="220.24" y1="253.13" x2="220.24" y2="264.63" fill="none" stroke="#fff" stroke-linecap="round" stroke-linejoin="round"/>
        <line x1="226.76" y1="255.58" x2="226.76" y2="260.86" fill="none" stroke="#fff" stroke-linecap="round" stroke-linejoin="round"/>
      </g>
    </g>
  </g>
</svg>