<?xml version="1.0" encoding="UTF-8"?>
<svg xmlns="http://www.w3.org/2000/svg" width="800" height="600" xmlns:xlink="http://www.w3.org/1999/xlink" viewBox="0 0 800 600">
  <defs>
    <linearGradient id="New_Gradient_Swatch_1" data-name="New Gradient Swatch 1" x1="293.24" y1="363.64" x2="316.52" y2="363.64" gradientUnits="userSpaceOnUse">
      <stop offset="0" stop-color="#040919"/>
      <stop offset=".05" stop-color="#080c28"/>
      <stop offset=".24" stop-color="#1a1762"/>
      <stop offset=".42" stop-color="#282092"/>
      <stop offset=".59" stop-color="#3427b7"/>
      <stop offset=".75" stop-color="#3c2cd2"/>
      <stop offset=".89" stop-color="#412fe2"/>
      <stop offset="1" stop-color="#4331e8"/>
    </linearGradient>
    <linearGradient id="New_Gradient_Swatch_1-2" data-name="New Gradient Swatch 1" x1="160.18" y1="348.03" x2="152.62" y2="348.03" xlink:href="#New_Gradient_Swatch_1"/>
    <linearGradient id="linear-gradient" x1="122.16" y1="420.95" x2="273.44" y2="420.95" gradientUnits="userSpaceOnUse">
      <stop offset="0" stop-color="#4331e8"/>
      <stop offset=".05" stop-color="#4331e8" stop-opacity=".83"/>
      <stop offset=".13" stop-color="#4331e8" stop-opacity=".58"/>
      <stop offset=".2" stop-color="#4331e8" stop-opacity=".37"/>
      <stop offset=".28" stop-color="#4331e8" stop-opacity=".21"/>
      <stop offset=".34" stop-color="#4331e8" stop-opacity=".09"/>
      <stop offset=".4" stop-color="#4331e8" stop-opacity=".02"/>
      <stop offset=".45" stop-color="#4331e8" stop-opacity="0"/>
    </linearGradient>
    <linearGradient id="New_Gradient_Swatch_1-3" data-name="New Gradient Swatch 1" x1="224.19" y1="485.29" x2="201.8" y2="485.29" xlink:href="#New_Gradient_Swatch_1"/>
    <linearGradient id="New_Gradient_Swatch_1-4" data-name="New Gradient Swatch 1" x1="533.24" y1="310.01" x2="521.94" y2="327.97" xlink:href="#New_Gradient_Swatch_1"/>
    <linearGradient id="linear-gradient-2" x1="238.52" y1="155.91" x2="345.63" y2="155.91" gradientUnits="userSpaceOnUse">
      <stop offset="0" stop-color="#666bff"/>
      <stop offset=".07" stop-color="#666bff" stop-opacity=".75"/>
      <stop offset=".15" stop-color="#666bff" stop-opacity=".53"/>
      <stop offset=".22" stop-color="#666bff" stop-opacity=".34"/>
      <stop offset=".29" stop-color="#666bff" stop-opacity=".19"/>
      <stop offset=".35" stop-color="#666bff" stop-opacity=".09"/>
      <stop offset=".4" stop-color="#666bff" stop-opacity=".02"/>
      <stop offset=".45" stop-color="#666bff" stop-opacity="0"/>
    </linearGradient>
  </defs>
  <g id="BG">
    <rect width="800" height="600" fill="#040919"/>
  </g>
  <g id="Dark">
    <g>
      <polygon points="744.24 512.57 645.05 455.3 557.05 506.11 656.24 563.38 744.24 512.57" fill="#221380"/>
      <g>
        <polygon points="404.3 455.16 562.81 363.64 404.3 272.12 245.78 363.64 404.3 455.16" fill="url(#New_Gradient_Swatch_1)"/>
        <polygon points="404.3 282.53 553.8 368.84 562.81 363.64 404.3 272.12 245.78 363.64 254.8 368.84 404.3 282.53" fill="#040919"/>
        <polygon points="404.3 272.12 404.3 282.53 254.8 368.84 245.78 363.64 404.3 272.12" fill="#040919"/>
        <polyline points="562.81 363.64 404.3 272.12 245.78 363.64" fill="none" stroke="#4331e8" stroke-linecap="round" stroke-linejoin="round"/>
      </g>
      <path d="M275.33,480.75l89.89-51.9c4.53-2.61,8.23-.48,8.23,4.75v2.73" fill="none" stroke="#fff" stroke-linecap="round" stroke-linejoin="round"/>
      <g>
        <g>
          <path d="M147.01,296.23c5.08-2.95,13.29-2.94,18.33,0,2.52,1.47,3.78,3.4,3.77,5.33h0v92.92h0c0,1.93-1.29,3.86-3.83,5.33-5.08,2.95-13.29,2.94-18.34,0-2.52-1.47-3.78-3.4-3.77-5.33v-92.92h0c.01-1.93,1.29-3.86,3.83-5.33Z" fill="url(#New_Gradient_Swatch_1-2)"/>
          <path d="M165.35,296.24c2.55,1.48,3.83,3.42,3.83,5.36s-1.26,3.84-3.77,5.31c-5.05,2.95-13.26,2.95-18.34,0-2.55-1.48-3.83-3.42-3.83-5.36,0-1.92,1.26-3.84,3.77-5.31,5.04-2.94,13.25-2.95,18.33,0Z" fill="#666bff"/>
          <line x1="169.12" y1="301.57" x2="169.12" y2="394.49" fill="none" stroke="#4331e8" stroke-linecap="round" stroke-linejoin="round"/>
        </g>
        <g>
          <polygon points="147.62 464.62 83.76 427.75 71.98 434.55 147.62 478.22 223.26 434.55 211.48 427.75 147.62 464.62" fill="#221380"/>
          <polygon points="147.62 377.28 71.98 420.95 147.62 464.62 223.26 420.95 147.62 377.28" fill="url(#linear-gradient)"/>
          <polyline points="71.98 420.95 147.62 464.62 223.26 420.95" fill="none" stroke="#666bff" stroke-linecap="round" stroke-linejoin="round"/>
          <g>
            <circle cx="147.62" cy="416.31" r=".7" fill="#4331e8"/>
            <circle cx="155.66" cy="420.95" r=".7" fill="#4331e8"/>
            <circle cx="147.62" cy="425.59" r=".7" fill="#4331e8"/>
            <circle cx="163.7" cy="425.59" r=".7" fill="#4331e8"/>
            <circle cx="155.66" cy="430.24" r=".7" fill="#4331e8"/>
            <circle cx="147.62" cy="434.88" r=".7" fill="#4331e8"/>
            <circle cx="171.75" cy="430.24" r=".7" fill="#4331e8"/>
            <circle cx="163.7" cy="434.88" r=".7" fill="#4331e8"/>
            <circle cx="155.66" cy="439.52" r=".7" fill="#4331e8"/>
            <circle cx="147.62" cy="444.16" r=".7" fill="#4331e8"/>
            <circle cx="171.75" cy="439.52" r=".7" fill="#4331e8"/>
            <circle cx="163.7" cy="444.16" r=".7" fill="#4331e8"/>
            <circle cx="179.79" cy="434.88" r=".7" fill="#4331e8"/>
            <circle cx="155.66" cy="448.81" r=".7" fill="#4331e8"/>
            <circle cx="147.62" cy="453.45" r=".7" fill="#4331e8"/>
            <circle cx="139.58" cy="420.95" r=".7" fill="#4331e8"/>
            <circle cx="163.7" cy="407.02" r=".7" fill="#4331e8"/>
            <circle cx="171.75" cy="411.66" r=".7" fill="#4331e8"/>
            <circle cx="163.7" cy="416.31" r=".7" fill="#4331e8"/>
            <circle cx="179.79" cy="416.31" r=".7" fill="#4331e8"/>
            <circle cx="171.75" cy="420.95" r=".7" fill="#4331e8"/>
            <circle cx="187.83" cy="420.95" r=".7" fill="#4331e8"/>
            <circle cx="179.79" cy="425.59" r=".7" fill="#4331e8"/>
            <circle cx="187.83" cy="430.24" r=".7" fill="#4331e8"/>
            <circle cx="195.87" cy="425.59" r=".7" fill="#4331e8"/>
            <circle cx="155.66" cy="411.66" r=".7" fill="#4331e8"/>
            <circle cx="179.79" cy="407.02" r=".7" fill="#4331e8"/>
            <circle cx="187.83" cy="411.66" r=".7" fill="#4331e8"/>
            <circle cx="195.87" cy="416.31" r=".7" fill="#4331e8"/>
            <circle cx="203.91" cy="420.95" r=".7" fill="#4331e8"/>
            <circle cx="171.75" cy="402.38" r=".7" fill="#4331e8"/>
            <circle cx="131.54" cy="425.59" r=".7" fill="#4331e8"/>
            <circle cx="139.58" cy="430.24" r=".7" fill="#4331e8"/>
            <circle cx="123.5" cy="430.24" r=".7" fill="#4331e8"/>
            <circle cx="131.54" cy="434.88" r=".7" fill="#4331e8"/>
            <circle cx="139.58" cy="439.52" r=".7" fill="#4331e8"/>
            <circle cx="123.5" cy="439.52" r=".7" fill="#4331e8"/>
            <circle cx="131.54" cy="444.16" r=".7" fill="#4331e8"/>
            <circle cx="115.46" cy="434.88" r=".7" fill="#4331e8"/>
            <circle cx="139.58" cy="448.81" r=".7" fill="#4331e8"/>
            <circle cx="123.5" cy="420.95" r=".7" fill="#4331e8"/>
            <circle cx="115.46" cy="425.59" r=".7" fill="#4331e8"/>
            <circle cx="139.58" cy="411.66" r=".7" fill="#4331e8"/>
            <circle cx="131.54" cy="416.31" r=".7" fill="#4331e8"/>
            <circle cx="147.62" cy="407.02" r=".7" fill="#4331e8"/>
            <circle cx="107.41" cy="430.24" r=".7" fill="#4331e8"/>
            <circle cx="123.5" cy="402.38" r=".7" fill="#4331e8"/>
            <circle cx="115.46" cy="407.02" r=".7" fill="#4331e8"/>
            <circle cx="107.41" cy="411.66" r=".7" fill="#4331e8"/>
            <circle cx="99.37" cy="416.31" r=".7" fill="#4331e8"/>
            <circle cx="123.5" cy="411.66" r=".7" fill="#4331e8"/>
            <circle cx="115.46" cy="416.31" r=".7" fill="#4331e8"/>
            <circle cx="131.54" cy="407.02" r=".7" fill="#4331e8"/>
            <circle cx="107.41" cy="420.95" r=".7" fill="#4331e8"/>
            <circle cx="99.37" cy="425.59" r=".7" fill="#4331e8"/>
            <circle cx="155.66" cy="402.38" r=".7" fill="#4331e8"/>
            <circle cx="139.58" cy="393.09" r=".7" fill="#4331e8"/>
            <circle cx="131.54" cy="397.74" r=".7" fill="#4331e8"/>
            <circle cx="139.58" cy="402.38" r=".7" fill="#4331e8"/>
            <circle cx="147.62" cy="397.74" r=".7" fill="#4331e8"/>
            <circle cx="163.7" cy="397.74" r=".7" fill="#4331e8"/>
            <circle cx="147.62" cy="388.45" r=".7" fill="#4331e8"/>
            <circle cx="155.66" cy="393.09" r=".7" fill="#4331e8"/>
            <circle cx="91.33" cy="420.95" r=".7" fill="#4331e8"/>
          </g>
          <line x1="154.24" y1="408.74" x2="126.17" y2="424.95" fill="#bcc0e5"/>
        </g>
        <polygon points="122 426.5 155.64 445.92 199.32 420.8 190.93 415.96 134.13 409.11 122 426.5" fill="#040919"/>
        <g>
          <polygon points="122 320.17 103.91 330.61 122 355.92 140.09 345.48 122 320.17" fill="#666bff"/>
          <polygon points="103.91 416.06 103.91 330.61 122 355.92 122 426.5 103.91 416.06" fill="#4331e8"/>
          <polygon points="140.09 416.06 140.09 345.48 122 355.92 122 426.5 140.09 416.06" fill="#040919"/>
          <line x1="103.91" y1="357.72" x2="122" y2="368.17" fill="none" stroke="#666bff" stroke-linecap="round" stroke-linejoin="round"/>
          <line x1="122" y1="368.17" x2="134.13" y2="361.17" fill="none" stroke="#4331e8" stroke-linecap="round" stroke-linejoin="round"/>
          <line x1="103.91" y1="371.81" x2="122" y2="382.26" fill="none" stroke="#666bff" stroke-linecap="round" stroke-linejoin="round"/>
          <line x1="122" y1="382.26" x2="134.13" y2="375.25" fill="none" stroke="#4331e8" stroke-linecap="round" stroke-linejoin="round"/>
          <line x1="103.91" y1="385.9" x2="122" y2="396.35" fill="none" stroke="#666bff" stroke-linecap="round" stroke-linejoin="round"/>
          <line x1="122" y1="396.35" x2="134.13" y2="389.34" fill="none" stroke="#4331e8" stroke-linecap="round" stroke-linejoin="round"/>
          <line x1="103.91" y1="399.99" x2="122" y2="410.43" fill="none" stroke="#666bff" stroke-linecap="round" stroke-linejoin="round"/>
          <line x1="122" y1="410.43" x2="134.13" y2="403.43" fill="none" stroke="#4331e8" stroke-linecap="round" stroke-linejoin="round"/>
        </g>
        <g>
          <g>
            <polygon points="171.33 392.81 127.67 418.01 147.49 429.45 191.14 404.25 171.33 392.81" fill="#4331e8"/>
            <polygon points="191.14 416.02 191.14 404.25 147.49 429.45 147.49 441.22 191.14 416.02" fill="#040919"/>
          </g>
          <polygon points="171.83 397.78 140.09 416.11 143.88 418.3 175.62 399.97 171.83 397.78" fill="#4331e8"/>
          <polygon points="175.62 409.05 175.62 399.97 143.88 418.3 143.88 427.37 175.62 409.05" fill="#040919"/>
          <polygon points="152.53 358.7 127.67 373.05 140.09 380.11 164.95 365.76 152.53 358.7" fill="#666bff"/>
          <polygon points="164.95 401.75 164.95 365.76 140.09 380.11 140.09 416.11 164.95 401.75" fill="#040919"/>
          <polygon points="143.88 427.37 143.88 418.3 140.09 416.11 140.09 380.11 127.67 373.05 127.67 429.78 147.49 441.22 147.49 429.45 143.88 427.37" fill="#4331e8"/>
          <polyline points="147.49 441.22 147.49 429.45 143.88 427.37 143.88 418.3 140.09 416.11 140.09 380.11" fill="none" stroke="#666bff" stroke-linecap="round" stroke-linejoin="round"/>
          <line x1="146.43" y1="412.44" x2="146.43" y2="383.61" fill="none" stroke="#4331e8" stroke-linecap="round" stroke-linejoin="round"/>
          <line x1="153.09" y1="408.6" x2="153.09" y2="379.77" fill="none" stroke="#4331e8" stroke-linecap="round" stroke-linejoin="round"/>
          <line x1="159.75" y1="404.75" x2="159.75" y2="375.92" fill="none" stroke="#4331e8" stroke-linecap="round" stroke-linejoin="round"/>
          <line x1="150.73" y1="423.42" x2="150.73" y2="416.29" fill="none" stroke="#4331e8" stroke-linecap="round" stroke-linejoin="round"/>
          <line x1="157.39" y1="419.57" x2="157.39" y2="412.44" fill="none" stroke="#4331e8" stroke-linecap="round" stroke-linejoin="round"/>
          <line x1="164.05" y1="415.73" x2="164.05" y2="408.6" fill="none" stroke="#4331e8" stroke-linecap="round" stroke-linejoin="round"/>
          <line x1="155.15" y1="436.8" x2="155.15" y2="429.67" fill="none" stroke="#4331e8" stroke-linecap="round" stroke-linejoin="round"/>
          <line x1="161.81" y1="432.95" x2="161.81" y2="425.82" fill="none" stroke="#4331e8" stroke-linecap="round" stroke-linejoin="round"/>
          <line x1="168.47" y1="429.11" x2="168.47" y2="421.98" fill="none" stroke="#4331e8" stroke-linecap="round" stroke-linejoin="round"/>
          <line x1="170.71" y1="411.88" x2="170.71" y2="404.75" fill="none" stroke="#4331e8" stroke-linecap="round" stroke-linejoin="round"/>
          <line x1="175.13" y1="425.26" x2="175.13" y2="418.13" fill="none" stroke="#4331e8" stroke-linecap="round" stroke-linejoin="round"/>
          <line x1="181.79" y1="421.42" x2="181.79" y2="414.29" fill="none" stroke="#4331e8" stroke-linecap="round" stroke-linejoin="round"/>
        </g>
      </g>
      <g>
        <g>
          <polygon points="259.05 528.96 195.19 492.09 183.41 498.88 259.05 542.56 334.69 498.88 322.92 492.09 259.05 528.96" fill="#221380"/>
          <polygon points="259.05 441.62 183.41 485.29 259.05 528.96 334.69 485.29 259.05 441.62" fill="url(#New_Gradient_Swatch_1-3)"/>
          <polyline points="183.41 485.29 259.05 528.96 334.69 485.29" fill="none" stroke="#666bff" stroke-linecap="round" stroke-linejoin="round"/>
          <g>
            <circle cx="259.05" cy="480.64" r=".7" fill="#4331e8"/>
            <circle cx="267.1" cy="485.29" r=".7" fill="#4331e8"/>
            <circle cx="259.05" cy="489.93" r=".7" fill="#4331e8"/>
            <circle cx="275.14" cy="489.93" r=".7" fill="#4331e8"/>
            <circle cx="267.1" cy="494.57" r=".7" fill="#4331e8"/>
            <circle cx="259.05" cy="499.21" r=".7" fill="#4331e8"/>
            <circle cx="283.18" cy="494.57" r=".7" fill="#4331e8"/>
            <circle cx="275.14" cy="499.21" r=".7" fill="#4331e8"/>
            <circle cx="267.1" cy="503.86" r=".7" fill="#4331e8"/>
            <circle cx="259.05" cy="508.5" r=".7" fill="#4331e8"/>
            <circle cx="283.18" cy="503.86" r=".7" fill="#4331e8"/>
            <circle cx="275.14" cy="508.5" r=".7" fill="#4331e8"/>
            <circle cx="291.22" cy="499.21" r=".7" fill="#4331e8"/>
            <circle cx="267.1" cy="513.14" r=".7" fill="#4331e8"/>
            <circle cx="259.05" cy="517.78" r=".7" fill="#4331e8"/>
            <circle cx="251.01" cy="485.29" r=".7" fill="#4331e8"/>
            <circle cx="275.14" cy="471.36" r=".7" fill="#4331e8"/>
            <circle cx="283.18" cy="476" r=".7" fill="#4331e8"/>
            <circle cx="275.14" cy="480.64" r=".7" fill="#4331e8"/>
            <circle cx="291.22" cy="480.64" r=".7" fill="#4331e8"/>
            <circle cx="283.18" cy="485.29" r=".7" fill="#4331e8"/>
            <circle cx="299.26" cy="485.29" r=".7" fill="#4331e8"/>
            <circle cx="291.22" cy="489.93" r=".7" fill="#4331e8"/>
            <circle cx="299.26" cy="494.57" r=".7" fill="#4331e8"/>
            <circle cx="307.3" cy="489.93" r=".7" fill="#4331e8"/>
            <circle cx="267.1" cy="476" r=".7" fill="#4331e8"/>
            <circle cx="291.22" cy="471.36" r=".7" fill="#4331e8"/>
            <circle cx="299.26" cy="476" r=".7" fill="#4331e8"/>
            <circle cx="307.3" cy="480.64" r=".7" fill="#4331e8"/>
            <circle cx="315.34" cy="485.29" r=".7" fill="#4331e8"/>
            <circle cx="283.18" cy="466.72" r=".7" fill="#4331e8"/>
            <circle cx="242.97" cy="489.93" r=".7" fill="#4331e8"/>
            <circle cx="251.01" cy="494.57" r=".7" fill="#4331e8"/>
            <circle cx="234.93" cy="494.57" r=".7" fill="#4331e8"/>
            <circle cx="242.97" cy="499.21" r=".7" fill="#4331e8"/>
            <circle cx="251.01" cy="503.86" r=".7" fill="#4331e8"/>
            <circle cx="234.93" cy="503.86" r=".7" fill="#4331e8"/>
            <circle cx="242.97" cy="508.5" r=".7" fill="#4331e8"/>
            <circle cx="226.89" cy="499.21" r=".7" fill="#4331e8"/>
            <circle cx="251.01" cy="513.14" r=".7" fill="#4331e8"/>
            <circle cx="234.93" cy="485.29" r=".7" fill="#4331e8"/>
            <circle cx="226.89" cy="489.93" r=".7" fill="#4331e8"/>
            <circle cx="251.01" cy="476" r=".7" fill="#4331e8"/>
            <circle cx="242.97" cy="480.64" r=".7" fill="#4331e8"/>
            <circle cx="259.05" cy="471.36" r=".7" fill="#4331e8"/>
            <circle cx="218.85" cy="494.57" r=".7" fill="#4331e8"/>
            <circle cx="234.93" cy="466.72" r=".7" fill="#4331e8"/>
            <circle cx="226.89" cy="471.36" r=".7" fill="#4331e8"/>
            <circle cx="218.85" cy="476" r=".7" fill="#4331e8"/>
            <circle cx="210.81" cy="480.64" r=".7" fill="#4331e8"/>
            <circle cx="234.93" cy="476" r=".7" fill="#4331e8"/>
            <circle cx="226.89" cy="480.64" r=".7" fill="#4331e8"/>
            <circle cx="242.97" cy="471.36" r=".7" fill="#4331e8"/>
            <circle cx="218.85" cy="485.29" r=".7" fill="#4331e8"/>
            <circle cx="210.81" cy="489.93" r=".7" fill="#4331e8"/>
            <circle cx="267.1" cy="466.72" r=".7" fill="#4331e8"/>
            <circle cx="251.01" cy="457.43" r=".7" fill="#4331e8"/>
            <circle cx="242.97" cy="462.07" r=".7" fill="#4331e8"/>
            <circle cx="251.01" cy="466.72" r=".7" fill="#4331e8"/>
            <circle cx="259.05" cy="462.07" r=".7" fill="#4331e8"/>
            <circle cx="275.14" cy="462.07" r=".7" fill="#4331e8"/>
            <circle cx="259.05" cy="452.79" r=".7" fill="#4331e8"/>
            <circle cx="267.1" cy="457.43" r=".7" fill="#4331e8"/>
            <circle cx="202.76" cy="485.29" r=".7" fill="#4331e8"/>
          </g>
        </g>
        <g>
          <path d="M259.05,394.03c5.91,3.41,10.87,20.73,15.13,31.06,2.6,6.31,10.27,15.19,15.13,17.99,5.25,3.03,9.41,5.43,15.13,8.73,6.15,3.55,9.22-7.03,15.13-3.62,5.6,3.23,8.82,17.44,15.13,21.08,0,0-10.71,6.18-15.13,8.73-5.91,3.41-10.27,5.93-15.13,8.73-5.25,3.03-9.41-4.57-15.13-1.27-6.15,3.55-9.22,15.32-15.13,18.73-5.6,3.23-15.13,8.73-15.13,8.73-6.3-3.64-9.53-5.5-15.13-8.73-5.91-3.41-8.98-5.18-15.13-8.73-5.71-3.3-9.88-5.7-15.13-8.73-4.86-2.81-9.22-5.32-15.13-8.73s-9.03-14.83-15.13-17.99c0,0,9.53-5.5,15.13-8.73,5.91-3.41,8.81-5.19,15.13-8.44,5.39-2.77,9.88,3.26,15.13,.23,4.86-2.81,11.2-8.49,15.13-17.99,3.26-7.9,9.22-27.65,15.13-31.06" fill="#4331e8"/>
          <path d="M183.41,460.03c6.3-3.64,9.53-5.5,15.13-8.73,5.91-3.41,8.81-5.19,15.13-8.44,5.39-2.77,9.88,3.26,15.13,.23,4.86-2.81,11.2-8.49,15.13-17.99,3.26-7.9,9.22-27.65,15.13-31.06" fill="none" stroke="#666bff" stroke-miterlimit="10"/>
          <path d="M198.54,478.02c6.3-3.64,9.53-5.5,15.13-8.73,5.91-3.41,8.98-5.18,15.13-8.73,5.71-3.3,9.88-5.7,15.13-8.73,4.86-2.81,9.22-5.32,15.13-8.73,5.91-3.41,9.22-14.58,15.13-17.99" fill="none" stroke="#666bff" stroke-miterlimit="10"/>
          <path d="M213.67,486.75c6.3-3.64,9.53-12.81,15.13-16.04,5.91-3.41,8.98,2.12,15.13-1.43,5.71-3.3,9.88-5.7,15.13-8.73,4.86-2.81,9.22-9.64,15.13-13.05,5.91-3.41,9.22-1.01,15.13-4.42" fill="none" stroke="#666bff" stroke-miterlimit="10"/>
          <path d="M228.8,495.49c6.3-3.64,9.53-5.5,15.13-8.73,5.91-3.41,8.98-5.18,15.13-8.73,5.71-3.3,9.88-16.12,15.13-19.15,4.86-2.81,9.22,5.09,15.13,1.68,5.91-3.41,9.22-5.32,15.13-8.73" fill="none" stroke="#666bff" stroke-miterlimit="10"/>
          <path d="M243.93,504.22c6.3-3.64,9.53-5.5,15.13-8.73,5.91-3.41,8.98-5.18,15.13-8.73,5.71-3.3,9.88-5.7,15.13-8.73,4.86-2.81,9.22-5.32,15.13-8.73s9.22-17.67,15.13-21.08" fill="none" stroke="#666bff" stroke-miterlimit="10"/>
          <path d="M259.05,512.96c6.3-3.64,9.53-5.5,15.13-8.73,5.91-3.41,8.98-15.18,15.13-18.73,5.71-3.3,9.88,4.3,15.13,1.27,4.86-2.81,9.22-5.32,15.13-8.73l15.13-8.73" fill="none" stroke="#fff" stroke-miterlimit="10"/>
          <path d="M334.69,469.29c-6.3-3.64-9.53-17.85-15.13-21.08-5.91-3.41-8.98,7.17-15.13,3.62-5.71-3.3-9.88-5.7-15.13-8.73-4.86-2.81-12.53-11.68-15.13-17.99-4.25-10.34-9.22-27.65-15.13-31.06" fill="none" stroke="#666bff" stroke-miterlimit="10"/>
          <path d="M319.57,478.02c-6.3-3.64-9.53-5.5-15.13-8.73-5.91-3.41-8.98-5.18-15.13-8.73-5.71-3.3-9.88-10.02-15.13-13.05-4.86-2.81-9.22-1.01-15.13-4.42-5.91-3.41-9.22-14.58-15.13-17.99" fill="none" stroke="#666bff" stroke-miterlimit="10"/>
          <path d="M304.44,486.75c-6.3-3.64-9.53-5.5-15.13-8.73-5.91-3.41-8.98-15.6-15.13-19.15-5.71-3.3-9.88,4.71-15.13,1.68-4.86-2.81-9.22-5.32-15.13-8.73s-9.22-5.32-15.13-8.73" fill="none" stroke="#666bff" stroke-miterlimit="10"/>
          <path d="M289.31,485.49c-6.3-3.64-9.53,4.5-15.13,1.27-5.91-3.41-8.98-5.18-15.13-8.73-5.71-3.3-9.88-5.7-15.13-8.73-4.86-2.81-9.22-5.32-15.13-8.73-5.91-3.41-9.22-14.28-15.13-17.69" fill="none" stroke="#666bff" stroke-miterlimit="10"/>
          <path d="M274.18,504.22c-6.3-3.64-9.53-5.5-15.13-8.73-5.91-3.41-8.98-5.18-15.13-8.73-5.71-3.3-9.88-12.31-15.13-15.34-4.86-2.81-9.22,1.28-15.13-2.13s-9.22-14.58-15.13-17.99" fill="none" stroke="#666bff" stroke-miterlimit="10"/>
          <path d="M259.05,512.96c-6.3-3.64-9.53-5.5-15.13-8.73-5.91-3.41-8.98-5.18-15.13-8.73-5.71-3.3-9.88-5.7-15.13-8.73-4.86-2.81-9.22-5.32-15.13-8.73s-9.22-14.58-15.13-17.99" fill="none" stroke="#fff" stroke-miterlimit="10"/>
          <g>
            <line x1="228.8" y1="471.42" x2="228.8" y2="412.27" fill="none" stroke="#fff" stroke-miterlimit="10"/>
            <line x1="259.75" y1="495.98" x2="259.75" y2="484.21" fill="none" stroke="#fff" stroke-miterlimit="10"/>
            <line x1="274.44" y1="458.83" x2="274.44" y2="421.1" fill="none" stroke="#fff" stroke-miterlimit="10"/>
            <line x1="289.31" y1="478.02" x2="289.31" y2="462.78" fill="none" stroke="#fff" stroke-miterlimit="10"/>
            <rect x="255.76" y="480.21" width="7.98" height="7.98" fill="#fff"/>
            <rect x="285.32" y="458.79" width="7.98" height="7.98" fill="#fff"/>
            <rect x="270.45" y="417.11" width="7.98" height="7.98" fill="#fff"/>
            <rect x="224.81" y="408.28" width="7.98" height="7.98" fill="#fff"/>
          </g>
        </g>
      </g>
      <g>
        <rect x="422.94" y="346.43" width="7.98" height="7.98" fill="#040919"/>
        <rect x="422.94" y="338.45" width="7.98" height="7.98" fill="#040919"/>
        <rect x="414.96" y="338.45" width="7.98" height="7.98" fill="#040919"/>
        <rect x="338.45" y="390.56" width="7.98" height="7.98" fill="#040919"/>
        <rect x="338.45" y="382.58" width="7.98" height="7.98" fill="#040919"/>
        <rect x="422.94" y="413.07" width="7.98" height="7.98" fill="#040919"/>
        <polyline points="354.42 398.55 346.44 398.55 346.44 406.53 354.42 406.53" fill="#040919"/>
        <rect x="346.44" y="390.56" width="7.98" height="7.98" fill="#040919"/>
      </g>
      <g>
        <rect x="406.97" y="413.07" width="7.98" height="7.98" fill="#040919"/>
        <rect x="406.97" y="421.05" width="7.98" height="7.98" fill="#040919"/>
        <rect x="398.99" y="429.03" width="7.98" height="7.98" fill="#040919"/>
      </g>
      <g>
        <path d="M277.4,238.32c0-19.07,12.46-38.12,37.39-52.67,25.01-14.59,57.86-21.9,90.77-21.9s65.81,7.29,91,21.9c25.29,14.66,37.94,33.9,37.94,53.11" fill="none" stroke="#666bff" stroke-linecap="round" stroke-linejoin="round"/>
        <ellipse cx="406.01" cy="244.22" rx="122.38" ry="121.64" fill="#4331e8"/>
        <g>
          <path d="M388.22,362.8l8.94-2.64,7.1-8.36-8.94-5.83-14.46-5-1.54-2.56-18.78-13.54-13.89-7.01-9.72,1.16-7.57-7.53-5.31-11.07-.86-11.02-3.99-.92-6.44-1.37-2.65-12.15,7.8-7.61,14.71,15.72,1.89-5.77,2.54-8.43,15.98-17.46,12.67-.56-7.26-10.63,13.94-1.48,.11-5.57s-8.36-21.12-10.51-22c-2.14-.88-4.52-1.18-4.52-1.18l-11.4,17.31-5.5-19.86,2.26-3.98,17.81-6.49-4.02-8.6-7.2,1.47-6.79-5.29-4.8-17.03s.65-13,1.89-11.65c1.24,1.35-5.2-1.38-5.2-1.38l-20.08,19.11,6.76,4.2-3.58,10.32-8.71,21.04-9.88,24.23-.5,22.84,8.71,29.71,15.59,19.17,15.82,23.9-.97,8.51,12.81,8.97,14.09,12.22,13.54,4.09h10.09Z" fill="#666bff"/>
          <polygon points="353.42 181.2 360.79 171.98 357.07 164.25 351.42 167.18 347.31 179.17 353.42 181.2" fill="#666bff"/>
          <polygon points="361.09 178.8 362.06 174.61 368.19 176.71 365.66 178.68 361.09 178.8" fill="#666bff"/>
          <polygon points="374.85 177.15 369.22 174.88 372.11 171.08 378 168.86 376.59 166.37 379.23 163.07 391.74 161.1 394.47 164.24 378.44 173.26 374.85 177.15" fill="#666bff"/>
          <path d="M384.05,177.73c-.54-.32-.48-3.08-.48-3.08l.86-3.12,13.92-6.59,7.59-1.36,6.46,6.54,.06,13.29-.52,12.52-14.31,12.27-6.35,13.38-4.78-1.47-1.66-20.34,2.32-3.24-.31-16.52-2.81-2.29Z" fill="#666bff"/>
          <polygon points="440.62 224.29 435.79 219.23 436.1 211.19 439.58 212.27 441.44 216.82 448.19 223.62 448.19 227.09 441.58 230.41 440.62 224.29" fill="#666bff"/>
          <polygon points="438.56 225.93 435.79 221.21 434.06 221.98 433.37 228.2 435.38 228.77 438.56 225.93" fill="#666bff"/>
          <polygon points="419.7 213.84 416.32 215.56 412.09 213.06 411.79 209.49 414.93 209.32 418.5 206.86 421.59 209.58 419.7 213.84" fill="#666bff"/>
          <path d="M521.61,284.14l-10.8,5.56-8.54-17.97-12.04,1.27-.77-9.56-4.11-9.22-3.22-.71-11,19.55-22.24,10.32-3.19,5.61-10.07,16.76-1.91,21.67,7.12,4.57,6.89,1.53,12.37-4.78,10.41,1.99,.52,6.98-6.48,13.32c26.48-14.37,47.01-38.2,57.05-66.9Z" fill="#666bff"/>
          <path d="M524.16,239.04l4.21,4.24c-.4-52.99-34.89-97.89-82.75-114.16l-1.73,5.14,4.73,6.42-6.25,2.63,3.26,4.61,8.55,5.33,.98,4.71,8.31,4.57-5.71,2.62s-5.73-3.37-6.43-4.05c-.7-.69-2.6-4.35-2.6-4.35l-2.18,.09,1.63,5.95,7.76,4.85,3.04-1.32,2.61,.79,.95,6.42-3,1.41,2.79,2.34,1.13,6.22-2.78,.19s-4.76-1.58-4.5-2.11c.26-.53,3.35-2.93,3.35-2.93l-1.46-2.34-4-.34-4.45,1.04-4.61-1.1-2.66,6.2,2.31,11.01-1.61,8.51,2.61,5.21,3.77,.82,.59-1.76h1.4s4.82,5.59,4.82,5.59l2.17-2.69-5.21-11.67-.67-8.47,1.37-.6,5.62,9.77,1.79-.12,2.36-2.57,.94,1.04-1.02,2.49-1.6,1.43,1.59,3.68-1.05,1.2,1.71,5.31-1.18,2.93-7.75,2.35-2.64-3.65-.87,1.22,.66,6.35-3.32,8.37-6.79,7.05,4.84,2.91,2.22,6.81-7.7,2.38-1.5,3.19s1.65,10.62,2.03,11.56c.38,.94,4.15,1.92,4.15,1.92,0,0,8.09-2.94,7.61-3.73-.49-.79-.28-6.59-.28-6.59,0,0,3.22-7.51,3.61-8.03,.39-.52,4.22-4.63,4.22-4.63h3.11s10.52,8.81,10.52,8.81l1.27-.41-.28-4.86-7.65-4.1-1.91-2.23,.28-2.76,9.15,5.39,6.06,8.06,2.91,.53,.25-2.78-1.41-3.25-1.65-1.49,3.8-2.08,1.51,2.27,.26,2.44,2.6,1.77,7.25-5.75,2.15,10.45-1.95,7.39,5,1.25,10.17,22.06,3.66-2.06,5.72-17.96-.73-11.74-4.11,2.94-4.51-8.43,9.08-.49,2.02-4.6Z" fill="#666bff"/>
        </g>
        <path d="M534.5,238.76c0,19.06-12.45,38.09-37.35,52.62-24.45,14.27-56.37,21.58-88.51,21.91-33.65,.35-67.53-6.94-93.3-21.88-25.28-14.66-37.93-33.89-37.93-53.1" fill="none" stroke="#666bff" stroke-linecap="round" stroke-linejoin="round"/>
        <path d="M487.45,335.01c-21.63,19.18-50.17,30.84-81.44,30.84-34.59,0-65.83-14.27-88.09-37.2" fill="none" stroke="#fff" stroke-linecap="round" stroke-linejoin="round"/>
        <ellipse cx="406.01" cy="140.14" rx="9.63" ry="5.61" fill="none" stroke="#040919" stroke-linecap="round" stroke-linejoin="round"/>
      </g>
      <g>
        <line x1="332.37" y1="278.09" x2="285.28" y2="299.76" fill="none" stroke="#666bff" stroke-linecap="round" stroke-linejoin="round"/>
        <line x1="458.32" y1="324.63" x2="478.91" y2="356.27" fill="none" stroke="#666bff" stroke-linecap="round" stroke-linejoin="round"/>
        <line x1="329.28" y1="259.94" x2="250.81" y2="276.01" fill="none" stroke="#666bff" stroke-linecap="round" stroke-linejoin="round"/>
        <line x1="475.15" y1="238" x2="489.05" y2="236.75" fill="none" stroke="#666bff" stroke-linecap="round" stroke-linejoin="round"/>
        <line x1="501.53" y1="222.45" x2="550.84" y2="211.21" fill="none" stroke="#666bff" stroke-linecap="round" stroke-linejoin="round"/>
        <line x1="482.89" y1="213.99" x2="530.5" y2="195.28" fill="none" stroke="#666bff" stroke-linecap="round" stroke-linejoin="round"/>
        <line x1="451.56" y1="147.25" x2="473.68" y2="99.96" fill="none" stroke="#666bff" stroke-linecap="round" stroke-linejoin="round"/>
        <line x1="347.23" y1="251.74" x2="270.88" y2="261.51" fill="none" stroke="#666bff" stroke-linecap="round" stroke-linejoin="round"/>
        <line x1="310.12" y1="224.03" x2="224.07" y2="205.92" fill="none" stroke="#666bff" stroke-linecap="round" stroke-linejoin="round"/>
        <rect x="281.62" y="295.77" width="7.98" height="7.98" fill="#fff"/>
        <rect x="246.82" y="272.02" width="7.98" height="7.98" fill="#fff"/>
        <rect x="526.51" y="191.29" width="7.98" height="7.98" fill="#fff"/>
        <rect x="546.85" y="207.22" width="7.98" height="7.98" fill="#fff"/>
        <rect x="469.69" y="95.97" width="7.98" height="7.98" fill="#fff"/>
        <rect x="484.31" y="232.76" width="7.98" height="7.98" fill="#fff"/>
        <rect x="464.63" y="182.53" width="7.98" height="7.98" fill="#fff"/>
        <rect x="464.63" y="222.43" width="7.98" height="7.98" fill="#fff"/>
        <rect x="456.65" y="214.45" width="7.98" height="7.98" fill="#fff"/>
        <rect x="456.65" y="222.43" width="7.98" height="7.98" fill="#fff"/>
        <rect x="438.56" y="251.29" width="7.98" height="7.98" fill="#fff"/>
        <rect x="464.63" y="206.47" width="7.98" height="7.98" fill="#fff"/>
        <rect x="438.56" y="317.71" width="7.98" height="7.98" fill="#fff"/>
        <rect x="438.56" y="309.73" width="7.98" height="7.98" fill="#fff"/>
        <rect x="446.54" y="301.74" width="7.98" height="7.98" fill="#fff"/>
        <rect x="379.58" y="339.87" width="7.98" height="7.98" fill="#fff"/>
        <rect x="339.67" y="323.91" width="7.98" height="7.98" fill="#fff"/>
        <rect x="474.92" y="352.28" width="7.98" height="7.98" fill="#fff"/>
        <rect x="371.6" y="339.87" width="7.98" height="7.98" fill="#fff"/>
        <rect x="340.36" y="236.95" width="7.98" height="7.98" fill="#fff"/>
        <rect x="340.36" y="228.97" width="7.98" height="7.98" fill="#fff"/>
        <rect x="332.37" y="244.93" width="7.98" height="7.98" fill="#fff"/>
        <rect x="324.39" y="213.01" width="7.98" height="7.98" fill="#fff"/>
        <rect x="332.37" y="205.03" width="7.98" height="7.98" fill="#fff"/>
        <rect x="379.58" y="347.85" width="7.98" height="7.98" fill="#fff"/>
        <rect x="266.89" y="257.52" width="7.98" height="7.98" fill="#fff"/>
        <rect x="220.08" y="201.93" width="7.98" height="7.98" fill="#fff"/>
        <rect x="489.05" y="291.97" width="7.98" height="7.98" fill="#fff"/>
      </g>
      <g>
        <polygon points="591.19 217.9 702.96 192.58 702.96 281.68 591.19 306.99 591.19 217.9" fill="#4331e8"/>
        <polyline points="701.54 244.22 695.05 247.37 688.56 267.25 682.07 263.43 675.58 267.73 669.09 276.16 662.6 263.22 656.1 267.09 649.61 277.39 643.12 283.35 636.63 279.71 630.14 283.89 623.65 281.39 617.16 285.96 610.67 291.82 602 293.81 597.69 296.71 591.19 297.66" fill="none" stroke="#040919" stroke-linecap="round" stroke-linejoin="round"/>
        <polyline points="701.54 215.01 695.05 219.88 688.56 243.11 682.07 252.62 675.58 251.38 669.09 264.41 662.6 244.39 656.1 250.38 649.61 266.32 643.12 275.53 636.63 269.9 630.14 276.36 623.65 263.06 617.16 279.56 610.67 288.63 604.18 287.2 597.69 296.19 591.19 297.66" fill="none" stroke="#fff" stroke-linecap="round" stroke-linejoin="round"/>
        <polygon points="591.19 217.9 503.19 268.7 503.19 357.8 591.19 306.99 591.19 217.9" fill="url(#New_Gradient_Swatch_1-4)"/>
        <polygon points="473.4 323.97 503.19 268.7 503.19 357.8 473.4 413.07 473.4 323.97" fill="#040919"/>
        <polygon points="479.36 363.94 491.29 341.8 491.29 364.62 479.36 386.76 479.36 363.94" fill="#4331e8"/>
        <line x1="479.36" y1="354.43" x2="491.29" y2="332.29" fill="none" stroke="#4331e8" stroke-linecap="round" stroke-linejoin="round"/>
        <line x1="479.36" y1="328.24" x2="491.29" y2="306.1" fill="none" stroke="#4331e8" stroke-linecap="round" stroke-linejoin="round"/>
        <line x1="479.36" y1="334.54" x2="491.29" y2="312.4" fill="none" stroke="#4331e8" stroke-linecap="round" stroke-linejoin="round"/>
        <line x1="503.19" y1="268.7" x2="503.19" y2="357.8" fill="none" stroke="#4331e8" stroke-linecap="round" stroke-linejoin="round"/>
        <polyline points="473.4 413.07 473.4 323.97 503.19 268.7 591.19 217.9 702.96 192.58" fill="none" stroke="#fff" stroke-linecap="round" stroke-linejoin="round"/>
        <g>
          <line x1="511.89" y1="339.1" x2="511.89" y2="325.69" fill="none" stroke="#4331e8" stroke-linecap="round" stroke-linejoin="round"/>
          <line x1="518.86" y1="327.5" x2="518.86" y2="309.17" fill="none" stroke="#4331e8" stroke-linecap="round" stroke-linejoin="round"/>
          <line x1="525.83" y1="329.41" x2="525.83" y2="283.21" fill="none" stroke="#4331e8" stroke-linecap="round" stroke-linejoin="round"/>
          <line x1="532.8" y1="322.67" x2="532.8" y2="300.8" fill="none" stroke="#4331e8" stroke-linecap="round" stroke-linejoin="round"/>
          <line x1="539.77" y1="322.67" x2="539.77" y2="311.12" fill="none" stroke="#4331e8" stroke-linecap="round" stroke-linejoin="round"/>
          <line x1="546.75" y1="319.14" x2="546.75" y2="302.82" fill="none" stroke="#4331e8" stroke-linecap="round" stroke-linejoin="round"/>
          <line x1="553.72" y1="307.12" x2="553.72" y2="281.39" fill="none" stroke="#4331e8" stroke-linecap="round" stroke-linejoin="round"/>
          <line x1="560.69" y1="283.04" x2="560.69" y2="263.43" fill="none" stroke="#4331e8" stroke-linecap="round" stroke-linejoin="round"/>
          <line x1="567.66" y1="298.67" x2="567.66" y2="276.45" fill="none" stroke="#4331e8" stroke-linecap="round" stroke-linejoin="round"/>
          <line x1="574.63" y1="288.24" x2="574.63" y2="262.79" fill="none" stroke="#4331e8" stroke-linecap="round" stroke-linejoin="round"/>
          <line x1="581.6" y1="278.21" x2="581.6" y2="238.75" fill="none" stroke="#4331e8" stroke-linecap="round" stroke-linejoin="round"/>
        </g>
        <g>
          <line x1="511.89" y1="339.1" x2="511.89" y2="331.61" fill="none" stroke="#fff" stroke-linecap="round" stroke-linejoin="round"/>
          <line x1="518.86" y1="324.07" x2="518.86" y2="320.43" fill="none" stroke="#fff" stroke-linecap="round" stroke-linejoin="round"/>
          <line x1="525.83" y1="318.38" x2="525.83" y2="299.95" fill="none" stroke="#fff" stroke-linecap="round" stroke-linejoin="round"/>
          <line x1="532.8" y1="319.14" x2="532.8" y2="310.28" fill="none" stroke="#fff" stroke-linecap="round" stroke-linejoin="round"/>
          <line x1="539.77" y1="317.97" x2="539.77" y2="315.47" fill="none" stroke="#fff" stroke-linecap="round" stroke-linejoin="round"/>
          <line x1="546.75" y1="312.7" x2="546.75" y2="307.77" fill="none" stroke="#fff" stroke-linecap="round" stroke-linejoin="round"/>
          <line x1="553.72" y1="304" x2="553.72" y2="293.99" fill="none" stroke="#fff" stroke-linecap="round" stroke-linejoin="round"/>
          <line x1="560.69" y1="283.04" x2="560.69" y2="269" fill="none" stroke="#fff" stroke-linecap="round" stroke-linejoin="round"/>
          <line x1="567.66" y1="292.84" x2="567.66" y2="276.45" fill="none" stroke="#fff" stroke-linecap="round" stroke-linejoin="round"/>
          <line x1="574.63" y1="283.21" x2="574.63" y2="273.21" fill="none" stroke="#fff" stroke-linecap="round" stroke-linejoin="round"/>
          <line x1="581.6" y1="274.7" x2="581.6" y2="252.15" fill="none" stroke="#fff" stroke-linecap="round" stroke-linejoin="round"/>
        </g>
        <line x1="510.59" y1="271.84" x2="525.16" y2="263.43" fill="none" stroke="#4331e8" stroke-linecap="round" stroke-linejoin="round"/>
      </g>
      <g>
        <polygon points="719.92 532.26 660.07 502.48 658.07 506.56 661.27 511.04 643.02 505.17 627.53 503.94 697.14 546.23 719.92 532.26" fill="#040919"/>
        <polygon points="672.81 322.36 651.8 322.67 630.88 307.51 621.68 316.13 638.67 332.29 664.87 345.34 672.81 322.36" fill="#4331e8"/>
        <g>
          <path d="M664.7,491.08l-.62,7.81c-.77,4.4-6.14,4.44-6.45,1.87-.31-2.57-.33-9.68-.33-9.68" fill="#d0d3f5"/>
          <path d="M664.08,498.89l-.08,5.1c-.07,4.4-6.24,4.03-7.3,.93l-3.73-10.91,4.33-2.93s.02,7.11,.33,9.68c.31,2.57,5.69,2.53,6.45-1.87Z" fill="#040919"/>
        </g>
        <path d="M636.51,393.26l11.65-5.67,33.83-8.42c.54,3.52,.41,9.27-.28,12.76l-6.72,34.1-10.29,65.04h-7.41s-1.2-11.25-1.2-11.25l-3.93,14.36-8.9-1.38-7.9-73.65,1.15-25.91Z" fill="#040919"/>
        <polyline points="643.27 492.81 635.37 419.16 636.25 399.25" fill="none" stroke="#4331e8" stroke-linecap="round" stroke-linejoin="round"/>
        <path d="M636.51,393.26l2.94-38.32-3.82-9.1,3.37-7.88c1-2.34,3.87-5.16,6.08-6.43l20.31-11.63,7.42,2.46,7.95,7.7c3.81,3.69,5.37,9.12,4.1,14.27l-5.04,20.49,6.29,29.69-25.97,15c-4.32,2.5-11.41,2.93-17.26,2.5l-6.35-18.76Z" fill="#4331e8"/>
        <polyline points="679.81 364.83 664.04 395.53 658.13 394.53" fill="none" stroke="#666bff" stroke-linecap="round" stroke-linejoin="round"/>
        <line x1="676.96" y1="379.74" x2="668.97" y2="394.19" fill="none" stroke="#666bff" stroke-linecap="round" stroke-linejoin="round"/>
        <path d="M646.55,364.76s2.16,2.65-.69,6.13c-2.85,3.48-6.79,6.52-4.86,11.73,1.93,5.21-4.29,8.14-4.29,8.14l1.4-18.26,8.45-7.74Z" fill="#666bff"/>
        <g>
          <path d="M652.17,494.19l-2.11,9.34c-1.08,.1-2.29,.37-3.21,1.06-2.07,1.55-2.95-.26-3.62-2.69-.67-2.43-1.7-5.43-1.7-5.43h-.02c.93-.98,1.58-2.23,1.76-3.65" fill="#d0d3f5"/>
          <path d="M649.74,507.77c-.15,3.54-3.93,3.08-7.63,1.68l-14.58-5.51c-2.86-1.08-5.88-4.52-1.16-4.81l10.89-.68c1.67-.1,3.16-.85,4.25-1.99h.02s1.03,3,1.7,5.44c.67,2.43,1.55,4.24,3.62,2.69,.91-.68,2.13-.96,3.21-1.06l-.16,.46-.16,3.78Z" fill="#040919"/>
        </g>
        <polygon points="623.92 313.81 630.84 307.53 627.15 304.9 622.29 309.43 623.92 313.81" fill="#fff"/>
        <polyline points="656.1 479.83 658.85 451.04 657.11 440.47 664.04 414.06" fill="none" stroke="#4331e8" stroke-linecap="round" stroke-linejoin="round"/>
        <path d="M657.11,440.47l-7.12,12.03s4.13,2.23,6.1-3.26" fill="none" stroke="#4331e8" stroke-linecap="round" stroke-linejoin="round"/>
        <path d="M639,337.96l-9.6,22.47-14.94-17.73-6.7,10.11,15.4,21.6c2.8,3.92,7.99,4.47,11.54,1.22l11.86-10.87-7.55-26.8Z" fill="#4331e8"/>
        <path d="M614.46,342.7l-6.3,2.63,2.16,3.89s1.12-3.9,5.34-5.1l-1.2-1.43Z" fill="#fff"/>
        <path d="M668.06,323.24l-2.42-3.32h-.25s-20.31,11.62-20.31,11.62c-2.2,1.26-5.08,4.09-6.08,6.43l-9.6,22.47h0s1.37,1.94,1.37,1.94l10.66-20.35c1.38-2.64,4.36-3.21,6.63-1.28l5.36,4.59-6.61-9.77,21.25-12.32Z" fill="#666bff"/>
        <g>
          <path d="M674.01,326.01l-1.2-3.65c-.62-1.89-.58-4.21,.79-5.66l2.1-2.21-15.19-3.35-4.77,14.8,12.03,2.87,6.25-2.8Z" fill="#666bff"/>
          <circle cx="668.09" cy="304.9" r="12.24" fill="#666bff"/>
          <path d="M662.85,319.27l-6.09-1.22c-2.33-.47-3.78-2.74-3.22-5.05l2.68-11.04,3.29,3.71,3.34,13.61Z" fill="#666bff"/>
          <path d="M672.68,293.56l-6.18-2.51-4.96,5.1c-1.28,1.32-1.74,3.14-.97,4.81l1.19,2.6-.8,2.03,3.82,3.06,4.34,9.89,4.46-1.83,2.1-2.21h-.01c1.61-1.28,2.93-2.97,3.76-5.01,2.53-6.27-.49-13.4-6.76-15.93Z" fill="#040919"/>
          <path d="M675.68,314.49c1.61-1.27,2.93-2.96,3.76-5.01,2.53-6.27-.49-13.4-6.76-15.93l-6.18-2.51" fill="none" stroke="#4331e8" stroke-linecap="round" stroke-linejoin="round"/>
          <polygon points="660.97 305.58 659.21 310.61 661.13 311.28 662.23 308.12 666.43 305.58 660.97 305.58" fill="#040919"/>
          <circle cx="665.03" cy="309.26" r="3.02" fill="#666bff"/>
          <polyline points="662.55 307.54 653.41 302.53 656.52 300.95" fill="none" stroke="#040919" stroke-linecap="round" stroke-linejoin="round"/>
          <polyline points="655.23 306.08 652.62 306.71 653.41 302.53" fill="none" stroke="#040919" stroke-linecap="round" stroke-linejoin="round"/>
        </g>
        <path d="M605.05,340.41c.58,3.31,3.1,4.93,3.1,4.93l6.3-2.63-1.27-9.84-3.71-3.05-8.2-1.16-.5,1.19,5.46,2.88-.62,4.32s-3.19-.6-3.77,2.62l3.21,.75Z" fill="#666bff"/>
        <polygon points="655.73 325.94 667.76 328.82 674.01 326.01 672.81 322.36 663.64 324.29 655.73 325.94" fill="#fff"/>
        <polygon points="606.37 330.23 601.35 324.97 602.18 323.56 609.47 329.82 606.37 330.23" fill="#666bff"/>
        <polygon points="627.15 304.9 623.87 299.91 612.74 293.34 611.91 295 617 299.36 613.49 301.65 613.49 306.38 617.18 308.76 620.05 308.38 622.29 309.43 627.15 304.9" fill="#666bff"/>
      </g>
      <polyline points="525.99 281.06 597.09 325.55 597.09 338.14 525.83 329.41" fill="none" stroke="#666bff" stroke-linecap="round" stroke-linejoin="round"/>
      <g>
        <line x1="336.37" y1="156.47" x2="336.37" y2="205.04" fill="none" stroke="#fff" stroke-linecap="round" stroke-linejoin="round"/>
        <polygon points="292.08 124.99 238.52 155.91 292.08 186.83 345.63 155.91 292.08 124.99" fill="url(#linear-gradient-2)"/>
        <polyline points="345.63 155.91 292.08 124.99 238.52 155.91" fill="none" stroke="#666bff" stroke-linecap="round" stroke-linejoin="round"/>
        <polyline points="238.52 155.91 292.08 186.83 345.63 155.91" fill="none" stroke="#fff" stroke-linecap="round" stroke-linejoin="round"/>
        <g>
          <g>
            <path d="M288.41,102.14c2.11-1.22,5.53-1.22,7.62,0,1.05,.61,1.57,1.41,1.57,2.22h0v54.33h0c0,.8-.53,1.61-1.59,2.22-2.11,1.22-5.53,1.22-7.62,0-1.05-.61-1.57-1.41-1.57-2.22v-54.33h0c0-.8,.53-1.6,1.59-2.22Z" fill="#666bff"/>
            <path d="M296.03,102.14c2.11,1.22,2.12,3.21,.02,4.43s-5.51,1.23-7.62,0c-2.11-1.22-2.12-3.21-.02-4.43,2.1-1.22,5.51-1.22,7.62,0Z" fill="#666bff"/>
            <path d="M286.84,104.36c0,.8,.53,1.61,1.59,2.22,1.05,.61,2.41,.91,3.78,.92v54.33c-1.39,0-2.77-.3-3.82-.92-1.05-.61-1.57-1.41-1.57-2.22v-54.33h.02Z" fill="#fff"/>
          </g>
          <g>
            <path d="M302.45,82.04c2.11-1.22,5.53-1.22,7.62,0,1.05,.61,1.57,1.41,1.57,2.22h0v25.15h0c0,.8-.53,1.61-1.59,2.22-2.11,1.22-5.53,1.22-7.62,0-1.05-.61-1.57-1.41-1.57-2.22v-25.15h0c0-.8,.53-1.6,1.59-2.22Z" fill="none" stroke="#666bff" stroke-linecap="round" stroke-linejoin="round"/>
            <path d="M310.07,82.04c2.11,1.22,2.12,3.21,.02,4.43s-5.51,1.23-7.62,0-2.12-3.21-.02-4.43c2.1-1.22,5.51-1.22,7.62,0Z" fill="none" stroke="#666bff" stroke-linecap="round" stroke-linejoin="round"/>
          </g>
          <g>
            <path d="M302.45,117.91c2.11-1.22,5.53-1.22,7.62,0,1.05,.61,1.57,1.41,1.57,2.22h0v30.46h0c0,.8-.53,1.61-1.59,2.22-2.11,1.22-5.53,1.22-7.62,0-1.05-.61-1.57-1.41-1.57-2.22v-30.46h0c0-.8,.53-1.6,1.59-2.22Z" fill="#666bff"/>
            <path d="M310.07,117.91c2.11,1.22,2.12,3.21,.02,4.43-2.1,1.22-5.51,1.23-7.62,0-2.11-1.22-2.12-3.21-.02-4.43,2.1-1.22,5.51-1.22,7.62,0Z" fill="#666bff"/>
            <path d="M300.88,120.12c0,.8,.53,1.61,1.59,2.22,1.05,.61,2.41,.91,3.78,.92v30.46c-1.39,0-2.77-.3-3.82-.92-1.05-.61-1.57-1.41-1.57-2.22v-30.46h.02Z" fill="#fff"/>
          </g>
          <g>
            <path d="M274.08,148.95c2.11-1.22,5.53-1.22,7.62,0,1.05,.61,1.57,1.41,1.57,2.22h0v15.79h0c0,.8-.53,1.61-1.59,2.22-2.11,1.22-5.53,1.22-7.62,0-1.05-.61-1.57-1.41-1.57-2.22v-15.79h0c0-.8,.53-1.6,1.59-2.22Z" fill="#666bff"/>
            <path d="M281.7,148.95c2.11,1.22,2.12,3.21,.02,4.43s-5.51,1.23-7.62,0c-2.11-1.22-2.12-3.21-.02-4.43s5.51-1.22,7.62,0Z" fill="#666bff"/>
            <path d="M272.51,151.17c0,.8,.53,1.61,1.59,2.22,1.05,.61,2.41,.91,3.78,.92v15.79c-1.39,0-2.77-.3-3.82-.92-1.05-.61-1.57-1.41-1.57-2.22v-15.79h.02Z" fill="#fff"/>
          </g>
        </g>
      </g>
    </g>
  </g>
</svg>