<?xml version="1.0" encoding="UTF-8"?>
<svg xmlns="http://www.w3.org/2000/svg" width="800" height="600" xmlns:xlink="http://www.w3.org/1999/xlink" viewBox="0 0 800 600">
  <defs>
    <linearGradient id="linear-gradient" x1="139.22" y1="334.39" x2="152.57" y2="355.53" gradientUnits="userSpaceOnUse">
      <stop offset="0" stop-color="#bcc0e5"/>
      <stop offset="1" stop-color="#bcc0e5" stop-opacity="0"/>
    </linearGradient>
    <linearGradient id="linear-gradient-2" x1="371.17" y1="342.84" x2="400.89" y2="342.84" gradientUnits="userSpaceOnUse">
      <stop offset="0" stop-color="#040919"/>
      <stop offset=".05" stop-color="#080c28"/>
      <stop offset=".24" stop-color="#1a1762"/>
      <stop offset=".42" stop-color="#282092"/>
      <stop offset=".59" stop-color="#3427b7"/>
      <stop offset=".75" stop-color="#3c2cd2"/>
      <stop offset=".89" stop-color="#412fe2"/>
      <stop offset="1" stop-color="#4331e8"/>
    </linearGradient>
    <linearGradient id="linear-gradient-3" x1="359.3" y1="337.25" x2="351.9" y2="324.93" gradientUnits="userSpaceOnUse">
      <stop offset="0" stop-color="#4331e8"/>
      <stop offset=".11" stop-color="#412fe2"/>
      <stop offset=".25" stop-color="#3c2cd2"/>
      <stop offset=".41" stop-color="#3427b7"/>
      <stop offset=".58" stop-color="#282092"/>
      <stop offset=".76" stop-color="#1a1762"/>
      <stop offset=".95" stop-color="#080c28"/>
      <stop offset="1" stop-color="#040919"/>
    </linearGradient>
    <linearGradient id="linear-gradient-4" x1="571.79" y1="165.36" x2="571.84" y2="165.36" gradientTransform="translate(1283.26 596.03) rotate(-180)" gradientUnits="userSpaceOnUse">
      <stop offset="0" stop-color="#d0d3f5"/>
      <stop offset=".17" stop-color="#e9eafa"/>
      <stop offset=".32" stop-color="#f9f9fd"/>
      <stop offset=".45" stop-color="#fff"/>
    </linearGradient>
    <linearGradient id="linear-gradient-5" x1="254.01" y1="206.5" x2="571.03" y2="206.5" gradientUnits="userSpaceOnUse">
      <stop offset="0" stop-color="#d0d3f5"/>
      <stop offset=".17" stop-color="#e9eafa"/>
      <stop offset=".32" stop-color="#f9f9fd"/>
      <stop offset=".45" stop-color="#fff"/>
    </linearGradient>
    <linearGradient id="linear-gradient-6" x1="582.06" y1="346.63" x2="575.99" y2="336.52" gradientUnits="userSpaceOnUse">
      <stop offset="0" stop-color="#4331e8"/>
      <stop offset=".11" stop-color="#483aeb"/>
      <stop offset=".45" stop-color="#5855f6"/>
      <stop offset=".76" stop-color="#6265fc"/>
      <stop offset="1" stop-color="#666bff"/>
    </linearGradient>
    <linearGradient id="linear-gradient-7" x1="660.51" y1="345.17" x2="666.41" y2="336.32" xlink:href="#linear-gradient-2"/>
    <linearGradient id="linear-gradient-8" x1="719.51" y1="557.79" x2="734.36" y2="579.96" xlink:href="#linear-gradient"/>
    <linearGradient id="New_Gradient_Swatch_1" data-name="New Gradient Swatch 1" x1="152.14" y1="495.96" x2="163.25" y2="495.96" gradientUnits="userSpaceOnUse">
      <stop offset="0" stop-color="#040919"/>
      <stop offset=".05" stop-color="#080c28"/>
      <stop offset=".24" stop-color="#1a1762"/>
      <stop offset=".42" stop-color="#282092"/>
      <stop offset=".59" stop-color="#3427b7"/>
      <stop offset=".75" stop-color="#3c2cd2"/>
      <stop offset=".89" stop-color="#412fe2"/>
      <stop offset="1" stop-color="#4331e8"/>
    </linearGradient>
    <linearGradient id="linear-gradient-9" x1="185.8" y1="439.23" x2="178.26" y2="451.42" gradientUnits="userSpaceOnUse">
      <stop offset="0" stop-color="#040919"/>
      <stop offset=".05" stop-color="#080c28"/>
      <stop offset=".24" stop-color="#1a1762"/>
      <stop offset=".42" stop-color="#282092"/>
      <stop offset=".59" stop-color="#3427b7"/>
      <stop offset=".75" stop-color="#3c2cd2"/>
      <stop offset=".89" stop-color="#412fe2"/>
      <stop offset="1" stop-color="#4331e8"/>
    </linearGradient>
    <linearGradient id="linear-gradient-10" x1="186.36" y1="361.66" x2="186.35" y2="361.66" xlink:href="#linear-gradient-9"/>
    <linearGradient id="New_Gradient_Swatch_1-2" data-name="New Gradient Swatch 1" x1="681.55" y1="170.24" x2="668.88" y2="170.24" xlink:href="#New_Gradient_Swatch_1"/>
    <linearGradient id="linear-gradient-11" x1="599.21" y1="137.52" x2="625.95" y2="137.52" gradientTransform="matrix(1, 0, 0, 1, 0, 0)" xlink:href="#linear-gradient-4"/>
    <linearGradient id="linear-gradient-12" x1="667.66" y1="79.8" x2="672.73" y2="88.61" gradientUnits="userSpaceOnUse">
      <stop offset="0" stop-color="#040919"/>
      <stop offset=".05" stop-color="#080c28"/>
      <stop offset=".24" stop-color="#1a1762"/>
      <stop offset=".42" stop-color="#282092"/>
      <stop offset=".59" stop-color="#3427b7"/>
      <stop offset=".75" stop-color="#3c2cd2"/>
      <stop offset=".89" stop-color="#412fe2"/>
      <stop offset="1" stop-color="#4331e8"/>
    </linearGradient>
  </defs>
  <g id="BG">
    <rect y=".27" width="800" height="600" fill="#fff"/>
  </g>
  <g id="Light">
    <g>
      <g>
        <path d="M195.77,339.65l-63.13-36.45,9.39-5.42-48.3-27.89-35.53,20.51,48.3,27.89c7.51,4.34,14.4-2.93,22,1.45l50.87,29.37,16.4-9.47Z" fill="url(#linear-gradient)"/>
        <path d="M141.33,271.05c2.92-1.69,2.69-3.92-.52-4.97l-28.8-9.39-13.17-64.54-37.24,21.5,11.69,57.31c.81,3.98,4.63,8.26,8.49,9.52l27.61,9.01,31.93-18.43Z" fill="#040919"/>
        <g>
          <circle cx="83.31" cy="183.15" r="5.43" fill="#040919"/>
          <path d="M78,182.02l-4.33,17.17c-.61,2.42,.05,4.06,1.94,5.29l-2.07,3.84,5.47,9.14,5.83-5.64-2.02-26.43-4.83-3.38Z" fill="#040919"/>
          <circle cx="83.31" cy="183.15" r="3.9" fill="#666bff"/>
          <g>
            <polygon points="144.14 267.66 123.33 259.9 119.66 250.39 97.98 264.11 96.57 275.12 128.73 279.01 141.41 315.61 146.84 317.18 153.07 311.11 144.14 267.66" fill="#040919"/>
            <line x1="96.57" y1="275.12" x2="128.73" y2="279.01" fill="none" stroke="#4331e8" stroke-linecap="round" stroke-linejoin="round"/>
            <path d="M119.66,250.39l-2.27-5.89-4.8-21.27,2.62-1.19-3.24-9.06c-.78-2.25-3.28-4.66-5.56-5.35l-21.8-4.16-13.05,11.45c-2.37,2.08-3.93,6.33-3.47,9.44l2.03,12.56,6.75-.23,5.32,23.8c1.55,6.92,7.33,13.77,14.37,14.63l.69-5.39c.4-3.09,2.88-6.99,5.51-8.66l16.89-10.68Z" fill="#e6e7f5"/>
            <path d="M106.07,258.99l.18-6.19-6.1-1.72c-.72-2.99-2.72-5.22-7.58-5.97-4.25-.65-7.72-5.06-8.85-10.56l-7.73,2.17,.89-.03,5.32,23.8c1.55,6.92,7.33,13.77,14.37,14.63l.69-5.39c.4-3.09,2.88-6.99,5.51-8.66,0,0,0,0,0,0l2.94-1.86,.35-.22Z" fill="#666bff"/>
          </g>
          <path d="M119.38,249.66l28.36,6.06c6.35,1.36,7.72,9.17,2.17,12.59l-29.45,18.15s-7,.54-6.7-7.63l16.15-15.17-12.09-4.35,1.56-9.65Z" fill="#040919"/>
          <line x1="138.87" y1="275.12" x2="120.47" y2="286.46" fill="none" stroke="#4331e8" stroke-linecap="round" stroke-linejoin="round"/>
          <path d="M117.71,275.88l14.19-14.2c.92-.92,2.75-1.68,4.05-1.68h3.81" fill="none" stroke="#4331e8" stroke-linecap="round" stroke-linejoin="round"/>
          <line x1="117.82" y1="259.31" x2="126.03" y2="261.67" fill="none" stroke="#4331e8" stroke-linecap="round" stroke-linejoin="round"/>
          <polygon points="120.72 241.25 94.69 256.28 111.06 265.73 137.09 250.7 120.72 241.25" fill="#bcc0e5"/>
          <polygon points="123.96 247.02 105.03 257.95 112.44 262.23 131.37 251.3 123.96 247.02" fill="#040919"/>
          <polygon points="147.88 232.62 121.85 247.65 111.06 265.73 137.09 250.7 147.88 232.62" fill="#666bff"/>
          <path d="M115.22,222.04l6.71,18.8,4.1,5.7-4.61,2.92-8.14-7.4c-1.22-1.11-2.04-3.35-1.82-4.99l1.42-10.56-.28-3.29,2.62-1.19Z" fill="#4331e8"/>
          <path d="M79.79,207.71l4.83-4.24,18.32,3.5s1.29,6.87-6.81,9.14c-8.1,2.27-16.33-8.4-16.33-8.4Z" fill="#4331e8"/>
          <path d="M97.1,207.66l.88-4.04,2.33-.64c1.31-.36,2.67-1.73,3.02-3.04l2.27-8.49-.57-7.23c-.36-4.54-4.02-8.11-8.56-8.35l-3.41-.18c-7.97-.42-14.56,7.37-9.71,16.45l2.2,4.11c1.04,1.95,.98,4.97-.94,7.22l12.48,4.19Z" fill="#4331e8"/>
          <path d="M97.98,203.62l-6.95-3.22s-.27,1.51,2.26,3.07c2.52,1.56,1.22,3.23,1.22,3.23-.85,2.62,2.13,2.82,2.13,2.82l1.34-5.91Z" fill="#040919"/>
          <path d="M105.16,183.21c-.71-4.13-4.2-7.28-8.46-7.51l-4.02-.21c-3.8-.2-7.43,1.64-9.51,4.83-2.08,3.19-2.5,7.34-.6,10.65l2.54,4.43c.31,.54,.93,1.76,1,2.37,2.64,.44,4.98-.93,6.79-2.88l2.23-4.78c.85-2.94,2.46-4.09,5.96-5.38l4.07-1.5h0Z" fill="#040919"/>
          <path d="M124.15,282.16l9.05,11.48c3.12,3.96-6.62,7.27-11.58,2.57l-10.11-9.58c-1.95-.99-2.01-5.61,.21-6.99l4.05-2.52,8.14,.44,.24,4.61Z" fill="#666bff"/>
          <path d="M130.91,293.51l-14.4-11.13c-1.2-.93-3.37-1.34-4.83-.91l-1.44,.42c-.48,1.84-.02,4.09,1.27,4.74l10.11,9.58c3.02,2.87,7.82,2.75,10.4,1.33,.52-1.35,.04-3.14-1.11-4.03Z" fill="#e6e7f5"/>
          <path d="M152.7,315.3l.65,1.33c1.31,2.69,4.54,6.02,7.18,7.41l6.47,3.41v2.41c0,2.96-9.91,3.91-13.93,.9l-7.32-5.47c-1.26-.94-2.29-2.14-2.19-3.71l.22-3.36,8.92-2.92Z" fill="#666bff"/>
          <path d="M167,329.87c0,2.96-9.91,3.91-13.93,.9l-7.32-5.47c-1.26-.94-2.29-2.14-2.19-3.71" fill="none" stroke="#fff" stroke-linecap="round" stroke-linejoin="round"/>
          <path d="M153.07,316.06l-2.36-5.37-4.11,1.48c-2.46,.88-3.72,3.61-2.82,6.06l2.47,2.66c1.08,1.17,2.68,.55,3.16-.97l.86-2.73,2.8-1.12Z" fill="#d0d3f5"/>
          <polyline points="94.69 256.28 111.06 265.73 121.85 247.65 147.88 232.62" fill="none" stroke="#fff" stroke-linecap="round" stroke-linejoin="round"/>
          <path d="M91.4,242.45s4.66,1.52,8.54-.26l5.96-2.74" fill="none" stroke="#666bff" stroke-linecap="round" stroke-linejoin="round"/>
        </g>
        <polyline points="58.03 290.31 77.84 256.29 98.81 268.4 98.81 313.85" fill="none" stroke="#040919" stroke-linecap="round" stroke-linejoin="round"/>
        <line x1="71.58" y1="267.04" x2="77.84" y2="256.29" fill="none" stroke="#fff" stroke-linecap="round" stroke-linejoin="round"/>
        <line x1="98.81" y1="268.4" x2="98.81" y2="285.83" fill="none" stroke="#fff" stroke-linecap="round" stroke-linejoin="round"/>
        <g>
          <polygon points="66.33 254.14 94.53 270.42 102.43 265.86 74.22 249.58 66.33 254.14" fill="#040919"/>
          <polyline points="66.33 254.14 94.53 270.42 102.43 265.86" fill="none" stroke="#666bff" stroke-linecap="round" stroke-linejoin="round"/>
        </g>
        <path d="M70.13,236.93l3.24,16.57c.48,2.43,2.89,4.34,5.35,4.11l22.2-2.35,3.16,1.19,3.83-1.59,4.43,.49,.66-2.55-2.57-1.92,4.21,.28v-1.27l-7.14-1.19-5.82,2.02-17.73-2.3-2.26-13.57-11.58,2.08Z" fill="#4331e8"/>
        <polyline points="70.13 236.93 83.71 234.55 83.26 229.27" fill="none" stroke="#666bff" stroke-linecap="round" stroke-linejoin="round"/>
        <ellipse cx="98.81" cy="313.85" rx="1.74" ry="1.06" fill="#040919"/>
        <ellipse cx="58.03" cy="290.31" rx="1.74" ry="1.06" fill="#040919"/>
      </g>
      <polygon points="161.45 240.64 296.23 318.46 344.3 290.71 209.52 212.89 161.45 240.64" fill="#bcc0e5"/>
      <g>
        <polygon points="412.52 434.36 571.03 342.84 412.52 251.32 254.01 342.84 412.52 434.36" fill="url(#linear-gradient-2)"/>
        <polygon points="412.52 261.73 562.02 348.05 571.03 342.84 412.52 251.32 254.01 342.84 263.02 348.05 412.52 261.73" fill="#d0d3f5"/>
        <polygon points="412.52 280.64 545.64 357.5 562.02 348.05 412.52 261.73 263.02 348.05 279.4 357.5 412.52 280.64" fill="#040919"/>
        <polygon points="412.52 251.32 412.52 261.73 263.02 348.05 254.01 342.84 412.52 251.32" fill="#040919"/>
        <line x1="412.52" y1="261.73" x2="263.02" y2="348.05" fill="none" stroke="#4331e8" stroke-linecap="round" stroke-linejoin="round"/>
        <g>
          <rect x="461.6" y="354.41" width="7.98" height="7.98" fill="#040919"/>
          <rect x="461.6" y="386.33" width="7.98" height="7.98" fill="#040919"/>
          <rect x="461.6" y="378.35" width="7.98" height="7.98" fill="#040919"/>
          <rect x="421.69" y="410.28" width="7.98" height="7.98" fill="#040919"/>
          <rect x="421.69" y="402.3" width="7.98" height="7.98" fill="#040919"/>
          <rect x="421.69" y="394.32" width="7.98" height="7.98" fill="#040919"/>
          <rect x="445.63" y="362.39" width="7.98" height="7.98" fill="#040919"/>
          <rect x="429.67" y="410.28" width="7.98" height="7.98" fill="#040919"/>
          <polygon points="437.65 419.85 437.65 418.26 429.67 418.26 429.67 424.46 437.65 419.85" fill="#040919"/>
          <rect x="437.65" y="346.43" width="7.98" height="7.98" fill="#040919"/>
          <rect x="437.65" y="354.41" width="7.98" height="7.98" fill="#040919"/>
          <rect x="389.77" y="378.35" width="7.98" height="7.98" fill="#040919"/>
          <rect x="381.79" y="402.3" width="7.98" height="7.98" fill="#040919"/>
          <rect x="365.76" y="382.34" width="7.98" height="7.98" fill="#040919"/>
          <rect x="365.76" y="374.36" width="7.98" height="7.98" fill="#040919"/>
          <rect x="365.76" y="366.38" width="7.98" height="7.98" fill="#040919"/>
          <rect x="357.78" y="390.32" width="7.98" height="7.98" fill="#040919"/>
        </g>
      </g>
      <g>
        <path d="M335.14,365.09c2.59,1.5,6.84,1.5,9.43,0l61.26-35.37c2.59-1.5,2.59-3.95,0-5.44s-6.84-1.5-9.43,0l-61.26,35.37c-2.59,1.5-2.59,3.95,0,5.44Z" fill="none" stroke="#fff" stroke-linecap="round" stroke-linejoin="round"/>
        <path d="M192.74,248.58c-7.59-4.39-15.19-12.12-20.98-22.15-5.8-10.04-8.7-20.49-8.7-29.27,0-8.77,2.9-15.88,8.7-19.22l48.06-27.75c-5.8,3.35-8.7,10.45-8.7,19.22,0,8.77,2.9,19.22,8.7,29.27,5.79,10.03,13.39,17.77,20.98,22.15l118.04,68.15-48.06,27.75-118.04-68.15Z" fill="#040919"/>
        <g>
          <path d="M190.06,215.81c.89,1.55,2.06,2.74,3.23,3.41s2.34,.84,3.23,.32c.89-.52,1.34-1.61,1.34-2.96s-.45-2.96-1.34-4.5c-.89-1.54-2.06-2.73-3.23-3.41s-2.34-.84-3.23-.32c-.89,.52-1.34,1.61-1.34,2.96s.45,2.96,1.34,4.5Z" fill="none" stroke="#666bff" stroke-linecap="round" stroke-linejoin="round"/>
          <path d="M238.13,188.06c.89,1.55,2.06,2.74,3.23,3.41s2.34,.84,3.23,.32c.89-.52,1.34-1.61,1.34-2.96s-.45-2.96-1.34-4.5c-.89-1.54-2.06-2.73-3.23-3.41-1.17-.68-2.34-.84-3.23-.32-.89,.52-1.34,1.61-1.34,2.96s.45,2.96,1.34,4.5Z" fill="none" stroke="#666bff" stroke-linecap="round" stroke-linejoin="round"/>
          <line x1="244.59" y1="191.8" x2="196.52" y2="219.55" fill="none" stroke="#666bff" stroke-linecap="round" stroke-linejoin="round"/>
          <line x1="190.06" y1="208.35" x2="238.13" y2="180.6" fill="none" stroke="#666bff" stroke-linecap="round" stroke-linejoin="round"/>
        </g>
        <path d="M177.62,223.05c4.33,7.5,10,13.27,15.67,16.55s11.35,4.05,15.67,1.55c4.33-2.5,6.49-7.8,6.49-14.35s-2.16-14.35-6.49-21.85c-4.32-7.49-9.99-13.26-15.66-16.54-5.68-3.28-11.35-4.06-15.69-1.56-4.33,2.5-6.49,7.8-6.49,14.35s2.16,14.35,6.49,21.85Z" fill="none" stroke="#666bff" stroke-linecap="round" stroke-linejoin="round"/>
        <path d="M331.76,338.89c4.59,7.96,7.36,16.17,8.32,23.6l48.06-27.75c-.95-7.43-3.72-15.64-8.32-23.6-5.79-10.03-13.39-17.77-20.98-22.15l-48.06,27.75c7.59,4.39,15.19,12.12,20.98,22.15Z" fill="url(#linear-gradient-3)"/>
        <path d="M340.07,362.49c-.95-7.43-3.72-15.64-8.32-23.6-5.79-10.03-13.39-17.77-20.98-22.15l-5.77-3.33" fill="none" stroke="#666bff" stroke-linecap="round" stroke-linejoin="round"/>
        <g>
          <rect x="227.53" y="234.6" width="7.98" height="7.98" fill="#040919"/>
          <rect x="235.51" y="234.6" width="7.98" height="7.98" fill="#040919"/>
          <rect x="235.51" y="242.58" width="7.98" height="7.98" fill="#040919"/>
        </g>
      </g>
      <polygon points="412.52 366.19 254.01 274.67 412.52 183.15 571.03 274.67 412.52 366.19" fill="#bcc0e5"/>
      <g>
        <polygon points="303.44 303.21 294.95 298.31 314.64 286.95 323.13 291.85 303.44 303.21" fill="#fff"/>
        <polygon points="366.27 339.49 357.78 334.59 377.47 323.22 385.95 328.12 366.27 339.49" fill="#fff"/>
        <polygon points="340.91 300.83 335.8 297.88 347.66 291.03 352.77 293.98 340.91 300.83" fill="#fff"/>
        <polygon points="423.66 332.61 418.54 329.66 430.4 322.81 435.52 325.76 423.66 332.61" fill="#fff"/>
        <polygon points="322.72 264.85 314.24 259.95 333.92 248.58 342.41 253.48 322.72 264.85" fill="#fff"/>
        <path d="M381.59,325.6l8.49-4.9c7.39-4.26,15.92-1.26,22.83-5.25l7.21-4.16" fill="none" stroke="#fff" stroke-linecap="round" stroke-linejoin="round"/>
        <path d="M400,358.96l8.49-4.9c7.39-4.26-1.42-14.72,5.49-18.71l7.21-4.16" fill="none" stroke="#fff" stroke-linecap="round" stroke-linejoin="round"/>
        <path d="M350.04,292.41l8.49-4.9c7.39-4.26-.22-13.42,6.69-17.41l7.21-4.16" fill="none" stroke="#fff" stroke-linecap="round" stroke-linejoin="round"/>
        <line x1="347.09" y1="328.41" x2="402.3" y2="296.53" fill="none" stroke="#fff" stroke-linecap="round" stroke-linejoin="round"/>
      </g>
      <polyline points="254.01 274.67 412.52 366.19 571.03 274.67" fill="none" stroke="#fff" stroke-linecap="round" stroke-linejoin="round"/>
      <g>
        <path d="M353.42,217.28l-112.59-65c-7.6-4.39-15.2-5.43-21-2.08l-48.06,27.75c5.8-3.35,13.4-2.31,21,2.08l112.59,65,48.06-27.75Z" fill="#666bff"/>
        <path d="M305.35,245.03l264.6,152.77c7.6,4.39,15.2,5.43,21,2.08l48.06-27.75c-5.8,3.35-13.4,2.31-21-2.08L353.42,217.28l-48.06,27.75Z" fill="#040919"/>
        <g>
          <rect x="259.24" y="182.93" width="7.98" height="7.98" fill="#040919"/>
          <rect x="218.15" y="168.21" width="7.98" height="7.98" fill="#040919"/>
          <rect x="267.22" y="190.91" width="7.98" height="7.98" fill="#040919"/>
        </g>
        <path d="M413.12,267.65c2.97-1.72,7.83-1.72,10.8,0l46.25,26.7c2.97,1.72,2.97,4.52,0,6.24l-19.51,11.27c-2.97,1.72-7.83,1.72-10.8,0l-46.25-26.7c-2.97-1.72-2.97-4.52,0-6.24l19.51-11.27Z" fill="none" stroke="#666bff" stroke-linecap="round" stroke-linejoin="round"/>
        <path d="M413.12,260.66c2.97-1.72,7.83-1.72,10.8,0l46.25,26.7c2.97,1.72,2.97,4.52,0,6.24l-19.51,11.27c-2.97,1.72-7.83,1.72-10.8,0l-46.25-26.7c-2.97-1.72-2.97-4.52,0-6.24l19.51-11.27Z" fill="none" stroke="#666bff" stroke-linecap="round" stroke-linejoin="round"/>
        <path d="M504.32,320.31c2.97-1.72,7.83-1.72,10.8,0l46.25,26.7c2.97,1.72,2.97,4.52,0,6.24l-19.51,11.27c-2.97,1.72-7.83,1.72-10.8,0l-46.25-26.7c-2.97-1.72-2.97-4.52,0-6.24l19.51-11.27Z" fill="none" stroke="#666bff" stroke-linecap="round" stroke-linejoin="round"/>
      </g>
      <polygon points="523.09 329.75 501.7 342.1 523.09 354.45 544.49 342.1 523.09 329.75" fill="#666bff"/>
      <line x1="711.49" y1="430.69" x2="711.44" y2="430.65" fill="url(#linear-gradient-4)"/>
      <g>
        <polygon points="412.52 114.98 254.01 206.5 412.52 298.02 571.03 206.5 412.52 114.98" fill="url(#linear-gradient-5)"/>
        <g opacity=".25">
          <circle cx="347.94" cy="201.16" r=".7" fill="#040919"/>
          <circle cx="355.99" cy="205.8" r=".7" fill="#040919"/>
          <circle cx="347.94" cy="210.44" r=".7" fill="#040919"/>
          <circle cx="364.03" cy="210.44" r=".7" fill="#040919"/>
          <circle cx="355.99" cy="215.08" r=".7" fill="#040919"/>
          <circle cx="347.94" cy="219.73" r=".7" fill="#040919"/>
          <circle cx="372.07" cy="215.08" r=".7" fill="#040919"/>
          <circle cx="364.03" cy="219.73" r=".7" fill="#040919"/>
          <circle cx="355.99" cy="224.37" r=".7" fill="#040919"/>
          <circle cx="347.94" cy="229.01" r=".7" fill="#040919"/>
          <circle cx="372.07" cy="224.37" r=".7" fill="#040919"/>
          <circle cx="364.03" cy="229.01" r=".7" fill="#040919"/>
          <circle cx="380.11" cy="219.73" r=".7" fill="#040919"/>
          <circle cx="355.99" cy="233.65" r=".7" fill="#040919"/>
          <circle cx="347.94" cy="238.3" r=".7" fill="#040919"/>
          <circle cx="339.9" cy="205.8" r=".7" fill="#040919"/>
          <circle cx="364.03" cy="191.87" r=".7" fill="#040919"/>
          <circle cx="372.07" cy="196.51" r=".7" fill="#040919"/>
          <circle cx="364.03" cy="201.16" r=".7" fill="#040919"/>
          <circle cx="380.11" cy="201.16" r=".7" fill="#040919"/>
          <circle cx="372.07" cy="205.8" r=".7" fill="#040919"/>
          <circle cx="388.15" cy="205.8" r=".7" fill="#040919"/>
          <circle cx="380.11" cy="210.44" r=".7" fill="#040919"/>
          <circle cx="388.15" cy="215.08" r=".7" fill="#040919"/>
          <circle cx="396.19" cy="210.44" r=".7" fill="#040919"/>
          <circle cx="355.99" cy="196.51" r=".7" fill="#040919"/>
          <circle cx="380.11" cy="191.87" r=".7" fill="#040919"/>
          <circle cx="388.15" cy="196.51" r=".7" fill="#040919"/>
          <circle cx="396.19" cy="201.16" r=".7" fill="#040919"/>
          <circle cx="404.23" cy="205.8" r=".7" fill="#040919"/>
          <circle cx="355.99" cy="242.94" r=".7" fill="#040919"/>
          <circle cx="404.23" cy="215.08" r=".7" fill="#040919"/>
          <circle cx="412.28" cy="210.44" r=".7" fill="#040919"/>
          <circle cx="364.03" cy="247.58" r=".7" fill="#040919"/>
          <circle cx="412.28" cy="219.73" r=".7" fill="#040919"/>
          <circle cx="420.32" cy="215.08" r=".7" fill="#040919"/>
          <circle cx="372.07" cy="252.23" r=".7" fill="#040919"/>
          <circle cx="420.32" cy="224.37" r=".7" fill="#040919"/>
          <circle cx="428.36" cy="219.73" r=".7" fill="#040919"/>
          <circle cx="380.11" cy="256.87" r=".7" fill="#040919"/>
          <circle cx="428.36" cy="229.01" r=".7" fill="#040919"/>
          <circle cx="436.4" cy="224.37" r=".7" fill="#040919"/>
          <circle cx="388.15" cy="261.51" r=".7" fill="#040919"/>
          <circle cx="436.4" cy="233.65" r=".7" fill="#040919"/>
          <circle cx="444.44" cy="229.01" r=".7" fill="#040919"/>
          <circle cx="396.19" cy="266.15" r=".7" fill="#040919"/>
          <circle cx="444.44" cy="238.3" r=".7" fill="#040919"/>
          <circle cx="452.48" cy="233.65" r=".7" fill="#040919"/>
          <circle cx="428.36" cy="256.87" r=".7" fill="#040919"/>
          <circle cx="420.32" cy="261.51" r=".7" fill="#040919"/>
          <circle cx="436.4" cy="252.23" r=".7" fill="#040919"/>
          <circle cx="412.28" cy="266.15" r=".7" fill="#040919"/>
          <circle cx="404.23" cy="270.8" r=".7" fill="#040919"/>
          <circle cx="444.44" cy="247.58" r=".7" fill="#040919"/>
          <circle cx="452.48" cy="242.94" r=".7" fill="#040919"/>
          <circle cx="460.52" cy="238.3" r=".7" fill="#040919"/>
          <circle cx="436.4" cy="261.51" r=".7" fill="#040919"/>
          <circle cx="428.36" cy="266.15" r=".7" fill="#040919"/>
          <circle cx="444.44" cy="256.87" r=".7" fill="#040919"/>
          <circle cx="420.32" cy="270.8" r=".7" fill="#040919"/>
          <circle cx="412.28" cy="275.44" r=".7" fill="#040919"/>
          <circle cx="452.48" cy="252.23" r=".7" fill="#040919"/>
          <circle cx="460.52" cy="247.58" r=".7" fill="#040919"/>
          <circle cx="468.57" cy="242.94" r=".7" fill="#040919"/>
          <circle cx="476.61" cy="238.3" r=".7" fill="#040919"/>
          <circle cx="372.07" cy="187.23" r=".7" fill="#040919"/>
          <circle cx="331.86" cy="210.44" r=".7" fill="#040919"/>
          <circle cx="339.9" cy="215.08" r=".7" fill="#040919"/>
          <circle cx="323.82" cy="215.08" r=".7" fill="#040919"/>
          <circle cx="331.86" cy="219.73" r=".7" fill="#040919"/>
          <circle cx="339.9" cy="224.37" r=".7" fill="#040919"/>
          <circle cx="323.82" cy="224.37" r=".7" fill="#040919"/>
          <circle cx="331.86" cy="229.01" r=".7" fill="#040919"/>
          <circle cx="315.78" cy="219.73" r=".7" fill="#040919"/>
          <circle cx="339.9" cy="233.65" r=".7" fill="#040919"/>
          <circle cx="323.82" cy="205.8" r=".7" fill="#040919"/>
          <circle cx="315.78" cy="210.44" r=".7" fill="#040919"/>
          <circle cx="339.9" cy="196.51" r=".7" fill="#040919"/>
          <circle cx="331.86" cy="201.16" r=".7" fill="#040919"/>
          <circle cx="347.94" cy="191.87" r=".7" fill="#040919"/>
          <circle cx="307.74" cy="215.08" r=".7" fill="#040919"/>
          <circle cx="323.82" cy="187.23" r=".7" fill="#040919"/>
          <circle cx="315.78" cy="191.87" r=".7" fill="#040919"/>
          <circle cx="307.74" cy="196.51" r=".7" fill="#040919"/>
          <circle cx="299.7" cy="201.16" r=".7" fill="#040919"/>
          <circle cx="323.82" cy="196.51" r=".7" fill="#040919"/>
          <circle cx="315.78" cy="201.16" r=".7" fill="#040919"/>
          <circle cx="331.86" cy="191.87" r=".7" fill="#040919"/>
          <circle cx="307.74" cy="205.8" r=".7" fill="#040919"/>
          <circle cx="299.7" cy="210.44" r=".7" fill="#040919"/>
          <circle cx="355.99" cy="187.23" r=".7" fill="#040919"/>
          <circle cx="339.9" cy="177.94" r=".7" fill="#040919"/>
          <circle cx="331.86" cy="182.58" r=".7" fill="#040919"/>
          <circle cx="339.9" cy="187.23" r=".7" fill="#040919"/>
          <circle cx="347.94" cy="182.58" r=".7" fill="#040919"/>
          <circle cx="364.03" cy="182.58" r=".7" fill="#040919"/>
          <circle cx="347.94" cy="173.3" r=".7" fill="#040919"/>
          <circle cx="355.99" cy="177.94" r=".7" fill="#040919"/>
          <circle cx="291.65" cy="205.8" r=".7" fill="#040919"/>
          <circle cx="412.28" cy="164.01" r=".7" fill="#040919"/>
          <circle cx="420.32" cy="168.66" r=".7" fill="#040919"/>
          <circle cx="412.28" cy="173.3" r=".7" fill="#040919"/>
          <circle cx="428.36" cy="173.3" r=".7" fill="#040919"/>
          <circle cx="420.32" cy="177.94" r=".7" fill="#040919"/>
          <circle cx="412.28" cy="182.58" r=".7" fill="#040919"/>
          <circle cx="436.4" cy="177.94" r=".7" fill="#040919"/>
          <circle cx="428.36" cy="182.58" r=".7" fill="#040919"/>
          <circle cx="420.32" cy="187.23" r=".7" fill="#040919"/>
          <circle cx="412.28" cy="191.87" r=".7" fill="#040919"/>
          <circle cx="436.4" cy="187.23" r=".7" fill="#040919"/>
          <circle cx="428.36" cy="191.87" r=".7" fill="#040919"/>
          <circle cx="444.44" cy="182.58" r=".7" fill="#040919"/>
          <circle cx="420.32" cy="196.51" r=".7" fill="#040919"/>
          <circle cx="412.28" cy="201.16" r=".7" fill="#040919"/>
          <circle cx="404.23" cy="168.66" r=".7" fill="#040919"/>
          <circle cx="428.36" cy="154.73" r=".7" fill="#040919"/>
          <circle cx="436.4" cy="159.37" r=".7" fill="#040919"/>
          <circle cx="428.36" cy="164.01" r=".7" fill="#040919"/>
          <circle cx="444.44" cy="164.01" r=".7" fill="#040919"/>
          <circle cx="436.4" cy="168.66" r=".7" fill="#040919"/>
          <circle cx="452.48" cy="168.66" r=".7" fill="#040919"/>
          <circle cx="444.44" cy="173.3" r=".7" fill="#040919"/>
          <circle cx="452.48" cy="177.94" r=".7" fill="#040919"/>
          <circle cx="460.52" cy="173.3" r=".7" fill="#040919"/>
          <circle cx="420.32" cy="159.37" r=".7" fill="#040919"/>
          <circle cx="444.44" cy="154.73" r=".7" fill="#040919"/>
          <circle cx="452.48" cy="159.37" r=".7" fill="#040919"/>
          <circle cx="460.52" cy="164.01" r=".7" fill="#040919"/>
          <circle cx="468.57" cy="168.66" r=".7" fill="#040919"/>
          <circle cx="444.44" cy="191.87" r=".7" fill="#040919"/>
          <circle cx="436.4" cy="196.51" r=".7" fill="#040919"/>
          <circle cx="452.48" cy="187.23" r=".7" fill="#040919"/>
          <circle cx="428.36" cy="201.16" r=".7" fill="#040919"/>
          <circle cx="420.32" cy="205.8" r=".7" fill="#040919"/>
          <circle cx="460.52" cy="182.58" r=".7" fill="#040919"/>
          <circle cx="468.57" cy="177.94" r=".7" fill="#040919"/>
          <circle cx="476.61" cy="173.3" r=".7" fill="#040919"/>
          <circle cx="452.48" cy="196.51" r=".7" fill="#040919"/>
          <circle cx="444.44" cy="201.16" r=".7" fill="#040919"/>
          <circle cx="460.52" cy="191.87" r=".7" fill="#040919"/>
          <circle cx="436.4" cy="205.8" r=".7" fill="#040919"/>
          <circle cx="428.36" cy="210.44" r=".7" fill="#040919"/>
          <circle cx="468.57" cy="187.23" r=".7" fill="#040919"/>
          <circle cx="476.61" cy="182.58" r=".7" fill="#040919"/>
          <circle cx="484.65" cy="177.94" r=".7" fill="#040919"/>
          <circle cx="460.52" cy="201.16" r=".7" fill="#040919"/>
          <circle cx="452.48" cy="205.8" r=".7" fill="#040919"/>
          <circle cx="468.57" cy="196.51" r=".7" fill="#040919"/>
          <circle cx="444.44" cy="210.44" r=".7" fill="#040919"/>
          <circle cx="436.4" cy="215.08" r=".7" fill="#040919"/>
          <circle cx="476.61" cy="191.87" r=".7" fill="#040919"/>
          <circle cx="484.65" cy="187.23" r=".7" fill="#040919"/>
          <circle cx="492.69" cy="182.58" r=".7" fill="#040919"/>
          <circle cx="468.57" cy="205.8" r=".7" fill="#040919"/>
          <circle cx="460.52" cy="210.44" r=".7" fill="#040919"/>
          <circle cx="476.61" cy="201.16" r=".7" fill="#040919"/>
          <circle cx="452.48" cy="215.08" r=".7" fill="#040919"/>
          <circle cx="444.44" cy="219.73" r=".7" fill="#040919"/>
          <circle cx="484.65" cy="196.51" r=".7" fill="#040919"/>
          <circle cx="492.69" cy="191.87" r=".7" fill="#040919"/>
          <circle cx="500.73" cy="187.23" r=".7" fill="#040919"/>
          <circle cx="476.61" cy="210.44" r=".7" fill="#040919"/>
          <circle cx="468.57" cy="215.08" r=".7" fill="#040919"/>
          <circle cx="484.65" cy="205.8" r=".7" fill="#040919"/>
          <circle cx="460.52" cy="219.73" r=".7" fill="#040919"/>
          <circle cx="452.48" cy="224.37" r=".7" fill="#040919"/>
          <circle cx="492.69" cy="201.16" r=".7" fill="#040919"/>
          <circle cx="500.73" cy="196.51" r=".7" fill="#040919"/>
          <circle cx="508.77" cy="191.87" r=".7" fill="#040919"/>
          <circle cx="484.65" cy="215.08" r=".7" fill="#040919"/>
          <circle cx="476.61" cy="219.73" r=".7" fill="#040919"/>
          <circle cx="492.69" cy="210.44" r=".7" fill="#040919"/>
          <circle cx="468.57" cy="224.37" r=".7" fill="#040919"/>
          <circle cx="460.52" cy="229.01" r=".7" fill="#040919"/>
          <circle cx="500.73" cy="205.8" r=".7" fill="#040919"/>
          <circle cx="508.77" cy="201.16" r=".7" fill="#040919"/>
          <circle cx="516.81" cy="196.51" r=".7" fill="#040919"/>
          <circle cx="492.69" cy="219.73" r=".7" fill="#040919"/>
          <circle cx="484.65" cy="224.37" r=".7" fill="#040919"/>
          <circle cx="500.73" cy="215.08" r=".7" fill="#040919"/>
          <circle cx="476.61" cy="229.01" r=".7" fill="#040919"/>
          <circle cx="468.57" cy="233.65" r=".7" fill="#040919"/>
          <circle cx="508.77" cy="210.44" r=".7" fill="#040919"/>
          <circle cx="516.81" cy="205.8" r=".7" fill="#040919"/>
          <circle cx="524.86" cy="201.16" r=".7" fill="#040919"/>
          <circle cx="500.73" cy="224.37" r=".7" fill="#040919"/>
          <circle cx="492.69" cy="229.01" r=".7" fill="#040919"/>
          <circle cx="508.77" cy="219.73" r=".7" fill="#040919"/>
          <circle cx="484.65" cy="233.65" r=".7" fill="#040919"/>
          <circle cx="516.81" cy="215.08" r=".7" fill="#040919"/>
          <circle cx="524.86" cy="210.44" r=".7" fill="#040919"/>
          <circle cx="532.9" cy="205.8" r=".7" fill="#040919"/>
          <circle cx="436.4" cy="150.09" r=".7" fill="#040919"/>
          <circle cx="396.19" cy="173.3" r=".7" fill="#040919"/>
          <circle cx="404.23" cy="177.94" r=".7" fill="#040919"/>
          <circle cx="388.15" cy="177.94" r=".7" fill="#040919"/>
          <circle cx="396.19" cy="182.58" r=".7" fill="#040919"/>
          <circle cx="404.23" cy="187.23" r=".7" fill="#040919"/>
          <circle cx="388.15" cy="187.23" r=".7" fill="#040919"/>
          <circle cx="396.19" cy="191.87" r=".7" fill="#040919"/>
          <circle cx="380.11" cy="182.58" r=".7" fill="#040919"/>
          <circle cx="404.23" cy="196.51" r=".7" fill="#040919"/>
          <circle cx="388.15" cy="168.66" r=".7" fill="#040919"/>
          <circle cx="380.11" cy="173.3" r=".7" fill="#040919"/>
          <circle cx="404.23" cy="159.37" r=".7" fill="#040919"/>
          <circle cx="396.19" cy="164.01" r=".7" fill="#040919"/>
          <circle cx="412.28" cy="154.73" r=".7" fill="#040919"/>
          <circle cx="372.07" cy="177.94" r=".7" fill="#040919"/>
          <circle cx="388.15" cy="150.09" r=".7" fill="#040919"/>
          <circle cx="380.11" cy="154.73" r=".7" fill="#040919"/>
          <circle cx="372.07" cy="159.37" r=".7" fill="#040919"/>
          <circle cx="364.03" cy="164.01" r=".7" fill="#040919"/>
          <circle cx="388.15" cy="159.37" r=".7" fill="#040919"/>
          <circle cx="380.11" cy="164.01" r=".7" fill="#040919"/>
          <circle cx="396.19" cy="154.73" r=".7" fill="#040919"/>
          <circle cx="372.07" cy="168.66" r=".7" fill="#040919"/>
          <circle cx="364.03" cy="173.3" r=".7" fill="#040919"/>
          <circle cx="420.32" cy="150.09" r=".7" fill="#040919"/>
          <circle cx="404.23" cy="140.8" r=".7" fill="#040919"/>
          <circle cx="396.19" cy="145.44" r=".7" fill="#040919"/>
          <circle cx="404.23" cy="150.09" r=".7" fill="#040919"/>
          <circle cx="412.28" cy="145.44" r=".7" fill="#040919"/>
          <circle cx="428.36" cy="145.44" r=".7" fill="#040919"/>
          <circle cx="412.28" cy="136.16" r=".7" fill="#040919"/>
          <circle cx="420.32" cy="140.8" r=".7" fill="#040919"/>
          <circle cx="355.99" cy="168.66" r=".7" fill="#040919"/>
        </g>
        <polyline points="254.01 206.5 412.52 298.02 571.03 206.5" fill="none" stroke="#5d688c" stroke-linecap="round" stroke-linejoin="round"/>
      </g>
      <g>
        <path d="M311.94,211.5c-2.57-1.49-2.58-3.9-.03-5.39,2.55-1.49,6.69-1.49,9.26,0l6.73,3.89c2.57,1.49,2.58,3.9,.03,5.39s-6.7,1.49-9.26,0l-6.73-3.89Z" fill="#bcc0e5"/>
        <path d="M329.35,201.45c-2.57-1.49-2.58-3.9-.03-5.39,2.55-1.49,6.69-1.49,9.26,0l11.89,6.86c2.57,1.49,2.58,3.9,.03,5.39s-6.7,1.49-9.26,0l-11.89-6.86Z" fill="#bcc0e5"/>
        <path d="M363.45,181.76c-2.57-1.49-2.58-3.9-.03-5.39,2.55-1.49,6.69-1.49,9.26,0l17.33,10c2.57,1.49,2.58,3.9,.03,5.39s-6.7,1.49-9.26,0l-17.33-10Z" fill="#bcc0e5"/>
        <path d="M346.41,191.6c-2.57-1.49-2.58-3.9-.03-5.39,2.55-1.49,6.69-1.49,9.26,0l8.84,5.1c2.57,1.49,2.58,3.9,.03,5.39s-6.7,1.49-9.26,0l-8.84-5.1Z" fill="#bcc0e5"/>
        <g>
          <path d="M329.38,161.63c2.57-1.49,6.71-1.49,9.26,0,1.27,.74,1.91,1.72,1.9,2.69h0v34.42h0c0,.98-.65,1.95-1.93,2.69-2.57,1.49-6.71,1.49-9.26,0-1.27-.74-1.91-1.72-1.9-2.69v-34.42h0c0-.97,.65-1.95,1.93-2.69Z" fill="#040919"/>
          <path d="M338.64,161.63c2.57,1.49,2.58,3.9,.03,5.39s-6.7,1.49-9.26,0c-2.57-1.49-2.58-3.9-.03-5.39,2.55-1.49,6.69-1.49,9.26,0Z" fill="#666bff"/>
          <path d="M327.47,164.33c0,.98,.65,1.95,1.93,2.69,1.27,.74,2.93,1.11,4.59,1.11v34.43c-1.68,0-3.37-.37-4.65-1.12-1.27-.74-1.91-1.72-1.9-2.69v-34.42h.03Z" fill="#4331e8"/>
        </g>
        <g>
          <path d="M363.48,119.44c2.57-1.49,6.71-1.49,9.26,0,1.27,.74,1.91,1.72,1.9,2.69h0v56.94h0c0,.98-.65,1.95-1.93,2.69-2.57,1.49-6.71,1.49-9.26,0-1.27-.74-1.91-1.72-1.9-2.69v-56.94h0c0-.97,.65-1.95,1.93-2.69Z" fill="#040919"/>
          <path d="M372.74,119.44c2.57,1.49,2.58,3.9,.03,5.39-2.55,1.49-6.7,1.49-9.26,0-2.57-1.49-2.58-3.9-.03-5.39,2.55-1.49,6.69-1.49,9.26,0Z" fill="#666bff"/>
          <path d="M361.57,122.13c0,.98,.65,1.95,1.93,2.69,1.27,.74,2.93,1.11,4.59,1.11v56.94c-1.68,0-3.37-.37-4.65-1.12-1.27-.74-1.91-1.72-1.9-2.69v-56.94h.03Z" fill="#4331e8"/>
        </g>
        <g>
          <path d="M363.48,88.02c2.57-1.49,6.71-1.49,9.26,0,1.27,.74,1.91,1.72,1.9,2.69h0v13.41h0c0,.98-.65,1.95-1.93,2.69-2.57,1.49-6.71,1.49-9.26,0-1.27-.74-1.91-1.72-1.9-2.69v-13.41h0c0-.97,.65-1.95,1.93-2.69Z" fill="none" stroke="#666bff" stroke-linecap="round" stroke-linejoin="round"/>
          <path d="M372.74,88.02c2.57,1.49,2.58,3.9,.03,5.39-2.55,1.49-6.7,1.49-9.26,0s-2.58-3.9-.03-5.39c2.55-1.49,6.69-1.49,9.26,0Z" fill="none" stroke="#666bff" stroke-linecap="round" stroke-linejoin="round"/>
        </g>
        <g>
          <path d="M346.44,164.99c2.57-1.49,6.71-1.49,9.26,0,1.27,.74,1.91,1.72,1.9,2.69h0v21.22h0c0,.98-.65,1.95-1.93,2.69-2.57,1.49-6.71,1.49-9.26,0-1.27-.74-1.91-1.72-1.9-2.69v-21.22h0c0-.97,.65-1.95,1.93-2.69Z" fill="#040919"/>
          <path d="M355.7,164.99c2.57,1.49,2.58,3.9,.03,5.39-2.55,1.49-6.7,1.49-9.26,0s-2.58-3.9-.03-5.39c2.55-1.49,6.69-1.49,9.26,0Z" fill="#666bff"/>
          <path d="M344.54,167.69c0,.98,.65,1.95,1.93,2.69,1.27,.74,2.93,1.11,4.59,1.11v21.22c-1.68,0-3.37-.37-4.65-1.12-1.27-.74-1.91-1.72-1.9-2.69v-21.22h.03Z" fill="#4331e8"/>
        </g>
        <g>
          <path d="M346.44,133.77c2.57-1.49,6.71-1.49,9.26,0,1.27,.74,1.91,1.72,1.9,2.69h0v21.22h0c0,.98-.65,1.95-1.93,2.69-2.57,1.49-6.71,1.49-9.26,0-1.27-.74-1.91-1.72-1.9-2.69v-21.22h0c0-.97,.65-1.95,1.93-2.69Z" fill="none" stroke="#666bff" stroke-linecap="round" stroke-linejoin="round"/>
          <path d="M355.7,133.77c2.57,1.49,2.58,3.9,.03,5.39s-6.7,1.49-9.26,0c-2.57-1.49-2.58-3.9-.03-5.39s6.69-1.49,9.26,0Z" fill="none" stroke="#666bff" stroke-linecap="round" stroke-linejoin="round"/>
        </g>
        <path d="M380.48,171.92c-2.57-1.49-2.58-3.9-.03-5.39,2.55-1.49,6.69-1.49,9.26,0l8.84,5.1c2.57,1.49,2.58,3.9,.03,5.39s-6.7,1.49-9.26,0l-8.84-5.1Z" fill="#bcc0e5"/>
        <g>
          <path d="M380.51,130.32c2.57-1.49,6.71-1.49,9.26,0,1.27,.74,1.91,1.72,1.9,2.69h0v36.22h0c0,.98-.65,1.95-1.93,2.69-2.57,1.49-6.71,1.49-9.26,0-1.27-.74-1.91-1.72-1.9-2.69v-36.22h0c0-.97,.65-1.95,1.93-2.69Z" fill="#040919"/>
          <path d="M389.77,130.32c2.57,1.49,2.58,3.9,.03,5.39-2.55,1.49-6.7,1.49-9.26,0s-2.58-3.9-.03-5.39c2.55-1.49,6.69-1.49,9.26,0Z" fill="#666bff"/>
          <path d="M378.61,133.01c0,.98,.65,1.95,1.93,2.69,1.27,.74,2.93,1.11,4.59,1.11v36.22c-1.68,0-3.37-.37-4.65-1.12-1.27-.74-1.91-1.72-1.9-2.69v-36.22h.03Z" fill="#4331e8"/>
        </g>
        <path d="M397.52,162.09c-2.57-1.49-2.58-3.9-.03-5.39,2.55-1.49,6.69-1.49,9.26,0l8.84,5.1c2.57,1.49,2.58,3.9,.03,5.39s-6.7,1.49-9.26,0l-8.84-5.1Z" fill="#bcc0e5"/>
        <g>
          <path d="M397.55,115.48c2.57-1.49,6.71-1.49,9.26,0,1.27,.74,1.91,1.72,1.9,2.69h0v41.22h0c0,.98-.65,1.95-1.93,2.69-2.57,1.49-6.71,1.49-9.26,0-1.27-.74-1.91-1.72-1.9-2.69v-41.22h0c0-.97,.65-1.95,1.93-2.69Z" fill="#040919"/>
          <path d="M406.81,115.48c2.57,1.49,2.58,3.9,.03,5.39-2.55,1.49-6.7,1.49-9.26,0s-2.58-3.9-.03-5.39c2.55-1.49,6.69-1.49,9.26,0Z" fill="#666bff"/>
          <path d="M395.64,118.18c0,.98,.65,1.95,1.93,2.69,1.27,.74,2.93,1.11,4.59,1.11v41.22c-1.68,0-3.37-.37-4.65-1.12-1.27-.74-1.91-1.72-1.9-2.69v-41.22h.03Z" fill="#4331e8"/>
        </g>
        <g>
          <path d="M397.55,81.66c2.57-1.49,6.71-1.49,9.26,0,1.27,.74,1.91,1.72,1.9,2.69h0v21.22h0c0,.98-.65,1.95-1.93,2.69-2.57,1.49-6.71,1.49-9.26,0-1.27-.74-1.91-1.72-1.9-2.69v-21.22h0c0-.97,.65-1.95,1.93-2.69Z" fill="none" stroke="#666bff" stroke-linecap="round" stroke-linejoin="round"/>
          <path d="M406.81,81.66c2.57,1.49,2.58,3.9,.03,5.39s-6.7,1.49-9.26,0c-2.57-1.49-2.58-3.9-.03-5.39s6.69-1.49,9.26,0Z" fill="none" stroke="#666bff" stroke-linecap="round" stroke-linejoin="round"/>
        </g>
        <g>
          <path d="M311.97,199.07c2.57-1.49,6.71-1.49,9.26,0,1.27,.74,1.91,1.72,1.9,2.69h0v7.04h0c0,.98-.65,1.95-1.93,2.69-2.57,1.49-6.71,1.49-9.26,0-1.27-.74-1.91-1.72-1.9-2.69v-7.04h0c0-.97,.65-1.95,1.93-2.69Z" fill="#040919"/>
          <path d="M321.23,199.07c2.57,1.49,2.58,3.9,.03,5.39s-6.7,1.49-9.26,0c-2.57-1.49-2.58-3.9-.03-5.39,2.55-1.49,6.69-1.49,9.26,0Z" fill="#666bff"/>
          <path d="M310.07,201.76c0,.98,.65,1.95,1.93,2.69,1.27,.74,2.93,1.11,4.59,1.11v7.04c-1.68,0-3.37-.37-4.65-1.12-1.27-.74-1.91-1.72-1.9-2.69v-7.04h.03Z" fill="#4331e8"/>
        </g>
      </g>
      <path d="M618.04,301.48c7.59,4.39,15.19,12.12,20.98,22.15,5.8,10.04,8.7,20.49,8.7,29.27s-2.9,15.88-8.7,19.22l-48.06,27.75c5.8-3.35,8.7-10.45,8.7-19.22s-2.9-19.22-8.7-29.27c-5.79-10.03-13.39-17.77-20.98-22.15l-105.76-61.06,48.06-27.75,105.76,61.06Z" fill="url(#linear-gradient-6)"/>
      <g>
        <g>
          <path d="M504.32,252.38c2.97-1.72,7.83-1.72,10.8,0l46.25,26.7c2.97,1.72,2.97,4.52,0,6.24l-19.51,11.27c-2.97,1.72-7.83,1.72-10.8,0l-46.25-26.7c-2.97-1.72-2.97-4.52,0-6.24l19.51-11.27Z" fill="none" stroke="#d0d3f5" stroke-linecap="round" stroke-linejoin="round"/>
          <polygon points="548.15 276.56 526.76 288.91 532.72 292.35 554.12 280 548.15 276.56" fill="#d0d3f5"/>
          <ellipse cx="489.59" cy="266.77" rx="3.66" ry="2.11" fill="#d0d3f5"/>
        </g>
        <g>
          <path d="M573.26,320.94c-2.97-1.72-2.97-4.52,0-6.24l19.51-11.27c2.97-1.72,7.83-1.72,10.8,0l5.54,3.2c7.59,4.39,15.19,12.12,20.98,22.15,4.65,8.05,7.43,16.36,8.35,23.86,.39,3.17-1.16,6.28-3.92,7.87l-20.25,11.69c-2.58,1.49-5.85-.1-6.27-3.05-1.04-7.24-3.78-15.17-8.22-22.87-5.79-10.03-13.39-17.77-20.98-22.15l-5.54-3.2Z" fill="none" stroke="#d0d3f5" stroke-linecap="round" stroke-linejoin="round"/>
          <path d="M605.69,309.2l-22.24,12.84c3.93,2.34,7.84,5.58,11.49,9.55l22.24-12.84c-3.66-3.98-7.57-7.21-11.49-9.55Z" fill="#d0d3f5"/>
          <path d="M626.17,331.06c-2.14-3.7-4.52-7.08-7.05-10.1l-22.24,12.84c2.53,3.02,4.92,6.41,7.05,10.1,.29,.51,.56,1.02,.84,1.53l22.24-12.84c-.28-.51-.54-1.02-.83-1.53Z" fill="#d0d3f5"/>
          <path d="M628.4,335.28l-22.24,12.84c2.21,4.48,3.87,8.99,4.94,13.33l22.24-12.84c-1.07-4.35-2.72-8.85-4.93-13.34Z" fill="#d0d3f5"/>
        </g>
      </g>
      <g>
        <polygon points="604.17 352.66 604.17 430.34 686.91 382.57 686.91 304.89 604.17 352.66" fill="url(#linear-gradient-7)"/>
        <polygon points="630.76 352.72 630.76 391.13 664.41 371.7 664.41 333.29 630.76 352.72" fill="#666bff"/>
        <g>
          <line x1="624.31" y1="357.27" x2="610.56" y2="365.21" fill="none" stroke="#666bff" stroke-linecap="round" stroke-linejoin="round"/>
          <line x1="624.31" y1="362.45" x2="610.56" y2="370.39" fill="none" stroke="#666bff" stroke-linecap="round" stroke-linejoin="round"/>
          <line x1="619.52" y1="370.39" x2="610.56" y2="375.56" fill="none" stroke="#666bff" stroke-linecap="round" stroke-linejoin="round"/>
          <line x1="624.31" y1="372.8" x2="610.56" y2="380.74" fill="none" stroke="#666bff" stroke-linecap="round" stroke-linejoin="round"/>
          <line x1="619.52" y1="380.74" x2="610.56" y2="385.91" fill="none" stroke="#666bff" stroke-linecap="round" stroke-linejoin="round"/>
        </g>
        <polygon points="640.31 358.24 640.31 396.65 673.96 377.22 673.96 338.81 640.31 358.24" fill="none" stroke="#666bff" stroke-linecap="round" stroke-linejoin="round"/>
      </g>
      <g>
        <polygon points="705.82 534.92 719.65 551.6 711.85 554.29 675.37 549.51 667.09 555.9 729.39 588.27 772.77 560.95 710.47 531.43 705.82 534.92" fill="url(#linear-gradient-8)"/>
        <g>
          <path d="M713.82,521.08l-.62,7.81c-.77,4.4-6.14,4.44-6.45,1.87-.31-2.57-.33-9.68-.33-9.68" fill="#d0d3f5"/>
          <path d="M713.19,528.89l-.08,5.1c-.07,4.4-6.24,4.03-7.3,.93l-3.73-10.91,4.33-2.93s.02,7.11,.33,9.68c.31,2.57,5.69,2.53,6.45-1.87Z" fill="#666bff"/>
        </g>
        <path d="M729.39,376.17l1.57,18.87c.23,2.79-1.83,5.48-4.58,5.97l-7.72,1.4,4.01-26.25h6.72Z" fill="#666bff"/>
        <g>
          <polygon points="634.32 391.72 630.53 387.17 631.41 386.55 641.28 393.9 645.21 396.13 641.7 401.24 637.13 399.82 633 400.16 630.25 395.09 634.32 391.72" fill="#4331e8"/>
          <path d="M642.95,395.26v-5.76s-2.32-.43-2.76,2.67c-.44,3.09-.58,3.69-.58,3.69l3.34-.59Z" fill="#4331e8"/>
        </g>
        <g>
          <path d="M687.87,429.61l33.83-8.42c.54,3.52,.41,9.27-.28,12.76l-6.72,34.1,3.05,14.93-3.93,38.09h-7.41s-7.93-60.01-7.93-60.01l-2.52,.93-10.86,28.09,1.46,9.21-9.43,41.59-8.87-1.65,7.97-103.97,11.65-5.67Z" fill="#040919"/>
          <path d="M676.22,435.28l2.94-38.32-4.08-9.73,3.63-7.25c1.14-2.27,3.87-5.16,6.08-6.43l20.31-11.63,15.81,.9c2.54,.14,5.2,2.25,5.92,4.69l2.56,8.66-2.79,1.87-7.09,28.81,2.18,14.34-25.97,15c-4.32,2.5-11.56,2.81-16.08,.69l-3.43-1.6Z" fill="#d0d3f5"/>
          <path d="M685.22,403.27c1.92,2.51,.09,4.66-1.74,7.41-1.83,2.74-2.71,6.58,1.86,10.24,4.57,3.66,2.35,9.97-.76,11.48-3.11,1.51-4.01,4.86-4.01,4.86l-4.35-1.99,2.04-26.6,6.97-5.4Z" fill="#666bff"/>
        </g>
        <path d="M685.17,485.58l-5.54,3.11s5.95,10.25,2.72,16.1c-3.23,5.85-2.68,10-2.68,10" fill="none" stroke="#4331e8" stroke-linecap="round" stroke-linejoin="round"/>
        <path d="M714.7,468.06l-1.71,4.65-6.71,5.12,.61,2.62s4.76-2.53,7.8,0" fill="none" stroke="#4331e8" stroke-linecap="round" stroke-linejoin="round"/>
        <path d="M675.07,387.23l-8.19,19.18-21.67-10.28-3.51,5.11,24.33,17.36c2.63,1.88,6.36,1.29,8.28-1.32l15.61-21.16-14.85-8.89Z" fill="#d0d3f5"/>
        <polygon points="713.18 364.93 711.44 353.68 699.22 354.67 699.25 365.27 695.68 367.91 702.99 368.68 713.18 364.93" fill="#4331e8"/>
        <circle cx="702.99" cy="345.74" r="11.61" fill="#4331e8"/>
        <path d="M691.9,332.26l8.47-1.96,1.34,3.14,.94-.17c4.61-.85,9.3,.96,12.15,4.69,2.84,3.72,3.36,8.73,1.32,12.95l-3.4,7.06-6.4,2.69-2.17-9.21-1.94-4.43-2.32-.88c-1.3-.49-2.32-2.03-2.27-3.42l.04-1.11c.05-1.39-.96-2.96-2.25-3.49l-.58-.24c-1.28-.53-2.48-2.09-2.66-3.47l-.28-2.15Z" fill="#040919"/>
        <circle cx="702.99" cy="349.45" r="2.87" fill="#4331e8"/>
        <path d="M703.48,360.24l-5.79,1.09c-2.22,.42-4.3-1.07-4.63-3.3l-1.57-10.66,5.5,1.21,6.49,11.66Z" fill="#4331e8"/>
        <polygon points="699.25 365.27 712.66 361.4 713.42 366.17 702.99 369.71 693.97 368.3 699.25 365.27" fill="#fff"/>
        <path d="M666.89,406.41c-1.69,3.63-6.12,2.56-7.48-.82-1.36-3.38-5.11-5.15-5.11-5.15l12.59,5.97Z" fill="#666bff"/>
        <line x1="688.1" y1="398.6" x2="677.98" y2="412.3" fill="none" stroke="#666bff" stroke-linecap="round" stroke-linejoin="round"/>
        <line x1="696.44" y1="400.1" x2="686.32" y2="413.81" fill="none" stroke="#666bff" stroke-linecap="round" stroke-linejoin="round"/>
        <g>
          <path d="M677.15,540.63l-2.11,9.34c-1.08,.1-2.29,.37-3.21,1.06-2.07,1.55-2.95-.26-3.62-2.69-.67-2.43-1.7-5.43-1.7-5.43h-.02c.93-.98,1.58-2.23,1.76-3.65" fill="#d0d3f5"/>
          <path d="M674.72,554.21c-.15,3.54-3.93,3.08-7.63,1.68l-14.58-5.51c-2.86-1.08-5.88-4.52-1.16-4.81l10.89-.68c1.67-.1,3.16-.85,4.25-1.99h.02s1.03,3,1.7,5.44c.67,2.43,1.55,4.24,3.62,2.69,.91-.68,2.13-.96,3.21-1.06l-.16,.46-.16,3.78Z" fill="#666bff"/>
        </g>
      </g>
      <g>
        <path d="M468.57,180.48c-24.13,0-43.69,11.34-43.69,25.33s19.56,25.33,43.69,25.33,43.69-11.34,43.69-25.33-19.56-25.33-43.69-25.33Zm0,43.08c-16.9,0-30.6-7.94-30.6-17.75s13.7-17.75,30.6-17.75,30.6,7.94,30.6,17.75-13.7,17.75-30.6,17.75Z" fill="#bcc0e5"/>
        <line x1="500.69" y1="210.11" x2="500.69" y2="216.63" fill="none" stroke="#040919" stroke-linecap="round" stroke-linejoin="round"/>
        <line x1="441.82" y1="183.85" x2="441.82" y2="190.37" fill="none" stroke="#040919" stroke-linecap="round" stroke-linejoin="round"/>
        <path d="M512.25,199.29c0-13.99-19.56-25.33-43.69-25.33-11.93,0-22.73,2.78-30.61,7.27-1.38,.7-2.26,1.72-2.26,2.86,0,2.09,2.93,3.79,6.54,3.79,1.81,0,3.45-.43,4.63-1.12h0c5.54-3.22,13.21-5.22,21.69-5.22,16.9,0,30.6,7.94,30.6,17.75,0,3.25-1.51,6.29-4.14,8.91h.01c-.56,.56-.89,1.21-.89,1.91,0,2.09,2.93,3.79,6.54,3.79,2.59,0,4.83-.88,5.88-2.15,3.6-3.68,5.67-7.93,5.67-12.46Z" fill="#4331e8"/>
        <line x1="441.82" y1="170.61" x2="441.82" y2="183.85" fill="none" stroke="#040919" stroke-linecap="round" stroke-linejoin="round"/>
        <path d="M485.42,162.45c-5.19-1.26-10.87-1.97-16.85-1.97-11.93,0-22.73,2.78-30.61,7.27-1.38,.7-2.26,1.72-2.26,2.86,0,2.09,2.93,3.79,6.54,3.79,1.81,0,3.45-.43,4.63-1.12h0c5.54-3.22,13.21-5.22,21.69-5.22,4.41,0,8.6,.55,12.39,1.52l.02-.02c.81,.21,1.7,.33,2.65,.33,3.61,0,6.54-1.7,6.54-3.79,0-1.73-2.01-3.19-4.74-3.64Z" fill="none" stroke="#666bff" stroke-linecap="round" stroke-linejoin="round"/>
      </g>
      <g>
        <polyline points="452.53 252.2 460.52 247.58 452.48 242.94" fill="none" stroke="#666bff" stroke-linecap="round" stroke-linejoin="round"/>
        <polyline points="356.1 233.59 347.94 238.3 356.05 242.98" fill="none" stroke="#666bff" stroke-linecap="round" stroke-linejoin="round"/>
        <line x1="383.34" y1="232.16" x2="393.11" y2="226.52" fill="none" stroke="#666bff" stroke-linecap="round" stroke-linejoin="round"/>
        <line x1="393.11" y1="226.52" x2="400.74" y2="222.11" fill="none" stroke="#666bff" stroke-linecap="round" stroke-linejoin="round"/>
        <line x1="369.37" y1="240.23" x2="381.34" y2="233.32" fill="none" stroke="#666bff" stroke-linecap="round" stroke-linejoin="round"/>
        <line x1="382.83" y1="238.73" x2="391.03" y2="234" fill="none" stroke="#666bff" stroke-linecap="round" stroke-linejoin="round"/>
        <line x1="393.16" y1="232.76" x2="406.18" y2="225.25" fill="none" stroke="#666bff" stroke-linecap="round" stroke-linejoin="round"/>
        <line x1="374.8" y1="243.37" x2="380.83" y2="239.89" fill="none" stroke="#666bff" stroke-linecap="round" stroke-linejoin="round"/>
        <line x1="394.21" y1="238.44" x2="404.93" y2="232.25" fill="none" stroke="#666bff" stroke-linecap="round" stroke-linejoin="round"/>
        <line x1="407.06" y1="231.01" x2="411.61" y2="228.39" fill="none" stroke="#666bff" stroke-linecap="round" stroke-linejoin="round"/>
        <line x1="380.23" y1="246.5" x2="392.21" y2="239.59" fill="none" stroke="#666bff" stroke-linecap="round" stroke-linejoin="round"/>
        <line x1="392.34" y1="245.79" x2="405.02" y2="238.47" fill="none" stroke="#666bff" stroke-linecap="round" stroke-linejoin="round"/>
        <line x1="407.16" y1="237.23" x2="417.05" y2="231.52" fill="none" stroke="#666bff" stroke-linecap="round" stroke-linejoin="round"/>
        <line x1="385.67" y1="249.64" x2="390.34" y2="246.94" fill="none" stroke="#666bff" stroke-linecap="round" stroke-linejoin="round"/>
        <line x1="405.07" y1="244.71" x2="412.71" y2="240.3" fill="none" stroke="#666bff" stroke-linecap="round" stroke-linejoin="round"/>
        <line x1="414.85" y1="239.07" x2="422.48" y2="234.66" fill="none" stroke="#666bff" stroke-linecap="round" stroke-linejoin="round"/>
        <line x1="391.1" y1="252.78" x2="405.07" y2="244.71" fill="none" stroke="#666bff" stroke-linecap="round" stroke-linejoin="round"/>
        <line x1="410.51" y1="247.85" x2="420.28" y2="242.21" fill="none" stroke="#666bff" stroke-linecap="round" stroke-linejoin="round"/>
        <line x1="420.28" y1="242.21" x2="427.91" y2="237.8" fill="none" stroke="#666bff" stroke-linecap="round" stroke-linejoin="round"/>
        <line x1="396.54" y1="255.92" x2="408.51" y2="249" fill="none" stroke="#666bff" stroke-linecap="round" stroke-linejoin="round"/>
        <line x1="411.43" y1="253.59" x2="423.58" y2="246.58" fill="none" stroke="#666bff" stroke-linecap="round" stroke-linejoin="round"/>
        <line x1="401.97" y1="259.05" x2="409.43" y2="254.75" fill="none" stroke="#666bff" stroke-linecap="round" stroke-linejoin="round"/>
      </g>
      <g>
        <g>
          <polygon points="196.62 539.63 272.26 495.96 196.62 452.29 120.98 495.96 196.62 539.63" fill="url(#New_Gradient_Swatch_1)"/>
          <polygon points="196.62 461.25 264.49 500.44 272.26 495.96 196.62 452.29 120.98 495.96 128.75 500.44 196.62 461.25" fill="#4331e8"/>
          <polygon points="196.62 470.28 256.68 504.95 264.49 500.44 196.62 461.25 128.75 500.44 136.56 504.95 196.62 470.28" fill="#040919"/>
          <polygon points="196.62 452.29 196.62 461.25 128.75 500.44 120.98 495.96 196.62 452.29" fill="#040919"/>
          <line x1="196.62" y1="461.25" x2="128.75" y2="500.44" fill="none" stroke="#4331e8" stroke-linecap="round" stroke-linejoin="round"/>
          <g>
            <rect x="188.79" y="505.32" width="7.98" height="7.98" fill="#040919"/>
            <rect x="188.79" y="513.3" width="7.98" height="7.98" fill="#040919"/>
            <rect x="231.19" y="494.25" width="7.98" height="7.98" fill="#040919"/>
            <polygon points="216.89 518.19 216.89 526.17 219.93 526.17 224.87 523.31 224.87 518.19 216.89 518.19" fill="#040919"/>
            <rect x="180.81" y="513.3" width="7.98" height="7.98" fill="#040919"/>
            <polyline points="172.83 513.3 164.85 513.3 164.85 521.28 172.83 521.28" fill="#040919"/>
            <polyline points="172.83 521.28 164.85 521.28 172.83 525.89" fill="#040919"/>
          </g>
        </g>
        <g>
          <path d="M225.34,467.21l-30.52-102.24c-.24-.8-.59-1.49-1.03-2.07l.05-2.16h-4.29c-1.02,0-2.09,.29-3.14,.89l-31.72,18.31c-3.48,2.01-5.38,6.8-4.23,10.64l30.52,102.24c.8,2.69,2.89,4.23,5.27,4.23h4.29s.04-1.57,.04-1.57l30.53-17.63c3.48-2.01,5.38-6.8,4.23-10.64Z" fill="#666bff" stroke="#666bff" stroke-linecap="round" stroke-linejoin="round"/>
          <path d="M158.97,379.94c-3.48,2.01-5.38,6.8-4.23,10.64l30.52,102.24c1.15,3.85,4.93,5.35,8.41,3.34l31.72-18.31c3.48-2.01,5.38-6.8,4.23-10.64l-30.52-102.24c-1.15-3.85-4.93-5.35-8.41-3.34l-31.72,18.31Z" fill="url(#linear-gradient-9)" stroke="#666bff" stroke-linecap="round" stroke-linejoin="round"/>
          <path d="M176.59,463.75l8.68,29.07c1.15,3.85,4.93,5.35,8.41,3.34l31.72-18.31c2.18-1.26,4.06-3.69,4.38-6.42" fill="none" stroke="#fff" stroke-linecap="round" stroke-linejoin="round"/>
          <polygon points="215.03 476.98 217.71 475.41 216.75 472.19 214.07 473.75 215.03 476.98" fill="#666bff"/>
          <g>
            <polygon points="205.6 484.32 210.97 481.18 209.04 474.73 203.68 477.87 205.6 484.32" fill="#fff"/>
            <polygon points="215.03 476.98 217.71 475.41 216.75 472.19 214.07 473.75 215.03 476.98" fill="#fff"/>
            <polygon points="222.33 472.76 225.01 471.2 224.04 467.97 221.36 469.54 222.33 472.76" fill="#fff"/>
            <polygon points="197.85 486.9 200.53 485.33 199.57 482.11 196.89 483.68 197.85 486.9" fill="#fff"/>
            <polygon points="190.56 491.11 193.24 489.55 192.27 486.33 189.6 487.89 190.56 491.11" fill="#fff"/>
          </g>
          <g>
            <line x1="165.99" y1="389.37" x2="160.91" y2="392.31" fill="none" stroke="#fff" stroke-linecap="round" stroke-linejoin="round"/>
            <line x1="166.96" y1="392.22" x2="161.88" y2="395.15" fill="none" stroke="#fff" stroke-linecap="round" stroke-linejoin="round"/>
          </g>
          <g>
            <path d="M212.87,417.43c-3.06,1.94-9.62-4.67-12.42-3.54-2.46,.99-.57,4.67-3.8,6.01-2.92,1.21-9.14-12.83-12.9-10.82s1.38,22.48-2.57,24.76c-3.95,2.27-10.16-8.33-13.65-6.18" fill="none" stroke="#fff" stroke-linecap="round" stroke-linejoin="round"/>
            <line x1="196.17" y1="443.11" x2="180.42" y2="452.21" fill="none" stroke="#fff" stroke-linecap="round" stroke-linejoin="round"/>
            <line x1="192.9" y1="448.65" x2="181.57" y2="455.19" fill="none" stroke="#fff" stroke-linecap="round" stroke-linejoin="round"/>
          </g>
          <line x1="186.32" y1="361.67" x2="186.4" y2="361.62" fill="url(#linear-gradient-10)" stroke="#666bff" stroke-linecap="round" stroke-linejoin="round"/>
        </g>
        <path d="M211.73,491.11l.93,3.13c.72,2.42,1.31,6.46,1.31,8.98v25.74" fill="none" stroke="#fff" stroke-linecap="round" stroke-linejoin="round"/>
        <polygon points="207.56 488.15 209.14 492.6 213.58 490.05 212.15 485.5 207.56 488.15" fill="#fff"/>
      </g>
      <g>
        <g>
          <polygon points="643.65 213.91 719.29 170.24 643.65 126.57 568.01 170.24 643.65 213.91" fill="url(#New_Gradient_Swatch_1-2)"/>
          <polygon points="643.65 135.54 711.52 174.72 719.29 170.24 643.65 126.57 568.01 170.24 575.78 174.72 643.65 135.54" fill="#d0d3f5"/>
          <polygon points="643.65 144.56 703.71 179.24 711.52 174.72 643.65 135.54 575.78 174.72 583.59 179.24 643.65 144.56" fill="#040919"/>
          <polygon points="643.65 126.57 643.65 135.54 575.78 174.72 568.01 170.24 643.65 126.57" fill="#040919"/>
          <line x1="643.65" y1="135.54" x2="575.78" y2="174.72" fill="none" stroke="#4331e8" stroke-linecap="round" stroke-linejoin="round"/>
          <g>
            <rect x="632" y="192.47" width="7.98" height="7.98" fill="#040919"/>
            <polygon points="663.93 192.47 663.93 200.45 666.96 200.45 671.91 197.6 671.91 192.47 663.93 192.47" fill="#040919"/>
            <rect x="639.98" y="184.49" width="7.98" height="7.98" fill="#040919"/>
            <rect x="624.02" y="160.55" width="7.98" height="7.98" fill="#040919"/>
            <rect x="624.02" y="168.53" width="7.98" height="7.98" fill="#040919"/>
          </g>
        </g>
        <g>
          <path d="M696.01,142.63l-60.84-35.13c-2.4-1.38-6.32-1.38-8.71,0l-43,24.82-2.49-.23v3.14c0,.91,.6,1.82,1.8,2.52l62.48,36.07c2.4,1.38,6.32,1.38,8.71,0l43.69-25.22c1.2-.69,1.8-1.6,1.8-2.51v-3.14l-3.43-.31Z" fill="#4331e8"/>
          <path d="M635.16,104.36c-2.4-1.38-6.32-1.38-8.71,0l-43.69,25.22c-1.2,.69-1.8,1.6-1.8,2.52s.6,1.82,1.8,2.52l62.48,36.07c2.4,1.38,6.32,1.38,8.71,0l43.69-25.22c1.2-.69,1.8-1.6,1.8-2.52s-.6-1.82-1.8-2.52l-62.48-36.07Z" fill="url(#linear-gradient-11)"/>
          <path d="M714.06,79.39c2.4,1.38,3.77,4.7,3.05,7.37l-13.81,51.33c-.72,2.67-3.27,3.73-5.66,2.34l-62.48-36.07c-2.4-1.38-3.77-4.7-3.05-7.37l13.81-51.33c.72-2.67,3.27-3.73,5.66-2.34l62.48,36.07Z" fill="url(#linear-gradient-12)"/>
          <polygon points="671.25 79.23 662.91 110.22 626.78 89.36 635.12 58.37 671.25 79.23" fill="none" stroke="#666bff" stroke-linecap="round" stroke-linejoin="round"/>
          <polygon points="683.43 116.15 682.02 121.42 670.94 115.03 672.36 109.76 683.43 116.15" fill="#666bff"/>
          <line x1="678.3" y1="83.51" x2="698.86" y2="95.38" fill="none" stroke="#666bff" stroke-linecap="round" stroke-linejoin="round"/>
          <line x1="677.45" y1="87.78" x2="698.01" y2="99.64" fill="none" stroke="#666bff" stroke-linecap="round" stroke-linejoin="round"/>
          <line x1="676.59" y1="92.04" x2="685.93" y2="97.43" fill="none" stroke="#666bff" stroke-linecap="round" stroke-linejoin="round"/>
          <polygon points="613.87 123.3 636.53 110.22 687.49 139.64 664.83 152.72 613.87 123.3" fill="#bcc0e5"/>
          <line x1="605.35" y1="143.4" x2="630.01" y2="157.64" fill="none" stroke="#bcc0e5" stroke-linecap="round" stroke-linejoin="round"/>
          <line x1="649.02" y1="50.2" x2="712.48" y2="86.84" fill="none" stroke="#4331e8" stroke-linecap="round" stroke-linejoin="round"/>
        </g>
        <g>
          <path d="M672.21,197.42v-3.22c0-10.63,13.71-8.72,13.71-17.69v-9.59c0-1.68-1.19-3.75-2.65-4.59l-4.7-2.71" fill="none" stroke="#fff" stroke-linecap="round" stroke-linejoin="round"/>
          <polyline points="678.57 159.61 676.81 160.63 680.37 158.57" fill="none" stroke="#fff" stroke-linecap="round" stroke-linejoin="round"/>
        </g>
      </g>
    </g>
  </g>
</svg>