<?xml version="1.0" encoding="UTF-8"?>
<svg xmlns="http://www.w3.org/2000/svg" width="800" height="600" xmlns:xlink="http://www.w3.org/1999/xlink" viewBox="0 0 800 600">
  <defs>
    <linearGradient id="linear-gradient" x1="434.98" y1="368.74" x2="469.08" y2="368.74" gradientUnits="userSpaceOnUse">
      <stop offset="0" stop-color="#221380"/>
      <stop offset=".11" stop-color="#271892"/>
      <stop offset=".37" stop-color="#3322b7"/>
      <stop offset=".62" stop-color="#3c2ad2"/>
      <stop offset=".83" stop-color="#412fe2"/>
      <stop offset="1" stop-color="#4331e8"/>
    </linearGradient>
    <linearGradient id="linear-gradient-2" x1="230.92" y1="207.31" x2="382.2" y2="207.31" gradientUnits="userSpaceOnUse">
      <stop offset="0" stop-color="#4331e8"/>
      <stop offset=".05" stop-color="#4331e8" stop-opacity=".83"/>
      <stop offset=".13" stop-color="#4331e8" stop-opacity=".58"/>
      <stop offset=".2" stop-color="#4331e8" stop-opacity=".37"/>
      <stop offset=".28" stop-color="#4331e8" stop-opacity=".21"/>
      <stop offset=".34" stop-color="#4331e8" stop-opacity=".09"/>
      <stop offset=".4" stop-color="#4331e8" stop-opacity=".02"/>
      <stop offset=".45" stop-color="#4331e8" stop-opacity="0"/>
    </linearGradient>
    <linearGradient id="linear-gradient-3" x1="1453.1" y1="162.66" x2="1444.96" y2="175.83" gradientTransform="translate(1700) rotate(-180) scale(1 -1)" gradientUnits="userSpaceOnUse">
      <stop offset="0" stop-color="#040919"/>
      <stop offset=".05" stop-color="#080c28"/>
      <stop offset=".24" stop-color="#1a1762"/>
      <stop offset=".42" stop-color="#282092"/>
      <stop offset=".59" stop-color="#3427b7"/>
      <stop offset=".75" stop-color="#3c2cd2"/>
      <stop offset=".89" stop-color="#412fe2"/>
      <stop offset="1" stop-color="#4331e8"/>
    </linearGradient>
    <linearGradient id="linear-gradient-4" x1="1453.71" y1="78.83" x2="1453.7" y2="78.84" xlink:href="#linear-gradient-3"/>
  </defs>
  <g id="BG">
    <rect width="800" height="600" fill="#040919"/>
  </g>
  <g id="Dark">
    <g>
      <polygon points="491.54 524.23 217.45 365.99 190.96 381.28 491.54 554.83 729.62 417.37 703.12 402.08 491.54 524.23" fill="#221380"/>
      <g>
        <polygon points="429.04 213.24 190.96 350.69 491.54 524.23 729.62 386.78 429.04 213.24" fill="url(#linear-gradient)"/>
        <line x1="239.25" y1="378.57" x2="477.32" y2="241.12" fill="none" stroke="#666bff" stroke-linecap="round" stroke-linejoin="round"/>
        <polygon points="429.04 213.24 422.07 217.26 722.65 390.8 729.62 386.78 429.04 213.24" fill="#666bff"/>
        <line x1="491.54" y1="524.23" x2="190.96" y2="350.69" fill="none" stroke="#666bff" stroke-linecap="round" stroke-linejoin="round"/>
        <line x1="729.62" y1="386.78" x2="491.54" y2="524.23" fill="none" stroke="#666bff" stroke-linecap="round" stroke-linejoin="round"/>
      </g>
      <g>
        <circle cx="408.07" cy="328.62" r=".7" fill="#666bff"/>
        <circle cx="416.12" cy="333.26" r=".7" fill="#666bff"/>
        <circle cx="408.07" cy="337.91" r=".7" fill="#666bff"/>
        <circle cx="424.16" cy="337.91" r=".7" fill="#666bff"/>
        <circle cx="416.12" cy="342.55" r=".7" fill="#666bff"/>
        <circle cx="408.07" cy="347.19" r=".7" fill="#666bff"/>
        <circle cx="432.2" cy="342.55" r=".7" fill="#666bff"/>
        <circle cx="424.16" cy="347.19" r=".7" fill="#666bff"/>
        <circle cx="416.12" cy="351.83" r=".7" fill="#666bff"/>
        <circle cx="408.07" cy="356.48" r=".7" fill="#666bff"/>
        <circle cx="432.2" cy="351.83" r=".7" fill="#666bff"/>
        <circle cx="424.16" cy="356.48" r=".7" fill="#666bff"/>
        <circle cx="440.24" cy="347.19" r=".7" fill="#666bff"/>
        <circle cx="416.12" cy="361.12" r=".7" fill="#666bff"/>
        <circle cx="408.07" cy="365.76" r=".7" fill="#666bff"/>
        <circle cx="400.03" cy="333.26" r=".7" fill="#666bff"/>
        <circle cx="424.16" cy="319.34" r=".7" fill="#666bff"/>
        <circle cx="432.2" cy="323.98" r=".7" fill="#666bff"/>
        <circle cx="424.16" cy="328.62" r=".7" fill="#666bff"/>
        <circle cx="440.24" cy="328.62" r=".7" fill="#666bff"/>
        <circle cx="432.2" cy="333.26" r=".7" fill="#666bff"/>
        <circle cx="448.28" cy="333.26" r=".7" fill="#666bff"/>
        <circle cx="440.24" cy="337.91" r=".7" fill="#666bff"/>
        <circle cx="448.28" cy="342.55" r=".7" fill="#666bff"/>
        <circle cx="456.32" cy="337.91" r=".7" fill="#666bff"/>
        <circle cx="416.12" cy="323.98" r=".7" fill="#666bff"/>
        <circle cx="440.24" cy="319.34" r=".7" fill="#666bff"/>
        <circle cx="448.28" cy="323.98" r=".7" fill="#666bff"/>
        <circle cx="456.32" cy="328.62" r=".7" fill="#666bff"/>
        <circle cx="464.36" cy="333.26" r=".7" fill="#666bff"/>
        <circle cx="440.24" cy="356.48" r=".7" fill="#666bff"/>
        <circle cx="432.2" cy="361.12" r=".7" fill="#666bff"/>
        <circle cx="448.28" cy="351.83" r=".7" fill="#666bff"/>
        <circle cx="424.16" cy="365.76" r=".7" fill="#666bff"/>
        <circle cx="416.12" cy="370.41" r=".7" fill="#666bff"/>
        <circle cx="456.32" cy="347.19" r=".7" fill="#666bff"/>
        <circle cx="464.36" cy="342.55" r=".7" fill="#666bff"/>
        <circle cx="472.41" cy="337.91" r=".7" fill="#666bff"/>
        <circle cx="448.28" cy="361.12" r=".7" fill="#666bff"/>
        <circle cx="440.24" cy="365.76" r=".7" fill="#666bff"/>
        <circle cx="456.32" cy="356.48" r=".7" fill="#666bff"/>
        <circle cx="432.2" cy="370.41" r=".7" fill="#666bff"/>
        <circle cx="424.16" cy="375.05" r=".7" fill="#666bff"/>
        <circle cx="464.36" cy="351.83" r=".7" fill="#666bff"/>
        <circle cx="472.41" cy="347.19" r=".7" fill="#666bff"/>
        <circle cx="480.45" cy="342.55" r=".7" fill="#666bff"/>
        <circle cx="456.32" cy="365.76" r=".7" fill="#666bff"/>
        <circle cx="448.28" cy="370.41" r=".7" fill="#666bff"/>
        <circle cx="464.36" cy="361.12" r=".7" fill="#666bff"/>
        <circle cx="440.24" cy="375.05" r=".7" fill="#666bff"/>
        <circle cx="432.2" cy="379.69" r=".7" fill="#666bff"/>
        <circle cx="472.41" cy="356.48" r=".7" fill="#666bff"/>
        <circle cx="480.45" cy="351.83" r=".7" fill="#666bff"/>
        <circle cx="488.49" cy="347.19" r=".7" fill="#666bff"/>
        <circle cx="464.36" cy="370.41" r=".7" fill="#666bff"/>
        <circle cx="456.32" cy="375.05" r=".7" fill="#666bff"/>
        <circle cx="472.41" cy="365.76" r=".7" fill="#666bff"/>
        <circle cx="448.28" cy="379.69" r=".7" fill="#666bff"/>
        <circle cx="440.24" cy="384.33" r=".7" fill="#666bff"/>
        <circle cx="480.45" cy="361.12" r=".7" fill="#666bff"/>
        <circle cx="488.49" cy="356.48" r=".7" fill="#666bff"/>
        <circle cx="496.53" cy="351.83" r=".7" fill="#666bff"/>
        <circle cx="472.41" cy="375.05" r=".7" fill="#666bff"/>
        <circle cx="464.36" cy="379.69" r=".7" fill="#666bff"/>
        <circle cx="480.45" cy="370.41" r=".7" fill="#666bff"/>
        <circle cx="456.32" cy="384.33" r=".7" fill="#666bff"/>
        <circle cx="448.28" cy="388.98" r=".7" fill="#666bff"/>
        <circle cx="488.49" cy="365.76" r=".7" fill="#666bff"/>
        <circle cx="496.53" cy="361.12" r=".7" fill="#666bff"/>
        <circle cx="504.57" cy="356.48" r=".7" fill="#666bff"/>
        <circle cx="480.45" cy="379.69" r=".7" fill="#666bff"/>
        <circle cx="472.41" cy="384.33" r=".7" fill="#666bff"/>
        <circle cx="488.49" cy="375.05" r=".7" fill="#666bff"/>
        <circle cx="464.36" cy="388.98" r=".7" fill="#666bff"/>
        <circle cx="456.32" cy="393.62" r=".7" fill="#666bff"/>
        <circle cx="496.53" cy="370.41" r=".7" fill="#666bff"/>
        <circle cx="504.57" cy="365.76" r=".7" fill="#666bff"/>
        <circle cx="512.61" cy="361.12" r=".7" fill="#666bff"/>
        <circle cx="488.49" cy="384.33" r=".7" fill="#666bff"/>
        <circle cx="480.45" cy="388.98" r=".7" fill="#666bff"/>
        <circle cx="496.53" cy="379.69" r=".7" fill="#666bff"/>
        <circle cx="472.41" cy="393.62" r=".7" fill="#666bff"/>
        <circle cx="464.36" cy="398.26" r=".7" fill="#666bff"/>
        <circle cx="504.57" cy="375.05" r=".7" fill="#666bff"/>
        <circle cx="512.61" cy="370.41" r=".7" fill="#666bff"/>
        <circle cx="520.65" cy="365.76" r=".7" fill="#666bff"/>
        <circle cx="496.53" cy="388.98" r=".7" fill="#666bff"/>
        <circle cx="488.49" cy="393.62" r=".7" fill="#666bff"/>
        <circle cx="504.57" cy="384.33" r=".7" fill="#666bff"/>
        <circle cx="480.45" cy="398.26" r=".7" fill="#666bff"/>
        <circle cx="472.41" cy="402.9" r=".7" fill="#666bff"/>
        <circle cx="512.61" cy="379.69" r=".7" fill="#666bff"/>
        <circle cx="520.65" cy="375.05" r=".7" fill="#666bff"/>
        <circle cx="528.7" cy="370.41" r=".7" fill="#666bff"/>
        <circle cx="536.74" cy="365.76" r=".7" fill="#666bff"/>
        <circle cx="432.2" cy="314.69" r=".7" fill="#666bff"/>
        <circle cx="391.99" cy="337.91" r=".7" fill="#666bff"/>
        <circle cx="400.03" cy="342.55" r=".7" fill="#666bff"/>
        <circle cx="383.95" cy="342.55" r=".7" fill="#666bff"/>
        <circle cx="391.99" cy="347.19" r=".7" fill="#666bff"/>
        <circle cx="400.03" cy="351.83" r=".7" fill="#666bff"/>
        <circle cx="383.95" cy="351.83" r=".7" fill="#666bff"/>
        <circle cx="391.99" cy="356.48" r=".7" fill="#666bff"/>
        <circle cx="375.91" cy="347.19" r=".7" fill="#666bff"/>
        <circle cx="400.03" cy="361.12" r=".7" fill="#666bff"/>
        <circle cx="383.95" cy="333.26" r=".7" fill="#666bff"/>
        <circle cx="375.91" cy="337.91" r=".7" fill="#666bff"/>
        <circle cx="400.03" cy="323.98" r=".7" fill="#666bff"/>
        <circle cx="391.99" cy="328.62" r=".7" fill="#666bff"/>
        <circle cx="408.07" cy="319.34" r=".7" fill="#666bff"/>
        <circle cx="367.87" cy="342.55" r=".7" fill="#666bff"/>
        <circle cx="383.95" cy="314.69" r=".7" fill="#666bff"/>
        <circle cx="375.91" cy="319.34" r=".7" fill="#666bff"/>
        <circle cx="367.87" cy="323.98" r=".7" fill="#666bff"/>
        <circle cx="359.83" cy="328.62" r=".7" fill="#666bff"/>
        <circle cx="383.95" cy="323.98" r=".7" fill="#666bff"/>
        <circle cx="375.91" cy="328.62" r=".7" fill="#666bff"/>
        <circle cx="391.99" cy="319.34" r=".7" fill="#666bff"/>
        <circle cx="367.87" cy="333.26" r=".7" fill="#666bff"/>
        <circle cx="359.83" cy="337.91" r=".7" fill="#666bff"/>
        <circle cx="416.12" cy="314.69" r=".7" fill="#666bff"/>
        <circle cx="400.03" cy="305.41" r=".7" fill="#666bff"/>
        <circle cx="391.99" cy="310.05" r=".7" fill="#666bff"/>
        <circle cx="400.03" cy="314.69" r=".7" fill="#666bff"/>
        <circle cx="408.07" cy="310.05" r=".7" fill="#666bff"/>
        <circle cx="424.16" cy="310.05" r=".7" fill="#666bff"/>
        <circle cx="408.07" cy="300.76" r=".7" fill="#666bff"/>
        <circle cx="416.12" cy="305.41" r=".7" fill="#666bff"/>
        <circle cx="351.78" cy="333.26" r=".7" fill="#666bff"/>
        <circle cx="472.41" cy="291.48" r=".7" fill="#666bff"/>
        <circle cx="480.45" cy="296.12" r=".7" fill="#666bff"/>
        <circle cx="472.41" cy="300.76" r=".7" fill="#666bff"/>
        <circle cx="488.49" cy="300.76" r=".7" fill="#666bff"/>
        <circle cx="480.45" cy="305.41" r=".7" fill="#666bff"/>
        <circle cx="472.41" cy="310.05" r=".7" fill="#666bff"/>
        <circle cx="496.53" cy="305.41" r=".7" fill="#666bff"/>
        <circle cx="488.49" cy="310.05" r=".7" fill="#666bff"/>
        <circle cx="480.45" cy="314.69" r=".7" fill="#666bff"/>
        <circle cx="472.41" cy="319.34" r=".7" fill="#666bff"/>
        <circle cx="496.53" cy="314.69" r=".7" fill="#666bff"/>
        <circle cx="488.49" cy="319.34" r=".7" fill="#666bff"/>
        <circle cx="504.57" cy="310.05" r=".7" fill="#666bff"/>
        <circle cx="480.45" cy="323.98" r=".7" fill="#666bff"/>
        <circle cx="472.41" cy="328.62" r=".7" fill="#666bff"/>
        <circle cx="464.36" cy="296.12" r=".7" fill="#666bff"/>
        <circle cx="488.49" cy="282.19" r=".7" fill="#666bff"/>
        <circle cx="496.53" cy="286.84" r=".7" fill="#666bff"/>
        <circle cx="488.49" cy="291.48" r=".7" fill="#666bff"/>
        <circle cx="504.57" cy="291.48" r=".7" fill="#666bff"/>
        <circle cx="496.53" cy="296.12" r=".7" fill="#666bff"/>
        <circle cx="512.61" cy="296.12" r=".7" fill="#666bff"/>
        <circle cx="504.57" cy="300.76" r=".7" fill="#666bff"/>
        <circle cx="512.61" cy="305.41" r=".7" fill="#666bff"/>
        <circle cx="520.65" cy="300.76" r=".7" fill="#666bff"/>
        <circle cx="480.45" cy="286.84" r=".7" fill="#666bff"/>
        <circle cx="504.57" cy="282.19" r=".7" fill="#666bff"/>
        <circle cx="512.61" cy="286.84" r=".7" fill="#666bff"/>
        <circle cx="520.65" cy="291.48" r=".7" fill="#666bff"/>
        <circle cx="528.7" cy="296.12" r=".7" fill="#666bff"/>
        <circle cx="504.57" cy="319.34" r=".7" fill="#666bff"/>
        <circle cx="496.53" cy="323.98" r=".7" fill="#666bff"/>
        <circle cx="512.61" cy="314.69" r=".7" fill="#666bff"/>
        <circle cx="488.49" cy="328.62" r=".7" fill="#666bff"/>
        <circle cx="480.45" cy="333.26" r=".7" fill="#666bff"/>
        <circle cx="520.65" cy="310.05" r=".7" fill="#666bff"/>
        <circle cx="528.7" cy="305.41" r=".7" fill="#666bff"/>
        <circle cx="536.74" cy="300.76" r=".7" fill="#666bff"/>
        <circle cx="512.61" cy="323.98" r=".7" fill="#666bff"/>
        <circle cx="504.57" cy="328.62" r=".7" fill="#666bff"/>
        <circle cx="520.65" cy="319.34" r=".7" fill="#666bff"/>
        <circle cx="496.53" cy="333.26" r=".7" fill="#666bff"/>
        <circle cx="488.49" cy="337.91" r=".7" fill="#666bff"/>
        <circle cx="528.7" cy="314.69" r=".7" fill="#666bff"/>
        <circle cx="536.74" cy="310.05" r=".7" fill="#666bff"/>
        <circle cx="544.78" cy="305.41" r=".7" fill="#666bff"/>
        <circle cx="520.65" cy="328.62" r=".7" fill="#666bff"/>
        <circle cx="512.61" cy="333.26" r=".7" fill="#666bff"/>
        <circle cx="528.7" cy="323.98" r=".7" fill="#666bff"/>
        <circle cx="504.57" cy="337.91" r=".7" fill="#666bff"/>
        <circle cx="496.53" cy="342.55" r=".7" fill="#666bff"/>
        <circle cx="536.74" cy="319.34" r=".7" fill="#666bff"/>
        <circle cx="544.78" cy="314.69" r=".7" fill="#666bff"/>
        <circle cx="552.82" cy="310.05" r=".7" fill="#666bff"/>
        <circle cx="528.7" cy="333.26" r=".7" fill="#666bff"/>
        <circle cx="520.65" cy="337.91" r=".7" fill="#666bff"/>
        <circle cx="536.74" cy="328.62" r=".7" fill="#666bff"/>
        <circle cx="512.61" cy="342.55" r=".7" fill="#666bff"/>
        <circle cx="504.57" cy="347.19" r=".7" fill="#666bff"/>
        <circle cx="544.78" cy="323.98" r=".7" fill="#666bff"/>
        <circle cx="552.82" cy="319.34" r=".7" fill="#666bff"/>
        <circle cx="560.86" cy="314.69" r=".7" fill="#666bff"/>
        <circle cx="536.74" cy="337.91" r=".7" fill="#666bff"/>
        <circle cx="528.7" cy="342.55" r=".7" fill="#666bff"/>
        <circle cx="544.78" cy="333.26" r=".7" fill="#666bff"/>
        <circle cx="520.65" cy="347.19" r=".7" fill="#666bff"/>
        <circle cx="512.61" cy="351.83" r=".7" fill="#666bff"/>
        <circle cx="552.82" cy="328.62" r=".7" fill="#666bff"/>
        <circle cx="560.86" cy="323.98" r=".7" fill="#666bff"/>
        <circle cx="568.9" cy="319.34" r=".7" fill="#666bff"/>
        <circle cx="544.78" cy="342.55" r=".7" fill="#666bff"/>
        <circle cx="536.74" cy="347.19" r=".7" fill="#666bff"/>
        <circle cx="552.82" cy="337.91" r=".7" fill="#666bff"/>
        <circle cx="528.7" cy="351.83" r=".7" fill="#666bff"/>
        <circle cx="520.65" cy="356.48" r=".7" fill="#666bff"/>
        <circle cx="560.86" cy="333.26" r=".7" fill="#666bff"/>
        <circle cx="568.9" cy="328.62" r=".7" fill="#666bff"/>
        <circle cx="576.94" cy="323.98" r=".7" fill="#666bff"/>
        <circle cx="552.82" cy="347.19" r=".7" fill="#666bff"/>
        <circle cx="544.78" cy="351.83" r=".7" fill="#666bff"/>
        <circle cx="560.86" cy="342.55" r=".7" fill="#666bff"/>
        <circle cx="536.74" cy="356.48" r=".7" fill="#666bff"/>
        <circle cx="528.7" cy="361.12" r=".7" fill="#666bff"/>
        <circle cx="568.9" cy="337.91" r=".7" fill="#666bff"/>
        <circle cx="576.94" cy="333.26" r=".7" fill="#666bff"/>
        <circle cx="584.98" cy="328.62" r=".7" fill="#666bff"/>
        <circle cx="560.86" cy="351.83" r=".7" fill="#666bff"/>
        <circle cx="552.82" cy="356.48" r=".7" fill="#666bff"/>
        <circle cx="568.9" cy="347.19" r=".7" fill="#666bff"/>
        <circle cx="544.78" cy="361.12" r=".7" fill="#666bff"/>
        <circle cx="576.94" cy="342.55" r=".7" fill="#666bff"/>
        <circle cx="584.98" cy="337.91" r=".7" fill="#666bff"/>
        <circle cx="593.03" cy="333.26" r=".7" fill="#666bff"/>
        <circle cx="496.53" cy="277.55" r=".7" fill="#666bff"/>
        <circle cx="456.32" cy="300.76" r=".7" fill="#666bff"/>
        <circle cx="464.36" cy="305.41" r=".7" fill="#666bff"/>
        <circle cx="448.28" cy="305.41" r=".7" fill="#666bff"/>
        <circle cx="456.32" cy="310.05" r=".7" fill="#666bff"/>
        <circle cx="464.36" cy="314.69" r=".7" fill="#666bff"/>
        <circle cx="448.28" cy="314.69" r=".7" fill="#666bff"/>
        <circle cx="456.32" cy="319.34" r=".7" fill="#666bff"/>
        <circle cx="440.24" cy="310.05" r=".7" fill="#666bff"/>
        <circle cx="464.36" cy="323.98" r=".7" fill="#666bff"/>
        <circle cx="448.28" cy="296.12" r=".7" fill="#666bff"/>
        <circle cx="440.24" cy="300.76" r=".7" fill="#666bff"/>
        <circle cx="464.36" cy="286.84" r=".7" fill="#666bff"/>
        <circle cx="456.32" cy="291.48" r=".7" fill="#666bff"/>
        <circle cx="472.41" cy="282.19" r=".7" fill="#666bff"/>
        <circle cx="432.2" cy="305.41" r=".7" fill="#666bff"/>
        <circle cx="448.28" cy="277.55" r=".7" fill="#666bff"/>
        <circle cx="440.24" cy="282.19" r=".7" fill="#666bff"/>
        <circle cx="432.2" cy="286.84" r=".7" fill="#666bff"/>
        <circle cx="424.16" cy="291.48" r=".7" fill="#666bff"/>
        <circle cx="448.28" cy="286.84" r=".7" fill="#666bff"/>
        <circle cx="440.24" cy="291.48" r=".7" fill="#666bff"/>
        <circle cx="456.32" cy="282.19" r=".7" fill="#666bff"/>
        <circle cx="432.2" cy="296.12" r=".7" fill="#666bff"/>
        <circle cx="424.16" cy="300.76" r=".7" fill="#666bff"/>
        <circle cx="480.45" cy="277.55" r=".7" fill="#666bff"/>
        <circle cx="464.36" cy="268.27" r=".7" fill="#666bff"/>
        <circle cx="456.32" cy="272.91" r=".7" fill="#666bff"/>
        <circle cx="464.36" cy="277.55" r=".7" fill="#666bff"/>
        <circle cx="472.41" cy="272.91" r=".7" fill="#666bff"/>
        <circle cx="488.49" cy="272.91" r=".7" fill="#666bff"/>
        <circle cx="472.41" cy="263.62" r=".7" fill="#666bff"/>
        <circle cx="480.45" cy="268.27" r=".7" fill="#666bff"/>
        <circle cx="416.12" cy="296.12" r=".7" fill="#666bff"/>
      </g>
      <g>
        <g>
          <polygon points="381.29 240.81 418.96 262.56 428.85 256.84 391.18 235.09 381.29 240.81" fill="#4331e8"/>
          <line x1="416.81" y1="255.64" x2="395.17" y2="243.15" fill="none" stroke="#fff" stroke-linecap="round" stroke-linejoin="round"/>
          <line x1="397.83" y1="260.48" x2="381.49" y2="251.05" fill="none" stroke="#666bff" stroke-linecap="round" stroke-linejoin="round"/>
          <line x1="380.06" y1="266.02" x2="367.81" y2="258.95" fill="none" stroke="#666bff" stroke-linecap="round" stroke-linejoin="round"/>
          <line x1="373.03" y1="277.76" x2="354.13" y2="266.85" fill="none" stroke="#666bff" stroke-linecap="round" stroke-linejoin="round"/>
          <line x1="351.6" y1="281.18" x2="340.45" y2="274.74" fill="none" stroke="#666bff" stroke-linecap="round" stroke-linejoin="round"/>
        </g>
        <path d="M422.58,224.61c-4.34,0-7.86,2.04-7.86,4.56s3.52,4.56,7.86,4.56,7.86-2.04,7.86-4.56-3.52-4.56-7.86-4.56Z" fill="#fff"/>
        <path d="M211.31,346.85c-2.89,0-5.24,1.36-5.24,3.04s2.34,3.04,5.24,3.04,5.24-1.36,5.24-3.04-2.34-3.04-5.24-3.04Z" fill="#4331e8"/>
        <path d="M225.47,338.66c-2.89,0-5.24,1.36-5.24,3.04s2.34,3.04,5.24,3.04,5.24-1.36,5.24-3.04-2.34-3.04-5.24-3.04Z" fill="#4331e8"/>
        <path d="M239.63,330.48c-2.89,0-5.24,1.36-5.24,3.04s2.34,3.04,5.24,3.04,5.24-1.36,5.24-3.04-2.34-3.04-5.24-3.04Z" fill="#fff"/>
      </g>
      <g>
        <line x1="301.14" y1="362.08" x2="414.67" y2="425.54" fill="none" stroke="#666bff" stroke-linecap="round" stroke-linejoin="round"/>
        <line x1="371.33" y1="356.09" x2="371.33" y2="400.93" fill="none" stroke="#666bff" stroke-linecap="round" stroke-linejoin="round"/>
        <line x1="341.34" y1="373.13" x2="341.34" y2="384.33" fill="none" stroke="#666bff" stroke-linecap="round" stroke-linejoin="round"/>
        <path d="M414.67,400.93l-13.2-7.62c-11.68-6.74-18.23-30.48-29.91-37.22-11.68-6.74-22.37,24.49-32.59,15.69-18.04-15.54-15.38,2.54-33.52-7.35l-4.31-2.35" fill="none" stroke="#fff" stroke-linecap="round" stroke-linejoin="round"/>
        <g>
          <path d="M277.38,362.37l10.37,5.99c11.68,6.74,18.23-11.3,29.91-4.56,11.68,6.74,18.23,38.3,29.91,45.05,11.68,6.74,18.23,1.34,29.91,8.08l13.44,7.76v13.96l-113.53-62.84v-13.44Z" fill="#fff"/>
          <line x1="316.56" y1="364.23" x2="316.56" y2="397.49" fill="none" stroke="#4331e8" stroke-linecap="round" stroke-linejoin="round"/>
          <line x1="376.5" y1="417.37" x2="376.5" y2="430.67" fill="none" stroke="#4331e8" stroke-linecap="round" stroke-linejoin="round"/>
        </g>
      </g>
      <g>
        <g>
          <polygon points="245.11 250.98 181.25 214.11 169.47 220.91 245.11 264.58 320.75 220.91 308.97 214.11 245.11 250.98" fill="#221380"/>
          <line x1="270.7" y1="236.21" x2="282.31" y2="242.91" fill="none" stroke="#fff" stroke-linecap="round" stroke-linejoin="round"/>
          <polygon points="245.11 163.64 169.47 207.31 245.11 250.98 320.75 207.31 245.11 163.64" fill="url(#linear-gradient-2)"/>
          <polygon points="259.71 172.07 199.82 206.65 244.9 232.68 304.79 198.1 259.71 172.07" fill="#040919"/>
          <polyline points="169.47 207.31 245.11 250.98 320.75 207.31" fill="none" stroke="#666bff" stroke-linecap="round" stroke-linejoin="round"/>
          <g>
            <circle cx="245.11" cy="202.67" r=".7" fill="#4331e8"/>
            <circle cx="253.15" cy="207.31" r=".7" fill="#4331e8"/>
            <circle cx="245.11" cy="211.95" r=".7" fill="#4331e8"/>
            <circle cx="261.19" cy="211.95" r=".7" fill="#4331e8"/>
            <circle cx="253.15" cy="216.6" r=".7" fill="#4331e8"/>
            <circle cx="245.11" cy="221.24" r=".7" fill="#4331e8"/>
            <circle cx="269.23" cy="216.6" r=".7" fill="#4331e8"/>
            <circle cx="261.19" cy="221.24" r=".7" fill="#4331e8"/>
            <circle cx="253.15" cy="225.88" r=".7" fill="#4331e8"/>
            <circle cx="245.11" cy="230.53" r=".7" fill="#4331e8"/>
            <circle cx="269.23" cy="225.88" r=".7" fill="#4331e8"/>
            <circle cx="261.19" cy="230.53" r=".7" fill="#4331e8"/>
            <circle cx="277.27" cy="221.24" r=".7" fill="#4331e8"/>
            <circle cx="253.15" cy="235.17" r=".7" fill="#4331e8"/>
            <circle cx="245.11" cy="239.81" r=".7" fill="#4331e8"/>
            <circle cx="237.07" cy="207.31" r=".7" fill="#4331e8"/>
            <circle cx="261.19" cy="193.38" r=".7" fill="#4331e8"/>
            <circle cx="269.23" cy="198.03" r=".7" fill="#4331e8"/>
            <circle cx="261.19" cy="202.67" r=".7" fill="#4331e8"/>
            <circle cx="277.27" cy="202.67" r=".7" fill="#4331e8"/>
            <circle cx="269.23" cy="207.31" r=".7" fill="#4331e8"/>
            <circle cx="285.32" cy="207.31" r=".7" fill="#4331e8"/>
            <circle cx="277.27" cy="211.95" r=".7" fill="#4331e8"/>
            <circle cx="285.32" cy="216.6" r=".7" fill="#4331e8"/>
            <circle cx="293.36" cy="211.95" r=".7" fill="#4331e8"/>
            <circle cx="253.15" cy="198.03" r=".7" fill="#4331e8"/>
            <circle cx="277.27" cy="193.38" r=".7" fill="#4331e8"/>
            <circle cx="285.32" cy="198.03" r=".7" fill="#4331e8"/>
            <circle cx="293.36" cy="202.67" r=".7" fill="#4331e8"/>
            <circle cx="301.4" cy="207.31" r=".7" fill="#4331e8"/>
            <circle cx="269.23" cy="188.74" r=".7" fill="#4331e8"/>
            <circle cx="229.03" cy="211.95" r=".7" fill="#4331e8"/>
            <circle cx="237.07" cy="216.6" r=".7" fill="#4331e8"/>
            <circle cx="220.98" cy="216.6" r=".7" fill="#4331e8"/>
            <circle cx="229.03" cy="221.24" r=".7" fill="#4331e8"/>
            <circle cx="237.07" cy="225.88" r=".7" fill="#4331e8"/>
            <circle cx="220.98" cy="225.88" r=".7" fill="#4331e8"/>
            <circle cx="229.03" cy="230.53" r=".7" fill="#4331e8"/>
            <circle cx="212.94" cy="221.24" r=".7" fill="#4331e8"/>
            <circle cx="237.07" cy="235.17" r=".7" fill="#4331e8"/>
            <circle cx="220.98" cy="207.31" r=".7" fill="#4331e8"/>
            <circle cx="212.94" cy="211.95" r=".7" fill="#4331e8"/>
            <circle cx="237.07" cy="198.03" r=".7" fill="#4331e8"/>
            <circle cx="229.03" cy="202.67" r=".7" fill="#4331e8"/>
            <circle cx="245.11" cy="193.38" r=".7" fill="#4331e8"/>
            <circle cx="204.9" cy="216.6" r=".7" fill="#4331e8"/>
            <circle cx="220.98" cy="188.74" r=".7" fill="#4331e8"/>
            <circle cx="212.94" cy="193.38" r=".7" fill="#4331e8"/>
            <circle cx="204.9" cy="198.03" r=".7" fill="#4331e8"/>
            <circle cx="196.86" cy="202.67" r=".7" fill="#4331e8"/>
            <circle cx="220.98" cy="198.03" r=".7" fill="#4331e8"/>
            <circle cx="212.94" cy="202.67" r=".7" fill="#4331e8"/>
            <circle cx="229.03" cy="193.38" r=".7" fill="#4331e8"/>
            <circle cx="204.9" cy="207.31" r=".7" fill="#4331e8"/>
            <circle cx="196.86" cy="211.95" r=".7" fill="#4331e8"/>
            <circle cx="253.15" cy="188.74" r=".7" fill="#4331e8"/>
            <circle cx="237.07" cy="179.46" r=".7" fill="#4331e8"/>
            <circle cx="229.03" cy="184.1" r=".7" fill="#4331e8"/>
            <circle cx="237.07" cy="188.74" r=".7" fill="#4331e8"/>
            <circle cx="245.11" cy="184.1" r=".7" fill="#4331e8"/>
            <circle cx="261.19" cy="184.1" r=".7" fill="#4331e8"/>
            <circle cx="245.11" cy="174.81" r=".7" fill="#4331e8"/>
            <circle cx="253.15" cy="179.46" r=".7" fill="#4331e8"/>
            <circle cx="188.82" cy="207.31" r=".7" fill="#4331e8"/>
          </g>
        </g>
        <polyline points="282.31 242.91 314.88 261.71 244.98 302.07 260.29 310.91" fill="none" stroke="#4331e8" stroke-linecap="round" stroke-linejoin="round"/>
        <g>
          <path d="M204.17,192.9l32.99-110.48c.26-.86,.64-1.61,1.12-2.24l-.06-2.34h4.63c1.1,0,2.26,.31,3.39,.96l34.28,19.79c3.76,2.17,5.81,7.34,4.57,11.5l-32.99,110.48c-.87,2.91-3.13,4.57-5.69,4.57h-4.63s-.04-1.7-.04-1.7l-32.99-19.05c-3.76-2.17-5.81-7.34-4.57-11.5Z" fill="#666bff" stroke="#666bff" stroke-linecap="round" stroke-linejoin="round"/>
          <path d="M275.88,98.59c3.76,2.17,5.81,7.34,4.57,11.5l-32.99,110.48c-1.24,4.16-5.33,5.78-9.09,3.61l-34.28-19.79c-3.76-2.17-5.81-7.34-4.57-11.5l32.99-110.48c1.24-4.16,5.33-5.78,9.09-3.61l34.28,19.79Z" fill="url(#linear-gradient-3)" stroke="#666bff" stroke-linecap="round" stroke-linejoin="round"/>
          <line x1="246.33" y1="78.85" x2="246.24" y2="78.8" fill="url(#linear-gradient-4)" stroke="#666bff" stroke-linecap="round" stroke-linejoin="round"/>
          <g>
            <polygon points="215.28 203.45 212.37 201.75 213.42 198.26 216.32 199.96 215.28 203.45" fill="#666bff"/>
            <g>
              <polygon points="225.49 211.41 219.68 208.01 221.76 201.02 227.57 204.42 225.49 211.41" fill="#666bff"/>
              <polygon points="215.28 203.45 212.37 201.75 213.42 198.26 216.32 199.96 215.28 203.45" fill="#4331e8"/>
              <polygon points="207.37 198.89 204.47 197.19 205.51 193.7 208.41 195.4 207.37 198.89" fill="#4331e8"/>
              <polygon points="233.88 214.2 230.98 212.5 232.02 209.01 234.93 210.71 233.88 214.2" fill="#4331e8"/>
              <polygon points="241.79 218.77 238.89 217.07 239.93 213.58 242.83 215.28 241.79 218.77" fill="#4331e8"/>
            </g>
            <g>
              <path d="M238.59,89.92l-1.73,5.79-.6-.35,1.73-5.79,.6,.35Z" fill="#fff"/>
              <path d="M239.98,92.47l-.17,.58c.18-.14,.38-.21,.59-.21s.44,.07,.67,.2c.4,.23,.66,.55,.8,.97s.12,.88-.03,1.4l-.81,2.7-.56-.32,.78-2.61c.11-.36,.12-.68,.03-.95-.09-.27-.27-.48-.54-.63-.28-.16-.54-.19-.77-.07-.23,.12-.4,.36-.51,.73l-.75,2.52-.56-.32,1.28-4.3,.55,.32Z" fill="#fff"/>
              <path d="M243.73,94.63v3.99s2-2.83,2-2.83l.6,.35-2.61,3.53-.54-.31-.04-5.06,.6,.34Z" fill="#fff"/>
              <path d="M246.9,99.23c-.28,.93-.08,1.59,.6,1.98,.26,.15,.48,.19,.67,.12,.19-.07,.32-.22,.39-.46v-.03s.56,.32,.56,.32v.03c-.09,.27-.22,.48-.4,.63-.18,.15-.39,.23-.63,.24s-.51-.07-.79-.23c-.49-.28-.82-.68-.99-1.19-.17-.51-.16-1.1,.04-1.77l.1-.34c.2-.66,.48-1.09,.85-1.3,.37-.2,.79-.17,1.26,.1,.46,.27,.77,.64,.94,1.12,.17,.48,.16,1.03-.03,1.64l-.15,.5-2.41-1.39v.03Zm.16-.57l1.85,1.07,.02-.08c.12-.39,.12-.73,.02-1.02-.1-.29-.3-.51-.59-.68-.29-.16-.54-.19-.76-.08-.22,.11-.4,.37-.54,.78Z" fill="#fff"/>
              <path d="M250.07,101.83v-.03s.54,.31,.54,.31v.02c-.07,.23-.05,.45,.06,.67,.11,.22,.32,.42,.63,.6,.28,.16,.52,.23,.71,.21,.2-.03,.33-.15,.39-.37,.06-.18,.04-.36-.05-.52-.09-.16-.25-.33-.5-.51l-.46-.35c-.36-.27-.59-.55-.71-.84-.12-.29-.13-.6-.03-.94,.12-.4,.33-.64,.65-.72s.68,0,1.1,.24c.44,.25,.75,.57,.93,.94,.18,.37,.21,.76,.1,1.15v.03s-.54-.31-.54-.31v-.03c.08-.23,.05-.45-.06-.66-.12-.21-.31-.39-.59-.55-.28-.16-.51-.23-.68-.2-.17,.03-.29,.15-.35,.36-.05,.18-.04,.34,.03,.49,.07,.15,.23,.31,.46,.49l.49,.38c.36,.27,.6,.56,.73,.85,.13,.29,.14,.62,.03,.96-.13,.42-.35,.67-.68,.75-.33,.08-.72,0-1.17-.27-.45-.26-.76-.58-.94-.96-.18-.38-.21-.78-.08-1.19Z" fill="#fff"/>
              <path d="M254.86,104.61c-.07,.23-.08,.43-.02,.58,.05,.15,.18,.28,.37,.39l.28,.16-.19,.62-.37-.22c-.67-.39-.88-.99-.64-1.81l.75-2.53-.59-.34,.16-.54,.59,.34,.28-.93,.65,.03-.37,1.23,.89,.52-.16,.54-.89-.52-.74,2.48Z" fill="#fff"/>
            </g>
            <g>
              <line x1="268.41" y1="108.55" x2="273.91" y2="111.72" fill="none" stroke="#fff" stroke-linecap="round" stroke-linejoin="round"/>
              <line x1="267.35" y1="111.63" x2="272.85" y2="114.8" fill="none" stroke="#fff" stroke-linecap="round" stroke-linejoin="round"/>
            </g>
            <polygon points="211.55 173.68 248.63 195.09 252.54 182 215.46 160.6 211.55 173.68" fill="none" stroke="#4331e8" stroke-linecap="round" stroke-linejoin="round"/>
            <polygon points="207.64 186.77 244.73 208.18 248.63 195.09 211.55 173.68 207.64 186.77" fill="none" stroke="#4331e8" stroke-linecap="round" stroke-linejoin="round"/>
            <g>
              <path d="M217.61,138.94c3.31,2.1,10.43-5.05,13.45-3.84,2.66,1.07,.61,5.06,4.11,6.51,3.17,1.31,9.91-13.9,13.97-11.72s-1.49,24.36,2.79,26.82,11.01-9.03,14.79-6.69" fill="none" stroke="#fff" stroke-linecap="round" stroke-linejoin="round"/>
              <line x1="215.61" y1="147.89" x2="219.24" y2="149.99" fill="none" stroke="#666bff" stroke-linecap="round" stroke-linejoin="round"/>
              <line x1="223.5" y1="152.45" x2="227.13" y2="154.54" fill="none" stroke="#666bff" stroke-linecap="round" stroke-linejoin="round"/>
              <line x1="231.39" y1="157" x2="235.02" y2="159.1" fill="none" stroke="#666bff" stroke-linecap="round" stroke-linejoin="round"/>
              <line x1="239.28" y1="161.56" x2="242.91" y2="163.65" fill="none" stroke="#666bff" stroke-linecap="round" stroke-linejoin="round"/>
              <line x1="247.17" y1="166.11" x2="250.8" y2="168.21" fill="none" stroke="#666bff" stroke-linecap="round" stroke-linejoin="round"/>
              <line x1="255.06" y1="170.67" x2="258.69" y2="172.76" fill="none" stroke="#666bff" stroke-linecap="round" stroke-linejoin="round"/>
              <line x1="231.77" y1="109.57" x2="248.83" y2="119.43" fill="none" stroke="#666bff" stroke-linecap="round" stroke-linejoin="round"/>
              <line x1="230.76" y1="112.94" x2="243.04" y2="120.03" fill="none" stroke="#666bff" stroke-linecap="round" stroke-linejoin="round"/>
            </g>
          </g>
        </g>
      </g>
      <polygon points="245.11 264.58 117.05 338.51 41.41 294.84 169.47 220.91 245.11 264.58" fill="#221380"/>
      <g>
        <polygon points="158.18 294.7 86.32 336.55 58.39 317.55 107.85 289.27 109.09 296.26 100.05 308.78 139.69 293.95 158.18 294.7" fill="#040919"/>
        <path d="M95.16,137.77l-13.82,26.74c-1.4,2.71-1.32,5.95,.1,8.66l7.95,30,2.75,1.1,4.2-4.71,2.75,4.3,.44-10.43-5.56-24.11,13.62-19.98-12.44-11.57Z" fill="#040919"/>
        <path d="M98.41,197.23l21.48,10.92c4.54,2.31,10.7,3.6,14.49,.2l4.55-4.08,9.47,38.91-2.25,5.08-2.24,37.24-8.18,.62-4.13-13.76-.8-24.32-12.29-20.89-.78,22.08-6.05,36.18-8.86-.36-4.63-73.24,.2-14.58Z" fill="#040919"/>
        <polyline points="102.84 285.05 98.2 211.81 98.41 197.23" fill="none" stroke="#4331e8" stroke-linecap="round" stroke-linejoin="round"/>
        <polyline points="135.74 286.11 131.61 272.36 130.81 248.04 118.52 227.15" fill="none" stroke="#4331e8" stroke-linecap="round" stroke-linejoin="round"/>
        <path d="M143.91,283.3l.32,3.66-8.36,2.32-.72-5.13c2.9,2.17,5.92,1.65,8.77-.85Z" fill="#666bff"/>
        <path d="M112.56,280.26s-5.92,3.87-10.14-1.79l.42,6.58,8.86,.36,.86-5.15Z" fill="#666bff"/>
        <path d="M135.48,211.81s1.85,7.19-2.18,11.11" fill="none" stroke="#4331e8" stroke-linecap="round" stroke-linejoin="round"/>
        <path d="M112.85,289.63l-3.76,6.63c-1.47,2.6-5.87,2.35-5.95-.4l-.3-10.81,8.86,.36,1.16,4.22Z" fill="#040919"/>
        <path d="M148.25,290.38l9.67,1.61c.72,.14,1.25,.77,1.25,1.51,0,.58-.42,1.06-.99,1.2l-17.54,3.7c-2.1,.51-4.04-.41-4.24-2.67l-.49-5.5-.17-4.12,8.18-.62c.17,2.42,1.95,4.43,4.34,4.89Z" fill="#040919"/>
        <path d="M127.09,212.84l-28.68-14.58,1.64-11.66-7.18-31.69,1.18-13.99c.61-3.75,4.04-7.85,7.63-9.11l5.92-2.08,18.92,3.39,9.39,4.23,8.55,54.93,2.17,13.7-19.53,6.88Z" fill="#4331e8"/>
        <path d="M128.87,156.2s-1.59,2.66,5.04,5.5c5.73,2.46,2.68,4.89,2.49,11.29s7.51,14.85,7.51,14.85l-4.72-29.78-10.32-1.86Z" fill="#040919"/>
        <path d="M144.17,112.88c.06-.82,.56-1.53,1.31-1.86s1.62-.21,2.26,.3l6.82,5.48-1.62,7.27-9.1-6.47,.33-4.72Z" fill="#666bff"/>
        <polygon points="150.61 124.41 154.76 108.51 148.38 104.83 143.84 120.5 150.61 124.41" fill="#4331e8"/>
        <g>
          <path d="M135.9,137.34l17.03,7.02-3.63-13.21,2.31-6.9c1.85-2.15,3.94-2.18,5.32-1.85l7.08,24.56c.5,1.72,.05,4.31-.99,5.77l-3.89,5.44c-1.21,1.69-3.88,2.78-5.92,2.41l-8.51-1.53-15.83-2.85c-8.04-12.33-1.23-18.86,7.04-18.86Z" fill="#4331e8"/>
          <path d="M151.6,124.25l-.08-1.17-.99-2.57c-.54-1.4-.26-2.97,.72-4.11l.92-1.06,.32-3.39,1.26,.26,1.18,3.95,1.3,3.78,.69,2.46c-1.38-.33-3.47-.3-5.32,1.85Z" fill="#666bff"/>
          <path d="M156.04,119.37l-4.51,3.71-.17,1.9s2.16-3.45,5.57-2.58l-.89-3.03Z" fill="#fff"/>
        </g>
        <path d="M130.66,203l-.98-13.66c5.28-.08,9.57-3.72,9.57-3.72l.51,4.84" fill="none" stroke="#040919" stroke-linecap="round" stroke-linejoin="round"/>
        <path d="M115.53,97.4c2.99-1.58,6.59-1.47,9.49,.27,2.9,1.75,4.67,4.88,4.67,8.26v14.11c0,1.21-.95,2.49-2.11,2.84l-2.3,.7-1.5,8.29-14.55-6.55c1.66-2.23,2.98-3.04,1.7-5.55l-2.78-5.49c-2.88-5.69-.7-12.63,4.94-15.6l2.44-1.29Z" fill="#666bff"/>
        <path d="M113.09,98.69l2.44-1.29c2.99-1.58,6.59-1.47,9.49,.27,.57,.35,1.1,.75,1.58,1.19l.69,5.96-3.17,3.55,2.39,7.67,3.07,.47,.1-2.44,1.35,2.28-.58,4.34c-.54,4.08-4.68,2.73-4.68,2.73l1-1.19-4.25-9.09-6.08,9.09-5.45-2.3c-.03-.06-.04-.11-.07-.17l-2.78-5.49c-2.88-5.69-.7-12.63,4.94-15.6Z" fill="#040919"/>
        <path d="M110.92,119.78l-2.78-5.49c-2.88-5.69-.7-12.63,4.94-15.6l2.44-1.29c2.99-1.58,6.59-1.47,9.49,.27" fill="none" stroke="#4331e8" stroke-linecap="round" stroke-linejoin="round"/>
        <path d="M152.93,144.36l5.25,2.57s2.24-2.2,0-3.84c-2.24-1.64-3.97-.13-5.25-5.67" fill="none" stroke="#040919" stroke-linecap="round" stroke-linejoin="round"/>
        <path d="M126.51,133.11s-10.63,4.23-18.92-3.39l1.62-4.4,17.29,7.79Z" fill="#fff"/>
        <line x1="103.6" y1="191.24" x2="115.58" y2="198.28" fill="none" stroke="#040919" stroke-linecap="round" stroke-linejoin="round"/>
        <line x1="100.05" y1="185.57" x2="108.96" y2="190.51" fill="none" stroke="#040919" stroke-linecap="round" stroke-linejoin="round"/>
        <circle cx="119.96" cy="114.54" r="2.91" fill="#666bff"/>
        <path d="M101.2,242.59s.37,7.13,4.66,10.15l-3.02,1.74,4.65,2.83" fill="none" stroke="#4331e8" stroke-linecap="round" stroke-linejoin="round"/>
        <polyline points="132.95 251.87 136.59 256.71 133.3 259.82" fill="none" stroke="#4331e8" stroke-linecap="round" stroke-linejoin="round"/>
        <line x1="113.79" y1="218.97" x2="118.52" y2="227.15" fill="none" stroke="#4331e8" stroke-linecap="round" stroke-linejoin="round"/>
      </g>
      <path d="M400,335.53l-45.19,3.71-74.14-42.81c-2.28-1.32-4.14-.24-4.14,2.39v1.91" fill="none" stroke="#fff" stroke-linecap="round" stroke-linejoin="round"/>
      <g>
        <line x1="489.33" y1="457.2" x2="533.39" y2="482.63" fill="none" stroke="#fff" stroke-linecap="round" stroke-linejoin="round"/>
        <polygon points="474.31 443.9 466.27 448.54 474.31 453.19 482.36 448.54 474.31 443.9" fill="#040919"/>
        <polygon points="458.23 453.19 450.19 457.83 458.23 462.47 466.27 457.83 458.23 453.19" fill="#4331e8"/>
        <polygon points="442.15 462.47 434.11 467.12 442.15 471.76 450.19 467.12 442.15 462.47" fill="#fff"/>
        <line x1="473.25" y1="466.48" x2="517.31" y2="491.92" fill="none" stroke="#fff" stroke-linecap="round" stroke-linejoin="round"/>
        <line x1="457.17" y1="475.77" x2="501.22" y2="501.2" fill="none" stroke="#fff" stroke-linecap="round" stroke-linejoin="round"/>
        <line x1="489.33" y1="457.2" x2="523.95" y2="477.18" fill="none" stroke="#4331e8" stroke-linecap="round" stroke-linejoin="round"/>
        <line x1="473.25" y1="466.48" x2="483.22" y2="472.24" fill="none" stroke="#4331e8" stroke-linecap="round" stroke-linejoin="round"/>
        <line x1="457.17" y1="475.77" x2="473.71" y2="485.32" fill="none" stroke="#4331e8" stroke-linecap="round" stroke-linejoin="round"/>
      </g>
      <g>
        <polygon points="591.17 154.71 594.03 138.34 598.51 138.34 601.68 152.29 591.17 154.71" fill="#666bff"/>
        <polygon points="617.22 266.73 629.53 258.93 629.17 244.05 617.22 236.13 617.22 266.73" fill="#040919"/>
        <g>
          <path d="M600.99,174.67l-9.36,27.07-21.68-1.35-3.74,3.16-3.37-.79,.84-6.79,2.88,.17,16.28-2.81,5.96-22.49c.79-2.99,3.89-6.07,6.89-6.84l8.61-2.22,4.12,7.13-7.42,5.76Z" fill="#4331e8"/>
          <polygon points="588.12 186.42 578.27 248.25 596.33 256.91 598.95 193.88 588.12 186.42" fill="#040919"/>
          <path d="M595.28,309.22l-8.22-51.91c-.79-4.99-1.15-13.21-.8-18.25l.28-3.94,.56-4.21h12.39s7.64,7.31,7.64,7.31l-3.68,25.29,1.61,10.8-.91,40.03-8.87-5.12Z" fill="#bcc0e5"/>
          <path d="M606.37,242.95l-5.97,9.91-2.4,22.59s4.24,4.26,3.19,9.09c-1.59,7.33-.55,17.02,3.01,27.7" fill="#666bff"/>
          <path d="M625.56,230.91c1.45,7.79,.97,15.85-1.48,23.43l-6.38,19.78,2.59,12.02-.42,37.27-9.96-5.75-6.86-45.89,.86-34.94,7.56-5.92h14.1Z" fill="#bcc0e5"/>
          <path d="M605.37,244.48l11.85,6.94-5.12,27.98,2.65,2.65c1.36,1.36,2.78,4.01,3.17,5.89l2.17,10.6,.19-12.42-2.59-12.02,8.48-23.73-3.71-8.41-17.1,2.5Z" fill="#666bff"/>
          <path d="M591.63,201.74c1.29-7.66-4.18-19.68-.58-24.2l11.47-14.39,7.59-4.93,13.91,9.54c4.46,3.06,7.25,8.03,7.53,13.43l.17,3.22-12.79,2.58,.84,20.65,3.41,14.08,1.35,4.69c1.73,6.03,2.23,12.3,1.55,18.48-6.62,2.97-14.22,2.82-20.71-.41l-18.83-9.37,1.96-14.73,3.13-18.65Z" fill="#fff"/>
          <path d="M625.95,169.64c3.17,2.63,5.77,8.16,5.77,12.29v15.18l-2.19,61.82-8.78-7.5-2.47-6.14-9.73-24.16,1.62-26.15,7.21-25.54-2.88-8.2,11.45,8.41Z" fill="#4331e8"/>
          <path d="M608.55,221.12s5.01,.74,10.01,1.96,5.37,3.21,5.64,6.93c.36,4.84,3.96,6.12,3.96,6.12l2.1-26.34-21.13,4.94-.59,6.39Z" fill="#040919"/>
          <path d="M584.48,201.16l10.13-2.8,2.85,2.03,2.07,3.45,22.13,.75c-3.02-7-2.72-17.59-2.72-17.59l12.79-2.58-2.49,27.38c-.12,1.35-.84,2.58-1.95,3.36s-2.52,1.02-3.83,.67l-26.4-7.14-4.42-.18-3.22-6.61-4.46,.68-.47-1.4Z" fill="#040919"/>
          <line x1="594.61" y1="198.36" x2="584.48" y2="201.16" fill="none" stroke="#666bff" stroke-linecap="round" stroke-linejoin="round"/>
          <polygon points="585.46 201.03 557.59 184.94 571.09 209.41 598.95 225.5 585.46 201.03" fill="#040919"/>
          <polyline points="598.95 225.5 585.46 201.03 557.59 184.94" fill="none" stroke="#fff" stroke-linecap="round" stroke-linejoin="round"/>
          <g>
            <path d="M617.38,169.43l-6.41,3.6c-6.06,3.4-13.3,1.27-11.07-2.88l2.75-5.1-.97-4.45-2.56-.7c-1.44-.4-2.94-1.9-3.32-3.35l-2.5-9.34,.62-7.95c.39-4.99,4.42-8.92,9.42-9.18l3.75-.2c8.76-.46,16.02,8.11,10.68,18.1l-2.42,4.52c-1.15,2.14-2.37,4.92-1.37,7.14l3.4,9.8Z" fill="#040919"/>
            <path d="M601.68,160.6l7.64-3.55s.16,.44-2.61,2.15c-2.78,1.72-1.21,4.78-1.21,4.78l-2.71,1.04-1.11-4.43Z" fill="#040919"/>
            <path d="M594.03,138.34c.78-4.54,4.62-8.01,9.3-8.26l4.42-.23c4.18-.22,8.17,1.8,10.46,5.31,2.29,3.51,2.55,7.97,.66,11.71l-2.67,5.31c-.31,.62-.49,1.27-.56,1.93-2.9,.49-6.14-.78-8.13-2.94l-2.46-5.26c-.94-3.23-2.71-4.5-6.55-5.92l-4.48-1.65h0Z" fill="#666bff"/>
          </g>
          <polygon points="565.24 198.81 569.71 201.95 571.81 206.14 569.94 206.72 562.84 202.76 565.24 198.81" fill="#4331e8"/>
          <path d="M607.59,204.11l-1.1,7.12-3.45-.93,3.45,9.04,17.19-.74c3.36-.15,6.26-3.01,6.45-6.36l1.6-27.81-13.29,.53s-2.79,10.37,1.28,19.48l-12.13-.31Z" fill="#4331e8"/>
          <path d="M618.44,184.94s-2.79,10.37,1.28,19.48l-12.13-.31" fill="none" stroke="#666bff" stroke-linecap="round" stroke-linejoin="round"/>
        </g>
        <path d="M621.18,200.03s.12,3.17,2.74,5.3c2.62,2.13,3.17,4.27,.49,5.49l-3.66-3.6" fill="none" stroke="#666bff" stroke-linecap="round" stroke-linejoin="round"/>
        <polygon points="604.58 144.1 609.13 161.04 622.38 154.21 619.72 138.49 604.58 144.1" fill="#666bff"/>
      </g>
      <g>
        <g>
          <path d="M523.67,302.02l-14.73,8.5c8.68,5.09,14.04,12.09,14.04,19.81,0,15.57-21.77,28.19-48.62,28.19v12.05c38.33,0,69.4-18.02,69.4-40.24,0-11.04-7.67-21.04-20.09-28.31Z" fill="#040919"/>
          <path d="M474.36,290.09v12.05c13.53,0,25.77,3.21,34.59,8.38l14.73-8.5c-12.58-7.36-30.02-11.93-49.31-11.93Z" fill="#040919"/>
          <path d="M449.83,305.99c7.2-2.45,15.58-3.86,24.53-3.86h0v-12.05c-12.78,0-24.74,2.01-35.02,5.5l10.49,10.4Z" fill="#040919"/>
          <path d="M425.74,330.33c0-10.38,9.68-19.44,24.09-24.34l-10.49-10.4c-20.56,6.98-34.38,19.92-34.38,34.74,0,2.01,.26,3.98,.75,5.91l20.56-1.77c-.34-1.35-.53-2.74-.53-4.14Z" fill="#040919"/>
          <path d="M474.36,370.57c23.75,0,44.7-6.92,57.21-17.47l-17.13-6.82c-8.77,7.39-23.44,12.24-40.08,12.24-24.42,0-44.64-10.44-48.09-24.05l-20.56,1.77c4.93,19.42,33.79,34.33,68.65,34.33Z" fill="#040919"/>
        </g>
        <path d="M523.67,294.87l-14.73,8.5c8.68,5.09,14.04,12.09,14.04,19.81,0,15.57-21.77,28.19-48.62,28.19v12.05c38.33,0,69.4-18.02,69.4-40.24,0-11.04-7.67-21.04-20.09-28.31Z" fill="#fff"/>
        <g>
          <path d="M449.83,288.47c7.2-2.45,15.58-3.86,24.53-3.86h0v-20.33s-35.02-6.55-35.02-6.55v20.33s10.49,10.4,10.49,10.4Z" fill="#040919"/>
          <path d="M449.83,268.15c7.2-2.45,15.58-3.86,24.53-3.86h0v-12.05c-12.78,0-24.74,2.01-35.02,5.5l10.49,10.4Z" fill="#040919"/>
          <path d="M439.34,257.74l10.49,10.4c7.2-2.45,15.58-3.86,24.53-3.86" fill="none" stroke="#666bff" stroke-linecap="round" stroke-linejoin="round"/>
        </g>
        <g>
          <path d="M425.74,323.18c0-10.38,9.68-19.44,24.09-24.34v-20.33l-14.85,2.36c-5.53,1.88-11.08,6.32-15.63,10.82v36.22l6.92-.6c-.34-1.35-.53-2.74-.53-4.14Z" fill="#040919"/>
          <path d="M408.77,304.05l-3.81-1.2v20.32h0c0,2.01,.26,3.99,.75,5.92l20.56-2.91v-19.19l-17.5-2.95Z" fill="#4331e8"/>
          <path d="M425.74,302.85c0-10.38,9.68-19.44,24.09-24.34l-10.49-10.4c-20.56,6.98-34.38,19.92-34.38,34.74,0,2.01,.26,3.98,.75,5.91l20.56-1.77c-.34-1.35-.53-2.74-.53-4.14Z" fill="#4331e8"/>
          <path d="M405.71,308.77l20.56-1.77c-.34-1.35-.53-2.74-.53-4.14,0-10.38,9.68-19.44,24.09-24.34" fill="none" stroke="#fff" stroke-linecap="round" stroke-linejoin="round"/>
        </g>
        <g>
          <path d="M514.44,344.35c-9,7.1-23.44,7.27-40.08,7.27-24.42,0-44.64-5.48-48.09-19.09l-20.56-11.14v7.73h0c4.95,19.41,33.79,34.3,68.64,34.3,23.75,0,44.7-6.92,57.21-17.46v-7.7s-17.13,6.1-17.13,6.1Z" fill="#4331e8"/>
          <path d="M474.36,355.72c23.75,0,44.7-6.92,57.21-17.47l-17.13-6.82c-8.77,7.39-23.44,12.24-40.08,12.24-24.42,0-44.64-10.44-48.09-24.05l-20.56,1.77c4.93,19.42,33.79,34.33,68.65,34.33Z" fill="#666bff"/>
          <path d="M405.71,321.39c4.93,19.42,33.79,34.33,68.65,34.33,23.75,0,44.7-6.92,57.21-17.47" fill="none" stroke="#fff" stroke-linecap="round" stroke-linejoin="round"/>
        </g>
        <g>
          <path d="M479.29,246.97v12.05c13.53,0,25.77,3.21,34.59,8.38l14.73-8.5c-12.58-7.36-30.02-11.93-49.31-11.93Z" fill="none" stroke="#fff" stroke-linecap="round" stroke-linejoin="round"/>
          <path d="M479.29,226.64v12.05c13.53,0,25.77,3.21,34.59,8.38l14.73-8.5c-12.58-7.36-30.02-11.93-49.31-11.93Z" fill="none" stroke="#fff" stroke-linecap="round" stroke-linejoin="round"/>
          <polygon points="513.88 247.07 513.88 267.4 528.6 258.9 528.6 238.57 513.88 247.07" fill="none" stroke="#fff" stroke-linecap="round" stroke-linejoin="round"/>
          <line x1="479.29" y1="238.69" x2="479.29" y2="259.02" fill="none" stroke="#fff" stroke-linecap="round" stroke-linejoin="round"/>
        </g>
        <polygon points="459.84 389.1 471.3 395.72 476.16 392.92 464.7 386.3 459.84 389.1" fill="#666bff"/>
        <polygon points="440.08 377.69 457.02 387.48 461.88 384.67 444.94 374.89 440.08 377.69" fill="#040919"/>
      </g>
      <g>
        <polygon points="489.96 434.54 611.93 364.12 674.35 400.15 552.37 470.57 489.96 434.54" fill="#040919"/>
        <polygon points="489.96 425.54 522.23 406.9 584.65 442.94 552.37 461.57 489.96 425.54" fill="#4331e8"/>
        <polygon points="501.35 425.85 521.38 414.28 540.84 425.52 520.81 437.08 501.35 425.85" fill="#e6e7f5"/>
        <polygon points="505.96 416.3 522.23 406.9 584.65 442.94 568.37 452.34 505.96 416.3" fill="#040919"/>
        <polyline points="584.65 442.94 552.37 461.57 489.96 425.54" fill="none" stroke="#fff" stroke-linecap="round" stroke-linejoin="round"/>
        <polygon points="505.96 404.1 538.23 385.47 600.65 421.5 568.37 440.14 505.96 404.1" fill="#4331e8"/>
        <polygon points="518.02 404 538.05 392.43 557.51 403.67 537.48 415.23 518.02 404" fill="#e6e7f5"/>
        <polygon points="579.65 361.55 611.93 342.92 674.35 378.95 642.07 397.59 579.65 361.55" fill="#666bff"/>
        <polygon points="543.1 382.66 575.38 364.02 637.79 400.06 605.52 418.69 543.1 382.66" fill="#4331e8"/>
        <polygon points="555.55 382.33 575.59 370.76 595.05 382 575.01 393.56 555.55 382.33" fill="#e6e7f5"/>
        <polygon points="591.89 350.36 611.93 338.8 631.39 350.03 611.35 361.6 591.89 350.36" fill="none" stroke="#fff" stroke-linecap="round" stroke-linejoin="round"/>
        <line x1="599.94" y1="384.82" x2="619.4" y2="396.05" fill="none" stroke="#666bff" stroke-linecap="round" stroke-linejoin="round"/>
        <line x1="595.58" y1="387.34" x2="608.66" y2="394.89" fill="none" stroke="#666bff" stroke-linecap="round" stroke-linejoin="round"/>
        <line x1="562.4" y1="406.49" x2="581.86" y2="417.72" fill="none" stroke="#666bff" stroke-linecap="round" stroke-linejoin="round"/>
        <line x1="558.04" y1="409.01" x2="571.13" y2="416.56" fill="none" stroke="#666bff" stroke-linecap="round" stroke-linejoin="round"/>
        <polygon points="579.65 350.77 611.93 332.13 674.35 368.17 642.07 386.8 579.65 350.77" fill="none" stroke="#fff" stroke-linecap="round" stroke-linejoin="round"/>
        <line x1="518.02" y1="404" x2="538.05" y2="392.43" fill="none" stroke="#666bff" stroke-linecap="round" stroke-linejoin="round"/>
        <line x1="555.55" y1="382.33" x2="575.59" y2="370.76" fill="none" stroke="#666bff" stroke-linecap="round" stroke-linejoin="round"/>
      </g>
      <path d="M659.6,387.47l1.5,.87c1.55,.9,2.82,3.1,2.82,4.89v14.86l15.7,9.07c3.19,1.84,5.8,6.36,5.8,10.05v27.43l-10.15-5.86" fill="none" stroke="#fff" stroke-linecap="round" stroke-linejoin="round"/>
      <line x1="675.29" y1="448.77" x2="650.1" y2="434.23" fill="none" stroke="#666bff" stroke-linecap="round" stroke-linejoin="round"/>
    </g>
  </g>
</svg>