<?xml version="1.0" encoding="UTF-8"?>
<svg xmlns="http://www.w3.org/2000/svg" width="800" height="600" xmlns:xlink="http://www.w3.org/1999/xlink" viewBox="0 0 800 600">
  <defs>
    <linearGradient id="linear-gradient" x1="250.86" y1="158.89" x2="402.14" y2="158.89" gradientUnits="userSpaceOnUse">
      <stop offset="0" stop-color="#4331e8"/>
      <stop offset=".05" stop-color="#4331e8" stop-opacity=".83"/>
      <stop offset=".13" stop-color="#4331e8" stop-opacity=".58"/>
      <stop offset=".2" stop-color="#4331e8" stop-opacity=".37"/>
      <stop offset=".28" stop-color="#4331e8" stop-opacity=".21"/>
      <stop offset=".34" stop-color="#4331e8" stop-opacity=".09"/>
      <stop offset=".4" stop-color="#4331e8" stop-opacity=".02"/>
      <stop offset=".45" stop-color="#4331e8" stop-opacity="0"/>
    </linearGradient>
    <linearGradient id="linear-gradient-2" x1="518.9" y1="169.46" x2="505.77" y2="146.68" gradientUnits="userSpaceOnUse">
      <stop offset="0" stop-color="#221380"/>
      <stop offset=".11" stop-color="#271892"/>
      <stop offset=".37" stop-color="#3322b7"/>
      <stop offset=".62" stop-color="#3c2ad2"/>
      <stop offset=".83" stop-color="#412fe2"/>
      <stop offset="1" stop-color="#4331e8"/>
    </linearGradient>
    <linearGradient id="linear-gradient-3" x1="562.79" y1="446.64" x2="714.07" y2="446.64" xlink:href="#linear-gradient"/>
    <linearGradient id="New_Gradient_Swatch_1" data-name="New Gradient Swatch 1" x1="603.44" y1="426.02" x2="596.32" y2="426.02" gradientUnits="userSpaceOnUse">
      <stop offset="0" stop-color="#040919"/>
      <stop offset=".05" stop-color="#080c28"/>
      <stop offset=".24" stop-color="#1a1762"/>
      <stop offset=".42" stop-color="#282092"/>
      <stop offset=".59" stop-color="#3427b7"/>
      <stop offset=".75" stop-color="#3c2cd2"/>
      <stop offset=".89" stop-color="#412fe2"/>
      <stop offset="1" stop-color="#4331e8"/>
    </linearGradient>
    <linearGradient id="linear-gradient-4" x1="477.8" y1="330.61" x2="490.66" y2="352.55" xlink:href="#linear-gradient-2"/>
    <linearGradient id="linear-gradient-5" x1="268.72" y1="288.3" x2="282.46" y2="312.68" gradientUnits="userSpaceOnUse">
      <stop offset="0" stop-color="#fff"/>
      <stop offset=".03" stop-color="#fbfbfd"/>
      <stop offset=".24" stop-color="#ebecf7"/>
      <stop offset=".4" stop-color="#e6e7f5"/>
    </linearGradient>
  </defs>
  <g id="BG">
    <rect width="800" height="600" fill="#040919"/>
  </g>
  <g id="Dark">
    <g>
      <polygon points="351.52 511.7 274.36 556.25 115.85 464.72 193.02 420.17 351.52 511.7" fill="#221380"/>
      <polyline points="483.2 240.09 381.25 298.95 434.63 329.77" fill="none" stroke="#4331e8" stroke-linecap="round" stroke-linejoin="round"/>
      <g>
        <line x1="279.99" y1="142.31" x2="279.99" y2="75.75" fill="none" stroke="#fff" stroke-miterlimit="10"/>
        <polygon points="304.12 202.56 240.26 165.69 228.48 172.49 304.12 216.16 379.76 172.49 367.98 165.69 304.12 202.56" fill="#221380"/>
        <polygon points="304.12 115.22 228.48 158.89 304.12 202.56 379.76 158.89 304.12 115.22" fill="url(#linear-gradient)"/>
        <polygon points="294.64 132.91 260.32 152.72 315 184.29 349.31 164.48 294.64 132.91" fill="#040919"/>
        <polyline points="228.48 158.89 304.12 202.56 379.76 158.89" fill="none" stroke="#666bff" stroke-linecap="round" stroke-linejoin="round"/>
        <g>
          <circle cx="304.12" cy="154.25" r=".7" fill="#4331e8"/>
          <circle cx="312.16" cy="158.89" r=".7" fill="#4331e8"/>
          <circle cx="304.12" cy="163.53" r=".7" fill="#4331e8"/>
          <circle cx="320.2" cy="163.53" r=".7" fill="#4331e8"/>
          <circle cx="312.16" cy="168.17" r=".7" fill="#4331e8"/>
          <circle cx="304.12" cy="172.82" r=".7" fill="#4331e8"/>
          <circle cx="328.24" cy="168.17" r=".7" fill="#4331e8"/>
          <circle cx="320.2" cy="172.82" r=".7" fill="#4331e8"/>
          <circle cx="312.16" cy="177.46" r=".7" fill="#4331e8"/>
          <circle cx="304.12" cy="182.1" r=".7" fill="#4331e8"/>
          <circle cx="328.24" cy="177.46" r=".7" fill="#4331e8"/>
          <circle cx="320.2" cy="182.1" r=".7" fill="#4331e8"/>
          <circle cx="336.28" cy="172.82" r=".7" fill="#4331e8"/>
          <circle cx="312.16" cy="186.75" r=".7" fill="#4331e8"/>
          <circle cx="304.12" cy="191.39" r=".7" fill="#4331e8"/>
          <circle cx="296.08" cy="158.89" r=".7" fill="#4331e8"/>
          <circle cx="320.2" cy="144.96" r=".7" fill="#4331e8"/>
          <circle cx="328.24" cy="149.6" r=".7" fill="#4331e8"/>
          <circle cx="320.2" cy="154.25" r=".7" fill="#4331e8"/>
          <circle cx="336.28" cy="154.25" r=".7" fill="#4331e8"/>
          <circle cx="328.24" cy="158.89" r=".7" fill="#4331e8"/>
          <circle cx="344.33" cy="158.89" r=".7" fill="#4331e8"/>
          <circle cx="336.28" cy="163.53" r=".7" fill="#4331e8"/>
          <circle cx="344.33" cy="168.17" r=".7" fill="#4331e8"/>
          <circle cx="352.37" cy="163.53" r=".7" fill="#4331e8"/>
          <circle cx="312.16" cy="149.6" r=".7" fill="#4331e8"/>
          <circle cx="336.28" cy="144.96" r=".7" fill="#4331e8"/>
          <circle cx="344.33" cy="149.6" r=".7" fill="#4331e8"/>
          <circle cx="352.37" cy="154.25" r=".7" fill="#4331e8"/>
          <circle cx="360.41" cy="158.89" r=".7" fill="#4331e8"/>
          <circle cx="328.24" cy="140.32" r=".7" fill="#4331e8"/>
          <circle cx="288.04" cy="163.53" r=".7" fill="#4331e8"/>
          <circle cx="296.08" cy="168.17" r=".7" fill="#4331e8"/>
          <circle cx="279.99" cy="168.17" r=".7" fill="#4331e8"/>
          <circle cx="288.04" cy="172.82" r=".7" fill="#4331e8"/>
          <circle cx="296.08" cy="177.46" r=".7" fill="#4331e8"/>
          <circle cx="279.99" cy="177.46" r=".7" fill="#4331e8"/>
          <circle cx="288.04" cy="182.1" r=".7" fill="#4331e8"/>
          <circle cx="271.95" cy="172.82" r=".7" fill="#4331e8"/>
          <circle cx="296.08" cy="186.75" r=".7" fill="#4331e8"/>
          <circle cx="279.99" cy="158.89" r=".7" fill="#4331e8"/>
          <circle cx="271.95" cy="163.53" r=".7" fill="#4331e8"/>
          <circle cx="296.08" cy="149.6" r=".7" fill="#4331e8"/>
          <circle cx="288.04" cy="154.25" r=".7" fill="#4331e8"/>
          <circle cx="304.12" cy="144.96" r=".7" fill="#4331e8"/>
          <circle cx="263.91" cy="168.17" r=".7" fill="#4331e8"/>
          <circle cx="279.99" cy="140.32" r=".7" fill="#4331e8"/>
          <circle cx="271.95" cy="144.96" r=".7" fill="#4331e8"/>
          <circle cx="263.91" cy="149.6" r=".7" fill="#4331e8"/>
          <circle cx="255.87" cy="154.25" r=".7" fill="#4331e8"/>
          <circle cx="279.99" cy="149.6" r=".7" fill="#4331e8"/>
          <circle cx="271.95" cy="154.25" r=".7" fill="#4331e8"/>
          <circle cx="288.04" cy="144.96" r=".7" fill="#4331e8"/>
          <circle cx="263.91" cy="158.89" r=".7" fill="#4331e8"/>
          <circle cx="255.87" cy="163.53" r=".7" fill="#4331e8"/>
          <circle cx="312.16" cy="140.32" r=".7" fill="#4331e8"/>
          <circle cx="296.08" cy="131.03" r=".7" fill="#4331e8"/>
          <circle cx="288.04" cy="135.68" r=".7" fill="#4331e8"/>
          <circle cx="296.08" cy="140.32" r=".7" fill="#4331e8"/>
          <circle cx="304.12" cy="135.68" r=".7" fill="#4331e8"/>
          <circle cx="320.2" cy="135.68" r=".7" fill="#4331e8"/>
          <circle cx="304.12" cy="126.39" r=".7" fill="#4331e8"/>
          <circle cx="312.16" cy="131.03" r=".7" fill="#4331e8"/>
          <circle cx="247.83" cy="158.89" r=".7" fill="#4331e8"/>
        </g>
        <g>
          <path d="M342.66,54.66c2.31-1.33,4.2-.24,4.2,2.42v35.02c0,2.67-1.89,5.94-4.2,7.27l-46.64,26.93c-2.31,1.33-4.2,.24-4.2-2.42v-35.02c0-2.67,1.89-5.94,4.2-7.27l46.64-26.93Z" fill="#4331e8"/>
          <path d="M291.82,95.57v28.32c0,2.67,1.89,3.76,4.2,2.42l24.53-14.16-28.73-16.58Z" fill="#040919"/>
          <path d="M291.82,95.57v28.32" fill="none" stroke="#4331e8" stroke-miterlimit="10"/>
          <polygon points="346.86 77.6 291.82 109.38 291.82 116.75 346.86 84.97 346.86 77.6" fill="#040919"/>
          <g>
            <path d="M311.31,122l-31.31-18.08v44.72l31.31,18.08c2.31,1.33,4.2,.24,4.2-2.42v-35.02c0-2.67-1.89-5.94-4.2-7.27Z" fill="#666bff"/>
            <path d="M264.67,95.07c-2.31-1.33-4.2-.24-4.2,2.42v35.02c0,2.67,1.89,5.94,4.2,7.27l15.32,8.85v-44.72l-15.32-8.85Z" fill="#4331e8"/>
          </g>
          <line x1="297.36" y1="94.75" x2="323.33" y2="109.74" fill="none" stroke="#040919" stroke-linecap="round" stroke-miterlimit="10"/>
          <polygon points="297.09 133.05 306.68 138.6 306.68 147 297.09 141.46 297.09 133.05" fill="#fff"/>
          <line x1="269.7" y1="108.6" x2="275.43" y2="111.9" fill="#fff" stroke="#fff" stroke-miterlimit="10"/>
          <line x1="278.73" y1="113.81" x2="284.45" y2="117.11" fill="#fff" stroke="#fff" stroke-miterlimit="10"/>
          <line x1="287.75" y1="119.02" x2="293.47" y2="122.32" fill="#fff" stroke="#fff" stroke-miterlimit="10"/>
          <line x1="296.77" y1="124.23" x2="302.5" y2="127.53" fill="#fff" stroke="#fff" stroke-miterlimit="10"/>
        </g>
        <line x1="336.28" y1="163.53" x2="336.28" y2="130.33" fill="none" stroke="#fff" stroke-miterlimit="10"/>
        <line x1="271.95" y1="172.82" x2="271.95" y2="160.56" fill="none" stroke="#fff" stroke-miterlimit="10"/>
        <rect x="267.96" y="156.57" width="7.98" height="7.98" fill="#fff"/>
        <rect x="332.29" y="126.34" width="7.98" height="7.98" fill="#fff"/>
        <rect x="276" y="71.76" width="7.98" height="7.98" fill="#fff"/>
      </g>
      <g>
        <polygon points="494.14 308.78 614.23 378.13 627.5 370.46 494.15 293.45 494.14 308.78" fill="#040919"/>
        <polygon points="455.72 225 614.23 316.53 614.24 169.69 455.74 78.17 455.72 225" fill="url(#linear-gradient-2)"/>
        <g>
          <polygon points="496.49 237.74 593.5 293.74 614.23 281.77 614.24 193.71 593.5 181.73 496.49 237.74" fill="#4331e8"/>
          <g>
            <path d="M593.5,230.88c-.5,0-.9,.4-.9,.9s.4,.9,.9,.9,.9-.4,.9-.9-.4-.9-.9-.9Z" fill="#666bff"/>
            <path d="M603.81,236.84c-.5,0-.9,.4-.9,.9s.4,.9,.9,.9,.9-.4,.9-.9-.4-.9-.9-.9Z" fill="#666bff"/>
            <path d="M593.5,242.79c-.5,0-.9,.4-.9,.9s.4,.9,.9,.9,.9-.4,.9-.9-.4-.9-.9-.9Z" fill="#666bff"/>
            <path d="M603.81,248.75c-.5,0-.9,.4-.9,.9s.4,.9,.9,.9,.9-.4,.9-.9-.4-.9-.9-.9Z" fill="#666bff"/>
            <path d="M593.5,254.7c-.5,0-.9,.4-.9,.9s.4,.9,.9,.9,.9-.4,.9-.9-.4-.9-.9-.9Z" fill="#666bff"/>
            <path d="M603.81,260.65c-.5,0-.9,.4-.9,.9s.4,.9,.9,.9,.9-.4,.9-.9-.4-.9-.9-.9Z" fill="#666bff"/>
            <path d="M593.5,266.61c-.5,0-.9,.4-.9,.9s.4,.9,.9,.9,.9-.4,.9-.9-.4-.9-.9-.9Z" fill="#666bff"/>
            <path d="M603.81,272.56c-.5,0-.9,.4-.9,.9s.4,.9,.9,.9,.9-.4,.9-.9-.4-.9-.9-.9Z" fill="#666bff"/>
            <path d="M593.5,278.52c-.5,0-.9,.4-.9,.9s.4,.9,.9,.9,.9-.4,.9-.9-.4-.9-.9-.9Z" fill="#666bff"/>
            <path d="M583.18,236.84c-.5,0-.9,.4-.9,.9s.4,.9,.9,.9,.9-.4,.9-.9-.4-.9-.9-.9Z" fill="#666bff"/>
            <path d="M603.81,224.93c-.5,0-.9,.4-.9,.9s.4,.9,.9,.9,.9-.4,.9-.9-.4-.9-.9-.9Z" fill="#666bff"/>
            <path d="M572.87,242.79c-.5,0-.9,.4-.9,.9s.4,.9,.9,.9,.9-.4,.9-.9-.4-.9-.9-.9Z" fill="#666bff"/>
            <path d="M583.18,248.75c-.5,0-.9,.4-.9,.9s.4,.9,.9,.9,.9-.4,.9-.9-.4-.9-.9-.9Z" fill="#666bff"/>
            <path d="M562.56,248.75c-.5,0-.9,.4-.9,.9s.4,.9,.9,.9,.9-.4,.9-.9-.4-.9-.9-.9Z" fill="#666bff"/>
            <path d="M572.87,254.7c-.5,0-.9,.4-.9,.9s.4,.9,.9,.9,.9-.4,.9-.9-.4-.9-.9-.9Z" fill="#666bff"/>
            <path d="M583.18,260.65c-.5,0-.9,.4-.9,.9s.4,.9,.9,.9,.9-.4,.9-.9-.4-.9-.9-.9Z" fill="#666bff"/>
            <path d="M562.56,260.65c-.5,0-.9,.4-.9,.9s.4,.9,.9,.9,.9-.4,.9-.9-.4-.9-.9-.9Z" fill="#666bff"/>
            <path d="M572.87,266.61c-.5,0-.9,.4-.9,.9s.4,.9,.9,.9,.9-.4,.9-.9-.4-.9-.9-.9Z" fill="#666bff"/>
            <path d="M552.25,254.7c-.5,0-.9,.4-.9,.9s.4,.9,.9,.9,.9-.4,.9-.9-.4-.9-.9-.9Z" fill="#666bff"/>
            <path d="M583.18,272.56c-.5,0-.9,.4-.9,.9s.4,.9,.9,.9,.9-.4,.9-.9-.4-.9-.9-.9Z" fill="#666bff"/>
            <path d="M562.56,236.84c-.5,0-.9,.4-.9,.9s.4,.9,.9,.9,.9-.4,.9-.9-.4-.9-.9-.9Z" fill="#666bff"/>
            <path d="M552.25,242.79c-.5,0-.9,.4-.9,.9s.4,.9,.9,.9,.9-.4,.9-.9-.4-.9-.9-.9Z" fill="#666bff"/>
            <path d="M583.18,224.93c-.5,0-.9,.4-.9,.9s.4,.9,.9,.9,.9-.4,.9-.9-.4-.9-.9-.9Z" fill="#666bff"/>
            <path d="M572.87,230.88c-.5,0-.9,.4-.9,.9s.4,.9,.9,.9,.9-.4,.9-.9-.4-.9-.9-.9Z" fill="#666bff"/>
            <path d="M593.5,218.98c-.5,0-.9,.4-.9,.9s.4,.9,.9,.9,.9-.4,.9-.9-.4-.9-.9-.9Z" fill="#666bff"/>
            <path d="M541.93,248.75c-.5,0-.9,.4-.9,.9s.4,.9,.9,.9,.9-.4,.9-.9-.4-.9-.9-.9Z" fill="#666bff"/>
            <path d="M562.56,213.02c-.5,0-.9,.4-.9,.9s.4,.9,.9,.9,.9-.4,.9-.9-.4-.9-.9-.9Z" fill="#666bff"/>
            <path d="M552.25,218.98c-.5,0-.9,.4-.9,.9s.4,.9,.9,.9,.9-.4,.9-.9-.4-.9-.9-.9Z" fill="#666bff"/>
            <path d="M541.93,224.93c-.5,0-.9,.4-.9,.9s.4,.9,.9,.9,.9-.4,.9-.9-.4-.9-.9-.9Z" fill="#666bff"/>
            <path d="M531.62,230.88c-.5,0-.9,.4-.9,.9s.4,.9,.9,.9,.9-.4,.9-.9-.4-.9-.9-.9Z" fill="#666bff"/>
            <path d="M562.56,224.93c-.5,0-.9,.4-.9,.9s.4,.9,.9,.9,.9-.4,.9-.9-.4-.9-.9-.9Z" fill="#666bff"/>
            <path d="M552.25,230.88c-.5,0-.9,.4-.9,.9s.4,.9,.9,.9,.9-.4,.9-.9-.4-.9-.9-.9Z" fill="#666bff"/>
            <path d="M572.87,218.98c-.5,0-.9,.4-.9,.9s.4,.9,.9,.9,.9-.4,.9-.9-.4-.9-.9-.9Z" fill="#666bff"/>
            <path d="M541.93,236.84c-.5,0-.9,.4-.9,.9s.4,.9,.9,.9,.9-.4,.9-.9-.4-.9-.9-.9Z" fill="#666bff"/>
            <path d="M531.62,242.79c-.5,0-.9,.4-.9,.9s.4,.9,.9,.9,.9-.4,.9-.9-.4-.9-.9-.9Z" fill="#666bff"/>
            <path d="M603.81,213.02c-.5,0-.9,.4-.9,.9s.4,.9,.9,.9,.9-.4,.9-.9-.4-.9-.9-.9Z" fill="#666bff"/>
            <path d="M583.18,201.11c-.5,0-.9,.4-.9,.9s.4,.9,.9,.9,.9-.4,.9-.9-.4-.9-.9-.9Z" fill="#666bff"/>
            <path d="M572.87,207.07c-.5,0-.9,.4-.9,.9s.4,.9,.9,.9,.9-.4,.9-.9-.4-.9-.9-.9Z" fill="#666bff"/>
            <path d="M583.18,213.02c-.5,0-.9,.4-.9,.9s.4,.9,.9,.9,.9-.4,.9-.9-.4-.9-.9-.9Z" fill="#666bff"/>
            <path d="M593.5,207.07c-.5,0-.9,.4-.9,.9s.4,.9,.9,.9,.9-.4,.9-.9-.4-.9-.9-.9Z" fill="#666bff"/>
            <circle cx="593.5" cy="196.06" r=".9" fill="#666bff"/>
            <path d="M603.81,201.11c-.5,0-.9,.4-.9,.9s.4,.9,.9,.9,.9-.4,.9-.9-.4-.9-.9-.9Z" fill="#666bff"/>
            <path d="M521.31,236.84c-.5,0-.9,.4-.9,.9s.4,.9,.9,.9,.9-.4,.9-.9-.4-.9-.9-.9Z" fill="#666bff"/>
          </g>
        </g>
        <g>
          <path d="M520.65,189.59c.19-5.55,5.71-8.9,12.44-4.45l18.87,12.45,16.37-2.99-10.3,21.83-37.92-11.01,.54-15.83Z" fill="#4331e8"/>
          <path d="M525.68,201.92l.41-11.89c.14-4.17,4.29-6.69,9.35-3.35l16.53,10.91" fill="none" stroke="#666bff" stroke-linecap="round" stroke-linejoin="round"/>
          <path d="M585.38,192.58c-6.43-10.42-22.17-11.97-35.91,5.32-13.75,17.29-28.82,.67-28.82-8.31l-9.75,23.17c0,6.71,4.75,14.94,10.56,18.29l15.04,8.68,25.62,14.79c16.39,9.47,38.12,12.56,52.13,10.83v-33.91c-15-17-24.72-32.15-28.86-38.86Z" fill="#040919"/>
          <path d="M535.27,205.37l19.55,.78c3.13,.12,6.12,2.75,6.65,5.83l4.42,25.63c.51,2.96,3.28,6.12,6.15,7.01l11.22,3.49,18.12-11.49-28.6-41.06h-16.85l-14.18,8.73-6.48,1.07Z" fill="#4331e8"/>
          <path d="M569.61,247.85c-4.57-1.98-9.96-6-12.88-10.04l-11.18-15.52c-1.76-2.45-5.32-5.74-7.89-7.32l-12.36-7.56c-4.53-2.77-7.18-11.83-7.18-11.83l-7.23,17.18c0,6.71,4.75,14.94,10.56,18.29l15.04,8.68,25.62,14.79c16.39,9.47,38.12,12.56,52.13,10.83v-10.43c-11.96,1.48-29.54-.56-44.63-7.08Z" fill="#e6e7f5"/>
          <g>
            <path d="M612.95,229.96c-14.26-16.39-23.54-30.86-27.56-37.38-6.43-10.42-22.17-11.97-35.91,5.32-2.56,3.22-5.17,5.26-7.72,6.4l14.91-5.35c3.37-1.21,7.83,.18,9.91,3.1l22.71,31.94c2.67,3.75,8.12,4.94,12.1,2.64l11.56-6.68h0Z" fill="#666bff"/>
            <path d="M539.78,205v.02s.2-.07,.2-.07c-.07,.02-.13,.04-.2,.05Z" fill="#e6e7f5"/>
          </g>
          <line x1="614.23" y1="235.27" x2="585.86" y2="253.05" fill="none" stroke="#fff" stroke-linecap="round" stroke-linejoin="round"/>
          <line x1="560.29" y1="208.08" x2="531.89" y2="225.91" fill="none" stroke="#4331e8" stroke-linecap="round" stroke-linejoin="round"/>
          <line x1="555.48" y1="205.3" x2="529.97" y2="221.32" fill="none" stroke="#4331e8" stroke-linecap="round" stroke-linejoin="round"/>
          <line x1="534.21" y1="212.85" x2="528.58" y2="216.39" fill="none" stroke="#4331e8" stroke-linecap="round" stroke-linejoin="round"/>
          <line x1="545.85" y1="222.72" x2="534.36" y2="229.93" fill="none" stroke="#4331e8" stroke-linecap="round" stroke-linejoin="round"/>
          <line x1="548.62" y1="226.55" x2="538.99" y2="232.6" fill="none" stroke="#4331e8" stroke-linecap="round" stroke-linejoin="round"/>
          <line x1="551.37" y1="230.4" x2="543.61" y2="235.27" fill="none" stroke="#4331e8" stroke-linecap="round" stroke-linejoin="round"/>
          <line x1="554.2" y1="234.3" x2="548.59" y2="237.82" fill="none" stroke="#4331e8" stroke-linecap="round" stroke-linejoin="round"/>
          <line x1="557.04" y1="238.19" x2="553.54" y2="240.39" fill="none" stroke="#4331e8" stroke-linecap="round" stroke-linejoin="round"/>
          <path d="M595.59,208.08l-19.91,12.54c-1.76,1.11-4.1,.57-5.21-1.18s-.57-4.1,1.18-5.21l19.91-12.54" fill="none" stroke="#fff" stroke-linecap="round" stroke-linejoin="round"/>
        </g>
        <polygon points="455.72 84.75 614.23 176.28 614.24 169.69 455.74 78.17 455.72 84.75" fill="#d0d3f5"/>
        <line x1="614.24" y1="169.69" x2="614.23" y2="316.53" fill="none" stroke="#666bff" stroke-linecap="round" stroke-linejoin="round"/>
      </g>
      <g>
        <g>
          <polygon points="591.9 490.31 528.04 453.44 516.26 460.24 591.9 503.91 667.54 460.24 655.77 453.44 591.9 490.31" fill="#221380"/>
          <line x1="552.56" y1="481.19" x2="564.34" y2="474.4" fill="none" stroke="#fff" stroke-linecap="round" stroke-linejoin="round"/>
          <polygon points="591.9 402.97 516.26 446.64 591.9 490.31 667.54 446.64 591.9 402.97" fill="url(#linear-gradient-3)"/>
          <path d="M619.56,451.64l-22.95-13.25c-3.78-2.19-9.98-2.19-13.76,0-.33,.19-.63,.4-.9,.61l-9.31,5.28c-1.89,1.09-2.84,2.53-2.84,3.97s.95,2.88,2.84,3.97l22.95,13.25c3.78,2.19,9.98,2.19,13.76,0l10.21-5.89c1.89-1.09,2.84-2.53,2.84-3.97s-.95-2.88-2.84-3.97Z" fill="#040919"/>
          <polyline points="516.26 446.64 591.9 490.31 667.54 446.64" fill="none" stroke="#666bff" stroke-linecap="round" stroke-linejoin="round"/>
          <g>
            <circle cx="591.9" cy="442" r=".7" fill="#4331e8"/>
            <circle cx="599.95" cy="446.64" r=".7" fill="#4331e8"/>
            <circle cx="591.9" cy="451.28" r=".7" fill="#4331e8"/>
            <circle cx="607.99" cy="451.28" r=".7" fill="#4331e8"/>
            <circle cx="599.95" cy="455.92" r=".7" fill="#4331e8"/>
            <circle cx="591.9" cy="460.57" r=".7" fill="#4331e8"/>
            <circle cx="616.03" cy="455.92" r=".7" fill="#4331e8"/>
            <circle cx="607.99" cy="460.57" r=".7" fill="#4331e8"/>
            <circle cx="599.95" cy="465.21" r=".7" fill="#4331e8"/>
            <circle cx="591.9" cy="469.85" r=".7" fill="#4331e8"/>
            <circle cx="616.03" cy="465.21" r=".7" fill="#4331e8"/>
            <circle cx="607.99" cy="469.85" r=".7" fill="#4331e8"/>
            <circle cx="624.07" cy="460.57" r=".7" fill="#4331e8"/>
            <circle cx="599.95" cy="474.49" r=".7" fill="#4331e8"/>
            <circle cx="591.9" cy="479.14" r=".7" fill="#4331e8"/>
            <circle cx="583.86" cy="446.64" r=".7" fill="#4331e8"/>
            <circle cx="607.99" cy="432.71" r=".7" fill="#4331e8"/>
            <circle cx="616.03" cy="437.35" r=".7" fill="#4331e8"/>
            <circle cx="607.99" cy="442" r=".7" fill="#4331e8"/>
            <circle cx="624.07" cy="442" r=".7" fill="#4331e8"/>
            <circle cx="616.03" cy="446.64" r=".7" fill="#4331e8"/>
            <circle cx="632.11" cy="446.64" r=".7" fill="#4331e8"/>
            <circle cx="624.07" cy="451.28" r=".7" fill="#4331e8"/>
            <circle cx="632.11" cy="455.92" r=".7" fill="#4331e8"/>
            <circle cx="640.15" cy="451.28" r=".7" fill="#4331e8"/>
            <circle cx="599.95" cy="437.35" r=".7" fill="#4331e8"/>
            <circle cx="624.07" cy="432.71" r=".7" fill="#4331e8"/>
            <circle cx="632.11" cy="437.35" r=".7" fill="#4331e8"/>
            <circle cx="640.15" cy="442" r=".7" fill="#4331e8"/>
            <circle cx="648.19" cy="446.64" r=".7" fill="#4331e8"/>
            <circle cx="616.03" cy="428.07" r=".7" fill="#4331e8"/>
            <circle cx="575.82" cy="451.28" r=".7" fill="#4331e8"/>
            <circle cx="583.86" cy="455.92" r=".7" fill="#4331e8"/>
            <circle cx="567.78" cy="455.92" r=".7" fill="#4331e8"/>
            <circle cx="575.82" cy="460.57" r=".7" fill="#4331e8"/>
            <circle cx="583.86" cy="465.21" r=".7" fill="#4331e8"/>
            <circle cx="567.78" cy="465.21" r=".7" fill="#4331e8"/>
            <circle cx="575.82" cy="469.85" r=".7" fill="#4331e8"/>
            <circle cx="559.74" cy="460.57" r=".7" fill="#4331e8"/>
            <circle cx="583.86" cy="474.49" r=".7" fill="#4331e8"/>
            <circle cx="567.78" cy="446.64" r=".7" fill="#4331e8"/>
            <circle cx="559.74" cy="451.28" r=".7" fill="#4331e8"/>
            <circle cx="583.86" cy="437.35" r=".7" fill="#4331e8"/>
            <circle cx="575.82" cy="442" r=".7" fill="#4331e8"/>
            <circle cx="591.9" cy="432.71" r=".7" fill="#4331e8"/>
            <circle cx="551.7" cy="455.92" r=".7" fill="#4331e8"/>
            <circle cx="567.78" cy="428.07" r=".7" fill="#4331e8"/>
            <circle cx="559.74" cy="432.71" r=".7" fill="#4331e8"/>
            <circle cx="551.7" cy="437.35" r=".7" fill="#4331e8"/>
            <circle cx="543.66" cy="442" r=".7" fill="#4331e8"/>
            <circle cx="567.78" cy="437.35" r=".7" fill="#4331e8"/>
            <circle cx="559.74" cy="442" r=".7" fill="#4331e8"/>
            <circle cx="575.82" cy="432.71" r=".7" fill="#4331e8"/>
            <circle cx="551.7" cy="446.64" r=".7" fill="#4331e8"/>
            <circle cx="543.66" cy="451.28" r=".7" fill="#4331e8"/>
            <circle cx="599.95" cy="428.07" r=".7" fill="#4331e8"/>
            <circle cx="583.86" cy="418.78" r=".7" fill="#4331e8"/>
            <circle cx="575.82" cy="423.43" r=".7" fill="#4331e8"/>
            <circle cx="583.86" cy="428.07" r=".7" fill="#4331e8"/>
            <circle cx="591.9" cy="423.43" r=".7" fill="#4331e8"/>
            <circle cx="607.99" cy="423.43" r=".7" fill="#4331e8"/>
            <circle cx="591.9" cy="414.14" r=".7" fill="#4331e8"/>
            <circle cx="599.95" cy="418.78" r=".7" fill="#4331e8"/>
            <circle cx="535.61" cy="446.64" r=".7" fill="#4331e8"/>
          </g>
        </g>
        <path d="M638.47,431.16c0-7.42-5.21-14.15-13.64-19.01-8.43-4.87-20.07-7.88-32.93-7.88-25.72,0-46.57,12.04-46.57,26.89" fill="none" stroke="#666bff" stroke-linecap="round" stroke-linejoin="round"/>
        <g>
          <path d="M569.8,401.8v29.59c0,1.44,.95,2.88,2.84,3.97l22.95,13.25c3.78,2.19,9.98,2.19,13.76,0,1.89-1.09,2.84-2.53,2.84-3.97v-29.59l-42.39-13.25Z" fill="url(#New_Gradient_Swatch_1)"/>
          <path d="M572.64,397.82c3.78-2.19,9.98-2.19,13.76,0l22.95,13.25c1.89,1.09,2.84,2.53,2.84,3.97s-.95,2.88-2.84,3.97c-3.78,2.19-9.98,2.18-13.76,0l-22.95-13.25c-1.89-1.09-2.84-2.53-2.84-3.97s.95-2.88,2.84-3.97Z" fill="#4331e8"/>
          <path d="M611.56,441.43c-.47,.72-1.21,1.39-2.2,1.97-3.78,2.19-9.98,2.18-13.76,0l-22.95-13.25c-1.15-.66-1.94-1.45-2.4-2.29" fill="none" stroke="#666bff" stroke-linecap="round" stroke-linejoin="round"/>
          <path d="M611.56,417.05c-.47,.72-1.21,1.39-2.2,1.97-3.78,2.19-9.98,2.18-13.76,0l-22.95-13.25c-1.15-.66-1.94-1.45-2.4-2.29" fill="none" stroke="#666bff" stroke-linecap="round" stroke-linejoin="round"/>
          <path d="M582.59,403.57v-25.38c0-2.56,.85-4.63,2.54-5.61,3.38-1.95,8.86,1.21,12.25,7.07,1.69,2.93,2.54,5.98,2.54,8.53v25.34" fill="none" stroke="#666bff" stroke-linecap="round" stroke-linejoin="round" stroke-width="5"/>
          <path d="M588.39,422.18c-.92-1.59-2.4-2.45-3.32-1.92-.46,.26-.69,.83-.69,1.52s.23,1.52,.69,2.31c.92,1.59,2.4,2.45,3.32,1.92,.46-.26,.69-.83,.69-1.52s-.23-1.52-.69-2.31Z" fill="#040919"/>
          <line x1="586.77" y1="423.22" x2="586.77" y2="428.48" fill="none" stroke="#040919" stroke-linecap="round" stroke-linejoin="round"/>
        </g>
        <path d="M545.33,431.16c0,7.42,5.21,14.15,13.64,19.01,8.43,4.87,20.07,7.88,32.93,7.88,25.72,0,46.57-12.04,46.57-26.89" fill="none" stroke="#666bff" stroke-linecap="round" stroke-linejoin="round"/>
        <rect x="634.04" y="427.19" width="7.98" height="7.98" fill="#fff"/>
        <rect x="556.45" y="447.29" width="7.98" height="7.98" fill="#fff"/>
        <rect x="556.45" y="406.2" width="7.98" height="7.98" fill="#fff"/>
      </g>
      <g>
        <polygon points="434.62 413.1 494.14 447.46 507.41 439.8 447.9 405.43 434.62 413.1" fill="#040919"/>
        <polygon points="434.62 352.11 494.14 386.48 494.15 263.29 434.63 228.93 434.62 352.11" fill="url(#linear-gradient-4)"/>
        <polyline points="494.14 386.48 434.62 352.11 434.63 228.93" fill="none" stroke="#666bff" stroke-linecap="round" stroke-linejoin="round"/>
        <polygon points="434.62 234.64 494.14 269.01 494.15 263.29 434.63 228.93 434.62 234.64" fill="#d0d3f5"/>
        <polygon points="451.96 344.37 473.01 356.52 473.01 346.93 451.96 334.78 451.96 344.37" fill="#fff"/>
        <polygon points="439.82 270.3 489.44 298.96 489.44 308.51 439.82 279.86 439.82 270.3" fill="#4331e8"/>
        <polygon points="439.82 288.6 489.44 317.25 489.44 326.8 439.82 298.15 439.82 288.6" fill="#4331e8"/>
        <line x1="494.15" y1="263.29" x2="494.14" y2="386.48" fill="none" stroke="#fff" stroke-linecap="round" stroke-linejoin="round"/>
      </g>
      <polygon points="516.64 220.97 523.72 225.06 523.72 216.88 516.64 212.79 516.64 220.97" fill="#fff"/>
      <line x1="520.01" y1="218.84" x2="483.2" y2="240.09" fill="none" stroke="#fff" stroke-linecap="round" stroke-linejoin="round"/>
      <polyline points="254.03 297.95 356.14 239 409.56 269.84 442.62 250.75" fill="none" stroke="#4331e8" stroke-linecap="round" stroke-linejoin="round"/>
      <polyline points="328.61 254.9 356.14 239 409.56 269.84 442.62 250.75" fill="none" stroke="#fff" stroke-linecap="round" stroke-linejoin="round"/>
      <g>
        <polygon points="216.15 424.91 374.66 516.44 387.94 508.78 229.43 417.25 216.15 424.91" fill="#040919"/>
        <polygon points="216.15 363.32 374.66 454.85 374.67 308.01 216.17 216.48 216.15 363.32" fill="url(#linear-gradient-5)"/>
        <polyline points="374.66 454.85 216.15 363.32 216.17 216.48" fill="none" stroke="#666bff" stroke-linecap="round" stroke-linejoin="round"/>
        <polygon points="216.15 223.07 374.66 314.6 374.67 308.01 216.17 216.48 216.15 223.07" fill="#d0d3f5"/>
        <line x1="374.67" y1="308.01" x2="374.66" y2="454.85" fill="none" stroke="#fff" stroke-linecap="round" stroke-linejoin="round"/>
      </g>
      <g>
        <polygon points="276.85 358.8 313.97 380.23 313.98 310.18 276.85 288.74 276.85 358.8" fill="#fff"/>
        <polygon points="317.97 382.54 355.1 403.97 355.1 333.92 317.98 312.48 317.97 382.54" fill="#fff"/>
        <line x1="227.35" y1="348.56" x2="254.81" y2="364.41" fill="none" stroke="#666bff" stroke-linecap="round" stroke-linejoin="round"/>
        <line x1="227.35" y1="352.5" x2="245.19" y2="362.8" fill="none" stroke="#666bff" stroke-linecap="round" stroke-linejoin="round"/>
        <line x1="276.85" y1="372.88" x2="304.31" y2="388.73" fill="none" stroke="#666bff" stroke-linecap="round" stroke-linejoin="round"/>
        <line x1="276.85" y1="376.82" x2="294.69" y2="387.12" fill="none" stroke="#666bff" stroke-linecap="round" stroke-linejoin="round"/>
        <line x1="317.97" y1="396.62" x2="345.44" y2="412.47" fill="none" stroke="#666bff" stroke-linecap="round" stroke-linejoin="round"/>
        <line x1="317.97" y1="400.56" x2="335.81" y2="410.86" fill="none" stroke="#666bff" stroke-linecap="round" stroke-linejoin="round"/>
        <polygon points="235.73 335.05 272.85 356.48 272.85 286.43 235.73 265 235.73 335.05" fill="#4331e8"/>
        <g>
          <line x1="272.54" y1="263.95" x2="261.38" y2="257.5" fill="none" stroke="#666bff" stroke-linecap="round" stroke-linejoin="round"/>
          <line x1="291.53" y1="274.91" x2="280.38" y2="268.47" fill="none" stroke="#666bff" stroke-linecap="round" stroke-linejoin="round"/>
          <line x1="310.53" y1="285.88" x2="299.37" y2="279.43" fill="none" stroke="#666bff" stroke-linecap="round" stroke-linejoin="round"/>
          <line x1="329.52" y1="296.84" x2="318.36" y2="290.4" fill="none" stroke="#666bff" stroke-linecap="round" stroke-linejoin="round"/>
          <line x1="370.03" y1="323.68" x2="362.36" y2="319.24" fill="none" stroke="#666bff" stroke-linecap="round" stroke-linejoin="round"/>
          <line x1="370.03" y1="320.23" x2="362.36" y2="315.8" fill="none" stroke="#666bff" stroke-linecap="round" stroke-linejoin="round"/>
          <line x1="370.03" y1="316.79" x2="362.36" y2="312.36" fill="none" stroke="#666bff" stroke-linecap="round" stroke-linejoin="round"/>
        </g>
        <path d="M221.17,231.53c1.9-1.1,4.98,.68,6.88,3.97,1.9,3.29,1.9,6.85,0,7.94-1.9,1.1-4.98-.68-6.88-3.97-1.9-3.29-1.9-6.85,0-7.94Zm1.69,6.97c.97,1.68,2.54,2.58,3.51,2.02,.97-.56,.97-2.37,0-4.05-.97-1.68-2.54-2.58-3.51-2.02-.97,.56-.97,2.37,0,4.05Z" fill="#fff"/>
      </g>
      <polygon points="227.35 339.89 264.47 361.32 264.47 291.27 227.35 269.83 227.35 339.89" fill="none" stroke="#666bff" stroke-linecap="round" stroke-linejoin="round"/>
      <polyline points="461.73 367.8 461.73 428.67 431.5 446.13 522.4 498.61 552.56 481.19" fill="none" stroke="#4331e8" stroke-linecap="round" stroke-linejoin="round"/>
      <g>
        <polygon points="154.46 294.91 148.65 314.66 150.17 349.84 148.2 358.1 150.21 364.33 151.86 363.71 152.51 356.51 154.45 351.18 155.8 354.42 157.8 352.77 155.57 346.97 158.41 318.28 165.92 300.9 154.46 294.91" fill="#666bff"/>
        <path d="M217.75,323.19h0l13.76-15.23,4.7,4.04-14.44,25.55c-3.32,4.26-8.89,2.04-10.81-.56l-3.63-4.92,10.42-8.88Z" fill="#666bff"/>
        <polygon points="147.22 516.44 216.87 478 208.59 471.62 169.92 475.28 162.05 471.31 178.23 453.53 178.23 453.53 172.39 447.13 96.32 490.31 147.22 516.44" fill="#040919"/>
        <path d="M171.45,440.78l.62,7.81c.77,4.4,6.34,1.51,6.65-1.06s.13-6.75,.13-6.75" fill="#4331e8"/>
        <path d="M172.07,448.59l.08,5.1c.07,4.4,6.24,4.03,7.3,.93l3.73-10.91-4.33-2.93s.18,4.18-.13,6.75-5.88,5.46-6.65,1.06Z" fill="#fff"/>
        <path d="M172.15,453.69c.07,4.4,6.24,4.03,7.3,.93l3.73-10.91" fill="none" stroke="#4331e8" stroke-linecap="round" stroke-linejoin="round"/>
        <g>
          <polygon points="240.17 300.47 243.43 296.12 242.42 295.17 238.15 299.07 234.75 304.8 231.52 307.95 236.22 312 241.23 309.5 244.2 304.77 240.17 300.47" fill="#666bff"/>
          <polyline points="240.17 300.47 244.2 304.77 241.23 309.5 236.22 312 229.79 323.36" fill="none" stroke="#fff" stroke-linecap="round" stroke-linejoin="round"/>
          <path d="M233.8,301.98l.35-3.25s2.06,.15,2.06,2.06v4.23l-4.7,2.93,2.29-5.97Z" fill="#666bff"/>
        </g>
        <path d="M197.4,349.31l-33.83-8.42-.81,5.29c-.11,.74-.1,1.49,.05,2.23l7.75,39.35-3.05,14.93,3.93,38.09h7.41s7.93-60.01,7.93-60.01l2.52,.93,10.86,28.09-1.46,9.21,5.99,43.6,7.58-3.65-3.23-103.97-11.65-5.67Z" fill="#666bff"/>
        <path d="M163.57,340.89l-1.78,19.77,3.52,21.13c1.34,8.04-2.81,18.6-1.47,28.83l2.77,21.18h13.44l5.53-41.88s4.98-.2,5.95,6.57l1.84,12.81v9.82c0,4.92,4.78,11.12,5.58,19.14l1.07,10.62,18.45-2.75-9.41-91.15-45.48-14.09Z" fill="#4331e8"/>
        <path d="M211.1,374.85l-3.77-42.78s8.53-3,10.42-8.88l-11.19-23.5c-1.09-2.29-3.87-5.16-6.08-6.43l-20.31-11.63-14.83,.78c-3.97,.21-8.45,3.39-9.95,7.07l-8.18,20.03s6.71,8.26,13.04,5.37l-.57,47.92,30.03,12.49c5.5,2.29,13.44,3.28,17.96,1.17l3.43-1.6Z" fill="#040919"/>
        <path d="M180.17,281.63l-14.83,.78c-3.97,.21-8.45,3.39-9.95,7.07" fill="none" stroke="#4331e8" stroke-linecap="round" stroke-linejoin="round"/>
        <path d="M217.75,323.19l-11.19-23.5c-1.09-2.29-3.87-5.16-6.08-6.43l-20.31-11.63" fill="none" stroke="#4331e8" stroke-linecap="round" stroke-linejoin="round"/>
        <line x1="211.1" y1="374.85" x2="207.33" y2="332.07" fill="none" stroke="#4331e8" stroke-linecap="round" stroke-linejoin="round"/>
        <path d="M169.35,282.21c1.27,6.21,6.76,10.88,13.35,10.88,3.93,0,7.47-1.66,9.95-4.32l-12.48-7.14-10.82,.58Z" fill="#666bff"/>
        <polygon points="172.09 284.63 173.83 273.38 186.04 274.37 186.02 284.97 189.59 287.61 182.28 288.38 172.09 284.63" fill="#666bff"/>
        <path d="M193.89,265.44c0-6.41-5.2-11.61-11.61-11.61s-11.61,5.2-11.61,11.61,5.2,11.61,11.61,11.61c.39,0,.77-.02,1.15-.06l-1.64,2.95,5.79,1.09c2.22,.42,4.3-1.07,4.63-3.3l1.57-10.66h-.01c.08-.53,.13-1.08,.13-1.63Z" fill="#666bff"/>
        <path d="M193.36,251.96l-7.67-3.85-2.15,5.03-.94-.17c-4.61-.85-9.3,.96-12.15,4.69-2.84,3.72-3.36,8.73-1.32,12.95l3.4,7.06,3.17,1.33c1.78,.75,3.59-.18,4.04-2.05l1.36-5.79,1.94-4.43,2.32-.88c1.3-.49,2.32-2.03,2.27-3.42l-.04-1.11c-.05-1.39,.96-2.96,2.25-3.49l.58-.24c1.28-.53,2.48-2.09,2.66-3.47l.28-2.15Z" fill="#040919"/>
        <path d="M163.42,257.15c.39-1.18,1.66-2.5,2.84-2.92l7.14-2.58c8.73-3.15,15.03,4.07,15.03,4.07-2.59,11.34-15.89,21.94-15.89,21.94,0,0-6.2-1.9-6.99-6.51l-.84-4.88s-3.96-.98-2.74-4.7l1.45-4.43Z" fill="#bcc0e5"/>
        <path d="M167.59,268.34s4.82-2.14,6.83-5.8" fill="none" stroke="#666bff" stroke-linecap="round" stroke-linejoin="round"/>
        <line x1="164.71" y1="266.28" x2="167.59" y2="265.44" fill="none" stroke="#666bff" stroke-linecap="round" stroke-linejoin="round"/>
        <path d="M185.15,269.15c0,1.58-1.28,2.87-2.87,2.87-1.58,0-2.87-1.28-2.87-2.87s1.28-2.87,2.87-2.87c1.58,0,2.87,1.28,2.87,2.87Z" fill="#666bff"/>
        <polyline points="195.39 323.11 202.9 333.28 207.33 332.07" fill="none" stroke="#4331e8" stroke-linecap="round" stroke-linejoin="round"/>
        <path d="M204.39,460.32l1.11,9.35c1.08,.1,2.29,.37,3.21,1.06,2.07,1.55,2.95-.26,3.62-2.69,.67-2.43,1.7-5.43,1.7-5.43h.02c-.93-.98-1.58-2.23-1.76-3.65" fill="#4331e8"/>
        <path d="M205.81,473.91c.15,3.54,5,5.4,8.7,4l14.58-5.51c2.86-1.08,4.81-6.84,.09-7.13l-10.89-.68c-1.67-.1-3.16-.85-4.25-1.99h-.02s-1.03,3-1.7,5.44c-.67,2.43-1.55,4.24-3.62,2.69-.91-.68-2.13-.96-3.21-1.06l.16,.46,.16,3.78Z" fill="#fff"/>
        <path d="M205.81,473.91c.15,3.54,5,5.4,8.7,4l14.58-5.51c2.86-1.08,4.81-6.84,.09-7.13" fill="none" stroke="#4331e8" stroke-linecap="round" stroke-linejoin="round"/>
        <path d="M193.36,409.3s9.27,3.9,12.44,5.18c3.17,1.28,.12,5.12-3.05,3.66s-5.59,6.1-5.59,6.1l-3.8-14.94Z" fill="#040919"/>
        <path d="M166.42,400.95l12.44,6.58-10.36-1.22-1.89,6.83s-1.4-7.19-.18-12.19Z" fill="#040919"/>
        <line x1="160.25" y1="314.87" x2="160.25" y2="307.95" fill="none" stroke="#4331e8" stroke-linecap="round" stroke-linejoin="round"/>
        <path d="M195.11,332.92l4.18,5.36c3.52,4.52-2,8.56,1.1,13.09l3.07,4.48" fill="none" stroke="#4331e8" stroke-linecap="round" stroke-linejoin="round"/>
        <path d="M205.81,473.91c.15,3.54,5,5.4,8.7,4l5.36-2.03h0l-14.13-3.72,.07,1.74Z" fill="#4331e8" stroke="#4331e8" stroke-linecap="round" stroke-linejoin="round"/>
        <path d="M180.28,452.19l-8.15,.32,.02,1.18c.07,4.4,6.24,4.03,7.3,.93l.83-2.43Z" fill="#4331e8" stroke="#4331e8" stroke-linecap="round" stroke-linejoin="round"/>
        <line x1="217.94" y1="464.65" x2="220.62" y2="467.58" fill="none" stroke="#4331e8" stroke-linecap="round" stroke-linejoin="round"/>
        <line x1="221.66" y1="464.8" x2="224.34" y2="467.73" fill="none" stroke="#4331e8" stroke-linecap="round" stroke-linejoin="round"/>
        <polygon points="163.2 303.5 163.2 315.39 186.96 326.24 186.96 314.32 163.2 303.5" fill="#fff"/>
        <polygon points="208.24 323.11 209.92 326.27 214.12 322.49 212.44 319.32 208.24 323.11" fill="#fff"/>
      </g>
      <line x1="434.63" y1="329.77" x2="451.96" y2="339.78" fill="none" stroke="#fff" stroke-linecap="round" stroke-linejoin="round"/>
      <line x1="439.82" y1="270.3" x2="439.82" y2="279.86" fill="none" stroke="#666bff" stroke-linecap="round" stroke-linejoin="round"/>
      <line x1="439.82" y1="288.6" x2="439.82" y2="298.15" fill="none" stroke="#666bff" stroke-linecap="round" stroke-linejoin="round"/>
      <polygon points="439.08 252.67 446.16 256.76 446.16 248.58 439.08 244.49 439.08 252.67" fill="#fff"/>
      <g>
        <polyline points="482.41 219.14 482.42 114.54 429.3 83.87" fill="none" stroke="#fff" stroke-miterlimit="10"/>
        <polyline points="429.3 83.87 429.29 188.47 482.41 219.14" fill="none" stroke="#666bff" stroke-linecap="round" stroke-linejoin="round"/>
        <polygon points="434.82 178.35 453 188.86 453.01 180.57 434.82 170.06 434.82 178.35" fill="#fff"/>
        <g>
          <path d="M439.48,127.19v2l-1.13-.65v-1.98c-1-.69-1.77-1.54-2.32-2.56-.54-1.02-.84-2.2-.9-3.51l1.4,.81c.06,.79,.23,1.46,.52,2.02,.29,.56,.72,1.06,1.29,1.5v-4.79l-.17-.14c-.94-.77-1.64-1.59-2.11-2.46s-.71-1.85-.71-2.94,.26-1.9,.79-2.31c.52-.4,1.26-.39,2.21,.04v-1.84l1.13,.65v1.82c.91,.63,1.63,1.44,2.16,2.41,.52,.98,.81,2.09,.87,3.33l-1.4-.81c-.04-.71-.2-1.32-.46-1.85-.26-.52-.65-.98-1.16-1.36v4.5l.41,.33c.92,.76,1.62,1.59,2.1,2.49,.47,.9,.71,1.91,.71,3.03,0,1.21-.28,2.01-.84,2.4-.56,.39-1.35,.35-2.37-.12Zm-1.13-9.06v-4.22c-1.03-.41-1.54,0-1.54,1.25,0,.59,.12,1.12,.37,1.59,.25,.47,.64,.93,1.17,1.39Zm2.48,4.34c-.27-.49-.72-1-1.35-1.53v4.54c1.17,.53,1.76,.1,1.76-1.28,0-.67-.14-1.24-.41-1.73Z" fill="#fff"/>
          <path d="M444.15,119.21v-2.2l2.48-.7,1.54,.89v15.67l-1.54-.89v-13.42l-2.48,.65Z" fill="#fff"/>
          <path d="M454.77,128.45c.44-.38,.75-.76,.92-1.14,.17-.38,.26-.84,.26-1.38v-.27c0-.76-.18-1.45-.54-2.08-.36-.63-.86-1.13-1.5-1.5-.63-.36-1.12-.43-1.46-.21-.34,.23-.52,.75-.52,1.56v.25l-1.49-.86v-.41c0-1.27,.32-2.1,.95-2.47,.63-.38,1.48-.26,2.55,.36,.72,.42,1.35,.95,1.88,1.61s.95,1.38,1.23,2.18c.29,.79,.43,1.6,.43,2.42v.34c0,.77-.12,1.42-.35,1.93-.24,.51-.63,1.01-1.18,1.47l-3.47,3.29,5.1,2.95v1.82l-7.13-4.12v-1.66l4.31-4.07Z" fill="#fff"/>
          <path d="M459.5,133.91v-4.79c0-1.85,.3-3.07,.91-3.66,.61-.59,1.51-.55,2.7,.14s2.1,1.68,2.71,2.99c.61,1.3,.92,2.87,.92,4.72v4.79c0,1.89-.31,3.14-.92,3.75-.61,.61-1.52,.57-2.71-.12-1.19-.69-2.1-1.69-2.7-3-.61-1.31-.91-2.91-.91-4.81Zm5.71,3.14v-4.36c0-1.41-.17-2.53-.5-3.36-.33-.84-.86-1.46-1.6-1.89-.72-.42-1.25-.4-1.58,.05-.33,.45-.5,1.38-.5,2.79v4.36c0,1.41,.17,2.53,.5,3.36,.33,.83,.86,1.46,1.58,1.88,.74,.43,1.28,.42,1.61-.04,.33-.45,.49-1.39,.49-2.79Z" fill="#fff"/>
        </g>
        <line x1="434.82" y1="136.33" x2="462.28" y2="152.19" fill="none" stroke="#666bff" stroke-linecap="round" stroke-linejoin="round"/>
        <line x1="434.82" y1="140.28" x2="452.65" y2="150.57" fill="none" stroke="#666bff" stroke-linecap="round" stroke-linejoin="round"/>
      </g>
    </g>
  </g>
</svg>