<?xml version="1.0" encoding="UTF-8"?>
<svg xmlns="http://www.w3.org/2000/svg" width="800" height="600" xmlns:xlink="http://www.w3.org/1999/xlink" viewBox="0 0 800 600">
  <defs>
    <linearGradient id="linear-gradient" x1="155.74" y1="163.61" x2="355.34" y2="163.61" gradientUnits="userSpaceOnUse">
      <stop offset="0" stop-color="#4331e8"/>
      <stop offset=".05" stop-color="#4331e8" stop-opacity=".83"/>
      <stop offset=".13" stop-color="#4331e8" stop-opacity=".58"/>
      <stop offset=".2" stop-color="#4331e8" stop-opacity=".37"/>
      <stop offset=".28" stop-color="#4331e8" stop-opacity=".21"/>
      <stop offset=".34" stop-color="#4331e8" stop-opacity=".09"/>
      <stop offset=".4" stop-color="#4331e8" stop-opacity=".02"/>
      <stop offset=".45" stop-color="#4331e8" stop-opacity="0"/>
    </linearGradient>
    <linearGradient id="New_Gradient_Swatch_1" data-name="New Gradient Swatch 1" x1="490.8" y1="344.59" x2="477.5" y2="318.99" gradientUnits="userSpaceOnUse">
      <stop offset="0" stop-color="#040919"/>
      <stop offset=".05" stop-color="#080c28"/>
      <stop offset=".24" stop-color="#1a1762"/>
      <stop offset=".42" stop-color="#282092"/>
      <stop offset=".59" stop-color="#3427b7"/>
      <stop offset=".75" stop-color="#3c2cd2"/>
      <stop offset=".89" stop-color="#412fe2"/>
      <stop offset="1" stop-color="#4331e8"/>
    </linearGradient>
    <linearGradient id="linear-gradient-2" x1="382.46" y1="238.2" x2="397.87" y2="265.53" gradientUnits="userSpaceOnUse">
      <stop offset="0" stop-color="#fff"/>
      <stop offset=".03" stop-color="#fbfbfd"/>
      <stop offset=".24" stop-color="#ebecf7"/>
      <stop offset=".4" stop-color="#e6e7f5"/>
    </linearGradient>
    <linearGradient id="New_Gradient_Swatch_1-2" data-name="New Gradient Swatch 1" x1="181.6" y1="424.64" x2="237.48" y2="424.64" xlink:href="#New_Gradient_Swatch_1"/>
    <linearGradient id="New_Gradient_Swatch_1-3" data-name="New Gradient Swatch 1" x1="201.75" y1="290.36" x2="193.93" y2="278.05" xlink:href="#New_Gradient_Swatch_1"/>
    <linearGradient id="linear-gradient-3" x1="286.15" y1="485.97" x2="437.43" y2="485.97" gradientUnits="userSpaceOnUse">
      <stop offset="0" stop-color="#4331e8"/>
      <stop offset=".05" stop-color="#4331e8" stop-opacity=".83"/>
      <stop offset=".13" stop-color="#4331e8" stop-opacity=".58"/>
      <stop offset=".2" stop-color="#4331e8" stop-opacity=".37"/>
      <stop offset=".28" stop-color="#4331e8" stop-opacity=".21"/>
      <stop offset=".34" stop-color="#4331e8" stop-opacity=".09"/>
      <stop offset=".4" stop-color="#4331e8" stop-opacity=".02"/>
      <stop offset=".45" stop-color="#4331e8" stop-opacity="0"/>
    </linearGradient>
  </defs>
  <g id="BG">
    <rect width="800" height="600" fill="#040919"/>
  </g>
  <g id="Dark">
    <g>
      <g>
        <g>
          <polygon points="203.38 221.23 115.37 170.42 103.6 177.22 203.38 234.83 303.18 177.21 291.4 170.41 203.38 221.23" fill="#221380"/>
          <polygon points="103.58 163.61 203.38 221.23 303.18 163.61 203.38 105.99 103.58 163.61" fill="url(#linear-gradient)"/>
          <line x1="203.38" y1="221.23" x2="303.18" y2="163.61" fill="none" stroke="#666bff" stroke-miterlimit="10"/>
          <line x1="253.84" y1="205.63" x2="242.12" y2="198.86" fill="none" stroke="#fff" stroke-miterlimit="10"/>
          <g>
            <circle cx="179.25" cy="158.97" r=".7" fill="#4331e8"/>
            <circle cx="187.3" cy="163.61" r=".7" fill="#4331e8"/>
            <circle cx="179.25" cy="168.25" r=".7" fill="#4331e8"/>
            <circle cx="195.34" cy="168.25" r=".7" fill="#4331e8"/>
            <circle cx="187.3" cy="172.89" r=".7" fill="#4331e8"/>
            <circle cx="179.25" cy="177.54" r=".7" fill="#4331e8"/>
            <circle cx="203.38" cy="172.89" r=".7" fill="#4331e8"/>
            <circle cx="195.34" cy="177.54" r=".7" fill="#4331e8"/>
            <circle cx="187.3" cy="182.18" r=".7" fill="#4331e8"/>
            <circle cx="179.25" cy="186.82" r=".7" fill="#4331e8"/>
            <circle cx="203.38" cy="182.18" r=".7" fill="#4331e8"/>
            <circle cx="195.34" cy="186.82" r=".7" fill="#4331e8"/>
            <circle cx="211.42" cy="177.54" r=".7" fill="#4331e8"/>
            <circle cx="187.3" cy="191.46" r=".7" fill="#4331e8"/>
            <circle cx="179.25" cy="196.11" r=".7" fill="#4331e8"/>
            <circle cx="171.21" cy="163.61" r=".7" fill="#4331e8"/>
            <circle cx="195.34" cy="149.68" r=".7" fill="#4331e8"/>
            <circle cx="203.38" cy="154.32" r=".7" fill="#4331e8"/>
            <circle cx="195.34" cy="158.97" r=".7" fill="#4331e8"/>
            <circle cx="211.42" cy="158.97" r=".7" fill="#4331e8"/>
            <circle cx="203.38" cy="163.61" r=".7" fill="#4331e8"/>
            <circle cx="219.46" cy="163.61" r=".7" fill="#4331e8"/>
            <circle cx="211.42" cy="168.25" r=".7" fill="#4331e8"/>
            <circle cx="219.46" cy="172.89" r=".7" fill="#4331e8"/>
            <circle cx="227.5" cy="168.25" r=".7" fill="#4331e8"/>
            <circle cx="235.54" cy="163.61" r=".7" fill="#4331e8"/>
            <circle cx="243.59" cy="158.97" r=".7" fill="#4331e8"/>
            <circle cx="187.3" cy="154.32" r=".7" fill="#4331e8"/>
            <circle cx="211.42" cy="149.68" r=".7" fill="#4331e8"/>
            <circle cx="219.46" cy="154.32" r=".7" fill="#4331e8"/>
            <circle cx="227.5" cy="158.97" r=".7" fill="#4331e8"/>
            <circle cx="203.38" cy="145.04" r=".7" fill="#4331e8"/>
            <circle cx="163.17" cy="168.25" r=".7" fill="#4331e8"/>
            <circle cx="171.21" cy="172.89" r=".7" fill="#4331e8"/>
            <circle cx="155.13" cy="172.89" r=".7" fill="#4331e8"/>
            <circle cx="163.17" cy="177.54" r=".7" fill="#4331e8"/>
            <circle cx="171.21" cy="182.18" r=".7" fill="#4331e8"/>
            <circle cx="155.13" cy="182.18" r=".7" fill="#4331e8"/>
            <circle cx="163.17" cy="186.82" r=".7" fill="#4331e8"/>
            <circle cx="147.09" cy="177.54" r=".7" fill="#4331e8"/>
            <circle cx="171.21" cy="191.46" r=".7" fill="#4331e8"/>
            <circle cx="155.13" cy="163.61" r=".7" fill="#4331e8"/>
            <circle cx="147.09" cy="168.25" r=".7" fill="#4331e8"/>
            <circle cx="171.21" cy="154.32" r=".7" fill="#4331e8"/>
            <circle cx="163.17" cy="158.97" r=".7" fill="#4331e8"/>
            <circle cx="179.25" cy="149.68" r=".7" fill="#4331e8"/>
            <circle cx="139.05" cy="172.89" r=".7" fill="#4331e8"/>
            <circle cx="155.13" cy="145.04" r=".7" fill="#4331e8"/>
            <circle cx="147.09" cy="149.68" r=".7" fill="#4331e8"/>
            <circle cx="139.05" cy="154.32" r=".7" fill="#4331e8"/>
            <circle cx="131.01" cy="158.97" r=".7" fill="#4331e8"/>
            <circle cx="155.13" cy="154.32" r=".7" fill="#4331e8"/>
            <circle cx="147.09" cy="158.97" r=".7" fill="#4331e8"/>
            <circle cx="163.17" cy="149.68" r=".7" fill="#4331e8"/>
            <circle cx="139.05" cy="163.61" r=".7" fill="#4331e8"/>
            <circle cx="131.01" cy="168.25" r=".7" fill="#4331e8"/>
            <circle cx="187.3" cy="145.04" r=".7" fill="#4331e8"/>
            <circle cx="171.21" cy="135.75" r=".7" fill="#4331e8"/>
            <circle cx="163.17" cy="140.39" r=".7" fill="#4331e8"/>
            <circle cx="171.21" cy="145.04" r=".7" fill="#4331e8"/>
            <circle cx="179.25" cy="140.39" r=".7" fill="#4331e8"/>
            <circle cx="195.34" cy="140.39" r=".7" fill="#4331e8"/>
            <circle cx="179.25" cy="131.11" r=".7" fill="#4331e8"/>
            <circle cx="187.3" cy="135.75" r=".7" fill="#4331e8"/>
            <circle cx="219.46" cy="135.75" r=".7" fill="#4331e8"/>
            <circle cx="227.5" cy="140.39" r=".7" fill="#4331e8"/>
            <circle cx="219.46" cy="145.04" r=".7" fill="#4331e8"/>
            <circle cx="235.54" cy="145.04" r=".7" fill="#4331e8"/>
            <circle cx="227.5" cy="149.68" r=".7" fill="#4331e8"/>
            <circle cx="243.59" cy="149.68" r=".7" fill="#4331e8"/>
            <circle cx="235.54" cy="154.32" r=".7" fill="#4331e8"/>
            <circle cx="251.63" cy="154.32" r=".7" fill="#4331e8"/>
            <circle cx="259.67" cy="149.68" r=".7" fill="#4331e8"/>
            <circle cx="211.42" cy="140.39" r=".7" fill="#4331e8"/>
            <circle cx="235.54" cy="135.75" r=".7" fill="#4331e8"/>
            <circle cx="243.59" cy="140.39" r=".7" fill="#4331e8"/>
            <circle cx="251.63" cy="145.04" r=".7" fill="#4331e8"/>
            <circle cx="219.46" cy="182.18" r=".7" fill="#4331e8"/>
            <circle cx="211.42" cy="186.82" r=".7" fill="#4331e8"/>
            <circle cx="203.38" cy="191.46" r=".7" fill="#4331e8"/>
            <circle cx="227.5" cy="186.82" r=".7" fill="#4331e8"/>
            <circle cx="219.46" cy="191.46" r=".7" fill="#4331e8"/>
            <circle cx="211.42" cy="196.11" r=".7" fill="#4331e8"/>
            <circle cx="203.38" cy="200.75" r=".7" fill="#4331e8"/>
            <circle cx="227.5" cy="196.11" r=".7" fill="#4331e8"/>
            <circle cx="219.46" cy="200.75" r=".7" fill="#4331e8"/>
            <circle cx="235.54" cy="191.46" r=".7" fill="#4331e8"/>
            <circle cx="211.42" cy="205.39" r=".7" fill="#4331e8"/>
            <circle cx="203.38" cy="210.04" r=".7" fill="#4331e8"/>
            <circle cx="235.54" cy="172.89" r=".7" fill="#4331e8"/>
            <circle cx="227.5" cy="177.54" r=".7" fill="#4331e8"/>
            <circle cx="243.59" cy="177.54" r=".7" fill="#4331e8"/>
            <circle cx="235.54" cy="182.18" r=".7" fill="#4331e8"/>
            <circle cx="243.59" cy="186.82" r=".7" fill="#4331e8"/>
            <circle cx="251.63" cy="182.18" r=".7" fill="#4331e8"/>
            <circle cx="259.67" cy="177.54" r=".7" fill="#4331e8"/>
            <circle cx="267.71" cy="172.89" r=".7" fill="#4331e8"/>
            <circle cx="235.54" cy="163.61" r=".7" fill="#4331e8"/>
            <circle cx="243.59" cy="168.25" r=".7" fill="#4331e8"/>
            <circle cx="251.63" cy="172.89" r=".7" fill="#4331e8"/>
            <circle cx="195.34" cy="196.11" r=".7" fill="#4331e8"/>
            <circle cx="187.3" cy="200.75" r=".7" fill="#4331e8"/>
            <circle cx="195.34" cy="205.39" r=".7" fill="#4331e8"/>
            <circle cx="259.67" cy="158.97" r=".7" fill="#4331e8"/>
            <circle cx="251.63" cy="163.61" r=".7" fill="#4331e8"/>
            <circle cx="267.71" cy="163.61" r=".7" fill="#4331e8"/>
            <circle cx="259.67" cy="168.25" r=".7" fill="#4331e8"/>
            <circle cx="275.75" cy="168.25" r=".7" fill="#4331e8"/>
            <circle cx="283.79" cy="163.61" r=".7" fill="#4331e8"/>
            <circle cx="267.71" cy="154.32" r=".7" fill="#4331e8"/>
            <circle cx="275.75" cy="158.97" r=".7" fill="#4331e8"/>
            <circle cx="227.5" cy="131.11" r=".7" fill="#4331e8"/>
            <circle cx="203.38" cy="135.75" r=".7" fill="#4331e8"/>
            <circle cx="211.42" cy="131.11" r=".7" fill="#4331e8"/>
            <circle cx="195.34" cy="121.82" r=".7" fill="#4331e8"/>
            <circle cx="187.3" cy="126.47" r=".7" fill="#4331e8"/>
            <circle cx="195.34" cy="131.11" r=".7" fill="#4331e8"/>
            <circle cx="203.38" cy="126.47" r=".7" fill="#4331e8"/>
            <circle cx="219.46" cy="126.47" r=".7" fill="#4331e8"/>
            <circle cx="203.38" cy="117.18" r=".7" fill="#4331e8"/>
            <circle cx="211.42" cy="121.82" r=".7" fill="#4331e8"/>
            <circle cx="122.96" cy="163.61" r=".7" fill="#4331e8"/>
          </g>
          <line x1="103.58" y1="163.61" x2="203.38" y2="221.23" fill="none" stroke="#666bff" stroke-miterlimit="10"/>
        </g>
        <g>
          <path d="M165.8,184.14c-3.09-1.79-3.1-4.69-.03-6.48,3.06-1.79,8.05-1.79,11.13,0l8.1,4.67c3.09,1.79,3.1,4.69,.04,6.48-3.07,1.79-8.05,1.79-11.14,0l-8.1-4.67Z" fill="#040919"/>
          <path d="M186.73,172.06c-3.09-1.79-3.1-4.69-.03-6.48,3.06-1.79,8.05-1.79,11.13,0l14.29,8.25c3.09,1.79,3.1,4.69,.04,6.48-3.07,1.79-8.05,1.79-11.14,0l-14.29-8.25Z" fill="#040919"/>
          <path d="M227.73,148.38c-3.09-1.79-3.1-4.69-.03-6.48,3.06-1.79,8.05-1.79,11.13,0l20.84,12.03c3.09,1.79,3.1,4.69,.04,6.48-3.07,1.79-8.05,1.79-11.14,0l-20.84-12.03Z" fill="#040919"/>
          <path d="M207.25,160.21c-3.09-1.79-3.1-4.69-.03-6.48,3.06-1.79,8.05-1.79,11.13,0l10.63,6.14c3.09,1.79,3.1,4.69,.04,6.48-3.07,1.79-8.05,1.79-11.14,0l-10.63-6.14Z" fill="#040919"/>
          <g>
            <path d="M186.77,124.19c3.09-1.79,8.07-1.79,11.13,0,1.53,.89,2.3,2.07,2.29,3.24h0v41.39h0c0,1.17-.78,2.34-2.32,3.24-3.09,1.79-8.07,1.79-11.14,0-1.53-.89-2.29-2.07-2.29-3.24v-41.39h0c0-1.17,.78-2.34,2.32-3.24Z" fill="#040919"/>
            <path d="M197.9,124.19c3.09,1.79,3.1,4.69,.04,6.48-3.07,1.79-8.05,1.79-11.14,0-3.09-1.79-3.1-4.69-.03-6.48,3.06-1.79,8.05-1.79,11.13,0Z" fill="#666bff"/>
            <path d="M184.48,127.43c0,1.17,.78,2.34,2.32,3.24,1.53,.89,3.52,1.33,5.52,1.34v41.39c-2.02,0-4.05-.44-5.59-1.34-1.53-.89-2.29-2.07-2.29-3.24v-41.39h.03Z" fill="#4331e8"/>
          </g>
          <g>
            <path d="M227.77,85.47c3.09-1.79,8.07-1.79,11.13,0,1.53,.89,2.3,2.07,2.29,3.24h0v56.43h0c0,1.17-.78,2.34-2.32,3.24-3.09,1.79-8.07,1.79-11.14,0-1.53-.89-2.29-2.07-2.29-3.24v-56.43h0c0-1.17,.78-2.34,2.32-3.24Z" fill="#040919"/>
            <path d="M238.9,85.47c1.55,.9,2.32,2.08,2.32,3.25s-.76,2.33-2.29,3.22c-3.07,1.79-8.05,1.79-11.14,0-1.55-.9-2.32-2.08-2.32-3.25,0-1.17,.76-2.33,2.29-3.23,3.06-1.79,8.05-1.79,11.13,0Z" fill="#666bff"/>
            <path d="M225.48,88.71c0,1.17,.78,2.34,2.32,3.24,1.53,.89,3.52,1.33,5.52,1.34v56.44c-2.02,0-4.05-.44-5.59-1.34-1.53-.89-2.29-2.07-2.29-3.24v-56.43h.03Z" fill="#4331e8"/>
          </g>
          <g>
            <path d="M227.77,52.28c3.09-1.79,8.07-1.79,11.13,0,1.53,.89,2.3,2.07,2.29,3.24h0v16.13h0c0,1.17-.78,2.34-2.32,3.24-3.09,1.79-8.07,1.79-11.14,0-1.53-.89-2.29-2.07-2.29-3.24v-16.13h0c0-1.17,.78-2.34,2.32-3.24Z" fill="none" stroke="#fff" stroke-linecap="round" stroke-linejoin="round"/>
            <path d="M238.9,52.28c3.09,1.79,3.1,4.69,.04,6.48-3.07,1.79-8.05,1.79-11.14,0-3.09-1.79-3.1-4.69-.03-6.48,3.06-1.79,8.05-1.79,11.13,0Z" fill="none" stroke="#fff" stroke-linecap="round" stroke-linejoin="round"/>
          </g>
          <g>
            <path d="M186.77,74.33c3.09-1.79,8.07-1.79,11.13,0,1.53,.89,2.3,2.07,2.29,3.24h0v36.74h0c0,1.17-.78,2.34-2.32,3.24-3.09,1.79-8.07,1.79-11.14,0-1.53-.89-2.29-2.07-2.29-3.24v-36.74h0c0-1.17,.78-2.34,2.32-3.24Z" fill="none" stroke="#666bff" stroke-linecap="round" stroke-linejoin="round"/>
            <path d="M197.9,74.33c3.09,1.79,3.1,4.69,.04,6.48-3.07,1.79-8.05,1.79-11.14,0-3.09-1.79-3.1-4.69-.03-6.48s8.05-1.79,11.13,0Z" fill="none" stroke="#666bff" stroke-linecap="round" stroke-linejoin="round"/>
          </g>
          <g>
            <path d="M207.28,128.22c3.09-1.79,8.07-1.79,11.13,0,1.53,.89,2.3,2.07,2.29,3.24h0v25.51h0c0,1.17-.78,2.34-2.32,3.24-3.09,1.79-8.07,1.79-11.14,0-1.53-.89-2.29-2.07-2.29-3.24v-25.51h0c0-1.17,.78-2.34,2.32-3.24Z" fill="#040919"/>
            <path d="M218.42,128.22c3.09,1.79,3.1,4.69,.04,6.48-3.07,1.79-8.05,1.79-11.14,0-3.09-1.79-3.1-4.69-.03-6.48,3.06-1.79,8.05-1.79,11.13,0Z" fill="#666bff"/>
            <path d="M204.99,131.46c0,1.17,.78,2.34,2.32,3.24,1.53,.89,3.52,1.33,5.52,1.34v25.51c-2.02,0-4.05-.44-5.59-1.34-1.53-.89-2.29-2.07-2.29-3.24v-25.51h.03Z" fill="#4331e8"/>
          </g>
          <g>
            <path d="M207.28,102.71c3.09-1.79,8.07-1.79,11.13,0,1.53,.89,2.3,2.07,2.29,3.24h0v25.51h0c0,1.17-.78,2.34-2.32,3.24-3.09,1.79-8.07,1.79-11.14,0-1.53-.89-2.29-2.07-2.29-3.24v-25.51h0c0-1.17,.78-2.34,2.32-3.24Z" fill="none" stroke="#666bff" stroke-linecap="round" stroke-linejoin="round"/>
            <path d="M218.42,102.71c3.09,1.79,3.1,4.69,.04,6.48-3.07,1.79-8.05,1.79-11.14,0-3.09-1.79-3.1-4.69-.03-6.48,3.06-1.79,8.05-1.79,11.13,0Z" fill="none" stroke="#666bff" stroke-linecap="round" stroke-linejoin="round"/>
          </g>
          <g>
            <path d="M165.84,169.2c3.09-1.79,8.07-1.79,11.13,0,1.53,.89,2.3,2.07,2.29,3.24h0v8.46h0c0,1.17-.78,2.34-2.32,3.24-3.09,1.79-8.07,1.79-11.14,0-1.53-.89-2.29-2.07-2.29-3.24v-8.46h0c0-1.17,.78-2.34,2.32-3.24Z" fill="#040919"/>
            <path d="M176.98,169.2c3.09,1.79,3.1,4.69,.04,6.48-3.07,1.79-8.05,1.79-11.14,0-3.09-1.79-3.1-4.69-.03-6.48,3.06-1.79,8.05-1.79,11.13,0Z" fill="#666bff"/>
            <path d="M163.55,172.44c0,1.17,.78,2.34,2.32,3.24,1.53,.89,3.52,1.33,5.52,1.34v8.46c-2.02,0-4.05-.44-5.59-1.34-1.53-.89-2.29-2.07-2.29-3.24v-8.46h.03Z" fill="#4331e8"/>
          </g>
        </g>
      </g>
      <polyline points="253.84 205.63 290.35 226.71 290.35 239.47 396.77 300.91" fill="none" stroke="#666bff" stroke-miterlimit="10"/>
      <g>
        <line x1="503.3" y1="143.72" x2="530.27" y2="128.15" fill="none" stroke="#fff" stroke-linecap="round" stroke-linejoin="round"/>
        <line x1="521.43" y1="145.54" x2="579.57" y2="111.98" fill="none" stroke="#fff" stroke-linecap="round" stroke-linejoin="round"/>
        <rect x="526.28" y="124.16" width="7.98" height="7.98" fill="#fff"/>
        <rect x="575.58" y="107.98" width="7.98" height="7.98" fill="#fff"/>
        <rect x="542.52" y="144.76" width="7.98" height="7.98" fill="#fff"/>
      </g>
      <g>
        <polygon points="509.25 162.09 557.79 190.12 557.79 132.07 509.25 104.04 509.25 162.09" fill="none" stroke="#666bff" stroke-linecap="round" stroke-linejoin="round"/>
        <polygon points="482.27 119.61 530.81 147.64 557.79 132.07 509.25 104.04 482.27 119.61" fill="none" stroke="#666bff" stroke-linecap="round" stroke-linejoin="round"/>
      </g>
      <g>
        <polygon points="441.87 257.59 619.54 360.18 619.56 195.6 441.88 93 441.87 257.59" fill="#040919"/>
        <g>
          <line x1="566.83" y1="305.01" x2="597.61" y2="322.78" fill="none" stroke="#666bff" stroke-linecap="round" stroke-linejoin="round"/>
          <line x1="566.83" y1="309.43" x2="592.74" y2="324.39" fill="none" stroke="#666bff" stroke-linecap="round" stroke-linejoin="round"/>
          <g>
            <line x1="570.08" y1="183.69" x2="562.28" y2="179.19" fill="none" stroke="#666bff" stroke-linecap="round" stroke-linejoin="round"/>
            <line x1="583.36" y1="191.36" x2="575.56" y2="186.85" fill="none" stroke="#666bff" stroke-linecap="round" stroke-linejoin="round"/>
            <line x1="596.64" y1="199.02" x2="588.84" y2="194.52" fill="none" stroke="#666bff" stroke-linecap="round" stroke-linejoin="round"/>
            <path d="M606.6,200.63c1.98-1.14,5.2,.71,7.18,4.15,1.98,3.43,1.98,7.15,0,8.29-1.98,1.14-5.2-.71-7.18-4.15s-1.98-7.15,0-8.29Z" fill="none" stroke="#666bff" stroke-linecap="round" stroke-linejoin="round"/>
            <polygon points="445.51 107 445.51 115.36 452.88 119.61 452.88 111.25 445.51 107" fill="#4331e8"/>
          </g>
        </g>
        <line x1="441.87" y1="257.59" x2="619.54" y2="360.18" fill="none" stroke="#fff" stroke-linecap="round" stroke-linejoin="round"/>
        <polygon points="441.87 100.38 619.54 202.98 619.56 195.6 441.88 93 441.87 100.38" fill="#4331e8"/>
        <line x1="619.56" y1="195.6" x2="619.54" y2="360.18" fill="none" stroke="#666bff" stroke-linecap="round" stroke-linejoin="round"/>
      </g>
      <polygon points="519.88 268.82 597.61 313.7 597.61 235.18 519.89 190.3 519.88 268.82" fill="#4331e8"/>
      <g>
        <polygon points="464.39 187.99 512.93 216.02 512.94 157.96 464.39 129.93 464.39 187.99" fill="none" stroke="#666bff" stroke-linecap="round" stroke-linejoin="round"/>
        <polygon points="437.42 145.51 485.96 173.54 512.94 157.96 464.39 129.93 437.42 145.51" fill="none" stroke="#666bff" stroke-linecap="round" stroke-linejoin="round"/>
      </g>
      <rect x="471.96" y="143.65" width="7.98" height="7.98" fill="#040919"/>
      <polygon points="325.08 359.26 502.75 461.85 635.41 385.26 457.74 282.66 325.08 359.26" fill="#221380"/>
      <g>
        <polygon points="402.94 280.06 580.61 382.66 580.63 218.07 402.96 115.47 402.94 280.06" fill="#d0d3f5"/>
        <g>
          <line x1="531.15" y1="206.17" x2="523.35" y2="201.66" fill="none" stroke="#666bff" stroke-linecap="round" stroke-linejoin="round"/>
          <line x1="544.43" y1="213.83" x2="536.63" y2="209.33" fill="none" stroke="#666bff" stroke-linecap="round" stroke-linejoin="round"/>
          <line x1="557.71" y1="221.5" x2="549.91" y2="216.99" fill="none" stroke="#666bff" stroke-linecap="round" stroke-linejoin="round"/>
          <path d="M567.67,223.11c1.98-1.14,5.2,.71,7.18,4.15,1.98,3.43,1.98,7.15,0,8.29-1.98,1.14-5.2-.71-7.18-4.15s-1.98-7.15,0-8.29Z" fill="none" stroke="#666bff" stroke-linecap="round" stroke-linejoin="round"/>
          <line x1="574.85" y1="235.54" x2="535.93" y2="258.02" fill="none" stroke="#666bff" stroke-linecap="round" stroke-linejoin="round"/>
          <line x1="528.75" y1="245.58" x2="567.67" y2="223.11" fill="none" stroke="#666bff" stroke-linecap="round" stroke-linejoin="round"/>
          <polygon points="406.59 129.48 406.59 137.83 413.95 142.09 413.95 133.73 406.59 129.48" fill="#4331e8"/>
        </g>
        <line x1="402.94" y1="280.06" x2="580.61" y2="382.66" fill="none" stroke="#fff" stroke-linecap="round" stroke-linejoin="round"/>
        <polygon points="402.94 122.86 580.61 225.46 580.63 218.07 402.96 115.47 402.94 122.86" fill="#4331e8"/>
        <line x1="580.63" y1="218.07" x2="580.61" y2="382.66" fill="none" stroke="#666bff" stroke-linecap="round" stroke-linejoin="round"/>
        <polygon points="424.88 210.8 473.42 238.83 473.43 180.77 424.89 152.74 424.88 210.8" fill="#4331e8"/>
      </g>
      <g>
        <polygon points="364.01 302.54 541.68 405.13 541.7 240.55 364.03 137.95 364.01 302.54" fill="url(#New_Gradient_Swatch_1)"/>
        <g>
          <line x1="492.23" y1="228.64" x2="484.42" y2="224.14" fill="none" stroke="#666bff" stroke-linecap="round" stroke-linejoin="round"/>
          <line x1="505.5" y1="236.31" x2="497.7" y2="231.8" fill="none" stroke="#666bff" stroke-linecap="round" stroke-linejoin="round"/>
          <line x1="518.78" y1="243.97" x2="510.98" y2="239.47" fill="none" stroke="#666bff" stroke-linecap="round" stroke-linejoin="round"/>
          <path d="M528.75,245.58c1.98-1.14,5.2,.71,7.18,4.15,1.98,3.43,1.98,7.15,0,8.29-1.98,1.14-5.2-.71-7.18-4.15s-1.98-7.15,0-8.29Z" fill="none" stroke="#fff" stroke-linecap="round" stroke-linejoin="round"/>
          <polygon points="367.66 151.95 367.66 160.31 375.02 164.56 375.02 156.2 367.66 151.95" fill="#fff"/>
        </g>
        <polygon points="385.77 175.81 457.16 217.04 457.17 203.37 385.77 162.14 385.77 175.81" fill="#fff"/>
        <line x1="364.01" y1="302.54" x2="541.68" y2="405.13" fill="none" stroke="#fff" stroke-linecap="round" stroke-linejoin="round"/>
        <polygon points="364.01 145.33 541.68 247.93 541.7 240.55 364.03 137.95 364.01 145.33" fill="#040919"/>
        <line x1="541.7" y1="240.55" x2="541.68" y2="405.13" fill="none" stroke="#666bff" stroke-linecap="round" stroke-linejoin="round"/>
        <ellipse cx="450.51" cy="206.08" rx="2.79" ry="4.04" transform="translate(-42.68 252.86) rotate(-30)" fill="none" stroke="#666bff" stroke-linecap="round" stroke-linejoin="round"/>
        <line x1="452.53" y1="209.58" x2="453.8" y2="211.89" fill="none" stroke="#666bff" stroke-linecap="round" stroke-linejoin="round"/>
      </g>
      <g>
        <rect x="501.51" y="311.33" width="7.98" height="7.98" fill="#040919"/>
        <rect x="509.49" y="303.35" width="7.98" height="7.98" fill="#040919"/>
        <rect x="501.51" y="303.35" width="7.98" height="7.98" fill="#040919"/>
        <rect x="501.51" y="277.66" width="7.98" height="7.98" fill="#040919"/>
        <polygon points="478.27 323.32 519.88 347.35 519.88 268.82 478.27 244.8 478.27 323.32" fill="none" stroke="#666bff" stroke-linecap="round" stroke-linejoin="round"/>
        <polygon points="501.6 357.9 519.88 347.35 519.88 268.82 501.61 279.37 501.6 357.9" fill="none" stroke="#666bff" stroke-linecap="round" stroke-linejoin="round"/>
        <polygon points="460 255.35 478.27 244.8 519.88 268.82 501.61 279.37 460 255.35" fill="none" stroke="#666bff" stroke-linecap="round" stroke-linejoin="round"/>
      </g>
      <g>
        <polygon points="325.08 325.01 502.75 427.61 502.77 263.02 325.1 160.43 325.08 325.01" fill="url(#linear-gradient-2)"/>
        <g>
          <polygon points="393.12 319.95 434.73 343.98 434.73 265.45 393.12 241.42 393.12 319.95" fill="#fff"/>
          <polygon points="439.22 346.56 480.82 370.59 480.83 292.06 439.22 268.04 439.22 346.56" fill="#fff"/>
          <line x1="337.63" y1="308.47" x2="368.42" y2="326.24" fill="none" stroke="#666bff" stroke-linecap="round" stroke-linejoin="round"/>
          <line x1="337.63" y1="312.89" x2="357.63" y2="324.43" fill="none" stroke="#666bff" stroke-linecap="round" stroke-linejoin="round"/>
          <line x1="393.12" y1="335.73" x2="423.9" y2="353.5" fill="none" stroke="#666bff" stroke-linecap="round" stroke-linejoin="round"/>
          <line x1="393.12" y1="340.15" x2="413.11" y2="351.69" fill="none" stroke="#666bff" stroke-linecap="round" stroke-linejoin="round"/>
          <line x1="439.22" y1="362.34" x2="470" y2="380.12" fill="none" stroke="#666bff" stroke-linecap="round" stroke-linejoin="round"/>
          <line x1="439.22" y1="366.77" x2="459.21" y2="378.31" fill="none" stroke="#666bff" stroke-linecap="round" stroke-linejoin="round"/>
          <polygon points="347.02 293.33 388.63 317.36 388.63 238.83 347.03 214.81 347.02 293.33" fill="#4331e8"/>
          <g>
            <line x1="453.3" y1="251.12" x2="445.5" y2="246.61" fill="none" stroke="#666bff" stroke-linecap="round" stroke-linejoin="round"/>
            <line x1="466.57" y1="258.78" x2="458.77" y2="254.28" fill="none" stroke="#666bff" stroke-linecap="round" stroke-linejoin="round"/>
            <line x1="479.85" y1="266.45" x2="472.05" y2="261.95" fill="none" stroke="#666bff" stroke-linecap="round" stroke-linejoin="round"/>
            <path d="M489.82,268.06c1.98-1.14,5.2,.71,7.18,4.15,1.98,3.43,1.98,7.15,0,8.29-1.98,1.14-5.2-.71-7.18-4.15s-1.98-7.15,0-8.29Z" fill="none" stroke="#666bff" stroke-linecap="round" stroke-linejoin="round"/>
            <polygon points="328.73 174.43 328.73 182.78 336.09 187.04 336.09 178.68 328.73 174.43" fill="#4331e8"/>
          </g>
        </g>
        <line x1="325.08" y1="325.01" x2="502.75" y2="427.61" fill="none" stroke="#fff" stroke-linecap="round" stroke-linejoin="round"/>
        <polygon points="325.08 167.81 502.75 270.41 502.77 263.02 325.1 160.43 325.08 167.81" fill="#040919"/>
        <line x1="502.77" y1="263.02" x2="502.75" y2="427.61" fill="none" stroke="#666bff" stroke-linecap="round" stroke-linejoin="round"/>
      </g>
      <g>
        <g>
          <polygon points="255.57 468.31 191.71 431.44 77.97 497.11 153.61 540.78 331.21 438.24 319.44 431.44 255.57 468.31" fill="#221380"/>
          <polygon points="255.57 380.97 179.93 424.64 255.57 468.31 331.21 424.64 255.57 380.97" fill="url(#New_Gradient_Swatch_1-2)"/>
          <line x1="255.57" y1="468.31" x2="331.21" y2="424.64" fill="none" stroke="#666bff" stroke-miterlimit="10"/>
          <line x1="179.93" y1="424.64" x2="255.57" y2="468.31" fill="none" stroke="#666bff" stroke-miterlimit="10"/>
          <g>
            <circle cx="255.57" cy="420" r=".7" fill="#666bff"/>
            <circle cx="263.61" cy="424.64" r=".7" fill="#666bff"/>
            <circle cx="255.57" cy="429.29" r=".7" fill="#666bff"/>
            <circle cx="271.66" cy="429.29" r=".7" fill="#666bff"/>
            <circle cx="263.61" cy="433.93" r=".7" fill="#666bff"/>
            <circle cx="255.57" cy="438.57" r=".7" fill="#666bff"/>
            <circle cx="279.7" cy="433.93" r=".7" fill="#666bff"/>
            <circle cx="271.66" cy="438.57" r=".7" fill="#666bff"/>
            <circle cx="263.61" cy="443.21" r=".7" fill="#666bff"/>
            <circle cx="255.57" cy="447.86" r=".7" fill="#666bff"/>
            <circle cx="279.7" cy="443.21" r=".7" fill="#666bff"/>
            <circle cx="271.66" cy="447.86" r=".7" fill="#666bff"/>
            <circle cx="287.74" cy="438.57" r=".7" fill="#666bff"/>
            <circle cx="263.61" cy="452.5" r=".7" fill="#666bff"/>
            <circle cx="255.57" cy="457.14" r=".7" fill="#666bff"/>
            <circle cx="247.53" cy="424.64" r=".7" fill="#666bff"/>
            <circle cx="271.66" cy="410.72" r=".7" fill="#666bff"/>
            <circle cx="279.7" cy="415.36" r=".7" fill="#666bff"/>
            <circle cx="271.66" cy="420" r=".7" fill="#666bff"/>
            <circle cx="287.74" cy="420" r=".7" fill="#666bff"/>
            <circle cx="279.7" cy="424.64" r=".7" fill="#666bff"/>
            <circle cx="295.78" cy="424.64" r=".7" fill="#666bff"/>
            <circle cx="287.74" cy="429.29" r=".7" fill="#666bff"/>
            <circle cx="295.78" cy="433.93" r=".7" fill="#666bff"/>
            <circle cx="303.82" cy="429.29" r=".7" fill="#666bff"/>
            <circle cx="263.61" cy="415.36" r=".7" fill="#666bff"/>
            <circle cx="287.74" cy="410.72" r=".7" fill="#666bff"/>
            <circle cx="295.78" cy="415.36" r=".7" fill="#666bff"/>
            <circle cx="303.82" cy="420" r=".7" fill="#666bff"/>
            <circle cx="311.86" cy="424.64" r=".7" fill="#666bff"/>
            <circle cx="279.7" cy="406.07" r=".7" fill="#666bff"/>
            <circle cx="239.49" cy="429.29" r=".7" fill="#666bff"/>
            <circle cx="247.53" cy="433.93" r=".7" fill="#666bff"/>
            <circle cx="231.45" cy="433.93" r=".7" fill="#666bff"/>
            <circle cx="239.49" cy="438.57" r=".7" fill="#666bff"/>
            <circle cx="247.53" cy="443.21" r=".7" fill="#666bff"/>
            <circle cx="231.45" cy="443.21" r=".7" fill="#666bff"/>
            <circle cx="239.49" cy="447.86" r=".7" fill="#666bff"/>
            <circle cx="223.41" cy="438.57" r=".7" fill="#666bff"/>
            <circle cx="247.53" cy="452.5" r=".7" fill="#666bff"/>
            <circle cx="231.45" cy="424.64" r=".7" fill="#666bff"/>
            <circle cx="223.41" cy="429.29" r=".7" fill="#666bff"/>
            <circle cx="247.53" cy="415.36" r=".7" fill="#666bff"/>
            <circle cx="239.49" cy="420" r=".7" fill="#666bff"/>
            <circle cx="255.57" cy="410.72" r=".7" fill="#666bff"/>
            <circle cx="215.37" cy="433.93" r=".7" fill="#666bff"/>
            <circle cx="231.45" cy="406.07" r=".7" fill="#666bff"/>
            <circle cx="223.41" cy="410.72" r=".7" fill="#666bff"/>
            <circle cx="215.37" cy="415.36" r=".7" fill="#666bff"/>
            <circle cx="207.32" cy="420" r=".7" fill="#666bff"/>
            <circle cx="231.45" cy="415.36" r=".7" fill="#666bff"/>
            <circle cx="223.41" cy="420" r=".7" fill="#666bff"/>
            <circle cx="239.49" cy="410.72" r=".7" fill="#666bff"/>
            <circle cx="215.37" cy="424.64" r=".7" fill="#666bff"/>
            <circle cx="207.32" cy="429.29" r=".7" fill="#666bff"/>
            <circle cx="263.61" cy="406.07" r=".7" fill="#666bff"/>
            <circle cx="247.53" cy="396.79" r=".7" fill="#666bff"/>
            <circle cx="239.49" cy="401.43" r=".7" fill="#666bff"/>
            <circle cx="247.53" cy="406.07" r=".7" fill="#666bff"/>
            <circle cx="255.57" cy="401.43" r=".7" fill="#666bff"/>
            <circle cx="271.66" cy="401.43" r=".7" fill="#666bff"/>
            <circle cx="255.57" cy="392.14" r=".7" fill="#666bff"/>
            <circle cx="263.61" cy="396.79" r=".7" fill="#666bff"/>
            <circle cx="199.28" cy="424.64" r=".7" fill="#666bff"/>
          </g>
        </g>
        <line x1="223.41" y1="410.02" x2="223.41" y2="390.74" fill="none" stroke="#fff" stroke-linecap="round" stroke-linejoin="round"/>
        <line x1="287.74" y1="429.29" x2="287.74" y2="385.39" fill="none" stroke="#fff" stroke-linecap="round" stroke-linejoin="round"/>
        <rect x="243.66" y="410.72" width="7.98" height="7.98" fill="#040919"/>
        <rect x="283.75" y="381.4" width="7.98" height="7.98" fill="#fff"/>
        <rect x="235.68" y="426.68" width="7.98" height="7.98" fill="#040919"/>
        <rect x="235.68" y="418.7" width="7.98" height="7.98" fill="#040919"/>
        <rect x="219.42" y="387.45" width="7.98" height="7.98" fill="#fff"/>
        <rect x="259.62" y="426.68" width="7.98" height="7.98" fill="#040919"/>
        <rect x="267.6" y="426.68" width="7.98" height="7.98" fill="#040919"/>
        <rect x="259.62" y="418.7" width="7.98" height="7.98" fill="#040919"/>
        <rect x="264.31" y="358.81" width="7.98" height="7.98" fill="#fff"/>
        <g>
          <line x1="179.93" y1="340.47" x2="179.93" y2="424.64" fill="none" stroke="#666bff" stroke-miterlimit="10"/>
          <polygon points="179.93 258.72 179.93 328.72 255.57 372.4 255.57 302.4 179.93 258.72" fill="url(#New_Gradient_Swatch_1-3)"/>
          <line x1="255.57" y1="302.4" x2="179.93" y2="258.72" fill="none" stroke="#fff" stroke-miterlimit="10"/>
          <path d="M223.6,307.32c5.49-3.17,14.38,1.97,19.87,11.47,5.49,9.5,5.49,19.78,0,22.95-5.49,3.17-14.38-1.97-19.87-11.47s-5.49-19.78,0-22.95Zm2.44,21.54c4.14,7.17,10.86,11.05,15,8.66,4.14-2.39,4.14-10.15,0-17.32-4.14-7.17-10.86-11.05-15-8.66-4.14,2.39-4.14,10.15,0,17.32Z" fill="#fff"/>
          <polygon points="166.76 329.42 209.52 354.1 209.52 314.82 166.76 290.13 166.76 329.42" fill="none" opacity=".7" stroke="#666bff" stroke-linecap="round" stroke-linejoin="round"/>
          <polygon points="166.76 283.89 209.52 308.57 209.52 296.19 166.76 271.5 166.76 283.89" fill="none" opacity=".7" stroke="#666bff" stroke-linecap="round" stroke-linejoin="round"/>
          <path d="M233.53,308.31h0l-.03,3.96c2.72,1.56,5.45,4.33,7.53,7.93,2.14,3.71,3.17,7.56,3.09,10.76l3.45,2.09c.09-4.23-1.27-9.35-4.11-14.25-2.74-4.75-6.34-8.41-9.94-10.49Z" fill="#666bff"/>
          <line x1="169.96" y1="278.27" x2="176.42" y2="282" fill="none" stroke="#fff" stroke-linecap="round" stroke-linejoin="round"/>
          <line x1="169.96" y1="297.89" x2="178.56" y2="302.85" fill="none" stroke="#fff" stroke-linecap="round" stroke-linejoin="round"/>
          <line x1="169.96" y1="281.39" x2="173.19" y2="283.25" fill="none" stroke="#fff" stroke-linecap="round" stroke-linejoin="round"/>
          <line x1="183.54" y1="286.11" x2="190" y2="289.84" fill="none" stroke="#fff" stroke-linecap="round" stroke-linejoin="round"/>
          <line x1="183.54" y1="289.23" x2="186.77" y2="291.09" fill="none" stroke="#fff" stroke-linecap="round" stroke-linejoin="round"/>
          <line x1="197.13" y1="293.95" x2="203.59" y2="297.68" fill="none" stroke="#fff" stroke-linecap="round" stroke-linejoin="round"/>
          <line x1="197.13" y1="297.07" x2="200.36" y2="298.93" fill="none" stroke="#fff" stroke-linecap="round" stroke-linejoin="round"/>
          <g>
            <line x1="189.44" y1="330.88" x2="189.44" y2="336.4" fill="none" stroke="#fff" stroke-linecap="round" stroke-linejoin="round"/>
            <line x1="194.03" y1="319.86" x2="194.03" y2="339.06" fill="none" stroke="#fff" stroke-linecap="round" stroke-linejoin="round"/>
            <line x1="198.62" y1="316.48" x2="198.62" y2="341.71" fill="none" stroke="#fff" stroke-linecap="round" stroke-linejoin="round"/>
            <line x1="203.22" y1="331.69" x2="203.22" y2="344.36" fill="none" stroke="#fff" stroke-linecap="round" stroke-linejoin="round"/>
          </g>
          <line x1="255.57" y1="302.4" x2="255.57" y2="468.31" fill="none" stroke="#666bff" stroke-miterlimit="10"/>
        </g>
      </g>
      <g>
        <polygon points="128.41 479.95 168.19 502.92 174.53 499.55 232.77 530.46 201.28 545.55 120.76 491.93 128.41 479.95" fill="#040919"/>
        <g>
          <path d="M117.74,477.29l.57,7.1c.7,4,5.58,4.04,5.87,1.7,.28-2.34,.3-8.8,.3-8.8" fill="#d0d3f5"/>
          <path d="M118.3,484.39l.07,4.64c.06,4,5.68,3.66,6.64,.85l3.39-9.92-3.93-2.66s-.02,6.46-.3,8.8c-.28,2.34-5.17,2.3-5.87-1.7Z" fill="#4331e8"/>
        </g>
        <path d="M103.58,345.56l-1.43,17.16c-.21,2.53,1.66,4.98,4.17,5.43l7.02,1.27-3.65-23.86h-6.11Z" fill="#666bff"/>
        <g>
          <polygon points="190.01 359.69 193.45 355.56 192.65 354.99 183.68 361.67 180.11 363.7 183.3 368.34 187.45 367.06 191.21 367.37 193.71 362.76 190.01 359.69" fill="#4331e8"/>
          <path d="M182.16,362.91v-5.24s2.11-.39,2.51,2.43,.53,3.35,.53,3.35l-3.04-.54Z" fill="#4331e8"/>
        </g>
        <g>
          <path d="M141.33,394.14l-30.76-7.65c-.49,3.2-.37,8.42,.25,11.6l6.11,31-2.77,13.57,3.57,34.63h6.73l7.21-54.55,2.29,.84,9.88,25.54-1.32,8.38,8.57,37.81,8.06-1.5-7.24-94.52-10.59-5.15Z" fill="#040919"/>
          <polyline points="133.97 423.58 143.85 449.12 142.53 457.49 151.1 495.31" fill="none" stroke="#4331e8" stroke-miterlimit="10"/>
          <path d="M110.57,386.48c-.49,3.2-.37,8.42,.25,11.6l6.11,31-2.77,13.57,3.57,34.63" fill="none" stroke="#4331e8" stroke-miterlimit="10"/>
          <path d="M151.92,399.29l-2.67-34.83,3.71-8.84-3.3-6.59c-1.03-2.07-3.52-4.69-5.53-5.84l-18.47-10.58-14.38,.81c-2.31,.13-4.73,2.05-5.38,4.26l-2.33,7.87,2.53,1.7,6.45,26.19-1.98,13.04,23.61,13.63c3.93,2.27,10.51,2.55,14.62,.63l3.12-1.46Z" fill="#d0d3f5"/>
          <path d="M143.73,370.19c-1.75,2.29-.08,4.24,1.58,6.73s2.47,5.99-1.69,9.31-2.13,9.06,.69,10.43,3.65,4.42,3.65,4.42l3.95-1.81-1.85-24.18-6.33-4.91Z" fill="#666bff"/>
        </g>
        <path d="M143.78,445.02l5.04,2.83s-5.41,9.32-2.47,14.64,2.44,9.09,2.44,9.09" fill="none" stroke="#4331e8" stroke-linecap="round" stroke-linejoin="round"/>
        <path d="M116.93,429.09l1.55,4.23,6.1,4.66-.55,2.38s-4.32-2.3-7.09,0" fill="none" stroke="#4331e8" stroke-linecap="round" stroke-linejoin="round"/>
        <path d="M152.96,355.61l7.44,17.43,19.7-9.35,3.19,4.64-22.12,15.79c-2.39,1.71-5.78,1.17-7.53-1.2l-14.19-19.23,13.5-8.09Z" fill="#d0d3f5"/>
        <polygon points="118.32 335.33 119.9 325.11 131 326.01 130.98 335.65 134.23 338.05 127.59 338.74 118.32 335.33" fill="#4331e8"/>
        <circle cx="127.59" cy="317.89" r="10.55" fill="#4331e8"/>
        <path d="M137.66,305.64l-7.7-1.78-1.22,2.85-.85-.16c-4.19-.77-8.46,.87-11.04,4.26-2.59,3.39-3.05,7.94-1.2,11.77l3.09,6.42,5.82,2.45,1.97-8.37,1.76-4.03,2.11-.8c1.18-.45,2.11-1.85,2.07-3.11l-.03-1.01c-.04-1.26,.87-2.69,2.04-3.17l.52-.22c1.17-.48,2.25-1.9,2.42-3.15l.26-1.96Z" fill="#040919"/>
        <path d="M128.74,306.71l-.85-.16c-4.19-.77-8.46,.87-11.04,4.26-2.59,3.39-3.05,7.94-1.2,11.77l3.09,6.42" fill="none" stroke="#4331e8" stroke-miterlimit="10"/>
        <line x1="137.66" y1="305.64" x2="129.96" y2="303.86" fill="none" stroke="#4331e8" stroke-miterlimit="10"/>
        <circle cx="127.59" cy="321.26" r="2.61" fill="#4331e8"/>
        <path d="M127.13,331.07l5.27,.99c2.02,.38,3.91-.97,4.21-3l1.43-9.69-5,1.1-5.9,10.6Z" fill="#4331e8"/>
        <polygon points="130.98 335.65 118.79 332.13 118.1 336.47 127.59 339.68 135.78 338.4 130.98 335.65" fill="#fff"/>
        <path d="M160.4,373.04c1.54,3.3,5.57,2.33,6.8-.74s4.64-4.68,4.64-4.68l-11.44,5.43Z" fill="#666bff"/>
        <line x1="141.12" y1="365.94" x2="150.32" y2="378.4" fill="none" stroke="#666bff" stroke-linecap="round" stroke-linejoin="round"/>
        <line x1="133.54" y1="367.31" x2="142.74" y2="379.78" fill="none" stroke="#666bff" stroke-linecap="round" stroke-linejoin="round"/>
        <g>
          <path d="M151.07,495.06l1.92,8.49c.98,.09,2.09,.34,2.91,.96,1.88,1.41,2.68-.24,3.29-2.45,.61-2.21,1.55-4.94,1.55-4.94h.01c-.85-.89-1.44-2.03-1.6-3.32" fill="#d0d3f5"/>
          <path d="M153.28,507.41c.13,3.22,3.57,2.8,6.93,1.53l13.25-5.01c2.6-.99,5.35-4.11,1.06-4.38l-9.9-.62c-1.52-.09-2.87-.78-3.86-1.81h-.01s-.94,2.73-1.55,4.94c-.61,2.21-1.41,3.86-3.29,2.45-.83-.62-1.93-.87-2.91-.96l.15,.42,.14,3.44Z" fill="#4331e8"/>
        </g>
      </g>
      <g>
        <polygon points="628.93 429 695.63 467.52 695.65 329.44 628.94 290.92 628.93 429" fill="#4331e8"/>
        <polygon points="628.93 298.33 695.63 336.85 695.65 329.44 628.94 290.92 628.93 298.33" fill="#d0d3f5"/>
        <polygon points="648.36 426.14 671.95 439.76 671.95 429.01 648.36 415.39 648.36 426.14" fill="#040919"/>
        <polygon points="634.75 361.37 690.37 393.49 690.37 404.2 634.75 372.08 634.75 361.37" fill="#fff"/>
        <polygon points="634.75 381.88 690.37 414 690.37 424.7 634.75 392.59 634.75 381.88" fill="#fff"/>
        <path d="M651.24,325.83c6.1-3.52,15.99,2.19,22.09,12.75,6.1,10.57,6.1,21.99,0,25.51-6.1,3.52-15.99-2.19-22.09-12.75-6.1-10.57-6.1-21.99,0-25.51Z" fill="none" stroke="#666bff" stroke-linecap="round" stroke-linejoin="round"/>
        <path d="M671.28,360.81c0-2.41-1.7-5.36-3.79-6.56l-10.43-6.02c-2.08-1.2-3.79-.22-3.79,2.19v4.06c5.38,7.51,12.62,11.69,18,10.4v-4.07Z" fill="#666bff"/>
        <ellipse cx="662.15" cy="341.81" rx="4.97" ry="7.54" transform="translate(-82.2 376.87) rotate(-30)" fill="#666bff"/>
      </g>
      <g>
        <line x1="321.58" y1="456.71" x2="385.91" y2="419.77" fill="none" stroke="#4331e8" stroke-linecap="round" stroke-linejoin="round"/>
        <g>
          <polygon points="361.79 529.64 297.93 492.77 286.15 499.57 361.79 543.24 437.43 499.57 425.65 492.77 361.79 529.64" fill="#221380"/>
          <polygon points="361.79 442.3 286.15 485.97 361.79 529.64 437.43 485.97 361.79 442.3" fill="url(#linear-gradient-3)"/>
          <line x1="361.79" y1="529.64" x2="437.43" y2="485.97" fill="none" stroke="#666bff" stroke-miterlimit="10"/>
          <line x1="286.15" y1="485.97" x2="361.79" y2="529.64" fill="none" stroke="#666bff" stroke-miterlimit="10"/>
          <polygon points="396.79 485.82 373.55 499.24 340.43 480.11 363.67 466.7 396.79 485.82" fill="#040919"/>
          <g>
            <circle cx="361.79" cy="481.33" r=".7" fill="#4331e8"/>
            <circle cx="369.83" cy="485.97" r=".7" fill="#4331e8"/>
            <circle cx="361.79" cy="490.61" r=".7" fill="#4331e8"/>
            <circle cx="377.87" cy="490.61" r=".7" fill="#4331e8"/>
            <circle cx="369.83" cy="495.25" r=".7" fill="#4331e8"/>
            <circle cx="361.79" cy="499.9" r=".7" fill="#4331e8"/>
            <circle cx="385.91" cy="495.25" r=".7" fill="#4331e8"/>
            <circle cx="377.87" cy="499.9" r=".7" fill="#4331e8"/>
            <circle cx="369.83" cy="504.54" r=".7" fill="#4331e8"/>
            <circle cx="361.79" cy="509.18" r=".7" fill="#4331e8"/>
            <circle cx="385.91" cy="504.54" r=".7" fill="#4331e8"/>
            <circle cx="377.87" cy="509.18" r=".7" fill="#4331e8"/>
            <circle cx="393.96" cy="499.9" r=".7" fill="#4331e8"/>
            <circle cx="369.83" cy="513.82" r=".7" fill="#4331e8"/>
            <circle cx="361.79" cy="518.47" r=".7" fill="#4331e8"/>
            <circle cx="353.75" cy="485.97" r=".7" fill="#4331e8"/>
            <circle cx="377.87" cy="472.04" r=".7" fill="#4331e8"/>
            <circle cx="385.91" cy="476.68" r=".7" fill="#4331e8"/>
            <circle cx="377.87" cy="481.33" r=".7" fill="#4331e8"/>
            <circle cx="393.96" cy="481.33" r=".7" fill="#4331e8"/>
            <circle cx="385.91" cy="485.97" r=".7" fill="#4331e8"/>
            <circle cx="402" cy="485.97" r=".7" fill="#4331e8"/>
            <circle cx="393.96" cy="490.61" r=".7" fill="#4331e8"/>
            <circle cx="402" cy="495.25" r=".7" fill="#4331e8"/>
            <circle cx="410.04" cy="490.61" r=".7" fill="#4331e8"/>
            <circle cx="369.83" cy="476.68" r=".7" fill="#4331e8"/>
            <circle cx="393.96" cy="472.04" r=".7" fill="#4331e8"/>
            <circle cx="402" cy="476.68" r=".7" fill="#4331e8"/>
            <circle cx="410.04" cy="481.33" r=".7" fill="#4331e8"/>
            <circle cx="418.08" cy="485.97" r=".7" fill="#4331e8"/>
            <circle cx="385.91" cy="467.4" r=".7" fill="#4331e8"/>
            <circle cx="345.71" cy="490.61" r=".7" fill="#4331e8"/>
            <circle cx="353.75" cy="495.25" r=".7" fill="#4331e8"/>
            <circle cx="337.67" cy="495.25" r=".7" fill="#4331e8"/>
            <circle cx="345.71" cy="499.9" r=".7" fill="#4331e8"/>
            <circle cx="353.75" cy="504.54" r=".7" fill="#4331e8"/>
            <circle cx="337.67" cy="504.54" r=".7" fill="#4331e8"/>
            <circle cx="345.71" cy="509.18" r=".7" fill="#4331e8"/>
            <circle cx="329.62" cy="499.9" r=".7" fill="#4331e8"/>
            <circle cx="353.75" cy="513.82" r=".7" fill="#4331e8"/>
            <circle cx="337.67" cy="485.97" r=".7" fill="#4331e8"/>
            <circle cx="329.62" cy="490.61" r=".7" fill="#4331e8"/>
            <circle cx="353.75" cy="476.68" r=".7" fill="#4331e8"/>
            <circle cx="345.71" cy="481.33" r=".7" fill="#4331e8"/>
            <circle cx="361.79" cy="472.04" r=".7" fill="#4331e8"/>
            <circle cx="321.58" cy="495.25" r=".7" fill="#4331e8"/>
            <circle cx="337.67" cy="467.4" r=".7" fill="#4331e8"/>
            <circle cx="329.62" cy="472.04" r=".7" fill="#4331e8"/>
            <circle cx="321.58" cy="476.68" r=".7" fill="#4331e8"/>
            <circle cx="313.54" cy="481.33" r=".7" fill="#4331e8"/>
            <circle cx="337.67" cy="476.68" r=".7" fill="#4331e8"/>
            <circle cx="329.62" cy="481.33" r=".7" fill="#4331e8"/>
            <circle cx="345.71" cy="472.04" r=".7" fill="#4331e8"/>
            <circle cx="321.58" cy="485.97" r=".7" fill="#4331e8"/>
            <circle cx="313.54" cy="490.61" r=".7" fill="#4331e8"/>
            <circle cx="369.83" cy="467.4" r=".7" fill="#4331e8"/>
            <circle cx="353.75" cy="458.11" r=".7" fill="#4331e8"/>
            <circle cx="345.71" cy="462.75" r=".7" fill="#4331e8"/>
            <circle cx="353.75" cy="467.4" r=".7" fill="#4331e8"/>
            <circle cx="361.79" cy="462.75" r=".7" fill="#4331e8"/>
            <circle cx="377.87" cy="462.75" r=".7" fill="#4331e8"/>
            <circle cx="361.79" cy="453.47" r=".7" fill="#4331e8"/>
            <circle cx="369.83" cy="458.11" r=".7" fill="#4331e8"/>
            <circle cx="305.5" cy="485.97" r=".7" fill="#4331e8"/>
          </g>
        </g>
        <g>
          <ellipse cx="365.4" cy="431.62" rx="9.74" ry="14.77" transform="translate(-166.85 240.53) rotate(-30)" fill="none" stroke="#4331e8" stroke-linecap="round" stroke-linejoin="round"/>
          <path d="M375.89,456c4.08,2.36,7.43,8.15,7.43,12.86v20.51l-35.29-20.38v-20.51c0-4.72,3.34-6.64,7.43-4.29l20.44,11.8Z" fill="none" stroke="#4331e8" stroke-linecap="round" stroke-linejoin="round"/>
          <path d="M368.3,460.38c4.08,2.36,7.43,8.15,7.43,12.86v20.51l-35.29-20.38v-20.51c0-4.72,3.34-6.64,7.43-4.29l20.44,11.8Z" fill="#666bff"/>
          <ellipse cx="357.81" cy="436" rx="9.74" ry="14.77" transform="translate(-170.06 237.32) rotate(-30)" fill="#666bff"/>
        </g>
        <g>
          <polyline points="385.91 419.77 402 451.63 353.75 500.22 321.58 456.71" fill="none" stroke="#4331e8" stroke-linecap="round" stroke-linejoin="round"/>
          <line x1="321.58" y1="485.97" x2="321.58" y2="456.71" fill="none" stroke="#fff" stroke-linecap="round" stroke-linejoin="round"/>
          <line x1="402" y1="476.68" x2="402" y2="451.63" fill="none" stroke="#fff" stroke-linecap="round" stroke-linejoin="round"/>
          <line x1="353.75" y1="513.82" x2="353.75" y2="500.22" fill="none" stroke="#fff" stroke-linecap="round" stroke-linejoin="round"/>
          <rect x="349.76" y="496.23" width="7.98" height="7.98" fill="#fff"/>
          <rect x="317.59" y="453.42" width="7.98" height="7.98" fill="#fff"/>
          <rect x="381.92" y="415.78" width="7.98" height="7.98" fill="#fff"/>
          <rect x="398.01" y="447.64" width="7.98" height="7.98" fill="#fff"/>
        </g>
      </g>
      <polygon points="337.63 298.75 379.24 322.78 379.25 244.25 337.64 220.23 337.63 298.75" fill="none" stroke="#666bff" stroke-linecap="round" stroke-linejoin="round"/>
      <line x1="537.39" y1="255.22" x2="628.93" y2="308.07" fill="none" stroke="#666bff" stroke-miterlimit="10"/>
      <line x1="537.39" y1="255.22" x2="541.7" y2="257.71" fill="none" stroke="#fff" stroke-miterlimit="10"/>
      <polygon points="628.15 489.29 687.67 523.65 700.94 515.99 641.43 481.63 628.15 489.29" fill="#221380"/>
      <polyline points="411.39 470.94 484.22 430.74 638.9 520.04 660.16 507.77 660.16 447.04" fill="none" stroke="#666bff" stroke-miterlimit="10"/>
    </g>
  </g>
</svg>