<svg version="1.0" xmlns="http://www.w3.org/2000/svg" viewBox="0 0 300 300"
 preserveAspectRatio="xMidYMid meet">
<g transform="translate(0,300) scale(0.05,-0.05)"
fill="currentColor" stroke="none">
<path d="M3676 5199 c-79 -42 -208 -159 -260 -235 l-32 -47 -137 43 c-567 176
-1222 171 -1684 -13 -278 -111 -525 -308 -484 -386 37 -68 76 -60 199 39 493
395 1451 445 2155 111 228 -108 199 -104 238 -29 31 61 6 115 -56 117 -40 2
-6 65 70 130 247 212 225 -194 -25 -453 -147 -152 -252 -118 -200 66 28 97 29
95 -73 139 -114 49 -109 56 -174 -201 -65 -258 -69 -267 -1062 -2160 -435
-830 -788 -1519 -784 -1530 35 -108 75 -52 1073 1524 1133 1789 1043 1656
1297 1916 213 218 304 370 346 577 67 334 -140 533 -407 392z"/>
<path d="M3969 4415 l-41 -63 66 -131 c162 -319 133 -538 -145 -1105 -365
-744 -321 -1160 147 -1390 576 -283 1247 529 791 956 -106 100 -159 -15 -76
-167 259 -477 -436 -936 -803 -530 -222 246 -206 478 76 1041 308 618 341 959
127 1324 -75 129 -95 137 -142 65z"/>
</g>
</svg>
